G75*
G70*
%OFA0B0*%
%FSLAX24Y24*%
%IPPOS*%
%LPD*%
%AMOC8*
5,1,8,0,0,1.08239X$1,22.5*
%
%ADD10C,0.0000*%
%ADD11C,0.0060*%
%ADD12C,0.0040*%
%ADD13C,0.0080*%
D10*
X008885Y008783D02*
X008885Y020594D01*
X037388Y020594D01*
X037388Y008783D01*
X008885Y008783D01*
D11*
X007236Y006561D02*
X006809Y006134D01*
X006916Y006240D02*
X007236Y005920D01*
X006809Y005920D02*
X006809Y006561D01*
X006591Y006454D02*
X006485Y006561D01*
X006271Y006561D01*
X006164Y006454D01*
X006164Y006027D01*
X006271Y005920D01*
X006485Y005920D01*
X006591Y006027D01*
X005947Y005920D02*
X005947Y006347D01*
X005733Y006561D01*
X005520Y006347D01*
X005520Y005920D01*
X005520Y006240D02*
X005947Y006240D01*
X005302Y006561D02*
X004875Y006561D01*
X005089Y006561D02*
X005089Y005920D01*
X004658Y006027D02*
X004658Y006134D01*
X004551Y006240D01*
X004337Y006240D01*
X004231Y006347D01*
X004231Y006454D01*
X004337Y006561D01*
X004551Y006561D01*
X004658Y006454D01*
X004658Y006027D02*
X004551Y005920D01*
X004337Y005920D01*
X004231Y006027D01*
X004013Y006240D02*
X003586Y006240D01*
X003369Y006240D02*
X003262Y006134D01*
X002942Y006134D01*
X003155Y006134D02*
X003369Y005920D01*
X003369Y006240D02*
X003369Y006454D01*
X003262Y006561D01*
X002942Y006561D01*
X002942Y005920D01*
X002724Y005920D02*
X002297Y005920D01*
X002297Y006561D01*
X002724Y006561D01*
X002510Y006240D02*
X002297Y006240D01*
X002079Y006454D02*
X002079Y006561D01*
X002079Y006454D02*
X001866Y006240D01*
X001866Y005920D01*
X001866Y006240D02*
X001652Y006454D01*
X001652Y006561D01*
X001435Y006347D02*
X001435Y005920D01*
X001435Y006240D02*
X001008Y006240D01*
X001008Y006347D02*
X001008Y005920D01*
X000790Y005920D02*
X000363Y005920D01*
X000363Y006561D01*
X001008Y006347D02*
X001221Y006561D01*
X001435Y006347D01*
X004213Y005299D02*
X004213Y004872D01*
X004640Y005299D01*
X004640Y004872D01*
X004534Y004765D01*
X004320Y004765D01*
X004213Y004872D01*
X004858Y004765D02*
X005285Y004765D01*
X005071Y004765D02*
X005071Y005406D01*
X004858Y005192D01*
X004640Y005299D02*
X004534Y005406D01*
X004320Y005406D01*
X004213Y005299D01*
X005502Y005085D02*
X005929Y005085D01*
X006147Y005192D02*
X006360Y005406D01*
X006360Y004765D01*
X006147Y004765D02*
X006574Y004765D01*
X006792Y004872D02*
X006898Y004765D01*
X007112Y004765D01*
X007219Y004872D01*
X007219Y004979D01*
X007112Y005085D01*
X006792Y005085D01*
X006792Y004872D01*
X006792Y005085D02*
X007005Y005299D01*
X007219Y005406D01*
D12*
X007683Y005890D02*
X007683Y007040D01*
X007963Y006680D02*
X008073Y006791D01*
X008294Y006791D01*
X008404Y006680D01*
X008608Y006570D02*
X008608Y006240D01*
X008718Y006130D01*
X009048Y006130D01*
X009048Y006020D02*
X008938Y005910D01*
X008828Y005910D01*
X009048Y006020D02*
X009048Y006570D01*
X009252Y006570D02*
X009363Y006570D01*
X009473Y006460D01*
X009583Y006570D01*
X009693Y006460D01*
X009693Y006130D01*
X009473Y006130D02*
X009473Y006460D01*
X009252Y006570D02*
X009252Y006130D01*
X009983Y005890D02*
X009983Y004740D01*
X009983Y003590D01*
X009983Y002440D01*
X009983Y001290D01*
X009983Y000140D01*
X011483Y000140D01*
X014583Y000140D01*
X014583Y001290D01*
X014583Y002440D01*
X014583Y003590D01*
X014583Y004740D01*
X014583Y005890D01*
X017683Y005890D01*
X017683Y004740D01*
X017683Y003590D01*
X017683Y002440D01*
X017683Y001290D01*
X017683Y000140D01*
X019983Y000140D01*
X024583Y000140D01*
X029983Y000140D01*
X029983Y001290D01*
X029983Y002440D01*
X029983Y003590D01*
X029983Y004740D01*
X029983Y005890D01*
X029983Y007040D01*
X028881Y006570D02*
X028661Y006791D01*
X028457Y006791D02*
X028457Y006130D01*
X028661Y006130D02*
X028881Y006350D01*
X028881Y006570D01*
X028457Y006791D02*
X028237Y006570D01*
X028016Y006791D01*
X028016Y006130D01*
X027812Y006130D02*
X027812Y006791D01*
X027592Y006570D01*
X027372Y006791D01*
X027372Y006130D01*
X027162Y006130D02*
X026942Y006350D01*
X026942Y006570D01*
X027162Y006791D01*
X026623Y006791D02*
X026623Y006130D01*
X026733Y006130D02*
X026512Y006130D01*
X026308Y006240D02*
X026308Y006460D01*
X026198Y006570D01*
X025978Y006570D01*
X025868Y006460D01*
X025868Y006240D01*
X025978Y006130D01*
X026198Y006130D01*
X026308Y006240D01*
X026308Y005641D02*
X025868Y004980D01*
X025444Y005090D02*
X025444Y005530D01*
X025223Y005310D02*
X025664Y005310D01*
X026512Y005310D02*
X026953Y005310D01*
X027157Y005090D02*
X027597Y005530D01*
X027597Y005090D01*
X027487Y004980D01*
X027267Y004980D01*
X027157Y005090D01*
X027157Y005530D01*
X027267Y005641D01*
X027487Y005641D01*
X027597Y005530D01*
X028124Y005530D02*
X028234Y005641D01*
X028454Y005641D01*
X028564Y005530D01*
X028124Y005090D01*
X028234Y004980D01*
X028454Y004980D01*
X028564Y005090D01*
X028564Y005530D01*
X028768Y005641D02*
X028768Y005310D01*
X028989Y005420D01*
X029099Y005420D01*
X029209Y005310D01*
X029209Y005090D01*
X029099Y004980D01*
X028878Y004980D01*
X028768Y005090D01*
X028124Y005090D02*
X028124Y005530D01*
X028768Y005641D02*
X029209Y005641D01*
X029983Y005890D02*
X024583Y005890D01*
X024583Y004740D01*
X024583Y003590D01*
X024583Y002440D01*
X024583Y001290D01*
X024583Y000140D01*
X025444Y000490D02*
X025444Y000930D01*
X025223Y000710D02*
X025664Y000710D01*
X025868Y000380D02*
X026308Y001041D01*
X026512Y000710D02*
X026953Y000710D01*
X027157Y000490D02*
X027597Y000930D01*
X027597Y000490D01*
X027487Y000380D01*
X027267Y000380D01*
X027157Y000490D01*
X027157Y000930D01*
X027267Y001041D01*
X027487Y001041D01*
X027597Y000930D01*
X028124Y000930D02*
X028234Y001041D01*
X028454Y001041D01*
X028564Y000930D01*
X028124Y000490D01*
X028234Y000380D01*
X028454Y000380D01*
X028564Y000490D01*
X028564Y000930D01*
X028768Y001041D02*
X028768Y000710D01*
X028989Y000820D01*
X029099Y000820D01*
X029209Y000710D01*
X029209Y000490D01*
X029099Y000380D01*
X028878Y000380D01*
X028768Y000490D01*
X028124Y000490D02*
X028124Y000930D01*
X028768Y001041D02*
X029209Y001041D01*
X029983Y001290D02*
X024583Y001290D01*
X019983Y001290D01*
X019983Y000140D01*
X019348Y000490D02*
X019238Y000380D01*
X019018Y000380D01*
X018908Y000490D01*
X019348Y000930D01*
X019348Y000490D01*
X018908Y000490D02*
X018908Y000930D01*
X019018Y001041D01*
X019238Y001041D01*
X019348Y000930D01*
X019983Y001290D02*
X019983Y002440D01*
X024583Y002440D01*
X029983Y002440D01*
X029209Y002191D02*
X028768Y002191D01*
X028768Y001860D01*
X028989Y001970D01*
X029099Y001970D01*
X029209Y001860D01*
X029209Y001640D01*
X029099Y001530D01*
X028878Y001530D01*
X028768Y001640D01*
X028564Y001640D02*
X028454Y001530D01*
X028234Y001530D01*
X028124Y001640D01*
X028564Y002080D01*
X028564Y001640D01*
X028124Y001640D02*
X028124Y002080D01*
X028234Y002191D01*
X028454Y002191D01*
X028564Y002080D01*
X027912Y001640D02*
X027912Y001530D01*
X027802Y001530D01*
X027802Y001640D01*
X027912Y001640D01*
X027597Y001640D02*
X027487Y001530D01*
X027267Y001530D01*
X027157Y001640D01*
X027597Y002080D01*
X027597Y001640D01*
X027157Y001640D02*
X027157Y002080D01*
X027267Y002191D01*
X027487Y002191D01*
X027597Y002080D01*
X026953Y001860D02*
X026512Y001860D01*
X026308Y002191D02*
X025868Y001530D01*
X025664Y001860D02*
X025223Y001860D01*
X025444Y002080D02*
X025444Y001640D01*
X025868Y002680D02*
X026308Y003341D01*
X026512Y003010D02*
X026953Y003010D01*
X027157Y002790D02*
X027597Y003230D01*
X027597Y002790D01*
X027487Y002680D01*
X027267Y002680D01*
X027157Y002790D01*
X027157Y003230D01*
X027267Y003341D01*
X027487Y003341D01*
X027597Y003230D01*
X028124Y003230D02*
X028234Y003341D01*
X028454Y003341D01*
X028564Y003230D01*
X028124Y002790D01*
X028234Y002680D01*
X028454Y002680D01*
X028564Y002790D01*
X028564Y003230D01*
X028768Y003341D02*
X028768Y003010D01*
X028989Y003120D01*
X029099Y003120D01*
X029209Y003010D01*
X029209Y002790D01*
X029099Y002680D01*
X028878Y002680D01*
X028768Y002790D01*
X028124Y002790D02*
X028124Y003230D01*
X028768Y003341D02*
X029209Y003341D01*
X029099Y003830D02*
X028878Y003830D01*
X028768Y003940D01*
X028564Y003940D02*
X028454Y003830D01*
X028234Y003830D01*
X028124Y003940D01*
X028564Y004380D01*
X028564Y003940D01*
X028768Y004160D02*
X028989Y004270D01*
X029099Y004270D01*
X029209Y004160D01*
X029209Y003940D01*
X029099Y003830D01*
X028768Y004160D02*
X028768Y004491D01*
X029209Y004491D01*
X028564Y004380D02*
X028454Y004491D01*
X028234Y004491D01*
X028124Y004380D01*
X028124Y003940D01*
X027912Y003940D02*
X027912Y003830D01*
X027802Y003830D01*
X027802Y003940D01*
X027912Y003940D01*
X027597Y003940D02*
X027487Y003830D01*
X027267Y003830D01*
X027157Y003940D01*
X027597Y004380D01*
X027597Y003940D01*
X027157Y003940D02*
X027157Y004380D01*
X027267Y004491D01*
X027487Y004491D01*
X027597Y004380D01*
X027802Y004980D02*
X027912Y004980D01*
X027912Y005090D01*
X027802Y005090D01*
X027802Y004980D01*
X026953Y004160D02*
X026512Y004160D01*
X026308Y004491D02*
X025868Y003830D01*
X025444Y003940D02*
X025444Y004380D01*
X025223Y004160D02*
X025664Y004160D01*
X024583Y003590D02*
X029983Y003590D01*
X029983Y004740D02*
X024583Y004740D01*
X019983Y004740D01*
X019983Y003590D01*
X019983Y002440D01*
X017683Y002440D01*
X014583Y002440D01*
X011483Y002440D01*
X011483Y001290D01*
X011483Y000140D01*
X010894Y000490D02*
X010784Y000380D01*
X010563Y000380D01*
X010453Y000490D01*
X010453Y000710D02*
X010674Y000820D01*
X010784Y000820D01*
X010894Y000710D01*
X010894Y000490D01*
X010453Y000710D02*
X010453Y001041D01*
X010894Y001041D01*
X011483Y001290D02*
X014583Y001290D01*
X017683Y001290D01*
X019983Y001290D01*
X019348Y001640D02*
X019238Y001530D01*
X019018Y001530D01*
X018908Y001640D01*
X018908Y001860D02*
X019128Y001970D01*
X019238Y001970D01*
X019348Y001860D01*
X019348Y001640D01*
X018908Y001860D02*
X018908Y002191D01*
X019348Y002191D01*
X019238Y002680D02*
X019018Y002680D01*
X018908Y002790D01*
X019348Y003230D01*
X019348Y002790D01*
X019238Y002680D01*
X018908Y002790D02*
X018908Y003230D01*
X019018Y003341D01*
X019238Y003341D01*
X019348Y003230D01*
X019983Y003590D02*
X024583Y003590D01*
X025444Y003230D02*
X025444Y002790D01*
X025223Y003010D02*
X025664Y003010D01*
X027802Y002790D02*
X027912Y002790D01*
X027912Y002680D01*
X027802Y002680D01*
X027802Y002790D01*
X027802Y000490D02*
X027912Y000490D01*
X027912Y000380D01*
X027802Y000380D01*
X027802Y000490D01*
X023143Y000490D02*
X023033Y000380D01*
X022813Y000380D01*
X022702Y000490D01*
X022498Y000380D02*
X022058Y000380D01*
X022058Y001041D01*
X022498Y001041D01*
X022702Y000930D02*
X022702Y000820D01*
X022813Y000710D01*
X023033Y000710D01*
X023143Y000600D01*
X023143Y000490D01*
X023143Y000930D02*
X023033Y001041D01*
X022813Y001041D01*
X022702Y000930D01*
X022278Y000710D02*
X022058Y000710D01*
X021854Y000930D02*
X021854Y001041D01*
X021854Y000930D02*
X021634Y000710D01*
X021634Y000380D01*
X021634Y000710D02*
X021413Y000930D01*
X021413Y001041D01*
X021634Y001530D02*
X021634Y001860D01*
X021854Y002080D01*
X021854Y002191D01*
X022058Y002191D02*
X022058Y001530D01*
X022498Y001530D01*
X022702Y001640D02*
X022813Y001530D01*
X023033Y001530D01*
X023143Y001640D01*
X023143Y001750D01*
X023033Y001860D01*
X022813Y001860D01*
X022702Y001970D01*
X022702Y002080D01*
X022813Y002191D01*
X023033Y002191D01*
X023143Y002080D01*
X022498Y002191D02*
X022058Y002191D01*
X021634Y001860D02*
X021413Y002080D01*
X021413Y002191D01*
X021634Y002680D02*
X021634Y003010D01*
X021854Y003230D01*
X021854Y003341D01*
X022058Y003341D02*
X022058Y002680D01*
X022498Y002680D01*
X022702Y002790D02*
X022813Y002680D01*
X023033Y002680D01*
X023143Y002790D01*
X023143Y002900D01*
X023033Y003010D01*
X022813Y003010D01*
X022702Y003120D01*
X022702Y003230D01*
X022813Y003341D01*
X023033Y003341D01*
X023143Y003230D01*
X022498Y003341D02*
X022058Y003341D01*
X021634Y003010D02*
X021413Y003230D01*
X021413Y003341D01*
X021634Y003830D02*
X021634Y004160D01*
X021854Y004380D01*
X021854Y004491D01*
X022058Y004491D02*
X022058Y003830D01*
X022498Y003830D01*
X022702Y003940D02*
X022813Y003830D01*
X023033Y003830D01*
X023143Y003940D01*
X023143Y004050D01*
X023033Y004160D01*
X022813Y004160D01*
X022702Y004270D01*
X022702Y004380D01*
X022813Y004491D01*
X023033Y004491D01*
X023143Y004380D01*
X023033Y004980D02*
X022813Y004980D01*
X022702Y005090D01*
X022498Y004980D02*
X022058Y004980D01*
X022058Y005641D01*
X022498Y005641D01*
X022702Y005530D02*
X022702Y005420D01*
X022813Y005310D01*
X023033Y005310D01*
X023143Y005200D01*
X023143Y005090D01*
X023033Y004980D01*
X022498Y004491D02*
X022058Y004491D01*
X022058Y004160D02*
X022278Y004160D01*
X021634Y004160D02*
X021413Y004380D01*
X021413Y004491D01*
X021634Y004980D02*
X021634Y005310D01*
X021854Y005530D01*
X021854Y005641D01*
X021634Y005310D02*
X021413Y005530D01*
X021413Y005641D01*
X021388Y006130D02*
X021168Y006130D01*
X021278Y006130D02*
X021278Y006791D01*
X021168Y006791D01*
X020964Y006680D02*
X020964Y006460D01*
X020854Y006350D01*
X020523Y006350D01*
X020523Y006130D02*
X020523Y006791D01*
X020854Y006791D01*
X020964Y006680D01*
X021708Y006570D02*
X021928Y006570D01*
X022038Y006460D01*
X022038Y006130D01*
X021708Y006130D01*
X021598Y006240D01*
X021708Y006350D01*
X022038Y006350D01*
X022242Y006570D02*
X022462Y006570D01*
X022352Y006680D02*
X022352Y006240D01*
X022462Y006130D01*
X022672Y006240D02*
X022672Y006460D01*
X022782Y006570D01*
X023002Y006570D01*
X023112Y006460D01*
X023112Y006350D01*
X022672Y006350D01*
X022672Y006240D02*
X022782Y006130D01*
X023002Y006130D01*
X023316Y006240D02*
X023316Y006460D01*
X023426Y006570D01*
X023757Y006570D01*
X023757Y006791D02*
X023757Y006130D01*
X023426Y006130D01*
X023316Y006240D01*
X023033Y005641D02*
X022813Y005641D01*
X022702Y005530D01*
X023033Y005641D02*
X023143Y005530D01*
X022278Y005310D02*
X022058Y005310D01*
X019983Y004740D02*
X019983Y005890D01*
X024583Y005890D01*
X024583Y007040D01*
X025223Y006791D02*
X025664Y006791D01*
X025444Y006791D02*
X025444Y006130D01*
X026512Y006791D02*
X026623Y006791D01*
X027385Y009103D02*
X027385Y009503D01*
X027185Y009303D02*
X027585Y009303D01*
X027685Y009983D02*
X028085Y009983D01*
X027685Y010383D01*
X028085Y010383D01*
X027685Y009983D01*
X027085Y009983D02*
X026685Y010383D01*
X027085Y010383D01*
X026685Y009983D01*
X027085Y009983D01*
X026085Y009333D02*
X025685Y009333D01*
X025885Y009533D02*
X025885Y009133D01*
X025485Y009833D02*
X025485Y010233D01*
X025285Y010033D02*
X025685Y010033D01*
X025735Y010483D02*
X025735Y010883D01*
X025535Y010683D02*
X025935Y010683D01*
X026685Y010983D02*
X027085Y010983D01*
X026685Y011383D01*
X027085Y011383D01*
X026685Y010983D01*
X027685Y010983D02*
X028085Y010983D01*
X027685Y011383D01*
X028085Y011383D01*
X027685Y010983D01*
X028385Y010433D02*
X028785Y010433D01*
X029035Y010433D02*
X029435Y010433D01*
X029235Y010633D02*
X029235Y010233D01*
X028585Y010233D02*
X028585Y010633D01*
X030085Y010033D02*
X030485Y010033D01*
X030585Y010033D02*
X030985Y010033D01*
X030785Y010233D02*
X030785Y009833D01*
X030285Y009833D02*
X030285Y010233D01*
X031385Y009563D02*
X031385Y009163D01*
X031185Y009363D02*
X031585Y009363D01*
X032035Y009833D02*
X032435Y009833D01*
X032035Y010233D01*
X032435Y010233D01*
X032035Y009833D01*
X033035Y009833D02*
X033435Y009833D01*
X033035Y010233D01*
X033435Y010233D01*
X033035Y009833D01*
X033635Y009363D02*
X034035Y009363D01*
X033835Y009563D02*
X033835Y009163D01*
X034035Y009833D02*
X034435Y009833D01*
X034035Y010233D01*
X034435Y010233D01*
X034035Y009833D01*
X034035Y010833D02*
X034435Y010833D01*
X034035Y011233D01*
X034435Y011233D01*
X034035Y010833D01*
X033435Y010833D02*
X033035Y011233D01*
X033435Y011233D01*
X033035Y010833D01*
X033435Y010833D01*
X032435Y010833D02*
X032035Y011233D01*
X032435Y011233D01*
X032035Y010833D01*
X032435Y010833D01*
X033881Y011533D02*
X033881Y011933D01*
X033681Y011733D02*
X034081Y011733D01*
X032835Y011883D02*
X032435Y012283D01*
X032285Y012183D02*
X031585Y012183D01*
X031585Y012283D02*
X031185Y011883D01*
X030935Y011883D02*
X030535Y012283D01*
X030935Y012283D02*
X030535Y011883D01*
X031185Y012283D02*
X031585Y011883D01*
X031785Y011983D02*
X031785Y012383D01*
X032085Y012383D02*
X032085Y011983D01*
X032435Y011883D02*
X032835Y012283D01*
X033435Y012983D02*
X033435Y013383D01*
X033235Y013183D02*
X033635Y013183D01*
X033955Y013183D02*
X034735Y013183D01*
X034535Y013383D02*
X034535Y012983D01*
X034155Y012983D02*
X034155Y013383D01*
X032185Y013183D02*
X031785Y013183D01*
X031985Y013383D02*
X031985Y012983D01*
X030285Y013683D02*
X029885Y013683D01*
X030085Y013883D02*
X030085Y013483D01*
X029185Y013483D02*
X028785Y013083D01*
X028785Y013483D02*
X029185Y013083D01*
X029135Y012763D02*
X029135Y012363D01*
X028935Y012563D02*
X029335Y012563D01*
X028085Y012383D02*
X027685Y011983D01*
X028085Y011983D01*
X027685Y012383D01*
X028085Y012383D01*
X028085Y012983D02*
X027685Y012983D01*
X028085Y013383D01*
X027685Y013383D01*
X028085Y012983D01*
X027085Y012983D02*
X026685Y013383D01*
X027085Y013383D01*
X026685Y012983D01*
X027085Y012983D01*
X027085Y012383D02*
X026685Y012383D01*
X027085Y011983D01*
X026685Y011983D01*
X027085Y012383D01*
X026085Y012183D02*
X025685Y012183D01*
X025885Y012383D02*
X025885Y011983D01*
X025885Y012983D02*
X025885Y013383D01*
X025685Y013183D02*
X026085Y013183D01*
X025885Y013983D02*
X025885Y014383D01*
X025685Y014183D02*
X026085Y014183D01*
X026685Y014383D02*
X027085Y013983D01*
X026685Y013983D01*
X027085Y014383D01*
X026685Y014383D01*
X026685Y014983D02*
X027085Y014983D01*
X026685Y015383D01*
X027085Y015383D01*
X026685Y014983D01*
X026085Y015183D02*
X025685Y015183D01*
X025885Y015383D02*
X025885Y014983D01*
X025885Y015983D02*
X025885Y016383D01*
X025685Y016183D02*
X026085Y016183D01*
X026685Y016383D02*
X027085Y015983D01*
X026685Y015983D01*
X027085Y016383D01*
X026685Y016383D01*
X026685Y016983D02*
X027085Y016983D01*
X026685Y017383D01*
X027085Y017383D01*
X026685Y016983D01*
X026085Y017183D02*
X025685Y017183D01*
X025885Y017383D02*
X025885Y016983D01*
X025885Y017983D02*
X025885Y018383D01*
X025685Y018183D02*
X026085Y018183D01*
X026685Y018383D02*
X027085Y017983D01*
X026685Y017983D01*
X027085Y018383D01*
X026685Y018383D01*
X026685Y018983D02*
X027085Y018983D01*
X026685Y019383D01*
X027085Y019383D01*
X026685Y018983D01*
X026085Y019183D02*
X025685Y019183D01*
X025885Y019383D02*
X025885Y018983D01*
X024085Y018383D02*
X023685Y017983D01*
X024085Y017983D01*
X023685Y018383D01*
X024085Y018383D01*
X023085Y018383D02*
X022685Y017983D01*
X023085Y017983D01*
X022685Y018383D01*
X023085Y018383D01*
X022085Y017933D02*
X021685Y017933D01*
X021885Y018133D02*
X021885Y017733D01*
X021885Y017133D02*
X021885Y016733D01*
X021685Y016933D02*
X022085Y016933D01*
X022685Y016983D02*
X023085Y016983D01*
X022685Y017383D01*
X023085Y017383D01*
X022685Y016983D01*
X023685Y016983D02*
X024085Y016983D01*
X023685Y017383D01*
X024085Y017383D01*
X023685Y016983D01*
X023685Y016383D02*
X024085Y015983D01*
X023685Y015983D01*
X024085Y016383D01*
X023685Y016383D01*
X023085Y016383D02*
X022685Y015983D01*
X023085Y015983D01*
X022685Y016383D01*
X023085Y016383D01*
X022135Y015933D02*
X021735Y015933D01*
X021635Y015983D02*
X021635Y015583D01*
X021435Y015783D02*
X021835Y015783D01*
X021935Y015733D02*
X021935Y016133D01*
X020585Y016183D02*
X020385Y015983D01*
X020185Y016183D01*
X020385Y016383D01*
X020585Y016183D01*
X020385Y016183D02*
X020385Y016383D01*
X019685Y016183D02*
X019285Y016183D01*
X019485Y016383D02*
X019485Y015983D01*
X020185Y015183D02*
X020385Y015383D01*
X020585Y015183D01*
X020385Y014983D01*
X020185Y015183D01*
X020385Y015183D02*
X020385Y015383D01*
X021685Y014933D02*
X022085Y014933D01*
X021885Y015133D02*
X021885Y014733D01*
X021885Y014183D02*
X021885Y013783D01*
X021685Y013983D02*
X022085Y013983D01*
X022685Y013983D02*
X023085Y013983D01*
X022685Y014383D01*
X023085Y014383D01*
X022685Y013983D01*
X023685Y013983D02*
X024085Y013983D01*
X023685Y014383D01*
X024085Y014383D01*
X023685Y013983D01*
X023685Y013383D02*
X024085Y012983D01*
X023685Y012983D01*
X024085Y013383D01*
X023685Y013383D01*
X023085Y013383D02*
X022685Y012983D01*
X023085Y012983D01*
X022685Y013383D01*
X023085Y013383D01*
X022085Y012933D02*
X021685Y012933D01*
X021885Y013133D02*
X021885Y012733D01*
X020585Y013183D02*
X020385Y012983D01*
X020185Y013183D01*
X020385Y013383D01*
X020585Y013183D01*
X020385Y013183D02*
X020385Y013383D01*
X019935Y013183D02*
X019535Y013183D01*
X019735Y013383D02*
X019735Y012983D01*
X020385Y012383D02*
X020185Y012183D01*
X020385Y011983D01*
X020585Y012183D01*
X020385Y012383D01*
X020385Y012183D01*
X020385Y011383D02*
X020185Y011183D01*
X020385Y010983D01*
X020585Y011183D01*
X020385Y011383D01*
X020385Y011183D01*
X019735Y010533D02*
X019735Y010133D01*
X019535Y010333D02*
X019935Y010333D01*
X020185Y010183D02*
X020385Y010383D01*
X020585Y010183D01*
X020385Y009983D01*
X020185Y010183D01*
X020385Y010183D02*
X020385Y010383D01*
X021335Y010433D02*
X021735Y010433D01*
X021535Y010633D02*
X021535Y010233D01*
X022085Y009983D02*
X022485Y009983D01*
X022285Y010183D02*
X022285Y009783D01*
X023785Y010033D02*
X024185Y010033D01*
X023985Y010233D02*
X023985Y009833D01*
X022885Y010783D02*
X022885Y011183D01*
X022685Y010983D02*
X023085Y010983D01*
X022135Y011133D02*
X021735Y011133D01*
X021935Y011333D02*
X021935Y010933D01*
X018835Y010933D02*
X018435Y010933D01*
X018635Y011133D02*
X018635Y010733D01*
X018635Y010383D02*
X018635Y009983D01*
X018435Y010183D02*
X018835Y010183D01*
X017585Y010183D02*
X017385Y009983D01*
X017185Y010183D01*
X017385Y010383D01*
X017585Y010183D01*
X017385Y010183D02*
X017385Y010383D01*
X017385Y010983D02*
X017185Y011183D01*
X017385Y011383D01*
X017585Y011183D01*
X017385Y010983D01*
X017385Y011183D02*
X017385Y011383D01*
X016435Y011683D02*
X016035Y011683D01*
X016235Y011883D02*
X016235Y011483D01*
X017185Y012183D02*
X017385Y011983D01*
X017585Y012183D01*
X017385Y012383D01*
X017185Y012183D01*
X017385Y012183D02*
X017385Y012383D01*
X017385Y012983D02*
X017185Y013183D01*
X017385Y013383D01*
X017585Y013183D01*
X017385Y012983D01*
X017385Y013183D02*
X017385Y013383D01*
X017885Y013083D02*
X018285Y013083D01*
X018085Y013283D02*
X018085Y012883D01*
X017385Y013983D02*
X017185Y014183D01*
X017385Y014383D01*
X017585Y014183D01*
X017385Y013983D01*
X017385Y014183D02*
X017385Y014383D01*
X016385Y014083D02*
X015985Y014083D01*
X016185Y014283D02*
X016185Y013883D01*
X014835Y014583D02*
X014835Y014983D01*
X014635Y014783D02*
X015035Y014783D01*
X015435Y015083D02*
X015435Y015783D01*
X015235Y015583D02*
X015635Y015583D01*
X015635Y015283D02*
X015235Y015283D01*
X015785Y015833D02*
X015785Y016233D01*
X015585Y016033D02*
X015985Y016033D01*
X017185Y016183D02*
X017385Y015983D01*
X017585Y016183D01*
X017385Y016383D01*
X017185Y016183D01*
X017385Y016183D02*
X017385Y016383D01*
X016635Y016733D02*
X016635Y017133D01*
X016435Y016933D02*
X016835Y016933D01*
X017185Y017183D02*
X017385Y017383D01*
X017585Y017183D01*
X017385Y016983D01*
X017185Y017183D01*
X017385Y017183D02*
X017385Y017383D01*
X017385Y017983D02*
X017185Y018183D01*
X017385Y018383D01*
X017585Y018183D01*
X017385Y017983D01*
X017385Y018183D02*
X017385Y018383D01*
X016472Y018083D02*
X016272Y017883D01*
X016072Y018083D01*
X016272Y018283D01*
X016472Y018083D01*
X016272Y018083D02*
X016272Y018283D01*
X015685Y018083D02*
X015485Y017883D01*
X015285Y018083D01*
X015485Y018283D01*
X015685Y018083D01*
X015485Y018083D02*
X015485Y018283D01*
X015472Y018983D02*
X015272Y019183D01*
X015472Y019383D01*
X015672Y019183D01*
X015472Y018983D01*
X015472Y019183D02*
X015472Y019383D01*
X016059Y019183D02*
X016259Y019383D01*
X016459Y019183D01*
X016259Y018983D01*
X016059Y019183D01*
X016259Y019183D02*
X016259Y019383D01*
X016685Y019733D02*
X017085Y019733D01*
X016885Y019933D02*
X016885Y019533D01*
X017185Y019183D02*
X017385Y019383D01*
X017585Y019183D01*
X017385Y018983D01*
X017185Y019183D01*
X017385Y019183D02*
X017385Y019383D01*
X018685Y019183D02*
X019085Y019183D01*
X018885Y019383D02*
X018885Y018983D01*
X018885Y018383D02*
X018885Y017983D01*
X018685Y018183D02*
X019085Y018183D01*
X018885Y017633D02*
X018885Y017233D01*
X018685Y017433D02*
X019085Y017433D01*
X018485Y017183D02*
X018085Y017183D01*
X018285Y017383D02*
X018285Y016983D01*
X020185Y017183D02*
X020385Y016983D01*
X020585Y017183D01*
X020385Y017383D01*
X020185Y017183D01*
X020385Y017183D02*
X020385Y017383D01*
X020385Y017983D02*
X020185Y018183D01*
X020385Y018383D01*
X020585Y018183D01*
X020385Y017983D01*
X020385Y018183D02*
X020385Y018383D01*
X020385Y018983D02*
X020185Y019183D01*
X020385Y019383D01*
X020585Y019183D01*
X020385Y018983D01*
X020385Y019183D02*
X020385Y019383D01*
X014885Y019183D02*
X014685Y018983D01*
X014485Y019183D01*
X014685Y019383D01*
X014885Y019183D01*
X014685Y019183D02*
X014685Y019383D01*
X013885Y018283D02*
X013485Y018283D01*
X013885Y017883D01*
X013485Y017883D01*
X013885Y018283D01*
X012885Y018283D02*
X012485Y017883D01*
X012885Y017883D01*
X012485Y018283D01*
X012885Y018283D01*
X012035Y017783D02*
X011635Y017783D01*
X011835Y017983D02*
X011835Y017583D01*
X011085Y017383D02*
X010685Y016983D01*
X011085Y016983D01*
X010685Y017383D01*
X011085Y017383D01*
X011085Y017983D02*
X010685Y017983D01*
X011085Y018383D01*
X010685Y018383D01*
X011085Y017983D01*
X010085Y017983D02*
X009685Y018383D01*
X010085Y018383D01*
X009685Y017983D01*
X010085Y017983D01*
X010085Y017383D02*
X009685Y017383D01*
X010085Y016983D01*
X009685Y016983D01*
X010085Y017383D01*
X011835Y016483D02*
X011835Y016083D01*
X011635Y016283D02*
X012035Y016283D01*
X012335Y015833D02*
X012735Y015833D01*
X012535Y016033D02*
X012535Y015633D01*
X011835Y015183D02*
X011835Y014783D01*
X011635Y014983D02*
X012035Y014983D01*
X011085Y014983D02*
X010685Y015383D01*
X011085Y015383D01*
X010685Y014983D01*
X011085Y014983D01*
X010085Y014983D02*
X009685Y015383D01*
X010085Y015383D01*
X009685Y014983D01*
X010085Y014983D01*
X010085Y014383D02*
X009685Y014383D01*
X010085Y013983D01*
X009685Y013983D01*
X010085Y014383D01*
X010685Y014383D02*
X011085Y013983D01*
X010685Y013983D01*
X011085Y014383D01*
X010685Y014383D01*
X011835Y013483D02*
X011835Y013083D01*
X011635Y013283D02*
X012035Y013283D01*
X012685Y012983D02*
X012685Y012583D01*
X012485Y012783D02*
X012885Y012783D01*
X013685Y012333D02*
X014085Y012333D01*
X014235Y012333D02*
X014635Y012333D01*
X014785Y012333D02*
X015185Y012333D01*
X014985Y012533D02*
X014985Y012133D01*
X014435Y012133D02*
X014435Y012533D01*
X013885Y012533D02*
X013885Y012133D01*
X013885Y011983D02*
X013885Y011583D01*
X013685Y011783D02*
X014085Y011783D01*
X012885Y011783D02*
X012485Y011783D01*
X012685Y011983D02*
X012685Y011583D01*
X011085Y011383D02*
X010685Y010983D01*
X011085Y010983D01*
X010685Y011383D01*
X011085Y011383D01*
X010085Y011383D02*
X009685Y010983D01*
X010085Y010983D01*
X009685Y011383D01*
X010085Y011383D01*
X010085Y011983D02*
X009685Y011983D01*
X010085Y012383D01*
X009685Y012383D01*
X010085Y011983D01*
X010685Y011983D02*
X011085Y011983D01*
X010685Y012383D01*
X011085Y012383D01*
X010685Y011983D01*
X010685Y012983D02*
X011085Y012983D01*
X010685Y013383D01*
X011085Y013383D01*
X010685Y012983D01*
X010085Y012983D02*
X009685Y013383D01*
X010085Y013383D01*
X009685Y012983D01*
X010085Y012983D01*
X012785Y013633D02*
X013185Y013633D01*
X013385Y013633D02*
X013785Y013633D01*
X013585Y013833D02*
X013585Y013433D01*
X012985Y013433D02*
X012985Y013833D01*
X013585Y014083D02*
X013585Y014483D01*
X013385Y014283D02*
X013785Y014283D01*
X014435Y013583D02*
X014435Y013183D01*
X014235Y013383D02*
X014635Y013383D01*
X013635Y015083D02*
X013635Y015483D01*
X013435Y015283D02*
X013835Y015283D01*
X011085Y015983D02*
X010685Y016383D01*
X011085Y016383D01*
X010685Y015983D01*
X011085Y015983D01*
X010085Y015983D02*
X009685Y016383D01*
X010085Y016383D01*
X009685Y015983D01*
X010085Y015983D01*
X009435Y018483D02*
X009435Y018883D01*
X009685Y018983D02*
X010085Y018983D01*
X009685Y019383D01*
X010085Y019383D01*
X009685Y018983D01*
X009635Y018683D02*
X009235Y018683D01*
X010685Y018983D02*
X011085Y018983D01*
X010685Y019383D01*
X011085Y019383D01*
X010685Y018983D01*
X009435Y019833D02*
X009435Y020233D01*
X009235Y020033D02*
X009635Y020033D01*
X017185Y015183D02*
X017385Y015383D01*
X017585Y015183D01*
X017385Y014983D01*
X017185Y015183D01*
X017385Y015183D02*
X017385Y015383D01*
X018685Y014683D02*
X019085Y014683D01*
X018885Y014883D02*
X018885Y014483D01*
X020185Y014183D02*
X020385Y013983D01*
X020585Y014183D01*
X020385Y014383D01*
X020185Y014183D01*
X020385Y014183D02*
X020385Y014383D01*
X022685Y014983D02*
X023085Y014983D01*
X022685Y015383D01*
X023085Y015383D01*
X022685Y014983D01*
X023685Y014983D02*
X024085Y014983D01*
X023685Y015383D01*
X024085Y015383D01*
X023685Y014983D01*
X027685Y014983D02*
X028085Y014983D01*
X027685Y015383D01*
X028085Y015383D01*
X027685Y014983D01*
X028785Y015033D02*
X029185Y015433D01*
X029185Y015483D02*
X028785Y015883D01*
X028785Y015933D02*
X029185Y016333D01*
X029185Y016383D02*
X028785Y016783D01*
X029185Y016783D02*
X028785Y016383D01*
X028785Y016333D02*
X029185Y015933D01*
X029185Y015883D02*
X028785Y015483D01*
X028785Y015433D02*
X029185Y015033D01*
X029185Y014333D02*
X028785Y013933D01*
X028785Y014333D02*
X029185Y013933D01*
X028085Y013983D02*
X027685Y014383D01*
X028085Y014383D01*
X027685Y013983D01*
X028085Y013983D01*
X030285Y014683D02*
X030685Y014683D01*
X030485Y014883D02*
X030485Y014483D01*
X031535Y014683D02*
X031935Y014683D01*
X031735Y014883D02*
X031735Y014483D01*
X031385Y015983D02*
X031385Y016383D01*
X031585Y016183D02*
X030035Y016183D01*
X030235Y016383D02*
X030235Y015983D01*
X030585Y015983D02*
X030585Y016383D01*
X030985Y016383D02*
X030985Y015983D01*
X031585Y016983D02*
X031585Y017383D01*
X031735Y017533D02*
X032135Y017533D01*
X031935Y017733D02*
X031935Y017333D01*
X031785Y017183D02*
X031385Y017183D01*
X031035Y017433D02*
X031035Y017833D01*
X030835Y017633D02*
X031235Y017633D01*
X030385Y017683D02*
X029985Y017683D01*
X030185Y017883D02*
X030185Y017483D01*
X028835Y018033D02*
X028435Y018033D01*
X028635Y018233D02*
X028635Y017833D01*
X028085Y017983D02*
X027685Y018383D01*
X028085Y018383D01*
X027685Y017983D01*
X028085Y017983D01*
X028085Y017383D02*
X027685Y017383D01*
X028085Y016983D01*
X027685Y016983D01*
X028085Y017383D01*
X028085Y016383D02*
X027685Y016383D01*
X028085Y015983D01*
X027685Y015983D01*
X028085Y016383D01*
X031185Y018383D02*
X031185Y018783D01*
X030985Y018583D02*
X031385Y018583D01*
X031885Y018983D02*
X031885Y019383D01*
X032085Y019383D01*
X032285Y019383D01*
X032285Y018983D01*
X031885Y018983D01*
X032085Y019183D02*
X032085Y019383D01*
X032285Y019483D02*
X031885Y019483D01*
X031885Y019883D01*
X032085Y019883D01*
X032285Y019883D01*
X032285Y019483D01*
X032385Y019483D02*
X032385Y019883D01*
X032585Y019883D01*
X032785Y019883D01*
X032785Y019483D01*
X032385Y019483D01*
X032385Y019383D02*
X032585Y019383D01*
X032785Y019383D01*
X032785Y018983D01*
X032385Y018983D01*
X032385Y019383D01*
X032585Y019383D02*
X032585Y019183D01*
X032885Y018983D02*
X032885Y019383D01*
X033085Y019383D01*
X033285Y019383D01*
X033285Y018983D01*
X032885Y018983D01*
X033085Y019183D02*
X033085Y019383D01*
X033285Y019483D02*
X032885Y019483D01*
X032885Y019883D01*
X033085Y019883D01*
X033285Y019883D01*
X033285Y019483D01*
X033385Y019483D02*
X033385Y019883D01*
X033585Y019883D01*
X033785Y019883D01*
X033785Y019483D01*
X033385Y019483D01*
X033385Y019383D02*
X033585Y019383D01*
X033785Y019383D01*
X033785Y018983D01*
X033385Y018983D01*
X033385Y019383D01*
X033585Y019383D02*
X033585Y019183D01*
X033885Y018983D02*
X033885Y019383D01*
X034085Y019383D01*
X034285Y019383D01*
X034285Y018983D01*
X033885Y018983D01*
X034085Y019183D02*
X034085Y019383D01*
X034285Y019483D02*
X033885Y019483D01*
X033885Y019883D01*
X034085Y019883D01*
X034285Y019883D01*
X034285Y019483D01*
X034085Y019683D02*
X034085Y019883D01*
X033585Y019883D02*
X033585Y019683D01*
X033085Y019683D02*
X033085Y019883D01*
X032585Y019883D02*
X032585Y019683D01*
X032085Y019683D02*
X032085Y019883D01*
X029685Y019633D02*
X029285Y019633D01*
X029485Y019833D02*
X029485Y019433D01*
X028085Y019383D02*
X027685Y018983D01*
X028085Y018983D01*
X027685Y019383D01*
X028085Y019383D01*
X032285Y018433D02*
X032985Y018433D01*
X033235Y018433D02*
X033635Y018433D01*
X033435Y018633D02*
X033435Y018233D01*
X032785Y018233D02*
X032785Y018633D01*
X032485Y018633D02*
X032485Y018233D01*
X033435Y017383D02*
X033435Y016983D01*
X033235Y017183D02*
X033935Y017183D01*
X033735Y017383D02*
X033735Y016983D01*
X034333Y017206D02*
X034733Y017206D01*
X034533Y017406D02*
X034533Y017006D01*
X034535Y016383D02*
X034535Y015983D01*
X034335Y016183D02*
X034735Y016183D01*
X033945Y016183D02*
X033545Y016183D01*
X033745Y016383D02*
X033745Y015983D01*
X016735Y009333D02*
X015935Y009333D01*
X016135Y009533D02*
X016135Y009133D01*
X016535Y009133D02*
X016535Y009533D01*
X013485Y009533D02*
X013085Y009533D01*
X013285Y009733D02*
X013285Y009333D01*
X011935Y009483D02*
X011535Y009483D01*
X011735Y009683D02*
X011735Y009283D01*
X011085Y009983D02*
X010685Y009983D01*
X011085Y010383D01*
X010685Y010383D01*
X011085Y009983D01*
X010085Y009983D02*
X009685Y010383D01*
X010085Y010383D01*
X009685Y009983D01*
X010085Y009983D01*
X009983Y007040D02*
X009983Y005890D01*
X011483Y005890D01*
X011483Y004740D01*
X011483Y003590D01*
X011483Y002440D01*
X009983Y002440D01*
X007683Y002440D01*
X008633Y002810D02*
X008633Y003210D01*
X008833Y003210D01*
X009033Y003210D01*
X009033Y002810D01*
X008633Y002810D01*
X008833Y003010D02*
X008833Y003210D01*
X007683Y003590D02*
X009983Y003590D01*
X011483Y003590D01*
X014583Y003590D01*
X017683Y003590D01*
X019983Y003590D01*
X018994Y003940D02*
X018994Y004380D01*
X018884Y004491D01*
X018663Y004491D01*
X018553Y004380D01*
X018553Y004270D01*
X018663Y004160D01*
X018994Y004160D01*
X018994Y003940D02*
X018884Y003830D01*
X018663Y003830D01*
X018553Y003940D01*
X018484Y003341D02*
X018484Y002680D01*
X018704Y002680D02*
X018263Y002680D01*
X018263Y003120D02*
X018484Y003341D01*
X017015Y003010D02*
X016575Y003010D01*
X016905Y003341D01*
X016905Y002680D01*
X016795Y002191D02*
X016795Y001530D01*
X016575Y001530D02*
X017015Y001530D01*
X016371Y001640D02*
X016371Y001750D01*
X016260Y001860D01*
X016040Y001860D01*
X015930Y001970D01*
X015930Y002080D01*
X016040Y002191D01*
X016260Y002191D01*
X016371Y002080D01*
X016371Y001970D01*
X016260Y001860D01*
X016040Y001860D02*
X015930Y001750D01*
X015930Y001640D01*
X016040Y001530D01*
X016260Y001530D01*
X016371Y001640D01*
X016575Y001970D02*
X016795Y002191D01*
X015930Y002680D02*
X015930Y002790D01*
X016371Y003230D01*
X016371Y003341D01*
X015930Y003341D01*
X016040Y003830D02*
X015930Y003940D01*
X016040Y003830D02*
X016260Y003830D01*
X016371Y003940D01*
X016371Y004160D01*
X016260Y004270D01*
X016150Y004270D01*
X015930Y004160D01*
X015930Y004491D01*
X016371Y004491D01*
X016575Y004270D02*
X016795Y004491D01*
X016795Y003830D01*
X016575Y003830D02*
X017015Y003830D01*
X015718Y003830D02*
X015608Y003830D01*
X015608Y003940D01*
X015718Y003940D01*
X015718Y003830D01*
X015404Y003940D02*
X015294Y003830D01*
X015073Y003830D01*
X014963Y003940D01*
X015404Y004380D01*
X015404Y003940D01*
X014963Y003940D02*
X014963Y004380D01*
X015073Y004491D01*
X015294Y004491D01*
X015404Y004380D01*
X015294Y004980D02*
X015073Y004980D01*
X014963Y005090D01*
X015404Y005530D01*
X015404Y005090D01*
X015294Y004980D01*
X015608Y004980D02*
X015608Y005090D01*
X015718Y005090D01*
X015718Y004980D01*
X015608Y004980D01*
X015930Y004980D02*
X016371Y005420D01*
X016371Y005530D01*
X016260Y005641D01*
X016040Y005641D01*
X015930Y005530D01*
X016575Y005641D02*
X016575Y005310D01*
X016795Y005420D01*
X016905Y005420D01*
X017015Y005310D01*
X017015Y005090D01*
X016905Y004980D01*
X016685Y004980D01*
X016575Y005090D01*
X016371Y004980D02*
X015930Y004980D01*
X015404Y005530D02*
X015294Y005641D01*
X015073Y005641D01*
X014963Y005530D01*
X014963Y005090D01*
X014583Y004740D02*
X017683Y004740D01*
X019983Y004740D01*
X019693Y004980D02*
X019252Y004980D01*
X019473Y004980D02*
X019473Y005641D01*
X019252Y005420D01*
X019048Y005530D02*
X018938Y005641D01*
X018718Y005641D01*
X018608Y005530D01*
X018608Y005090D01*
X019048Y005530D01*
X019048Y005090D01*
X018938Y004980D01*
X018718Y004980D01*
X018608Y005090D01*
X018404Y004980D02*
X017963Y004980D01*
X018184Y004980D02*
X018184Y005641D01*
X017963Y005420D01*
X017683Y005890D02*
X019983Y005890D01*
X019983Y007040D01*
X019478Y006570D02*
X019478Y006020D01*
X019368Y005910D01*
X019258Y005910D01*
X019148Y006130D02*
X019478Y006130D01*
X019148Y006130D02*
X019038Y006240D01*
X019038Y006570D01*
X018828Y006570D02*
X018608Y006570D01*
X018718Y006680D02*
X018718Y006240D01*
X018828Y006130D01*
X018404Y006130D02*
X018184Y006350D01*
X018404Y006240D02*
X018294Y006130D01*
X018073Y006130D01*
X017963Y006240D01*
X017963Y006680D01*
X018073Y006791D01*
X018294Y006791D01*
X018404Y006680D01*
X018404Y006240D01*
X017683Y005890D02*
X017683Y007040D01*
X016648Y006791D02*
X016428Y006570D01*
X016208Y006791D01*
X016208Y006130D01*
X016004Y006130D02*
X016004Y006791D01*
X015784Y006570D01*
X015563Y006791D01*
X015563Y006130D01*
X016648Y006130D02*
X016648Y006791D01*
X016575Y005641D02*
X017015Y005641D01*
X014583Y005890D02*
X014583Y007040D01*
X013808Y006570D02*
X013477Y006570D01*
X013367Y006460D01*
X013477Y006350D01*
X013698Y006350D01*
X013808Y006240D01*
X013698Y006130D01*
X013367Y006130D01*
X013158Y006130D02*
X012938Y006130D01*
X013048Y006130D02*
X013048Y006791D01*
X012938Y006791D01*
X012618Y006791D02*
X012618Y006901D01*
X012618Y006570D02*
X012508Y006570D01*
X012618Y006570D02*
X012618Y006130D01*
X012508Y006130D02*
X012728Y006130D01*
X012304Y006130D02*
X012304Y006791D01*
X012084Y006570D01*
X011863Y006791D01*
X011863Y006130D01*
X011483Y005890D02*
X014583Y005890D01*
X013548Y005530D02*
X013108Y005090D01*
X013218Y004980D01*
X013438Y004980D01*
X013548Y005090D01*
X013548Y005530D01*
X013438Y005641D01*
X013218Y005641D01*
X013108Y005530D01*
X013108Y005090D01*
X012904Y004980D02*
X012463Y004980D01*
X012684Y004980D02*
X012684Y005641D01*
X012463Y005420D01*
X011483Y005890D02*
X011483Y007040D01*
X011138Y006680D02*
X011028Y006791D01*
X010918Y006791D01*
X010808Y006680D01*
X010808Y006570D01*
X010918Y006460D01*
X011028Y006460D01*
X011138Y006570D01*
X011138Y006680D01*
X010604Y006791D02*
X010604Y006130D01*
X010163Y006791D01*
X010163Y006130D01*
X009983Y005890D02*
X007683Y005890D01*
X007963Y006240D02*
X008073Y006130D01*
X008294Y006130D01*
X008404Y006240D01*
X008404Y006350D01*
X008294Y006460D01*
X008073Y006460D01*
X007963Y006570D01*
X007963Y006680D01*
X008833Y005510D02*
X008833Y005110D01*
X008633Y005310D02*
X009033Y005310D01*
X009983Y004740D02*
X007683Y004740D01*
X008633Y004360D02*
X009033Y003960D01*
X009033Y004360D02*
X008633Y003960D01*
X009983Y004740D02*
X011483Y004740D01*
X014583Y004740D01*
X013548Y004380D02*
X013108Y003940D01*
X013218Y003830D01*
X013438Y003830D01*
X013548Y003940D01*
X013548Y004380D01*
X013438Y004491D01*
X013218Y004491D01*
X013108Y004380D01*
X013108Y003940D01*
X012904Y003830D02*
X012463Y003830D01*
X012904Y004270D01*
X012904Y004380D01*
X012794Y004491D01*
X012573Y004491D01*
X012463Y004380D01*
X010894Y004380D02*
X010894Y004270D01*
X010453Y003830D01*
X010894Y003830D01*
X010784Y003341D02*
X010894Y003230D01*
X010894Y003120D01*
X010784Y003010D01*
X010894Y002900D01*
X010894Y002790D01*
X010784Y002680D01*
X010563Y002680D01*
X010453Y002790D01*
X010674Y003010D02*
X010784Y003010D01*
X010453Y003230D02*
X010563Y003341D01*
X010784Y003341D01*
X012463Y003230D02*
X012573Y003341D01*
X012794Y003341D01*
X012904Y003230D01*
X012904Y003120D01*
X012463Y002680D01*
X012904Y002680D01*
X013108Y002790D02*
X013218Y002680D01*
X013438Y002680D01*
X013548Y002790D01*
X013548Y003230D01*
X013438Y003341D01*
X013218Y003341D01*
X013108Y003230D01*
X013108Y003120D01*
X013218Y003010D01*
X013548Y003010D01*
X013438Y002191D02*
X013218Y002191D01*
X013108Y002080D01*
X012904Y002080D02*
X012794Y002191D01*
X012573Y002191D01*
X012463Y002080D01*
X012684Y001860D02*
X012794Y001860D01*
X012904Y001750D01*
X012904Y001640D01*
X012794Y001530D01*
X012573Y001530D01*
X012463Y001640D01*
X012794Y001860D02*
X012904Y001970D01*
X012904Y002080D01*
X013438Y002191D02*
X013548Y002080D01*
X013548Y001970D01*
X013108Y001530D01*
X013548Y001530D01*
X013438Y001041D02*
X013218Y001041D01*
X013108Y000930D01*
X013108Y000820D01*
X013218Y000710D01*
X013548Y000710D01*
X013548Y000490D02*
X013548Y000930D01*
X013438Y001041D01*
X012904Y000930D02*
X012904Y000820D01*
X012794Y000710D01*
X012904Y000600D01*
X012904Y000490D01*
X012794Y000380D01*
X012573Y000380D01*
X012463Y000490D01*
X012684Y000710D02*
X012794Y000710D01*
X012904Y000930D02*
X012794Y001041D01*
X012573Y001041D01*
X012463Y000930D01*
X013108Y000490D02*
X013218Y000380D01*
X013438Y000380D01*
X013548Y000490D01*
X014583Y000140D02*
X017683Y000140D01*
X018263Y000490D02*
X018373Y000380D01*
X018594Y000380D01*
X018704Y000490D01*
X018704Y000600D01*
X018594Y000710D01*
X018263Y000710D01*
X018263Y000490D01*
X018263Y000710D02*
X018484Y000930D01*
X018704Y001041D01*
X018704Y001530D02*
X018263Y001530D01*
X018704Y001970D01*
X018704Y002080D01*
X018594Y002191D01*
X018373Y002191D01*
X018263Y002080D01*
X017015Y000930D02*
X016575Y000490D01*
X016685Y000380D01*
X016905Y000380D01*
X017015Y000490D01*
X017015Y000930D01*
X016905Y001041D01*
X016685Y001041D01*
X016575Y000930D01*
X016575Y000490D01*
X016371Y000490D02*
X016260Y000380D01*
X016040Y000380D01*
X015930Y000490D01*
X016371Y000930D01*
X016371Y000490D01*
X015930Y000490D02*
X015930Y000930D01*
X016040Y001041D01*
X016260Y001041D01*
X016371Y000930D01*
X015718Y000490D02*
X015718Y000380D01*
X015608Y000380D01*
X015608Y000490D01*
X015718Y000490D01*
X015404Y000380D02*
X014963Y000380D01*
X015184Y000380D02*
X015184Y001041D01*
X014963Y000820D01*
X015073Y001530D02*
X014963Y001640D01*
X015404Y002080D01*
X015404Y001640D01*
X015294Y001530D01*
X015073Y001530D01*
X014963Y001640D02*
X014963Y002080D01*
X015073Y002191D01*
X015294Y002191D01*
X015404Y002080D01*
X015608Y001640D02*
X015718Y001640D01*
X015718Y001530D01*
X015608Y001530D01*
X015608Y001640D01*
X015608Y002680D02*
X015718Y002680D01*
X015718Y002790D01*
X015608Y002790D01*
X015608Y002680D01*
X015404Y002790D02*
X015294Y002680D01*
X015073Y002680D01*
X014963Y002790D01*
X015404Y003230D01*
X015404Y002790D01*
X014963Y002790D02*
X014963Y003230D01*
X015073Y003341D01*
X015294Y003341D01*
X015404Y003230D01*
X011483Y001290D02*
X009983Y001290D01*
X007683Y001290D01*
X008633Y000910D02*
X009033Y000510D01*
X008633Y000510D01*
X009033Y000910D01*
X008633Y000910D01*
X008833Y001660D02*
X008633Y001860D01*
X008833Y002060D01*
X009033Y001860D01*
X008833Y001660D01*
X008833Y001860D02*
X008833Y002060D01*
X010453Y001860D02*
X010894Y001860D01*
X010784Y001530D02*
X010784Y002191D01*
X010453Y001860D01*
X009983Y000140D02*
X007683Y000140D01*
X010453Y004380D02*
X010563Y004491D01*
X010784Y004491D01*
X010894Y004380D01*
X010894Y004980D02*
X010453Y004980D01*
X010674Y004980D02*
X010674Y005641D01*
X010453Y005420D01*
X022058Y003010D02*
X022278Y003010D01*
X022278Y001860D02*
X022058Y001860D01*
D13*
X007683Y000140D02*
X007683Y007040D01*
X029983Y007040D01*
X029983Y000140D01*
X007683Y000140D01*
M02*
