%
M48
M72
T01C0.0100
T02C0.0200
T03C0.0290
T04C0.0320
T05C0.0394
%
T01
X11735Y9483
X13285Y9533
X16135Y9333
X16535Y9333
X18635Y10183
X19735Y10333
X18635Y10933
X16235Y11683
X14985Y12333
X14435Y12333
X13885Y12333
X13885Y11783
X12685Y11783
X12685Y12783
X11835Y13283
X12985Y13633
X13585Y13633
X14435Y13383
X13585Y14283
X14835Y14783
X15435Y15283
X15435Y15583
X15785Y16033
X16635Y16933
X18285Y17183
X18885Y17433
X18885Y18183
X18885Y19183
X16885Y19733
X21885Y17933
X21885Y16933
X21935Y15933
X21635Y15783
X21885Y14933
X21885Y13983
X21885Y12933
X19735Y13183
X18085Y13083
X16185Y14083
X13635Y15283
X12535Y15833
X11835Y16283
X11835Y14983
X11835Y17783
X9435Y18683
X9435Y20033
X19485Y16183
X18885Y14683
X21935Y11133
X22885Y10983
X21535Y10433
X22285Y9983
X23985Y10033
X25485Y10033
X25735Y10683
X25885Y9333
X27385Y9303
X28585Y10433
X29235Y10433
X30285Y10033
X30785Y10033
X31385Y9363
X33835Y9363
X33881Y11733
X32085Y12183
X31785Y12183
X31985Y13183
X33435Y13183
X34155Y13183
X34535Y13183
X31735Y14683
X30485Y14683
X30085Y13683
X29135Y12563
X25885Y12183
X25885Y13183
X25885Y14183
X25885Y15183
X25885Y16183
X25885Y17183
X25885Y18183
X25885Y19183
X28635Y18033
X30185Y17683
X31035Y17633
X31585Y17183
X31935Y17533
X33435Y17183
X33735Y17183
X34533Y17206
X34535Y16183
X33745Y16183
X31385Y16183
X30985Y16183
X30585Y16183
X30235Y16183
X31185Y18583
X32485Y18433
X32785Y18433
X33435Y18433
X29485Y19633
T02
X28985Y16583
X28985Y16133
X28985Y15683
X28985Y15233
X28985Y14133
X28985Y13283
X30735Y12083
X31385Y12083
X32635Y12083
T03
X32585Y19183
X33085Y19183
X33585Y19183
X34085Y19183
X34085Y19683
X33585Y19683
X33085Y19683
X32585Y19683
X32085Y19683
X32085Y19183
T04
X20385Y19183
X20385Y18183
X20385Y17183
X20385Y16183
X20385Y15183
X20385Y14183
X20385Y13183
X20385Y12183
X20385Y11183
X20385Y10183
X17385Y10183
X17385Y11183
X17385Y12183
X17385Y13183
X17385Y14183
X17385Y15183
X17385Y16183
X17385Y17183
X17385Y18183
X16272Y18083
X15485Y18083
X15472Y19183
X16259Y19183
X17385Y19183
X14685Y19183
T05
X13685Y18083
X12685Y18083
X10885Y18183
X9885Y18183
X9885Y17183
X10885Y17183
X10885Y16183
X9885Y16183
X9885Y15183
X10885Y15183
X10885Y14183
X9885Y14183
X9885Y13183
X10885Y13183
X10885Y12183
X9885Y12183
X9885Y11183
X10885Y11183
X10885Y10183
X9885Y10183
X22885Y13183
X23885Y13183
X23885Y14183
X22885Y14183
X22885Y15183
X23885Y15183
X23885Y16183
X22885Y16183
X22885Y17183
X23885Y17183
X23885Y18183
X22885Y18183
X26885Y18183
X27885Y18183
X27885Y17183
X26885Y17183
X26885Y16183
X27885Y16183
X27885Y15183
X26885Y15183
X26885Y14183
X27885Y14183
X27885Y13183
X26885Y13183
X26885Y12183
X27885Y12183
X27885Y11183
X26885Y11183
X26885Y10183
X27885Y10183
X32235Y10033
X33235Y10033
X34235Y10033
X34235Y11033
X33235Y11033
X32235Y11033
X27885Y19183
X26885Y19183
X10885Y19183
X9885Y19183
M30
