G75*
G70*
%OFA0B0*%
%FSLAX24Y24*%
%IPPOS*%
%LPD*%
%AMOC8*
5,1,8,0,0,1.08239X$1,22.5*
%
%ADD10R,0.0600X0.0600*%
%ADD11R,2.8504X0.0200*%
%ADD12R,2.8504X0.0211*%
%ADD13R,0.0197X1.1811*%
%ADD14R,0.0200X1.1811*%
%ADD15R,0.0671X0.0671*%
%ADD16OC8,0.0671*%
%ADD17C,0.0300*%
%ADD18C,0.0064*%
%ADD19C,0.0054*%
%ADD20C,0.0076*%
%ADD21C,0.0520*%
%ADD22R,0.0520X0.0520*%
%ADD23C,0.0520*%
%ADD24C,0.0088*%
%ADD25C,0.0080*%
%ADD26C,0.0079*%
%ADD27C,0.0050*%
%ADD28C,0.0051*%
%ADD29C,0.0057*%
%ADD30C,0.0100*%
%ADD31C,0.0400*%
%ADD32C,0.0200*%
%ADD33C,0.0087*%
%ADD34C,0.0159*%
%ADD35C,0.0123*%
%ADD36C,0.0031*%
%ADD37C,0.0490*%
%ADD38R,0.0490X0.0490*%
D10*
X009385Y009283D03*
D11*
X023136Y008883D03*
D12*
X023136Y020488D03*
D13*
X037290Y014688D03*
D14*
X008985Y014688D03*
D15*
X013685Y018083D03*
X009885Y019183D03*
X027885Y010183D03*
D16*
X027885Y011183D03*
X027885Y012183D03*
X027885Y013183D03*
X027885Y014183D03*
X027885Y015183D03*
X027885Y016183D03*
X027885Y017183D03*
X027885Y018183D03*
X027885Y019183D03*
X012685Y018083D03*
X009885Y018183D03*
X009885Y017183D03*
X009885Y016183D03*
X009885Y015183D03*
X009885Y014183D03*
X009885Y013183D03*
X009885Y012183D03*
X009885Y011183D03*
X009885Y010183D03*
D17*
X009235Y009283D02*
X009237Y009307D01*
X009243Y009331D01*
X009252Y009353D01*
X009265Y009373D01*
X009281Y009391D01*
X009300Y009406D01*
X009321Y009419D01*
X009343Y009427D01*
X009367Y009432D01*
X009391Y009433D01*
X009415Y009430D01*
X009438Y009423D01*
X009460Y009413D01*
X009480Y009399D01*
X009497Y009382D01*
X009512Y009363D01*
X009523Y009342D01*
X009531Y009319D01*
X009535Y009295D01*
X009535Y009271D01*
X009531Y009247D01*
X009523Y009224D01*
X009512Y009203D01*
X009497Y009184D01*
X009480Y009167D01*
X009460Y009153D01*
X009438Y009143D01*
X009415Y009136D01*
X009391Y009133D01*
X009367Y009134D01*
X009343Y009139D01*
X009321Y009147D01*
X009300Y009160D01*
X009281Y009175D01*
X009265Y009193D01*
X009252Y009213D01*
X009243Y009235D01*
X009237Y009259D01*
X009235Y009283D01*
X026735Y020033D02*
X026737Y020057D01*
X026743Y020081D01*
X026752Y020103D01*
X026765Y020123D01*
X026781Y020141D01*
X026800Y020156D01*
X026821Y020169D01*
X026843Y020177D01*
X026867Y020182D01*
X026891Y020183D01*
X026915Y020180D01*
X026938Y020173D01*
X026960Y020163D01*
X026980Y020149D01*
X026997Y020132D01*
X027012Y020113D01*
X027023Y020092D01*
X027031Y020069D01*
X027035Y020045D01*
X027035Y020021D01*
X027031Y019997D01*
X027023Y019974D01*
X027012Y019953D01*
X026997Y019934D01*
X026980Y019917D01*
X026960Y019903D01*
X026938Y019893D01*
X026915Y019886D01*
X026891Y019883D01*
X026867Y019884D01*
X026843Y019889D01*
X026821Y019897D01*
X026800Y019910D01*
X026781Y019925D01*
X026765Y019943D01*
X026752Y019963D01*
X026743Y019985D01*
X026737Y020009D01*
X026735Y020033D01*
D18*
X030083Y016389D02*
X030339Y016389D01*
X030083Y016389D02*
X030083Y016995D01*
X030339Y016995D01*
X030339Y016389D01*
X030339Y016452D02*
X030083Y016452D01*
X030083Y016515D02*
X030339Y016515D01*
X030339Y016578D02*
X030083Y016578D01*
X030083Y016641D02*
X030339Y016641D01*
X030339Y016704D02*
X030083Y016704D01*
X030083Y016767D02*
X030339Y016767D01*
X030339Y016830D02*
X030083Y016830D01*
X030083Y016893D02*
X030339Y016893D01*
X030339Y016956D02*
X030083Y016956D01*
X030476Y016389D02*
X030732Y016389D01*
X030476Y016389D02*
X030476Y016995D01*
X030732Y016995D01*
X030732Y016389D01*
X030732Y016452D02*
X030476Y016452D01*
X030476Y016515D02*
X030732Y016515D01*
X030732Y016578D02*
X030476Y016578D01*
X030476Y016641D02*
X030732Y016641D01*
X030732Y016704D02*
X030476Y016704D01*
X030476Y016767D02*
X030732Y016767D01*
X030732Y016830D02*
X030476Y016830D01*
X030476Y016893D02*
X030732Y016893D01*
X030732Y016956D02*
X030476Y016956D01*
X030870Y016389D02*
X031126Y016389D01*
X030870Y016389D02*
X030870Y016995D01*
X031126Y016995D01*
X031126Y016389D01*
X031126Y016452D02*
X030870Y016452D01*
X030870Y016515D02*
X031126Y016515D01*
X031126Y016578D02*
X030870Y016578D01*
X030870Y016641D02*
X031126Y016641D01*
X031126Y016704D02*
X030870Y016704D01*
X030870Y016767D02*
X031126Y016767D01*
X031126Y016830D02*
X030870Y016830D01*
X030870Y016893D02*
X031126Y016893D01*
X031126Y016956D02*
X030870Y016956D01*
X031264Y016389D02*
X031520Y016389D01*
X031264Y016389D02*
X031264Y016995D01*
X031520Y016995D01*
X031520Y016389D01*
X031520Y016452D02*
X031264Y016452D01*
X031264Y016515D02*
X031520Y016515D01*
X031520Y016578D02*
X031264Y016578D01*
X031264Y016641D02*
X031520Y016641D01*
X031520Y016704D02*
X031264Y016704D01*
X031264Y016767D02*
X031520Y016767D01*
X031520Y016830D02*
X031264Y016830D01*
X031264Y016893D02*
X031520Y016893D01*
X031520Y016956D02*
X031264Y016956D01*
X031658Y016389D02*
X031914Y016389D01*
X031658Y016389D02*
X031658Y016995D01*
X031914Y016995D01*
X031914Y016389D01*
X031914Y016452D02*
X031658Y016452D01*
X031658Y016515D02*
X031914Y016515D01*
X031914Y016578D02*
X031658Y016578D01*
X031658Y016641D02*
X031914Y016641D01*
X031914Y016704D02*
X031658Y016704D01*
X031658Y016767D02*
X031914Y016767D01*
X031914Y016830D02*
X031658Y016830D01*
X031658Y016893D02*
X031914Y016893D01*
X031914Y016956D02*
X031658Y016956D01*
X032051Y016389D02*
X032307Y016389D01*
X032051Y016389D02*
X032051Y016995D01*
X032307Y016995D01*
X032307Y016389D01*
X032307Y016452D02*
X032051Y016452D01*
X032051Y016515D02*
X032307Y016515D01*
X032307Y016578D02*
X032051Y016578D01*
X032051Y016641D02*
X032307Y016641D01*
X032307Y016704D02*
X032051Y016704D01*
X032051Y016767D02*
X032307Y016767D01*
X032307Y016830D02*
X032051Y016830D01*
X032051Y016893D02*
X032307Y016893D01*
X032307Y016956D02*
X032051Y016956D01*
X032445Y016389D02*
X032701Y016389D01*
X032445Y016389D02*
X032445Y016995D01*
X032701Y016995D01*
X032701Y016389D01*
X032701Y016452D02*
X032445Y016452D01*
X032445Y016515D02*
X032701Y016515D01*
X032701Y016578D02*
X032445Y016578D01*
X032445Y016641D02*
X032701Y016641D01*
X032701Y016704D02*
X032445Y016704D01*
X032445Y016767D02*
X032701Y016767D01*
X032701Y016830D02*
X032445Y016830D01*
X032445Y016893D02*
X032701Y016893D01*
X032701Y016956D02*
X032445Y016956D01*
X032839Y016389D02*
X033095Y016389D01*
X032839Y016389D02*
X032839Y016995D01*
X033095Y016995D01*
X033095Y016389D01*
X033095Y016452D02*
X032839Y016452D01*
X032839Y016515D02*
X033095Y016515D01*
X033095Y016578D02*
X032839Y016578D01*
X032839Y016641D02*
X033095Y016641D01*
X033095Y016704D02*
X032839Y016704D01*
X032839Y016767D02*
X033095Y016767D01*
X033095Y016830D02*
X032839Y016830D01*
X032839Y016893D02*
X033095Y016893D01*
X033095Y016956D02*
X032839Y016956D01*
X033232Y016389D02*
X033488Y016389D01*
X033232Y016389D02*
X033232Y016995D01*
X033488Y016995D01*
X033488Y016389D01*
X033488Y016452D02*
X033232Y016452D01*
X033232Y016515D02*
X033488Y016515D01*
X033488Y016578D02*
X033232Y016578D01*
X033232Y016641D02*
X033488Y016641D01*
X033488Y016704D02*
X033232Y016704D01*
X033232Y016767D02*
X033488Y016767D01*
X033488Y016830D02*
X033232Y016830D01*
X033232Y016893D02*
X033488Y016893D01*
X033488Y016956D02*
X033232Y016956D01*
X033626Y016389D02*
X033882Y016389D01*
X033626Y016389D02*
X033626Y016995D01*
X033882Y016995D01*
X033882Y016389D01*
X033882Y016452D02*
X033626Y016452D01*
X033626Y016515D02*
X033882Y016515D01*
X033882Y016578D02*
X033626Y016578D01*
X033626Y016641D02*
X033882Y016641D01*
X033882Y016704D02*
X033626Y016704D01*
X033626Y016767D02*
X033882Y016767D01*
X033882Y016830D02*
X033626Y016830D01*
X033626Y016893D02*
X033882Y016893D01*
X033882Y016956D02*
X033626Y016956D01*
X034020Y016389D02*
X034276Y016389D01*
X034020Y016389D02*
X034020Y016995D01*
X034276Y016995D01*
X034276Y016389D01*
X034276Y016452D02*
X034020Y016452D01*
X034020Y016515D02*
X034276Y016515D01*
X034276Y016578D02*
X034020Y016578D01*
X034020Y016641D02*
X034276Y016641D01*
X034276Y016704D02*
X034020Y016704D01*
X034020Y016767D02*
X034276Y016767D01*
X034276Y016830D02*
X034020Y016830D01*
X034020Y016893D02*
X034276Y016893D01*
X034276Y016956D02*
X034020Y016956D01*
X034413Y016389D02*
X034669Y016389D01*
X034413Y016389D02*
X034413Y016995D01*
X034669Y016995D01*
X034669Y016389D01*
X034669Y016452D02*
X034413Y016452D01*
X034413Y016515D02*
X034669Y016515D01*
X034669Y016578D02*
X034413Y016578D01*
X034413Y016641D02*
X034669Y016641D01*
X034669Y016704D02*
X034413Y016704D01*
X034413Y016767D02*
X034669Y016767D01*
X034669Y016830D02*
X034413Y016830D01*
X034413Y016893D02*
X034669Y016893D01*
X034669Y016956D02*
X034413Y016956D01*
X029282Y016586D02*
X029282Y016330D01*
X029282Y016586D02*
X029888Y016586D01*
X029888Y016330D01*
X029282Y016330D01*
X029282Y016393D02*
X029888Y016393D01*
X029888Y016456D02*
X029282Y016456D01*
X029282Y016519D02*
X029888Y016519D01*
X029888Y016582D02*
X029282Y016582D01*
X029282Y016192D02*
X029282Y015936D01*
X029282Y016192D02*
X029888Y016192D01*
X029888Y015936D01*
X029282Y015936D01*
X029282Y015999D02*
X029888Y015999D01*
X029888Y016062D02*
X029282Y016062D01*
X029282Y016125D02*
X029888Y016125D01*
X029888Y016188D02*
X029282Y016188D01*
X029282Y015798D02*
X029282Y015542D01*
X029282Y015798D02*
X029888Y015798D01*
X029888Y015542D01*
X029282Y015542D01*
X029282Y015605D02*
X029888Y015605D01*
X029888Y015668D02*
X029282Y015668D01*
X029282Y015731D02*
X029888Y015731D01*
X029888Y015794D02*
X029282Y015794D01*
X029282Y015405D02*
X029282Y015149D01*
X029282Y015405D02*
X029888Y015405D01*
X029888Y015149D01*
X029282Y015149D01*
X029282Y015212D02*
X029888Y015212D01*
X029888Y015275D02*
X029282Y015275D01*
X029282Y015338D02*
X029888Y015338D01*
X029888Y015401D02*
X029282Y015401D01*
X029282Y015011D02*
X029282Y014755D01*
X029282Y015011D02*
X029888Y015011D01*
X029888Y014755D01*
X029282Y014755D01*
X029282Y014818D02*
X029888Y014818D01*
X029888Y014881D02*
X029282Y014881D01*
X029282Y014944D02*
X029888Y014944D01*
X029888Y015007D02*
X029282Y015007D01*
X029282Y014617D02*
X029282Y014361D01*
X029282Y014617D02*
X029888Y014617D01*
X029888Y014361D01*
X029282Y014361D01*
X029282Y014424D02*
X029888Y014424D01*
X029888Y014487D02*
X029282Y014487D01*
X029282Y014550D02*
X029888Y014550D01*
X029888Y014613D02*
X029282Y014613D01*
X029282Y014223D02*
X029282Y013967D01*
X029282Y014223D02*
X029888Y014223D01*
X029888Y013967D01*
X029282Y013967D01*
X029282Y014030D02*
X029888Y014030D01*
X029888Y014093D02*
X029282Y014093D01*
X029282Y014156D02*
X029888Y014156D01*
X029888Y014219D02*
X029282Y014219D01*
X029282Y013830D02*
X029282Y013574D01*
X029282Y013830D02*
X029888Y013830D01*
X029888Y013574D01*
X029282Y013574D01*
X029282Y013637D02*
X029888Y013637D01*
X029888Y013700D02*
X029282Y013700D01*
X029282Y013763D02*
X029888Y013763D01*
X029888Y013826D02*
X029282Y013826D01*
X029282Y013436D02*
X029282Y013180D01*
X029282Y013436D02*
X029888Y013436D01*
X029888Y013180D01*
X029282Y013180D01*
X029282Y013243D02*
X029888Y013243D01*
X029888Y013306D02*
X029282Y013306D01*
X029282Y013369D02*
X029888Y013369D01*
X029888Y013432D02*
X029282Y013432D01*
X029282Y013042D02*
X029282Y012786D01*
X029282Y013042D02*
X029888Y013042D01*
X029888Y012786D01*
X029282Y012786D01*
X029282Y012849D02*
X029888Y012849D01*
X029888Y012912D02*
X029282Y012912D01*
X029282Y012975D02*
X029888Y012975D01*
X029888Y013038D02*
X029282Y013038D01*
X030083Y012377D02*
X030339Y012377D01*
X030083Y012377D02*
X030083Y012983D01*
X030339Y012983D01*
X030339Y012377D01*
X030339Y012440D02*
X030083Y012440D01*
X030083Y012503D02*
X030339Y012503D01*
X030339Y012566D02*
X030083Y012566D01*
X030083Y012629D02*
X030339Y012629D01*
X030339Y012692D02*
X030083Y012692D01*
X030083Y012755D02*
X030339Y012755D01*
X030339Y012818D02*
X030083Y012818D01*
X030083Y012881D02*
X030339Y012881D01*
X030339Y012944D02*
X030083Y012944D01*
X030476Y012377D02*
X030732Y012377D01*
X030476Y012377D02*
X030476Y012983D01*
X030732Y012983D01*
X030732Y012377D01*
X030732Y012440D02*
X030476Y012440D01*
X030476Y012503D02*
X030732Y012503D01*
X030732Y012566D02*
X030476Y012566D01*
X030476Y012629D02*
X030732Y012629D01*
X030732Y012692D02*
X030476Y012692D01*
X030476Y012755D02*
X030732Y012755D01*
X030732Y012818D02*
X030476Y012818D01*
X030476Y012881D02*
X030732Y012881D01*
X030732Y012944D02*
X030476Y012944D01*
X030870Y012377D02*
X031126Y012377D01*
X030870Y012377D02*
X030870Y012983D01*
X031126Y012983D01*
X031126Y012377D01*
X031126Y012440D02*
X030870Y012440D01*
X030870Y012503D02*
X031126Y012503D01*
X031126Y012566D02*
X030870Y012566D01*
X030870Y012629D02*
X031126Y012629D01*
X031126Y012692D02*
X030870Y012692D01*
X030870Y012755D02*
X031126Y012755D01*
X031126Y012818D02*
X030870Y012818D01*
X030870Y012881D02*
X031126Y012881D01*
X031126Y012944D02*
X030870Y012944D01*
X031264Y012377D02*
X031520Y012377D01*
X031264Y012377D02*
X031264Y012983D01*
X031520Y012983D01*
X031520Y012377D01*
X031520Y012440D02*
X031264Y012440D01*
X031264Y012503D02*
X031520Y012503D01*
X031520Y012566D02*
X031264Y012566D01*
X031264Y012629D02*
X031520Y012629D01*
X031520Y012692D02*
X031264Y012692D01*
X031264Y012755D02*
X031520Y012755D01*
X031520Y012818D02*
X031264Y012818D01*
X031264Y012881D02*
X031520Y012881D01*
X031520Y012944D02*
X031264Y012944D01*
X031658Y012377D02*
X031914Y012377D01*
X031658Y012377D02*
X031658Y012983D01*
X031914Y012983D01*
X031914Y012377D01*
X031914Y012440D02*
X031658Y012440D01*
X031658Y012503D02*
X031914Y012503D01*
X031914Y012566D02*
X031658Y012566D01*
X031658Y012629D02*
X031914Y012629D01*
X031914Y012692D02*
X031658Y012692D01*
X031658Y012755D02*
X031914Y012755D01*
X031914Y012818D02*
X031658Y012818D01*
X031658Y012881D02*
X031914Y012881D01*
X031914Y012944D02*
X031658Y012944D01*
X032051Y012377D02*
X032307Y012377D01*
X032051Y012377D02*
X032051Y012983D01*
X032307Y012983D01*
X032307Y012377D01*
X032307Y012440D02*
X032051Y012440D01*
X032051Y012503D02*
X032307Y012503D01*
X032307Y012566D02*
X032051Y012566D01*
X032051Y012629D02*
X032307Y012629D01*
X032307Y012692D02*
X032051Y012692D01*
X032051Y012755D02*
X032307Y012755D01*
X032307Y012818D02*
X032051Y012818D01*
X032051Y012881D02*
X032307Y012881D01*
X032307Y012944D02*
X032051Y012944D01*
X032445Y012377D02*
X032701Y012377D01*
X032445Y012377D02*
X032445Y012983D01*
X032701Y012983D01*
X032701Y012377D01*
X032701Y012440D02*
X032445Y012440D01*
X032445Y012503D02*
X032701Y012503D01*
X032701Y012566D02*
X032445Y012566D01*
X032445Y012629D02*
X032701Y012629D01*
X032701Y012692D02*
X032445Y012692D01*
X032445Y012755D02*
X032701Y012755D01*
X032701Y012818D02*
X032445Y012818D01*
X032445Y012881D02*
X032701Y012881D01*
X032701Y012944D02*
X032445Y012944D01*
X032839Y012377D02*
X033095Y012377D01*
X032839Y012377D02*
X032839Y012983D01*
X033095Y012983D01*
X033095Y012377D01*
X033095Y012440D02*
X032839Y012440D01*
X032839Y012503D02*
X033095Y012503D01*
X033095Y012566D02*
X032839Y012566D01*
X032839Y012629D02*
X033095Y012629D01*
X033095Y012692D02*
X032839Y012692D01*
X032839Y012755D02*
X033095Y012755D01*
X033095Y012818D02*
X032839Y012818D01*
X032839Y012881D02*
X033095Y012881D01*
X033095Y012944D02*
X032839Y012944D01*
X033232Y012377D02*
X033488Y012377D01*
X033232Y012377D02*
X033232Y012983D01*
X033488Y012983D01*
X033488Y012377D01*
X033488Y012440D02*
X033232Y012440D01*
X033232Y012503D02*
X033488Y012503D01*
X033488Y012566D02*
X033232Y012566D01*
X033232Y012629D02*
X033488Y012629D01*
X033488Y012692D02*
X033232Y012692D01*
X033232Y012755D02*
X033488Y012755D01*
X033488Y012818D02*
X033232Y012818D01*
X033232Y012881D02*
X033488Y012881D01*
X033488Y012944D02*
X033232Y012944D01*
X033626Y012377D02*
X033882Y012377D01*
X033626Y012377D02*
X033626Y012983D01*
X033882Y012983D01*
X033882Y012377D01*
X033882Y012440D02*
X033626Y012440D01*
X033626Y012503D02*
X033882Y012503D01*
X033882Y012566D02*
X033626Y012566D01*
X033626Y012629D02*
X033882Y012629D01*
X033882Y012692D02*
X033626Y012692D01*
X033626Y012755D02*
X033882Y012755D01*
X033882Y012818D02*
X033626Y012818D01*
X033626Y012881D02*
X033882Y012881D01*
X033882Y012944D02*
X033626Y012944D01*
X034020Y012377D02*
X034276Y012377D01*
X034020Y012377D02*
X034020Y012983D01*
X034276Y012983D01*
X034276Y012377D01*
X034276Y012440D02*
X034020Y012440D01*
X034020Y012503D02*
X034276Y012503D01*
X034276Y012566D02*
X034020Y012566D01*
X034020Y012629D02*
X034276Y012629D01*
X034276Y012692D02*
X034020Y012692D01*
X034020Y012755D02*
X034276Y012755D01*
X034276Y012818D02*
X034020Y012818D01*
X034020Y012881D02*
X034276Y012881D01*
X034276Y012944D02*
X034020Y012944D01*
X034413Y012377D02*
X034669Y012377D01*
X034413Y012377D02*
X034413Y012983D01*
X034669Y012983D01*
X034669Y012377D01*
X034669Y012440D02*
X034413Y012440D01*
X034413Y012503D02*
X034669Y012503D01*
X034669Y012566D02*
X034413Y012566D01*
X034413Y012629D02*
X034669Y012629D01*
X034669Y012692D02*
X034413Y012692D01*
X034413Y012755D02*
X034669Y012755D01*
X034669Y012818D02*
X034413Y012818D01*
X034413Y012881D02*
X034669Y012881D01*
X034669Y012944D02*
X034413Y012944D01*
D19*
X034452Y011950D02*
X034668Y011950D01*
X034452Y011950D02*
X034452Y012216D01*
X034668Y012216D01*
X034668Y011950D01*
X034668Y012003D02*
X034452Y012003D01*
X034452Y012056D02*
X034668Y012056D01*
X034668Y012109D02*
X034452Y012109D01*
X034452Y012162D02*
X034668Y012162D01*
X034668Y012215D02*
X034452Y012215D01*
X034358Y011950D02*
X034142Y011950D01*
X034142Y012216D01*
X034358Y012216D01*
X034358Y011950D01*
X034358Y012003D02*
X034142Y012003D01*
X034142Y012056D02*
X034358Y012056D01*
X034358Y012109D02*
X034142Y012109D01*
X034142Y012162D02*
X034358Y012162D01*
X034358Y012215D02*
X034142Y012215D01*
X033978Y012216D02*
X033762Y012216D01*
X033978Y012216D02*
X033978Y011950D01*
X033762Y011950D01*
X033762Y012216D01*
X033762Y012003D02*
X033978Y012003D01*
X033978Y012056D02*
X033762Y012056D01*
X033762Y012109D02*
X033978Y012109D01*
X033978Y012162D02*
X033762Y012162D01*
X033762Y012215D02*
X033978Y012215D01*
X033668Y012216D02*
X033452Y012216D01*
X033668Y012216D02*
X033668Y011950D01*
X033452Y011950D01*
X033452Y012216D01*
X033452Y012003D02*
X033668Y012003D01*
X033668Y012056D02*
X033452Y012056D01*
X033452Y012109D02*
X033668Y012109D01*
X033668Y012162D02*
X033452Y012162D01*
X033452Y012215D02*
X033668Y012215D01*
X033198Y017900D02*
X032982Y017900D01*
X032982Y018166D01*
X033198Y018166D01*
X033198Y017900D01*
X033198Y017953D02*
X032982Y017953D01*
X032982Y018006D02*
X033198Y018006D01*
X033198Y018059D02*
X032982Y018059D01*
X032982Y018112D02*
X033198Y018112D01*
X033198Y018165D02*
X032982Y018165D01*
X032888Y017900D02*
X032672Y017900D01*
X032672Y018166D01*
X032888Y018166D01*
X032888Y017900D01*
X032888Y017953D02*
X032672Y017953D01*
X032672Y018006D02*
X032888Y018006D01*
X032888Y018059D02*
X032672Y018059D01*
X032672Y018112D02*
X032888Y018112D01*
X032888Y018165D02*
X032672Y018165D01*
X032548Y018166D02*
X032332Y018166D01*
X032548Y018166D02*
X032548Y017900D01*
X032332Y017900D01*
X032332Y018166D01*
X032332Y017953D02*
X032548Y017953D01*
X032548Y018006D02*
X032332Y018006D01*
X032332Y018059D02*
X032548Y018059D01*
X032548Y018112D02*
X032332Y018112D01*
X032332Y018165D02*
X032548Y018165D01*
X032238Y018166D02*
X032022Y018166D01*
X032238Y018166D02*
X032238Y017900D01*
X032022Y017900D01*
X032022Y018166D01*
X032022Y017953D02*
X032238Y017953D01*
X032238Y018006D02*
X032022Y018006D01*
X032022Y018059D02*
X032238Y018059D01*
X032238Y018112D02*
X032022Y018112D01*
X032022Y018165D02*
X032238Y018165D01*
X031098Y017900D02*
X030882Y017900D01*
X030882Y018166D01*
X031098Y018166D01*
X031098Y017900D01*
X031098Y017953D02*
X030882Y017953D01*
X030882Y018006D02*
X031098Y018006D01*
X031098Y018059D02*
X030882Y018059D01*
X030882Y018112D02*
X031098Y018112D01*
X031098Y018165D02*
X030882Y018165D01*
X030788Y017900D02*
X030572Y017900D01*
X030572Y018166D01*
X030788Y018166D01*
X030788Y017900D01*
X030788Y017953D02*
X030572Y017953D01*
X030572Y018006D02*
X030788Y018006D01*
X030788Y018059D02*
X030572Y018059D01*
X030572Y018112D02*
X030788Y018112D01*
X030788Y018165D02*
X030572Y018165D01*
X021202Y015106D02*
X021202Y014890D01*
X021202Y015106D02*
X021468Y015106D01*
X021468Y014890D01*
X021202Y014890D01*
X021202Y014943D02*
X021468Y014943D01*
X021468Y014996D02*
X021202Y014996D01*
X021202Y015049D02*
X021468Y015049D01*
X021468Y015102D02*
X021202Y015102D01*
X021202Y014796D02*
X021202Y014580D01*
X021202Y014796D02*
X021468Y014796D01*
X021468Y014580D01*
X021202Y014580D01*
X021202Y014633D02*
X021468Y014633D01*
X021468Y014686D02*
X021202Y014686D01*
X021202Y014739D02*
X021468Y014739D01*
X021468Y014792D02*
X021202Y014792D01*
X015252Y014496D02*
X015252Y014280D01*
X015252Y014496D02*
X015518Y014496D01*
X015518Y014280D01*
X015252Y014280D01*
X015252Y014333D02*
X015518Y014333D01*
X015518Y014386D02*
X015252Y014386D01*
X015252Y014439D02*
X015518Y014439D01*
X015518Y014492D02*
X015252Y014492D01*
X015252Y014186D02*
X015252Y013970D01*
X015252Y014186D02*
X015518Y014186D01*
X015518Y013970D01*
X015252Y013970D01*
X015252Y014023D02*
X015518Y014023D01*
X015518Y014076D02*
X015252Y014076D01*
X015252Y014129D02*
X015518Y014129D01*
X015518Y014182D02*
X015252Y014182D01*
X015302Y015770D02*
X015302Y015986D01*
X015568Y015986D01*
X015568Y015770D01*
X015302Y015770D01*
X015302Y015823D02*
X015568Y015823D01*
X015568Y015876D02*
X015302Y015876D01*
X015302Y015929D02*
X015568Y015929D01*
X015568Y015982D02*
X015302Y015982D01*
X015302Y016080D02*
X015302Y016296D01*
X015568Y016296D01*
X015568Y016080D01*
X015302Y016080D01*
X015302Y016133D02*
X015568Y016133D01*
X015568Y016186D02*
X015302Y016186D01*
X015302Y016239D02*
X015568Y016239D01*
X015568Y016292D02*
X015302Y016292D01*
X017122Y019816D02*
X017338Y019816D01*
X017338Y019550D01*
X017122Y019550D01*
X017122Y019816D01*
X017122Y019603D02*
X017338Y019603D01*
X017338Y019656D02*
X017122Y019656D01*
X017122Y019709D02*
X017338Y019709D01*
X017338Y019762D02*
X017122Y019762D01*
X017122Y019815D02*
X017338Y019815D01*
X017432Y019816D02*
X017648Y019816D01*
X017648Y019550D01*
X017432Y019550D01*
X017432Y019816D01*
X017432Y019603D02*
X017648Y019603D01*
X017648Y019656D02*
X017432Y019656D01*
X017432Y019709D02*
X017648Y019709D01*
X017648Y019762D02*
X017432Y019762D01*
X017432Y019815D02*
X017648Y019815D01*
X012818Y012546D02*
X012818Y012330D01*
X012552Y012330D01*
X012552Y012546D01*
X012818Y012546D01*
X012818Y012383D02*
X012552Y012383D01*
X012552Y012436D02*
X012818Y012436D01*
X012818Y012489D02*
X012552Y012489D01*
X012552Y012542D02*
X012818Y012542D01*
X012818Y012236D02*
X012818Y012020D01*
X012552Y012020D01*
X012552Y012236D01*
X012818Y012236D01*
X012818Y012073D02*
X012552Y012073D01*
X012552Y012126D02*
X012818Y012126D01*
X012818Y012179D02*
X012552Y012179D01*
X012552Y012232D02*
X012818Y012232D01*
D20*
X023833Y010936D02*
X024137Y010936D01*
X023833Y010936D02*
X023833Y011440D01*
X024137Y011440D01*
X024137Y010936D01*
X024137Y011011D02*
X023833Y011011D01*
X023833Y011086D02*
X024137Y011086D01*
X024137Y011161D02*
X023833Y011161D01*
X023833Y011236D02*
X024137Y011236D01*
X024137Y011311D02*
X023833Y011311D01*
X023833Y011386D02*
X024137Y011386D01*
X024333Y010936D02*
X024637Y010936D01*
X024333Y010936D02*
X024333Y011440D01*
X024637Y011440D01*
X024637Y010936D01*
X024637Y011011D02*
X024333Y011011D01*
X024333Y011086D02*
X024637Y011086D01*
X024637Y011161D02*
X024333Y011161D01*
X024333Y011236D02*
X024637Y011236D01*
X024637Y011311D02*
X024333Y011311D01*
X024333Y011386D02*
X024637Y011386D01*
X024833Y010936D02*
X025137Y010936D01*
X024833Y010936D02*
X024833Y011440D01*
X025137Y011440D01*
X025137Y010936D01*
X025137Y011011D02*
X024833Y011011D01*
X024833Y011086D02*
X025137Y011086D01*
X025137Y011161D02*
X024833Y011161D01*
X024833Y011236D02*
X025137Y011236D01*
X025137Y011311D02*
X024833Y011311D01*
X024833Y011386D02*
X025137Y011386D01*
X025333Y010936D02*
X025637Y010936D01*
X025333Y010936D02*
X025333Y011440D01*
X025637Y011440D01*
X025637Y010936D01*
X025637Y011011D02*
X025333Y011011D01*
X025333Y011086D02*
X025637Y011086D01*
X025637Y011161D02*
X025333Y011161D01*
X025333Y011236D02*
X025637Y011236D01*
X025637Y011311D02*
X025333Y011311D01*
X025333Y011386D02*
X025637Y011386D01*
X025637Y009326D02*
X025333Y009326D01*
X025333Y009830D01*
X025637Y009830D01*
X025637Y009326D01*
X025637Y009401D02*
X025333Y009401D01*
X025333Y009476D02*
X025637Y009476D01*
X025637Y009551D02*
X025333Y009551D01*
X025333Y009626D02*
X025637Y009626D01*
X025637Y009701D02*
X025333Y009701D01*
X025333Y009776D02*
X025637Y009776D01*
X025137Y009326D02*
X024833Y009326D01*
X024833Y009830D01*
X025137Y009830D01*
X025137Y009326D01*
X025137Y009401D02*
X024833Y009401D01*
X024833Y009476D02*
X025137Y009476D01*
X025137Y009551D02*
X024833Y009551D01*
X024833Y009626D02*
X025137Y009626D01*
X025137Y009701D02*
X024833Y009701D01*
X024833Y009776D02*
X025137Y009776D01*
X024637Y009326D02*
X024333Y009326D01*
X024333Y009830D01*
X024637Y009830D01*
X024637Y009326D01*
X024637Y009401D02*
X024333Y009401D01*
X024333Y009476D02*
X024637Y009476D01*
X024637Y009551D02*
X024333Y009551D01*
X024333Y009626D02*
X024637Y009626D01*
X024637Y009701D02*
X024333Y009701D01*
X024333Y009776D02*
X024637Y009776D01*
X024137Y009326D02*
X023833Y009326D01*
X023833Y009830D01*
X024137Y009830D01*
X024137Y009326D01*
X024137Y009401D02*
X023833Y009401D01*
X023833Y009476D02*
X024137Y009476D01*
X024137Y009551D02*
X023833Y009551D01*
X023833Y009626D02*
X024137Y009626D01*
X024137Y009701D02*
X023833Y009701D01*
X023833Y009776D02*
X024137Y009776D01*
X029133Y009326D02*
X029437Y009326D01*
X029133Y009326D02*
X029133Y009830D01*
X029437Y009830D01*
X029437Y009326D01*
X029437Y009401D02*
X029133Y009401D01*
X029133Y009476D02*
X029437Y009476D01*
X029437Y009551D02*
X029133Y009551D01*
X029133Y009626D02*
X029437Y009626D01*
X029437Y009701D02*
X029133Y009701D01*
X029133Y009776D02*
X029437Y009776D01*
X029633Y009326D02*
X029937Y009326D01*
X029633Y009326D02*
X029633Y009830D01*
X029937Y009830D01*
X029937Y009326D01*
X029937Y009401D02*
X029633Y009401D01*
X029633Y009476D02*
X029937Y009476D01*
X029937Y009551D02*
X029633Y009551D01*
X029633Y009626D02*
X029937Y009626D01*
X029937Y009701D02*
X029633Y009701D01*
X029633Y009776D02*
X029937Y009776D01*
X030133Y009326D02*
X030437Y009326D01*
X030133Y009326D02*
X030133Y009830D01*
X030437Y009830D01*
X030437Y009326D01*
X030437Y009401D02*
X030133Y009401D01*
X030133Y009476D02*
X030437Y009476D01*
X030437Y009551D02*
X030133Y009551D01*
X030133Y009626D02*
X030437Y009626D01*
X030437Y009701D02*
X030133Y009701D01*
X030133Y009776D02*
X030437Y009776D01*
X030633Y009326D02*
X030937Y009326D01*
X030633Y009326D02*
X030633Y009830D01*
X030937Y009830D01*
X030937Y009326D01*
X030937Y009401D02*
X030633Y009401D01*
X030633Y009476D02*
X030937Y009476D01*
X030937Y009551D02*
X030633Y009551D01*
X030633Y009626D02*
X030937Y009626D01*
X030937Y009701D02*
X030633Y009701D01*
X030633Y009776D02*
X030937Y009776D01*
X030937Y010936D02*
X030633Y010936D01*
X030633Y011440D01*
X030937Y011440D01*
X030937Y010936D01*
X030937Y011011D02*
X030633Y011011D01*
X030633Y011086D02*
X030937Y011086D01*
X030937Y011161D02*
X030633Y011161D01*
X030633Y011236D02*
X030937Y011236D01*
X030937Y011311D02*
X030633Y011311D01*
X030633Y011386D02*
X030937Y011386D01*
X030437Y010936D02*
X030133Y010936D01*
X030133Y011440D01*
X030437Y011440D01*
X030437Y010936D01*
X030437Y011011D02*
X030133Y011011D01*
X030133Y011086D02*
X030437Y011086D01*
X030437Y011161D02*
X030133Y011161D01*
X030133Y011236D02*
X030437Y011236D01*
X030437Y011311D02*
X030133Y011311D01*
X030133Y011386D02*
X030437Y011386D01*
X029937Y010936D02*
X029633Y010936D01*
X029633Y011440D01*
X029937Y011440D01*
X029937Y010936D01*
X029937Y011011D02*
X029633Y011011D01*
X029633Y011086D02*
X029937Y011086D01*
X029937Y011161D02*
X029633Y011161D01*
X029633Y011236D02*
X029937Y011236D01*
X029937Y011311D02*
X029633Y011311D01*
X029633Y011386D02*
X029937Y011386D01*
X029437Y010936D02*
X029133Y010936D01*
X029133Y011440D01*
X029437Y011440D01*
X029437Y010936D01*
X029437Y011011D02*
X029133Y011011D01*
X029133Y011086D02*
X029437Y011086D01*
X029437Y011161D02*
X029133Y011161D01*
X029133Y011236D02*
X029437Y011236D01*
X029437Y011311D02*
X029133Y011311D01*
X029133Y011386D02*
X029437Y011386D01*
X032447Y017206D02*
X032447Y017760D01*
X032447Y017206D02*
X032143Y017206D01*
X032143Y017760D01*
X032447Y017760D01*
X032447Y017281D02*
X032143Y017281D01*
X032143Y017356D02*
X032447Y017356D01*
X032447Y017431D02*
X032143Y017431D01*
X032143Y017506D02*
X032447Y017506D01*
X032447Y017581D02*
X032143Y017581D01*
X032143Y017656D02*
X032447Y017656D01*
X032447Y017731D02*
X032143Y017731D01*
X033027Y017760D02*
X033027Y017206D01*
X032723Y017206D01*
X032723Y017760D01*
X033027Y017760D01*
X033027Y017281D02*
X032723Y017281D01*
X032723Y017356D02*
X033027Y017356D01*
X033027Y017431D02*
X032723Y017431D01*
X032723Y017506D02*
X033027Y017506D01*
X033027Y017581D02*
X032723Y017581D01*
X032723Y017656D02*
X033027Y017656D01*
X033027Y017731D02*
X032723Y017731D01*
D21*
X020605Y018183D02*
X020165Y018183D01*
X020165Y017183D02*
X020605Y017183D01*
X020605Y016183D02*
X020165Y016183D01*
X020165Y015183D02*
X020605Y015183D01*
X020605Y014183D02*
X020165Y014183D01*
X020165Y013183D02*
X020605Y013183D01*
X020605Y012183D02*
X020165Y012183D01*
X020165Y011183D02*
X020605Y011183D01*
X020605Y010183D02*
X020165Y010183D01*
X017605Y010183D02*
X017165Y010183D01*
X017165Y011183D02*
X017605Y011183D01*
X017605Y012183D02*
X017165Y012183D01*
X017165Y013183D02*
X017605Y013183D01*
X017605Y014183D02*
X017165Y014183D01*
X017165Y015183D02*
X017605Y015183D01*
X017605Y016183D02*
X017165Y016183D01*
X017165Y017183D02*
X017605Y017183D01*
X017605Y018183D02*
X017165Y018183D01*
X017165Y019183D02*
X017605Y019183D01*
X020165Y019183D02*
X020605Y019183D01*
D22*
X015485Y018083D03*
X014685Y019183D03*
D23*
X015472Y019183D03*
X016259Y019183D03*
X016272Y018083D03*
D24*
X014931Y018401D02*
X014715Y018401D01*
X014931Y018401D02*
X014931Y018165D01*
X014715Y018165D01*
X014715Y018401D01*
X014715Y018252D02*
X014931Y018252D01*
X014931Y018339D02*
X014715Y018339D01*
X014554Y018401D02*
X014338Y018401D01*
X014554Y018401D02*
X014554Y018165D01*
X014338Y018165D01*
X014338Y018401D01*
X014338Y018252D02*
X014554Y018252D01*
X014554Y018339D02*
X014338Y018339D01*
X015038Y017115D02*
X015254Y017115D01*
X015038Y017115D02*
X015038Y017351D01*
X015254Y017351D01*
X015254Y017115D01*
X015254Y017202D02*
X015038Y017202D01*
X015038Y017289D02*
X015254Y017289D01*
X015415Y017115D02*
X015631Y017115D01*
X015415Y017115D02*
X015415Y017351D01*
X015631Y017351D01*
X015631Y017115D01*
X015631Y017202D02*
X015415Y017202D01*
X015415Y017289D02*
X015631Y017289D01*
X015631Y016715D02*
X015415Y016715D01*
X015415Y016951D01*
X015631Y016951D01*
X015631Y016715D01*
X015631Y016802D02*
X015415Y016802D01*
X015415Y016889D02*
X015631Y016889D01*
X015254Y016715D02*
X015038Y016715D01*
X015038Y016951D01*
X015254Y016951D01*
X015254Y016715D01*
X015254Y016802D02*
X015038Y016802D01*
X015038Y016889D02*
X015254Y016889D01*
X013017Y016952D02*
X013017Y016736D01*
X013017Y016952D02*
X013253Y016952D01*
X013253Y016736D01*
X013017Y016736D01*
X013017Y016823D02*
X013253Y016823D01*
X013253Y016910D02*
X013017Y016910D01*
X013017Y017114D02*
X013017Y017330D01*
X013253Y017330D01*
X013253Y017114D01*
X013017Y017114D01*
X013017Y017201D02*
X013253Y017201D01*
X013253Y017288D02*
X013017Y017288D01*
X013004Y015715D02*
X012788Y015715D01*
X012788Y015951D01*
X013004Y015951D01*
X013004Y015715D01*
X013004Y015802D02*
X012788Y015802D01*
X012788Y015889D02*
X013004Y015889D01*
X013165Y015715D02*
X013381Y015715D01*
X013165Y015715D02*
X013165Y015951D01*
X013381Y015951D01*
X013381Y015715D01*
X013381Y015802D02*
X013165Y015802D01*
X013165Y015889D02*
X013381Y015889D01*
X013381Y015215D02*
X013165Y015215D01*
X013165Y015451D01*
X013381Y015451D01*
X013381Y015215D01*
X013381Y015302D02*
X013165Y015302D01*
X013165Y015389D02*
X013381Y015389D01*
X013004Y015215D02*
X012788Y015215D01*
X012788Y015451D01*
X013004Y015451D01*
X013004Y015215D01*
X013004Y015302D02*
X012788Y015302D01*
X012788Y015389D02*
X013004Y015389D01*
X013103Y014530D02*
X013103Y014314D01*
X012867Y014314D01*
X012867Y014530D01*
X013103Y014530D01*
X013103Y014401D02*
X012867Y014401D01*
X012867Y014488D02*
X013103Y014488D01*
X013103Y014152D02*
X013103Y013936D01*
X012867Y013936D01*
X012867Y014152D01*
X013103Y014152D01*
X013103Y014023D02*
X012867Y014023D01*
X012867Y014110D02*
X013103Y014110D01*
X016003Y014152D02*
X016003Y013936D01*
X015767Y013936D01*
X015767Y014152D01*
X016003Y014152D01*
X016003Y014023D02*
X015767Y014023D01*
X015767Y014110D02*
X016003Y014110D01*
X016003Y014314D02*
X016003Y014530D01*
X016003Y014314D02*
X015767Y014314D01*
X015767Y014530D01*
X016003Y014530D01*
X016003Y014401D02*
X015767Y014401D01*
X015767Y014488D02*
X016003Y014488D01*
X018588Y013301D02*
X018804Y013301D01*
X018804Y013065D01*
X018588Y013065D01*
X018588Y013301D01*
X018588Y013152D02*
X018804Y013152D01*
X018804Y013239D02*
X018588Y013239D01*
X018965Y013301D02*
X019181Y013301D01*
X019181Y013065D01*
X018965Y013065D01*
X018965Y013301D01*
X018965Y013152D02*
X019181Y013152D01*
X019181Y013239D02*
X018965Y013239D01*
X021453Y015286D02*
X021453Y015502D01*
X021453Y015286D02*
X021217Y015286D01*
X021217Y015502D01*
X021453Y015502D01*
X021453Y015373D02*
X021217Y015373D01*
X021217Y015460D02*
X021453Y015460D01*
X021453Y015664D02*
X021453Y015880D01*
X021453Y015664D02*
X021217Y015664D01*
X021217Y015880D01*
X021453Y015880D01*
X021453Y015751D02*
X021217Y015751D01*
X021217Y015838D02*
X021453Y015838D01*
X019181Y016301D02*
X018965Y016301D01*
X019181Y016301D02*
X019181Y016065D01*
X018965Y016065D01*
X018965Y016301D01*
X018965Y016152D02*
X019181Y016152D01*
X019181Y016239D02*
X018965Y016239D01*
X018804Y016301D02*
X018588Y016301D01*
X018804Y016301D02*
X018804Y016065D01*
X018588Y016065D01*
X018588Y016301D01*
X018588Y016152D02*
X018804Y016152D01*
X018804Y016239D02*
X018588Y016239D01*
X028888Y017915D02*
X029104Y017915D01*
X028888Y017915D02*
X028888Y018151D01*
X029104Y018151D01*
X029104Y017915D01*
X029104Y018002D02*
X028888Y018002D01*
X028888Y018089D02*
X029104Y018089D01*
X029265Y017915D02*
X029481Y017915D01*
X029265Y017915D02*
X029265Y018151D01*
X029481Y018151D01*
X029481Y017915D01*
X029481Y018002D02*
X029265Y018002D01*
X029265Y018089D02*
X029481Y018089D01*
X029738Y017915D02*
X029954Y017915D01*
X029738Y017915D02*
X029738Y018151D01*
X029954Y018151D01*
X029954Y017915D01*
X029954Y018002D02*
X029738Y018002D01*
X029738Y018089D02*
X029954Y018089D01*
X030115Y017915D02*
X030331Y017915D01*
X030115Y017915D02*
X030115Y018151D01*
X030331Y018151D01*
X030331Y017915D01*
X030331Y018002D02*
X030115Y018002D01*
X030115Y018089D02*
X030331Y018089D01*
X033338Y018151D02*
X033554Y018151D01*
X033554Y017915D01*
X033338Y017915D01*
X033338Y018151D01*
X033338Y018002D02*
X033554Y018002D01*
X033554Y018089D02*
X033338Y018089D01*
X033715Y018151D02*
X033931Y018151D01*
X033931Y017915D01*
X033715Y017915D01*
X033715Y018151D01*
X033715Y018002D02*
X033931Y018002D01*
X033931Y018089D02*
X033715Y018089D01*
X033715Y017751D02*
X033931Y017751D01*
X033931Y017515D01*
X033715Y017515D01*
X033715Y017751D01*
X033715Y017602D02*
X033931Y017602D01*
X033931Y017689D02*
X033715Y017689D01*
X033554Y017751D02*
X033338Y017751D01*
X033554Y017751D02*
X033554Y017515D01*
X033338Y017515D01*
X033338Y017751D01*
X033338Y017602D02*
X033554Y017602D01*
X033554Y017689D02*
X033338Y017689D01*
X021081Y009451D02*
X020865Y009451D01*
X021081Y009451D02*
X021081Y009215D01*
X020865Y009215D01*
X020865Y009451D01*
X020865Y009302D02*
X021081Y009302D01*
X021081Y009389D02*
X020865Y009389D01*
X020704Y009451D02*
X020488Y009451D01*
X020704Y009451D02*
X020704Y009215D01*
X020488Y009215D01*
X020488Y009451D01*
X020488Y009302D02*
X020704Y009302D01*
X020704Y009389D02*
X020488Y009389D01*
X018481Y009215D02*
X018265Y009215D01*
X018265Y009451D01*
X018481Y009451D01*
X018481Y009215D01*
X018481Y009302D02*
X018265Y009302D01*
X018265Y009389D02*
X018481Y009389D01*
X018104Y009215D02*
X017888Y009215D01*
X017888Y009451D01*
X018104Y009451D01*
X018104Y009215D01*
X018104Y009302D02*
X017888Y009302D01*
X017888Y009389D02*
X018104Y009389D01*
X015881Y009215D02*
X015665Y009215D01*
X015665Y009451D01*
X015881Y009451D01*
X015881Y009215D01*
X015881Y009302D02*
X015665Y009302D01*
X015665Y009389D02*
X015881Y009389D01*
X015504Y009215D02*
X015288Y009215D01*
X015288Y009451D01*
X015504Y009451D01*
X015504Y009215D01*
X015504Y009302D02*
X015288Y009302D01*
X015288Y009389D02*
X015504Y009389D01*
X012017Y009437D02*
X012017Y009653D01*
X012253Y009653D01*
X012253Y009437D01*
X012017Y009437D01*
X012017Y009524D02*
X012253Y009524D01*
X012253Y009611D02*
X012017Y009611D01*
X012017Y009815D02*
X012017Y010031D01*
X012253Y010031D01*
X012253Y009815D01*
X012017Y009815D01*
X012017Y009902D02*
X012253Y009902D01*
X012253Y009989D02*
X012017Y009989D01*
X026588Y009423D02*
X026804Y009423D01*
X026804Y009187D01*
X026588Y009187D01*
X026588Y009423D01*
X026588Y009274D02*
X026804Y009274D01*
X026804Y009361D02*
X026588Y009361D01*
X026965Y009423D02*
X027181Y009423D01*
X027181Y009187D01*
X026965Y009187D01*
X026965Y009423D01*
X026965Y009274D02*
X027181Y009274D01*
X027181Y009361D02*
X026965Y009361D01*
X027588Y009187D02*
X027804Y009187D01*
X027588Y009187D02*
X027588Y009423D01*
X027804Y009423D01*
X027804Y009187D01*
X027804Y009274D02*
X027588Y009274D01*
X027588Y009361D02*
X027804Y009361D01*
X027965Y009187D02*
X028181Y009187D01*
X027965Y009187D02*
X027965Y009423D01*
X028181Y009423D01*
X028181Y009187D01*
X028181Y009274D02*
X027965Y009274D01*
X027965Y009361D02*
X028181Y009361D01*
D25*
X020310Y009451D02*
X020114Y009451D01*
X020310Y009451D02*
X020310Y009215D01*
X020114Y009215D01*
X020114Y009451D01*
X020114Y009294D02*
X020310Y009294D01*
X020310Y009373D02*
X020114Y009373D01*
X019955Y009451D02*
X019759Y009451D01*
X019955Y009451D02*
X019955Y009215D01*
X019759Y009215D01*
X019759Y009451D01*
X019759Y009294D02*
X019955Y009294D01*
X019955Y009373D02*
X019759Y009373D01*
X017730Y009451D02*
X017534Y009451D01*
X017730Y009451D02*
X017730Y009215D01*
X017534Y009215D01*
X017534Y009451D01*
X017534Y009294D02*
X017730Y009294D01*
X017730Y009373D02*
X017534Y009373D01*
X017375Y009451D02*
X017179Y009451D01*
X017375Y009451D02*
X017375Y009215D01*
X017179Y009215D01*
X017179Y009451D01*
X017179Y009294D02*
X017375Y009294D01*
X017375Y009373D02*
X017179Y009373D01*
X015130Y009451D02*
X014934Y009451D01*
X015130Y009451D02*
X015130Y009215D01*
X014934Y009215D01*
X014934Y009451D01*
X014934Y009294D02*
X015130Y009294D01*
X015130Y009373D02*
X014934Y009373D01*
X014775Y009451D02*
X014579Y009451D01*
X014775Y009451D02*
X014775Y009215D01*
X014579Y009215D01*
X014579Y009451D01*
X014579Y009294D02*
X014775Y009294D01*
X014775Y009373D02*
X014579Y009373D01*
X018609Y012565D02*
X018805Y012565D01*
X018609Y012565D02*
X018609Y012801D01*
X018805Y012801D01*
X018805Y012565D01*
X018805Y012644D02*
X018609Y012644D01*
X018609Y012723D02*
X018805Y012723D01*
X018964Y012565D02*
X019160Y012565D01*
X018964Y012565D02*
X018964Y012801D01*
X019160Y012801D01*
X019160Y012565D01*
X019160Y012644D02*
X018964Y012644D01*
X018964Y012723D02*
X019160Y012723D01*
X019160Y016565D02*
X018964Y016565D01*
X018964Y016801D01*
X019160Y016801D01*
X019160Y016565D01*
X019160Y016644D02*
X018964Y016644D01*
X018964Y016723D02*
X019160Y016723D01*
X018805Y016565D02*
X018609Y016565D01*
X018609Y016801D01*
X018805Y016801D01*
X018805Y016565D01*
X018805Y016644D02*
X018609Y016644D01*
X018609Y016723D02*
X018805Y016723D01*
X034099Y017515D02*
X034295Y017515D01*
X034099Y017515D02*
X034099Y017751D01*
X034295Y017751D01*
X034295Y017515D01*
X034295Y017594D02*
X034099Y017594D01*
X034099Y017673D02*
X034295Y017673D01*
X034454Y017515D02*
X034650Y017515D01*
X034454Y017515D02*
X034454Y017751D01*
X034650Y017751D01*
X034650Y017515D01*
X034650Y017594D02*
X034454Y017594D01*
X034454Y017673D02*
X034650Y017673D01*
X034650Y017915D02*
X034454Y017915D01*
X034454Y018151D01*
X034650Y018151D01*
X034650Y017915D01*
X034650Y017994D02*
X034454Y017994D01*
X034454Y018073D02*
X034650Y018073D01*
X034295Y017915D02*
X034099Y017915D01*
X034099Y018151D01*
X034295Y018151D01*
X034295Y017915D01*
X034295Y017994D02*
X034099Y017994D01*
X034099Y018073D02*
X034295Y018073D01*
D26*
X030312Y019298D02*
X029996Y019298D01*
X029996Y019968D01*
X030312Y019968D01*
X030312Y019298D01*
X030312Y019376D02*
X029996Y019376D01*
X029996Y019454D02*
X030312Y019454D01*
X030312Y019532D02*
X029996Y019532D01*
X029996Y019610D02*
X030312Y019610D01*
X030312Y019688D02*
X029996Y019688D01*
X029996Y019766D02*
X030312Y019766D01*
X030312Y019844D02*
X029996Y019844D01*
X029996Y019922D02*
X030312Y019922D01*
X028973Y019298D02*
X028657Y019298D01*
X028657Y019968D01*
X028973Y019968D01*
X028973Y019298D01*
X028973Y019376D02*
X028657Y019376D01*
X028657Y019454D02*
X028973Y019454D01*
X028973Y019532D02*
X028657Y019532D01*
X028657Y019610D02*
X028973Y019610D01*
X028973Y019688D02*
X028657Y019688D01*
X028657Y019766D02*
X028973Y019766D01*
X028973Y019844D02*
X028657Y019844D01*
X028657Y019922D02*
X028973Y019922D01*
X023112Y009398D02*
X022796Y009398D01*
X022796Y010068D01*
X023112Y010068D01*
X023112Y009398D01*
X023112Y009476D02*
X022796Y009476D01*
X022796Y009554D02*
X023112Y009554D01*
X023112Y009632D02*
X022796Y009632D01*
X022796Y009710D02*
X023112Y009710D01*
X023112Y009788D02*
X022796Y009788D01*
X022796Y009866D02*
X023112Y009866D01*
X023112Y009944D02*
X022796Y009944D01*
X022796Y010022D02*
X023112Y010022D01*
X021773Y009398D02*
X021457Y009398D01*
X021457Y010068D01*
X021773Y010068D01*
X021773Y009398D01*
X021773Y009476D02*
X021457Y009476D01*
X021457Y009554D02*
X021773Y009554D01*
X021773Y009632D02*
X021457Y009632D01*
X021457Y009710D02*
X021773Y009710D01*
X021773Y009788D02*
X021457Y009788D01*
X021457Y009866D02*
X021773Y009866D01*
X021773Y009944D02*
X021457Y009944D01*
X021457Y010022D02*
X021773Y010022D01*
X014112Y009398D02*
X013796Y009398D01*
X013796Y010068D01*
X014112Y010068D01*
X014112Y009398D01*
X014112Y009476D02*
X013796Y009476D01*
X013796Y009554D02*
X014112Y009554D01*
X014112Y009632D02*
X013796Y009632D01*
X013796Y009710D02*
X014112Y009710D01*
X014112Y009788D02*
X013796Y009788D01*
X013796Y009866D02*
X014112Y009866D01*
X014112Y009944D02*
X013796Y009944D01*
X013796Y010022D02*
X014112Y010022D01*
X012773Y009398D02*
X012457Y009398D01*
X012457Y010068D01*
X012773Y010068D01*
X012773Y009398D01*
X012773Y009476D02*
X012457Y009476D01*
X012457Y009554D02*
X012773Y009554D01*
X012773Y009632D02*
X012457Y009632D01*
X012457Y009710D02*
X012773Y009710D01*
X012773Y009788D02*
X012457Y009788D01*
X012457Y009866D02*
X012773Y009866D01*
X012773Y009944D02*
X012457Y009944D01*
X012457Y010022D02*
X012773Y010022D01*
D27*
X011185Y010044D02*
X010585Y010044D01*
X010585Y010092D02*
X011185Y010092D01*
X011185Y010141D02*
X010585Y010141D01*
X010585Y010189D02*
X011185Y010189D01*
X011185Y010238D02*
X010585Y010238D01*
X010585Y010286D02*
X011185Y010286D01*
X011185Y010335D02*
X010585Y010335D01*
X010585Y010383D02*
X011185Y010383D01*
X011185Y010432D02*
X010585Y010432D01*
X010585Y010433D02*
X010587Y010448D01*
X010594Y010462D01*
X010605Y010473D01*
X010619Y010480D01*
X011150Y010480D01*
X011164Y010473D01*
X011175Y010462D01*
X011182Y010448D01*
X011185Y010433D01*
X011185Y009933D01*
X011182Y009917D01*
X011175Y009903D01*
X011164Y009892D01*
X011150Y009885D01*
X011135Y009883D01*
X010635Y009883D01*
X010619Y009885D01*
X010605Y009892D01*
X010594Y009903D01*
X010587Y009917D01*
X010585Y009933D01*
X010585Y010433D01*
X010619Y010480D02*
X010635Y010483D01*
X011135Y010483D01*
X011150Y010480D01*
X011135Y010883D02*
X010635Y010883D01*
X010619Y010885D01*
X010605Y010892D01*
X010594Y010903D01*
X010587Y010917D01*
X010585Y010933D01*
X010585Y011433D01*
X010587Y011448D01*
X010594Y011462D01*
X010605Y011473D01*
X010619Y011480D01*
X010635Y011483D01*
X011135Y011483D01*
X011150Y011480D01*
X011164Y011473D01*
X011175Y011462D01*
X011182Y011448D01*
X011185Y011433D01*
X011185Y010933D01*
X011182Y010917D01*
X011175Y010903D01*
X011164Y010892D01*
X011150Y010885D01*
X011135Y010883D01*
X011182Y010917D02*
X010587Y010917D01*
X010585Y010965D02*
X011185Y010965D01*
X011185Y011014D02*
X010585Y011014D01*
X010585Y011062D02*
X011185Y011062D01*
X011185Y011111D02*
X010585Y011111D01*
X010585Y011159D02*
X011185Y011159D01*
X011185Y011208D02*
X010585Y011208D01*
X010585Y011256D02*
X011185Y011256D01*
X011185Y011305D02*
X010585Y011305D01*
X010585Y011353D02*
X011185Y011353D01*
X011185Y011402D02*
X010585Y011402D01*
X010588Y011450D02*
X011181Y011450D01*
X011135Y011883D02*
X010635Y011883D01*
X010619Y011885D01*
X010605Y011892D01*
X010594Y011903D01*
X010587Y011917D01*
X010585Y011933D01*
X010585Y012433D01*
X010587Y012448D01*
X010594Y012462D01*
X010605Y012473D01*
X010619Y012480D01*
X010635Y012483D01*
X011135Y012483D01*
X011150Y012480D01*
X011164Y012473D01*
X011175Y012462D01*
X011182Y012448D01*
X011185Y012433D01*
X011185Y011933D01*
X011182Y011917D01*
X011175Y011903D01*
X011164Y011892D01*
X011150Y011885D01*
X011135Y011883D01*
X011153Y011887D02*
X010616Y011887D01*
X010585Y011935D02*
X011185Y011935D01*
X011185Y011984D02*
X010585Y011984D01*
X010585Y012032D02*
X011185Y012032D01*
X011185Y012081D02*
X010585Y012081D01*
X010585Y012129D02*
X011185Y012129D01*
X011185Y012178D02*
X010585Y012178D01*
X010585Y012226D02*
X011185Y012226D01*
X011185Y012275D02*
X010585Y012275D01*
X010585Y012323D02*
X011185Y012323D01*
X011185Y012372D02*
X010585Y012372D01*
X010585Y012420D02*
X011185Y012420D01*
X011168Y012469D02*
X010601Y012469D01*
X010635Y012883D02*
X010619Y012885D01*
X010605Y012892D01*
X010594Y012903D01*
X010587Y012917D01*
X010585Y012933D01*
X010585Y013433D01*
X010587Y013448D01*
X010594Y013462D01*
X010605Y013473D01*
X010619Y013480D01*
X010635Y013483D01*
X011135Y013483D01*
X011150Y013480D01*
X011164Y013473D01*
X011175Y013462D01*
X011182Y013448D01*
X011185Y013433D01*
X011185Y012933D01*
X011182Y012917D01*
X011175Y012903D01*
X011164Y012892D01*
X011150Y012885D01*
X011135Y012883D01*
X010635Y012883D01*
X010593Y012905D02*
X011176Y012905D01*
X011185Y012954D02*
X010585Y012954D01*
X010585Y013002D02*
X011185Y013002D01*
X011185Y013051D02*
X010585Y013051D01*
X010585Y013099D02*
X011185Y013099D01*
X011185Y013148D02*
X010585Y013148D01*
X010585Y013196D02*
X011185Y013196D01*
X011185Y013245D02*
X010585Y013245D01*
X010585Y013293D02*
X011185Y013293D01*
X011185Y013342D02*
X010585Y013342D01*
X010585Y013390D02*
X011185Y013390D01*
X011184Y013439D02*
X010585Y013439D01*
X010635Y013883D02*
X010619Y013885D01*
X010605Y013892D01*
X010594Y013903D01*
X010587Y013917D01*
X010585Y013933D01*
X010585Y014433D01*
X010587Y014448D01*
X010594Y014462D01*
X010605Y014473D01*
X010619Y014480D01*
X010635Y014483D01*
X011135Y014483D01*
X011150Y014480D01*
X011164Y014473D01*
X011175Y014462D01*
X011182Y014448D01*
X011185Y014433D01*
X011185Y013933D01*
X011182Y013917D01*
X011175Y013903D01*
X011164Y013892D01*
X011150Y013885D01*
X011135Y013883D01*
X010635Y013883D01*
X010586Y013924D02*
X011183Y013924D01*
X011185Y013972D02*
X010585Y013972D01*
X010585Y014021D02*
X011185Y014021D01*
X011185Y014069D02*
X010585Y014069D01*
X010585Y014118D02*
X011185Y014118D01*
X011185Y014166D02*
X010585Y014166D01*
X010585Y014215D02*
X011185Y014215D01*
X011185Y014263D02*
X010585Y014263D01*
X010585Y014312D02*
X011185Y014312D01*
X011185Y014360D02*
X010585Y014360D01*
X010585Y014409D02*
X011185Y014409D01*
X011177Y014457D02*
X010592Y014457D01*
X010635Y014883D02*
X010619Y014885D01*
X010605Y014892D01*
X010594Y014903D01*
X010587Y014917D01*
X010585Y014933D01*
X010585Y015433D01*
X010587Y015448D01*
X010594Y015462D01*
X010605Y015473D01*
X010619Y015480D01*
X010635Y015483D01*
X011135Y015483D01*
X011150Y015480D01*
X011164Y015473D01*
X011175Y015462D01*
X011182Y015448D01*
X011185Y015433D01*
X011185Y014933D01*
X011182Y014917D01*
X011175Y014903D01*
X011164Y014892D01*
X011150Y014885D01*
X011135Y014883D01*
X010635Y014883D01*
X010604Y014894D02*
X011165Y014894D01*
X011185Y014942D02*
X010585Y014942D01*
X010585Y014991D02*
X011185Y014991D01*
X011185Y015039D02*
X010585Y015039D01*
X010585Y015088D02*
X011185Y015088D01*
X011185Y015136D02*
X010585Y015136D01*
X010585Y015185D02*
X011185Y015185D01*
X011185Y015233D02*
X010585Y015233D01*
X010585Y015282D02*
X011185Y015282D01*
X011185Y015330D02*
X010585Y015330D01*
X010585Y015379D02*
X011185Y015379D01*
X011185Y015427D02*
X010585Y015427D01*
X010610Y015476D02*
X011159Y015476D01*
X011135Y015883D02*
X010635Y015883D01*
X010619Y015885D01*
X010605Y015892D01*
X010594Y015903D01*
X010587Y015917D01*
X010585Y015933D01*
X010585Y016433D01*
X010587Y016448D01*
X010594Y016462D01*
X010605Y016473D01*
X010619Y016480D01*
X010635Y016483D01*
X011135Y016483D01*
X011150Y016480D01*
X011164Y016473D01*
X011175Y016462D01*
X011182Y016448D01*
X011185Y016433D01*
X011185Y015933D01*
X011182Y015917D01*
X011175Y015903D01*
X011164Y015892D01*
X011150Y015885D01*
X011135Y015883D01*
X011180Y015912D02*
X010590Y015912D01*
X010585Y015961D02*
X011185Y015961D01*
X011185Y016009D02*
X010585Y016009D01*
X010585Y016058D02*
X011185Y016058D01*
X011185Y016106D02*
X010585Y016106D01*
X010585Y016155D02*
X011185Y016155D01*
X011185Y016203D02*
X010585Y016203D01*
X010585Y016252D02*
X011185Y016252D01*
X011185Y016300D02*
X010585Y016300D01*
X010585Y016349D02*
X011185Y016349D01*
X011185Y016397D02*
X010585Y016397D01*
X010587Y016446D02*
X011182Y016446D01*
X011135Y016883D02*
X010635Y016883D01*
X010619Y016885D01*
X010605Y016892D01*
X010594Y016903D01*
X010587Y016917D01*
X010585Y016933D01*
X010585Y017433D01*
X010587Y017448D01*
X010594Y017462D01*
X010605Y017473D01*
X010619Y017480D01*
X010635Y017483D01*
X011135Y017483D01*
X011150Y017480D01*
X011164Y017473D01*
X011175Y017462D01*
X011182Y017448D01*
X011185Y017433D01*
X011185Y016933D01*
X011182Y016917D01*
X011175Y016903D01*
X011164Y016892D01*
X011150Y016885D01*
X011135Y016883D01*
X011184Y016931D02*
X010585Y016931D01*
X010585Y016979D02*
X011185Y016979D01*
X011185Y017028D02*
X010585Y017028D01*
X010585Y017076D02*
X011185Y017076D01*
X011185Y017125D02*
X010585Y017125D01*
X010585Y017173D02*
X011185Y017173D01*
X011185Y017222D02*
X010585Y017222D01*
X010585Y017270D02*
X011185Y017270D01*
X011185Y017319D02*
X010585Y017319D01*
X010585Y017367D02*
X011185Y017367D01*
X011185Y017416D02*
X010585Y017416D01*
X010596Y017464D02*
X011173Y017464D01*
X011135Y017883D02*
X010635Y017883D01*
X010619Y017885D01*
X010605Y017892D01*
X010594Y017903D01*
X010587Y017917D01*
X010585Y017933D01*
X010585Y018433D01*
X010587Y018448D01*
X010594Y018462D01*
X010605Y018473D01*
X010619Y018480D01*
X010635Y018483D01*
X011135Y018483D01*
X011150Y018480D01*
X011164Y018473D01*
X011175Y018462D01*
X011182Y018448D01*
X011185Y018433D01*
X011185Y017933D01*
X011182Y017917D01*
X011175Y017903D01*
X011164Y017892D01*
X011150Y017885D01*
X011135Y017883D01*
X011172Y017901D02*
X010597Y017901D01*
X010585Y017949D02*
X011185Y017949D01*
X011185Y017998D02*
X010585Y017998D01*
X010585Y018046D02*
X011185Y018046D01*
X011185Y018095D02*
X010585Y018095D01*
X010585Y018143D02*
X011185Y018143D01*
X011185Y018192D02*
X010585Y018192D01*
X010585Y018240D02*
X011185Y018240D01*
X011185Y018289D02*
X010585Y018289D01*
X010585Y018337D02*
X011185Y018337D01*
X011185Y018386D02*
X010585Y018386D01*
X010585Y018434D02*
X011184Y018434D01*
X011135Y018883D02*
X010635Y018883D01*
X010619Y018885D01*
X010605Y018892D01*
X010594Y018903D01*
X010587Y018917D01*
X010585Y018933D01*
X010585Y019433D01*
X010587Y019448D01*
X010594Y019462D01*
X010605Y019473D01*
X010619Y019480D01*
X010635Y019483D01*
X011135Y019483D01*
X011150Y019480D01*
X011164Y019473D01*
X011175Y019462D01*
X011182Y019448D01*
X011185Y019433D01*
X011185Y018933D01*
X011182Y018917D01*
X011175Y018903D01*
X011164Y018892D01*
X011150Y018885D01*
X011135Y018883D01*
X011182Y018919D02*
X010587Y018919D01*
X010585Y018968D02*
X011185Y018968D01*
X011185Y019016D02*
X010585Y019016D01*
X010585Y019065D02*
X011185Y019065D01*
X011185Y019113D02*
X010585Y019113D01*
X010585Y019162D02*
X011185Y019162D01*
X011185Y019210D02*
X010585Y019210D01*
X010585Y019259D02*
X011185Y019259D01*
X011185Y019307D02*
X010585Y019307D01*
X010585Y019356D02*
X011185Y019356D01*
X011185Y019404D02*
X010585Y019404D01*
X010589Y019453D02*
X011180Y019453D01*
X022585Y018433D02*
X022585Y017933D01*
X022587Y017917D01*
X022594Y017903D01*
X022605Y017892D01*
X022619Y017885D01*
X022635Y017883D01*
X023135Y017883D01*
X023150Y017885D01*
X023164Y017892D01*
X023175Y017903D01*
X023182Y017917D01*
X023185Y017933D01*
X023185Y018433D01*
X023182Y018448D01*
X023175Y018462D01*
X023164Y018473D01*
X023150Y018480D01*
X023135Y018483D01*
X022635Y018483D01*
X022619Y018480D01*
X022605Y018473D01*
X022594Y018462D01*
X022587Y018448D01*
X022585Y018433D01*
X022585Y018434D02*
X023184Y018434D01*
X023185Y018386D02*
X022585Y018386D01*
X022585Y018337D02*
X023185Y018337D01*
X023185Y018289D02*
X022585Y018289D01*
X022585Y018240D02*
X023185Y018240D01*
X023185Y018192D02*
X022585Y018192D01*
X022585Y018143D02*
X023185Y018143D01*
X023185Y018095D02*
X022585Y018095D01*
X022585Y018046D02*
X023185Y018046D01*
X023185Y017998D02*
X022585Y017998D01*
X022585Y017949D02*
X023185Y017949D01*
X023172Y017901D02*
X022597Y017901D01*
X022635Y017483D02*
X023135Y017483D01*
X023150Y017480D01*
X023164Y017473D01*
X023175Y017462D01*
X023182Y017448D01*
X023185Y017433D01*
X023185Y016933D01*
X023182Y016917D01*
X023175Y016903D01*
X023164Y016892D01*
X023150Y016885D01*
X023135Y016883D01*
X022635Y016883D01*
X022619Y016885D01*
X022605Y016892D01*
X022594Y016903D01*
X022587Y016917D01*
X022585Y016933D01*
X022585Y017433D01*
X022587Y017448D01*
X022594Y017462D01*
X022605Y017473D01*
X022619Y017480D01*
X022635Y017483D01*
X022596Y017464D02*
X023173Y017464D01*
X023185Y017416D02*
X022585Y017416D01*
X022585Y017367D02*
X023185Y017367D01*
X023185Y017319D02*
X022585Y017319D01*
X022585Y017270D02*
X023185Y017270D01*
X023185Y017222D02*
X022585Y017222D01*
X022585Y017173D02*
X023185Y017173D01*
X023185Y017125D02*
X022585Y017125D01*
X022585Y017076D02*
X023185Y017076D01*
X023185Y017028D02*
X022585Y017028D01*
X022585Y016979D02*
X023185Y016979D01*
X023184Y016931D02*
X022585Y016931D01*
X022635Y016483D02*
X023135Y016483D01*
X023150Y016480D01*
X023164Y016473D01*
X023175Y016462D01*
X023182Y016448D01*
X023185Y016433D01*
X023185Y015933D01*
X023182Y015917D01*
X023175Y015903D01*
X023164Y015892D01*
X023150Y015885D01*
X023135Y015883D01*
X022635Y015883D01*
X022619Y015885D01*
X022605Y015892D01*
X022594Y015903D01*
X022587Y015917D01*
X022585Y015933D01*
X022585Y016433D01*
X022587Y016448D01*
X022594Y016462D01*
X022605Y016473D01*
X022619Y016480D01*
X022635Y016483D01*
X022587Y016446D02*
X023182Y016446D01*
X023185Y016397D02*
X022585Y016397D01*
X022585Y016349D02*
X023185Y016349D01*
X023185Y016300D02*
X022585Y016300D01*
X022585Y016252D02*
X023185Y016252D01*
X023185Y016203D02*
X022585Y016203D01*
X022585Y016155D02*
X023185Y016155D01*
X023185Y016106D02*
X022585Y016106D01*
X022585Y016058D02*
X023185Y016058D01*
X023185Y016009D02*
X022585Y016009D01*
X022585Y015961D02*
X023185Y015961D01*
X023180Y015912D02*
X022590Y015912D01*
X022635Y015483D02*
X023135Y015483D01*
X023150Y015480D01*
X023164Y015473D01*
X023175Y015462D01*
X023182Y015448D01*
X023185Y015433D01*
X023185Y014933D01*
X023182Y014917D01*
X023175Y014903D01*
X023164Y014892D01*
X023150Y014885D01*
X023135Y014883D01*
X022635Y014883D01*
X022619Y014885D01*
X022605Y014892D01*
X022594Y014903D01*
X022587Y014917D01*
X022585Y014933D01*
X022585Y015433D01*
X022587Y015448D01*
X022594Y015462D01*
X022605Y015473D01*
X022619Y015480D01*
X022635Y015483D01*
X022610Y015476D02*
X023159Y015476D01*
X023185Y015427D02*
X022585Y015427D01*
X022585Y015379D02*
X023185Y015379D01*
X023185Y015330D02*
X022585Y015330D01*
X022585Y015282D02*
X023185Y015282D01*
X023185Y015233D02*
X022585Y015233D01*
X022585Y015185D02*
X023185Y015185D01*
X023185Y015136D02*
X022585Y015136D01*
X022585Y015088D02*
X023185Y015088D01*
X023185Y015039D02*
X022585Y015039D01*
X022585Y014991D02*
X023185Y014991D01*
X023185Y014942D02*
X022585Y014942D01*
X022604Y014894D02*
X023165Y014894D01*
X023585Y014933D02*
X023585Y015433D01*
X023587Y015448D01*
X023594Y015462D01*
X023605Y015473D01*
X023619Y015480D01*
X023635Y015483D01*
X024135Y015483D01*
X024150Y015480D01*
X024164Y015473D01*
X024175Y015462D01*
X024182Y015448D01*
X024185Y015433D01*
X024185Y014933D01*
X024182Y014917D01*
X024175Y014903D01*
X024164Y014892D01*
X024150Y014885D01*
X024135Y014883D01*
X023635Y014883D01*
X023619Y014885D01*
X023605Y014892D01*
X023594Y014903D01*
X023587Y014917D01*
X023585Y014933D01*
X023585Y014942D02*
X024185Y014942D01*
X024185Y014991D02*
X023585Y014991D01*
X023585Y015039D02*
X024185Y015039D01*
X024185Y015088D02*
X023585Y015088D01*
X023585Y015136D02*
X024185Y015136D01*
X024185Y015185D02*
X023585Y015185D01*
X023585Y015233D02*
X024185Y015233D01*
X024185Y015282D02*
X023585Y015282D01*
X023585Y015330D02*
X024185Y015330D01*
X024185Y015379D02*
X023585Y015379D01*
X023585Y015427D02*
X024185Y015427D01*
X024159Y015476D02*
X023610Y015476D01*
X023635Y015883D02*
X023619Y015885D01*
X023605Y015892D01*
X023594Y015903D01*
X023587Y015917D01*
X023585Y015933D01*
X023585Y016433D01*
X023587Y016448D01*
X023594Y016462D01*
X023605Y016473D01*
X023619Y016480D01*
X023635Y016483D01*
X024135Y016483D01*
X024150Y016480D01*
X024164Y016473D01*
X024175Y016462D01*
X024182Y016448D01*
X024185Y016433D01*
X024185Y015933D01*
X024182Y015917D01*
X024175Y015903D01*
X024164Y015892D01*
X024150Y015885D01*
X024135Y015883D01*
X023635Y015883D01*
X023590Y015912D02*
X024180Y015912D01*
X024185Y015961D02*
X023585Y015961D01*
X023585Y016009D02*
X024185Y016009D01*
X024185Y016058D02*
X023585Y016058D01*
X023585Y016106D02*
X024185Y016106D01*
X024185Y016155D02*
X023585Y016155D01*
X023585Y016203D02*
X024185Y016203D01*
X024185Y016252D02*
X023585Y016252D01*
X023585Y016300D02*
X024185Y016300D01*
X024185Y016349D02*
X023585Y016349D01*
X023585Y016397D02*
X024185Y016397D01*
X024182Y016446D02*
X023587Y016446D01*
X023635Y016883D02*
X023619Y016885D01*
X023605Y016892D01*
X023594Y016903D01*
X023587Y016917D01*
X023585Y016933D01*
X023585Y017433D01*
X023587Y017448D01*
X023594Y017462D01*
X023605Y017473D01*
X023619Y017480D01*
X023635Y017483D01*
X024135Y017483D01*
X024150Y017480D01*
X024164Y017473D01*
X024175Y017462D01*
X024182Y017448D01*
X024185Y017433D01*
X024185Y016933D01*
X024182Y016917D01*
X024175Y016903D01*
X024164Y016892D01*
X024150Y016885D01*
X024135Y016883D01*
X023635Y016883D01*
X023585Y016931D02*
X024184Y016931D01*
X024185Y016979D02*
X023585Y016979D01*
X023585Y017028D02*
X024185Y017028D01*
X024185Y017076D02*
X023585Y017076D01*
X023585Y017125D02*
X024185Y017125D01*
X024185Y017173D02*
X023585Y017173D01*
X023585Y017222D02*
X024185Y017222D01*
X024185Y017270D02*
X023585Y017270D01*
X023585Y017319D02*
X024185Y017319D01*
X024185Y017367D02*
X023585Y017367D01*
X023585Y017416D02*
X024185Y017416D01*
X024173Y017464D02*
X023596Y017464D01*
X023635Y017883D02*
X023619Y017885D01*
X023605Y017892D01*
X023594Y017903D01*
X023587Y017917D01*
X023585Y017933D01*
X023585Y018433D01*
X023587Y018448D01*
X023594Y018462D01*
X023605Y018473D01*
X023619Y018480D01*
X023635Y018483D01*
X024135Y018483D01*
X024150Y018480D01*
X024164Y018473D01*
X024175Y018462D01*
X024182Y018448D01*
X024185Y018433D01*
X024185Y017933D01*
X024182Y017917D01*
X024175Y017903D01*
X024164Y017892D01*
X024150Y017885D01*
X024135Y017883D01*
X023635Y017883D01*
X023597Y017901D02*
X024172Y017901D01*
X024185Y017949D02*
X023585Y017949D01*
X023585Y017998D02*
X024185Y017998D01*
X024185Y018046D02*
X023585Y018046D01*
X023585Y018095D02*
X024185Y018095D01*
X024185Y018143D02*
X023585Y018143D01*
X023585Y018192D02*
X024185Y018192D01*
X024185Y018240D02*
X023585Y018240D01*
X023585Y018289D02*
X024185Y018289D01*
X024185Y018337D02*
X023585Y018337D01*
X023585Y018386D02*
X024185Y018386D01*
X024184Y018434D02*
X023585Y018434D01*
X026585Y018433D02*
X026585Y017933D01*
X026587Y017917D01*
X026594Y017903D01*
X026605Y017892D01*
X026619Y017885D01*
X026635Y017883D01*
X027135Y017883D01*
X027150Y017885D01*
X027164Y017892D01*
X027175Y017903D01*
X027182Y017917D01*
X027185Y017933D01*
X027185Y018433D01*
X027182Y018448D01*
X027175Y018462D01*
X027164Y018473D01*
X027150Y018480D01*
X027135Y018483D01*
X026635Y018483D01*
X026619Y018480D01*
X026605Y018473D01*
X026594Y018462D01*
X026587Y018448D01*
X026585Y018433D01*
X026585Y018434D02*
X027184Y018434D01*
X027185Y018386D02*
X026585Y018386D01*
X026585Y018337D02*
X027185Y018337D01*
X027185Y018289D02*
X026585Y018289D01*
X026585Y018240D02*
X027185Y018240D01*
X027185Y018192D02*
X026585Y018192D01*
X026585Y018143D02*
X027185Y018143D01*
X027185Y018095D02*
X026585Y018095D01*
X026585Y018046D02*
X027185Y018046D01*
X027185Y017998D02*
X026585Y017998D01*
X026585Y017949D02*
X027185Y017949D01*
X027172Y017901D02*
X026597Y017901D01*
X026635Y017483D02*
X026619Y017480D01*
X026605Y017473D01*
X026594Y017462D01*
X026587Y017448D01*
X026585Y017433D01*
X026585Y016933D01*
X026587Y016917D01*
X026594Y016903D01*
X026605Y016892D01*
X026619Y016885D01*
X026635Y016883D01*
X027135Y016883D01*
X027150Y016885D01*
X027164Y016892D01*
X027175Y016903D01*
X027182Y016917D01*
X027185Y016933D01*
X027185Y017433D01*
X027182Y017448D01*
X027175Y017462D01*
X027164Y017473D01*
X027150Y017480D01*
X027135Y017483D01*
X026635Y017483D01*
X026596Y017464D02*
X027173Y017464D01*
X027185Y017416D02*
X026585Y017416D01*
X026585Y017367D02*
X027185Y017367D01*
X027185Y017319D02*
X026585Y017319D01*
X026585Y017270D02*
X027185Y017270D01*
X027185Y017222D02*
X026585Y017222D01*
X026585Y017173D02*
X027185Y017173D01*
X027185Y017125D02*
X026585Y017125D01*
X026585Y017076D02*
X027185Y017076D01*
X027185Y017028D02*
X026585Y017028D01*
X026585Y016979D02*
X027185Y016979D01*
X027184Y016931D02*
X026585Y016931D01*
X026635Y016483D02*
X026619Y016480D01*
X026605Y016473D01*
X026594Y016462D01*
X026587Y016448D01*
X026585Y016433D01*
X026585Y015933D01*
X026587Y015917D01*
X026594Y015903D01*
X026605Y015892D01*
X026619Y015885D01*
X026635Y015883D01*
X027135Y015883D01*
X027150Y015885D01*
X027164Y015892D01*
X027175Y015903D01*
X027182Y015917D01*
X027185Y015933D01*
X027185Y016433D01*
X027182Y016448D01*
X027175Y016462D01*
X027164Y016473D01*
X027150Y016480D01*
X027135Y016483D01*
X026635Y016483D01*
X026587Y016446D02*
X027182Y016446D01*
X027185Y016397D02*
X026585Y016397D01*
X026585Y016349D02*
X027185Y016349D01*
X027185Y016300D02*
X026585Y016300D01*
X026585Y016252D02*
X027185Y016252D01*
X027185Y016203D02*
X026585Y016203D01*
X026585Y016155D02*
X027185Y016155D01*
X027185Y016106D02*
X026585Y016106D01*
X026585Y016058D02*
X027185Y016058D01*
X027185Y016009D02*
X026585Y016009D01*
X026585Y015961D02*
X027185Y015961D01*
X027180Y015912D02*
X026590Y015912D01*
X026635Y015483D02*
X026619Y015480D01*
X026605Y015473D01*
X026594Y015462D01*
X026587Y015448D01*
X026585Y015433D01*
X026585Y014933D01*
X026587Y014917D01*
X026594Y014903D01*
X026605Y014892D01*
X026619Y014885D01*
X026635Y014883D01*
X027135Y014883D01*
X027150Y014885D01*
X027164Y014892D01*
X027175Y014903D01*
X027182Y014917D01*
X027185Y014933D01*
X027185Y015433D01*
X027182Y015448D01*
X027175Y015462D01*
X027164Y015473D01*
X027150Y015480D01*
X027135Y015483D01*
X026635Y015483D01*
X026610Y015476D02*
X027159Y015476D01*
X027185Y015427D02*
X026585Y015427D01*
X026585Y015379D02*
X027185Y015379D01*
X027185Y015330D02*
X026585Y015330D01*
X026585Y015282D02*
X027185Y015282D01*
X027185Y015233D02*
X026585Y015233D01*
X026585Y015185D02*
X027185Y015185D01*
X027185Y015136D02*
X026585Y015136D01*
X026585Y015088D02*
X027185Y015088D01*
X027185Y015039D02*
X026585Y015039D01*
X026585Y014991D02*
X027185Y014991D01*
X027185Y014942D02*
X026585Y014942D01*
X026604Y014894D02*
X027165Y014894D01*
X027135Y014483D02*
X026635Y014483D01*
X026619Y014480D01*
X026605Y014473D01*
X026594Y014462D01*
X026587Y014448D01*
X026585Y014433D01*
X026585Y013933D01*
X026587Y013917D01*
X026594Y013903D01*
X026605Y013892D01*
X026619Y013885D01*
X026635Y013883D01*
X027135Y013883D01*
X027150Y013885D01*
X027164Y013892D01*
X027175Y013903D01*
X027182Y013917D01*
X027185Y013933D01*
X027185Y014433D01*
X027182Y014448D01*
X027175Y014462D01*
X027164Y014473D01*
X027150Y014480D01*
X027135Y014483D01*
X027177Y014457D02*
X026592Y014457D01*
X026585Y014409D02*
X027185Y014409D01*
X027185Y014360D02*
X026585Y014360D01*
X026585Y014312D02*
X027185Y014312D01*
X027185Y014263D02*
X026585Y014263D01*
X026585Y014215D02*
X027185Y014215D01*
X027185Y014166D02*
X026585Y014166D01*
X026585Y014118D02*
X027185Y014118D01*
X027185Y014069D02*
X026585Y014069D01*
X026585Y014021D02*
X027185Y014021D01*
X027185Y013972D02*
X026585Y013972D01*
X026586Y013924D02*
X027183Y013924D01*
X027135Y013483D02*
X026635Y013483D01*
X026619Y013480D01*
X026605Y013473D01*
X026594Y013462D01*
X026587Y013448D01*
X026585Y013433D01*
X026585Y012933D01*
X026587Y012917D01*
X026594Y012903D01*
X026605Y012892D01*
X026619Y012885D01*
X026635Y012883D01*
X027135Y012883D01*
X027150Y012885D01*
X027164Y012892D01*
X027175Y012903D01*
X027182Y012917D01*
X027185Y012933D01*
X027185Y013433D01*
X027182Y013448D01*
X027175Y013462D01*
X027164Y013473D01*
X027150Y013480D01*
X027135Y013483D01*
X027184Y013439D02*
X026585Y013439D01*
X026585Y013390D02*
X027185Y013390D01*
X027185Y013342D02*
X026585Y013342D01*
X026585Y013293D02*
X027185Y013293D01*
X027185Y013245D02*
X026585Y013245D01*
X026585Y013196D02*
X027185Y013196D01*
X027185Y013148D02*
X026585Y013148D01*
X026585Y013099D02*
X027185Y013099D01*
X027185Y013051D02*
X026585Y013051D01*
X026585Y013002D02*
X027185Y013002D01*
X027185Y012954D02*
X026585Y012954D01*
X026593Y012905D02*
X027176Y012905D01*
X027135Y012483D02*
X026635Y012483D01*
X026619Y012480D01*
X026605Y012473D01*
X026594Y012462D01*
X026587Y012448D01*
X026585Y012433D01*
X026585Y011933D01*
X026587Y011917D01*
X026594Y011903D01*
X026605Y011892D01*
X026619Y011885D01*
X026635Y011883D01*
X027135Y011883D01*
X027150Y011885D01*
X027164Y011892D01*
X027175Y011903D01*
X027182Y011917D01*
X027185Y011933D01*
X027185Y012433D01*
X027182Y012448D01*
X027175Y012462D01*
X027164Y012473D01*
X027150Y012480D01*
X027135Y012483D01*
X027168Y012469D02*
X026601Y012469D01*
X026585Y012420D02*
X027185Y012420D01*
X027185Y012372D02*
X026585Y012372D01*
X026585Y012323D02*
X027185Y012323D01*
X027185Y012275D02*
X026585Y012275D01*
X026585Y012226D02*
X027185Y012226D01*
X027185Y012178D02*
X026585Y012178D01*
X026585Y012129D02*
X027185Y012129D01*
X027185Y012081D02*
X026585Y012081D01*
X026585Y012032D02*
X027185Y012032D01*
X027185Y011984D02*
X026585Y011984D01*
X026585Y011935D02*
X027185Y011935D01*
X027153Y011887D02*
X026616Y011887D01*
X026635Y011483D02*
X026619Y011480D01*
X026605Y011473D01*
X026594Y011462D01*
X026587Y011448D01*
X026585Y011433D01*
X026585Y010933D01*
X026587Y010917D01*
X026594Y010903D01*
X026605Y010892D01*
X026619Y010885D01*
X026635Y010883D01*
X027135Y010883D01*
X027150Y010885D01*
X027164Y010892D01*
X027175Y010903D01*
X027182Y010917D01*
X027185Y010933D01*
X027185Y011433D01*
X027182Y011448D01*
X027175Y011462D01*
X027164Y011473D01*
X027150Y011480D01*
X027135Y011483D01*
X026635Y011483D01*
X026588Y011450D02*
X027181Y011450D01*
X027185Y011402D02*
X026585Y011402D01*
X026585Y011353D02*
X027185Y011353D01*
X027185Y011305D02*
X026585Y011305D01*
X026585Y011256D02*
X027185Y011256D01*
X027185Y011208D02*
X026585Y011208D01*
X026585Y011159D02*
X027185Y011159D01*
X027185Y011111D02*
X026585Y011111D01*
X026585Y011062D02*
X027185Y011062D01*
X027185Y011014D02*
X026585Y011014D01*
X026585Y010965D02*
X027185Y010965D01*
X027182Y010917D02*
X026587Y010917D01*
X026635Y010483D02*
X026619Y010480D01*
X027150Y010480D01*
X027164Y010473D01*
X027175Y010462D01*
X027182Y010448D01*
X027185Y010433D01*
X027185Y009933D01*
X027182Y009917D01*
X027175Y009903D01*
X027164Y009892D01*
X027150Y009885D01*
X027135Y009883D01*
X026635Y009883D01*
X026619Y009885D01*
X026605Y009892D01*
X026594Y009903D01*
X026587Y009917D01*
X026585Y009933D01*
X026585Y010433D01*
X026587Y010448D01*
X026594Y010462D01*
X026605Y010473D01*
X026619Y010480D01*
X026635Y010483D02*
X027135Y010483D01*
X027150Y010480D01*
X027185Y010432D02*
X026585Y010432D01*
X026585Y010383D02*
X027185Y010383D01*
X027185Y010335D02*
X026585Y010335D01*
X026585Y010286D02*
X027185Y010286D01*
X027185Y010238D02*
X026585Y010238D01*
X026585Y010189D02*
X027185Y010189D01*
X027185Y010141D02*
X026585Y010141D01*
X026585Y010092D02*
X027185Y010092D01*
X027185Y010044D02*
X026585Y010044D01*
X026585Y009995D02*
X027185Y009995D01*
X027185Y009947D02*
X026585Y009947D01*
X026599Y009898D02*
X027170Y009898D01*
X031935Y009898D02*
X032535Y009898D01*
X032535Y009850D02*
X031935Y009850D01*
X031935Y009801D02*
X032535Y009801D01*
X032535Y009783D02*
X032532Y009767D01*
X032525Y009753D01*
X032514Y009742D01*
X032500Y009735D01*
X032485Y009733D01*
X031985Y009733D01*
X031969Y009735D01*
X031955Y009742D01*
X031944Y009753D01*
X031937Y009767D01*
X031935Y009783D01*
X031935Y010283D01*
X031937Y010298D01*
X031944Y010312D01*
X031955Y010323D01*
X031969Y010330D01*
X031985Y010333D01*
X032485Y010333D01*
X032500Y010330D01*
X032514Y010323D01*
X032525Y010312D01*
X032532Y010298D01*
X032535Y010283D01*
X032535Y009783D01*
X032524Y009753D02*
X031945Y009753D01*
X031935Y009947D02*
X032535Y009947D01*
X032535Y009995D02*
X031935Y009995D01*
X031935Y010044D02*
X032535Y010044D01*
X032535Y010092D02*
X031935Y010092D01*
X031935Y010141D02*
X032535Y010141D01*
X032535Y010189D02*
X031935Y010189D01*
X031935Y010238D02*
X032535Y010238D01*
X032534Y010286D02*
X031935Y010286D01*
X031985Y010733D02*
X031969Y010735D01*
X031955Y010742D01*
X031944Y010753D01*
X031937Y010767D01*
X031935Y010783D01*
X031935Y011283D01*
X031937Y011298D01*
X031944Y011312D01*
X031955Y011323D01*
X031969Y011330D01*
X031985Y011333D01*
X032485Y011333D01*
X032500Y011330D01*
X032514Y011323D01*
X032525Y011312D01*
X032532Y011298D01*
X032535Y011283D01*
X032535Y010783D01*
X032532Y010767D01*
X032525Y010753D01*
X032514Y010742D01*
X032500Y010735D01*
X032485Y010733D01*
X031985Y010733D01*
X031936Y010771D02*
X032533Y010771D01*
X032535Y010820D02*
X031935Y010820D01*
X031935Y010868D02*
X032535Y010868D01*
X032535Y010917D02*
X031935Y010917D01*
X031935Y010965D02*
X032535Y010965D01*
X032535Y011014D02*
X031935Y011014D01*
X031935Y011062D02*
X032535Y011062D01*
X032535Y011111D02*
X031935Y011111D01*
X031935Y011159D02*
X032535Y011159D01*
X032535Y011208D02*
X031935Y011208D01*
X031935Y011256D02*
X032535Y011256D01*
X032529Y011305D02*
X031940Y011305D01*
X032935Y011283D02*
X032937Y011298D01*
X032944Y011312D01*
X032955Y011323D01*
X032969Y011330D01*
X032985Y011333D01*
X033485Y011333D01*
X033500Y011330D01*
X033514Y011323D01*
X033525Y011312D01*
X033532Y011298D01*
X033535Y011283D01*
X033535Y010783D01*
X033532Y010767D01*
X033525Y010753D01*
X033514Y010742D01*
X033500Y010735D01*
X033485Y010733D01*
X032985Y010733D01*
X032969Y010735D01*
X032955Y010742D01*
X032944Y010753D01*
X032937Y010767D01*
X032935Y010783D01*
X032935Y011283D01*
X032940Y011305D02*
X033529Y011305D01*
X033535Y011256D02*
X032935Y011256D01*
X032935Y011208D02*
X033535Y011208D01*
X033535Y011159D02*
X032935Y011159D01*
X032935Y011111D02*
X033535Y011111D01*
X033535Y011062D02*
X032935Y011062D01*
X032935Y011014D02*
X033535Y011014D01*
X033535Y010965D02*
X032935Y010965D01*
X032935Y010917D02*
X033535Y010917D01*
X033535Y010868D02*
X032935Y010868D01*
X032935Y010820D02*
X033535Y010820D01*
X033533Y010771D02*
X032936Y010771D01*
X032985Y010333D02*
X033485Y010333D01*
X033500Y010330D01*
X033514Y010323D01*
X033525Y010312D01*
X033532Y010298D01*
X033535Y010283D01*
X033535Y009783D01*
X033532Y009767D01*
X033525Y009753D01*
X033514Y009742D01*
X033500Y009735D01*
X033485Y009733D01*
X032985Y009733D01*
X032969Y009735D01*
X032955Y009742D01*
X032944Y009753D01*
X032937Y009767D01*
X032935Y009783D01*
X032935Y010283D01*
X032937Y010298D01*
X032944Y010312D01*
X032955Y010323D01*
X032969Y010330D01*
X032985Y010333D01*
X032935Y010286D02*
X033534Y010286D01*
X033535Y010238D02*
X032935Y010238D01*
X032935Y010189D02*
X033535Y010189D01*
X033535Y010141D02*
X032935Y010141D01*
X032935Y010092D02*
X033535Y010092D01*
X033535Y010044D02*
X032935Y010044D01*
X032935Y009995D02*
X033535Y009995D01*
X033535Y009947D02*
X032935Y009947D01*
X032935Y009898D02*
X033535Y009898D01*
X033535Y009850D02*
X032935Y009850D01*
X032935Y009801D02*
X033535Y009801D01*
X033524Y009753D02*
X032945Y009753D01*
X033935Y009783D02*
X033935Y010283D01*
X033937Y010298D01*
X033944Y010312D01*
X033955Y010323D01*
X033969Y010330D01*
X033985Y010333D01*
X034485Y010333D01*
X034500Y010330D01*
X034514Y010323D01*
X034525Y010312D01*
X034532Y010298D01*
X034535Y010283D01*
X034535Y009783D01*
X034532Y009767D01*
X034525Y009753D01*
X034514Y009742D01*
X034500Y009735D01*
X034485Y009733D01*
X033985Y009733D01*
X033969Y009735D01*
X033955Y009742D01*
X033944Y009753D01*
X033937Y009767D01*
X033935Y009783D01*
X033935Y009801D02*
X034535Y009801D01*
X034535Y009850D02*
X033935Y009850D01*
X033935Y009898D02*
X034535Y009898D01*
X034535Y009947D02*
X033935Y009947D01*
X033935Y009995D02*
X034535Y009995D01*
X034535Y010044D02*
X033935Y010044D01*
X033935Y010092D02*
X034535Y010092D01*
X034535Y010141D02*
X033935Y010141D01*
X033935Y010189D02*
X034535Y010189D01*
X034535Y010238D02*
X033935Y010238D01*
X033935Y010286D02*
X034534Y010286D01*
X034485Y010733D02*
X033985Y010733D01*
X033969Y010735D01*
X033955Y010742D01*
X033944Y010753D01*
X033937Y010767D01*
X033935Y010783D01*
X033935Y011283D01*
X033937Y011298D01*
X033944Y011312D01*
X033955Y011323D01*
X033969Y011330D01*
X033985Y011333D01*
X034485Y011333D01*
X034500Y011330D01*
X034514Y011323D01*
X034525Y011312D01*
X034532Y011298D01*
X034535Y011283D01*
X034535Y010783D01*
X034532Y010767D01*
X034525Y010753D01*
X034514Y010742D01*
X034500Y010735D01*
X034485Y010733D01*
X034533Y010771D02*
X033936Y010771D01*
X033935Y010820D02*
X034535Y010820D01*
X034535Y010868D02*
X033935Y010868D01*
X033935Y010917D02*
X034535Y010917D01*
X034535Y010965D02*
X033935Y010965D01*
X033935Y011014D02*
X034535Y011014D01*
X034535Y011062D02*
X033935Y011062D01*
X033935Y011111D02*
X034535Y011111D01*
X034535Y011159D02*
X033935Y011159D01*
X033935Y011208D02*
X034535Y011208D01*
X034535Y011256D02*
X033935Y011256D01*
X033940Y011305D02*
X034529Y011305D01*
X034524Y009753D02*
X033945Y009753D01*
X024182Y012917D02*
X024175Y012903D01*
X024164Y012892D01*
X024150Y012885D01*
X024135Y012883D01*
X023635Y012883D01*
X023619Y012885D01*
X023605Y012892D01*
X023594Y012903D01*
X023587Y012917D01*
X023585Y012933D01*
X023585Y013433D01*
X023587Y013448D01*
X023594Y013462D01*
X023605Y013473D01*
X023619Y013480D01*
X023635Y013483D01*
X024135Y013483D01*
X024150Y013480D01*
X024164Y013473D01*
X024175Y013462D01*
X024182Y013448D01*
X024185Y013433D01*
X024185Y012933D01*
X024182Y012917D01*
X024176Y012905D02*
X023593Y012905D01*
X023585Y012954D02*
X024185Y012954D01*
X024185Y013002D02*
X023585Y013002D01*
X023585Y013051D02*
X024185Y013051D01*
X024185Y013099D02*
X023585Y013099D01*
X023585Y013148D02*
X024185Y013148D01*
X024185Y013196D02*
X023585Y013196D01*
X023585Y013245D02*
X024185Y013245D01*
X024185Y013293D02*
X023585Y013293D01*
X023585Y013342D02*
X024185Y013342D01*
X024185Y013390D02*
X023585Y013390D01*
X023585Y013439D02*
X024184Y013439D01*
X024135Y013883D02*
X023635Y013883D01*
X023619Y013885D01*
X023605Y013892D01*
X023594Y013903D01*
X023587Y013917D01*
X023585Y013933D01*
X023585Y014433D01*
X023587Y014448D01*
X023594Y014462D01*
X023605Y014473D01*
X023619Y014480D01*
X023635Y014483D01*
X024135Y014483D01*
X024150Y014480D01*
X024164Y014473D01*
X024175Y014462D01*
X024182Y014448D01*
X024185Y014433D01*
X024185Y013933D01*
X024182Y013917D01*
X024175Y013903D01*
X024164Y013892D01*
X024150Y013885D01*
X024135Y013883D01*
X024183Y013924D02*
X023586Y013924D01*
X023585Y013972D02*
X024185Y013972D01*
X024185Y014021D02*
X023585Y014021D01*
X023585Y014069D02*
X024185Y014069D01*
X024185Y014118D02*
X023585Y014118D01*
X023585Y014166D02*
X024185Y014166D01*
X024185Y014215D02*
X023585Y014215D01*
X023585Y014263D02*
X024185Y014263D01*
X024185Y014312D02*
X023585Y014312D01*
X023585Y014360D02*
X024185Y014360D01*
X024185Y014409D02*
X023585Y014409D01*
X023592Y014457D02*
X024177Y014457D01*
X024165Y014894D02*
X023604Y014894D01*
X023175Y014462D02*
X023182Y014448D01*
X023185Y014433D01*
X023185Y013933D01*
X023182Y013917D01*
X023175Y013903D01*
X023164Y013892D01*
X023150Y013885D01*
X023135Y013883D01*
X022635Y013883D01*
X022619Y013885D01*
X022605Y013892D01*
X022594Y013903D01*
X022587Y013917D01*
X022585Y013933D01*
X022585Y014433D01*
X022587Y014448D01*
X022594Y014462D01*
X022605Y014473D01*
X022619Y014480D01*
X022635Y014483D01*
X023135Y014483D01*
X023150Y014480D01*
X023164Y014473D01*
X023175Y014462D01*
X023177Y014457D02*
X022592Y014457D01*
X022585Y014409D02*
X023185Y014409D01*
X023185Y014360D02*
X022585Y014360D01*
X022585Y014312D02*
X023185Y014312D01*
X023185Y014263D02*
X022585Y014263D01*
X022585Y014215D02*
X023185Y014215D01*
X023185Y014166D02*
X022585Y014166D01*
X022585Y014118D02*
X023185Y014118D01*
X023185Y014069D02*
X022585Y014069D01*
X022585Y014021D02*
X023185Y014021D01*
X023185Y013972D02*
X022585Y013972D01*
X022586Y013924D02*
X023183Y013924D01*
X023135Y013483D02*
X022635Y013483D01*
X022619Y013480D01*
X022605Y013473D01*
X022594Y013462D01*
X022587Y013448D01*
X022585Y013433D01*
X022585Y012933D01*
X022587Y012917D01*
X022594Y012903D01*
X022605Y012892D01*
X022619Y012885D01*
X022635Y012883D01*
X023135Y012883D01*
X023150Y012885D01*
X023164Y012892D01*
X023175Y012903D01*
X023182Y012917D01*
X023185Y012933D01*
X023185Y013433D01*
X023182Y013448D01*
X023175Y013462D01*
X023164Y013473D01*
X023150Y013480D01*
X023135Y013483D01*
X023184Y013439D02*
X022585Y013439D01*
X022585Y013390D02*
X023185Y013390D01*
X023185Y013342D02*
X022585Y013342D01*
X022585Y013293D02*
X023185Y013293D01*
X023185Y013245D02*
X022585Y013245D01*
X022585Y013196D02*
X023185Y013196D01*
X023185Y013148D02*
X022585Y013148D01*
X022585Y013099D02*
X023185Y013099D01*
X023185Y013051D02*
X022585Y013051D01*
X022585Y013002D02*
X023185Y013002D01*
X023185Y012954D02*
X022585Y012954D01*
X022593Y012905D02*
X023176Y012905D01*
X026605Y018892D02*
X026594Y018903D01*
X026587Y018917D01*
X026585Y018933D01*
X026585Y019433D01*
X026587Y019448D01*
X026594Y019462D01*
X026605Y019473D01*
X026619Y019480D01*
X026635Y019483D01*
X027135Y019483D01*
X027150Y019480D01*
X027164Y019473D01*
X027175Y019462D01*
X027182Y019448D01*
X027185Y019433D01*
X027185Y018933D01*
X027182Y018917D01*
X027175Y018903D01*
X027164Y018892D01*
X027150Y018885D01*
X027135Y018883D01*
X026635Y018883D01*
X026619Y018885D01*
X026605Y018892D01*
X026587Y018919D02*
X027182Y018919D01*
X027185Y018968D02*
X026585Y018968D01*
X026585Y019016D02*
X027185Y019016D01*
X027185Y019065D02*
X026585Y019065D01*
X026585Y019113D02*
X027185Y019113D01*
X027185Y019162D02*
X026585Y019162D01*
X026585Y019210D02*
X027185Y019210D01*
X027185Y019259D02*
X026585Y019259D01*
X026585Y019307D02*
X027185Y019307D01*
X027185Y019356D02*
X026585Y019356D01*
X026585Y019404D02*
X027185Y019404D01*
X027180Y019453D02*
X026589Y019453D01*
X011185Y009995D02*
X010585Y009995D01*
X010585Y009947D02*
X011185Y009947D01*
X011170Y009898D02*
X010599Y009898D01*
D28*
X014164Y016968D02*
X014370Y016968D01*
X014370Y016762D01*
X014164Y016762D01*
X014164Y016968D01*
X014164Y016812D02*
X014370Y016812D01*
X014370Y016862D02*
X014164Y016862D01*
X014164Y016912D02*
X014370Y016912D01*
X014370Y016962D02*
X014164Y016962D01*
X014164Y017303D02*
X014370Y017303D01*
X014370Y017097D01*
X014164Y017097D01*
X014164Y017303D01*
X014164Y017147D02*
X014370Y017147D01*
X014370Y017197D02*
X014164Y017197D01*
X014164Y017247D02*
X014370Y017247D01*
X014370Y017297D02*
X014164Y017297D01*
X014499Y017303D02*
X014705Y017303D01*
X014705Y017097D01*
X014499Y017097D01*
X014499Y017303D01*
X014499Y017147D02*
X014705Y017147D01*
X014705Y017197D02*
X014499Y017197D01*
X014499Y017247D02*
X014705Y017247D01*
X014705Y017297D02*
X014499Y017297D01*
X014499Y016968D02*
X014705Y016968D01*
X014705Y016762D01*
X014499Y016762D01*
X014499Y016968D01*
X014499Y016812D02*
X014705Y016812D01*
X014705Y016862D02*
X014499Y016862D01*
X014499Y016912D02*
X014705Y016912D01*
X014705Y016962D02*
X014499Y016962D01*
D29*
X014570Y014317D02*
X015086Y014317D01*
X014570Y014317D02*
X014570Y014497D01*
X015086Y014497D01*
X015086Y014317D01*
X015086Y014373D02*
X014570Y014373D01*
X014570Y014429D02*
X015086Y014429D01*
X015086Y014485D02*
X014570Y014485D01*
X014299Y014317D02*
X013783Y014317D01*
X013783Y014497D01*
X014299Y014497D01*
X014299Y014317D01*
X014299Y014373D02*
X013783Y014373D01*
X013783Y014429D02*
X014299Y014429D01*
X014299Y014485D02*
X013783Y014485D01*
X013783Y013943D02*
X014299Y013943D01*
X013783Y013943D02*
X013783Y014123D01*
X014299Y014123D01*
X014299Y013943D01*
X014299Y013999D02*
X013783Y013999D01*
X013783Y014055D02*
X014299Y014055D01*
X014299Y014111D02*
X013783Y014111D01*
X013783Y013569D02*
X014299Y013569D01*
X013783Y013569D02*
X013783Y013749D01*
X014299Y013749D01*
X014299Y013569D01*
X014299Y013625D02*
X013783Y013625D01*
X013783Y013681D02*
X014299Y013681D01*
X014299Y013737D02*
X013783Y013737D01*
X014570Y013569D02*
X015086Y013569D01*
X014570Y013569D02*
X014570Y013749D01*
X015086Y013749D01*
X015086Y013569D01*
X015086Y013625D02*
X014570Y013625D01*
X014570Y013681D02*
X015086Y013681D01*
X015086Y013737D02*
X014570Y013737D01*
X014570Y013943D02*
X015086Y013943D01*
X014570Y013943D02*
X014570Y014123D01*
X015086Y014123D01*
X015086Y013943D01*
X015086Y013999D02*
X014570Y013999D01*
X014570Y014055D02*
X015086Y014055D01*
X015086Y014111D02*
X014570Y014111D01*
D30*
X014596Y011980D02*
X014598Y011991D01*
X014603Y012001D01*
X014612Y012009D01*
X014622Y012014D01*
X014634Y012015D01*
X014645Y012012D01*
X014655Y012006D01*
X014662Y011997D01*
X014666Y011986D01*
X014666Y011974D01*
X014662Y011963D01*
X014655Y011954D01*
X014645Y011948D01*
X014634Y011945D01*
X014622Y011946D01*
X014612Y011951D01*
X014603Y011959D01*
X014598Y011969D01*
X014596Y011980D01*
X014400Y011980D02*
X014402Y011991D01*
X014407Y012001D01*
X014416Y012009D01*
X014426Y012014D01*
X014438Y012015D01*
X014449Y012012D01*
X014459Y012006D01*
X014466Y011997D01*
X014470Y011986D01*
X014470Y011974D01*
X014466Y011963D01*
X014459Y011954D01*
X014449Y011948D01*
X014438Y011945D01*
X014426Y011946D01*
X014416Y011951D01*
X014407Y011959D01*
X014402Y011969D01*
X014400Y011980D01*
X014203Y011980D02*
X014205Y011991D01*
X014210Y012001D01*
X014219Y012009D01*
X014229Y012014D01*
X014241Y012015D01*
X014252Y012012D01*
X014262Y012006D01*
X014269Y011997D01*
X014273Y011986D01*
X014273Y011974D01*
X014269Y011963D01*
X014262Y011954D01*
X014252Y011948D01*
X014241Y011945D01*
X014229Y011946D01*
X014219Y011951D01*
X014210Y011959D01*
X014205Y011969D01*
X014203Y011980D01*
X014203Y011783D02*
X014205Y011794D01*
X014210Y011804D01*
X014219Y011812D01*
X014229Y011817D01*
X014241Y011818D01*
X014252Y011815D01*
X014262Y011809D01*
X014269Y011800D01*
X014273Y011789D01*
X014273Y011777D01*
X014269Y011766D01*
X014262Y011757D01*
X014252Y011751D01*
X014241Y011748D01*
X014229Y011749D01*
X014219Y011754D01*
X014210Y011762D01*
X014205Y011772D01*
X014203Y011783D01*
X014203Y011586D02*
X014205Y011597D01*
X014210Y011607D01*
X014219Y011615D01*
X014229Y011620D01*
X014241Y011621D01*
X014252Y011618D01*
X014262Y011612D01*
X014269Y011603D01*
X014273Y011592D01*
X014273Y011580D01*
X014269Y011569D01*
X014262Y011560D01*
X014252Y011554D01*
X014241Y011551D01*
X014229Y011552D01*
X014219Y011557D01*
X014210Y011565D01*
X014205Y011575D01*
X014203Y011586D01*
X014400Y011586D02*
X014402Y011597D01*
X014407Y011607D01*
X014416Y011615D01*
X014426Y011620D01*
X014438Y011621D01*
X014449Y011618D01*
X014459Y011612D01*
X014466Y011603D01*
X014470Y011592D01*
X014470Y011580D01*
X014466Y011569D01*
X014459Y011560D01*
X014449Y011554D01*
X014438Y011551D01*
X014426Y011552D01*
X014416Y011557D01*
X014407Y011565D01*
X014402Y011575D01*
X014400Y011586D01*
X014596Y011586D02*
X014598Y011597D01*
X014603Y011607D01*
X014612Y011615D01*
X014622Y011620D01*
X014634Y011621D01*
X014645Y011618D01*
X014655Y011612D01*
X014662Y011603D01*
X014666Y011592D01*
X014666Y011580D01*
X014662Y011569D01*
X014655Y011560D01*
X014645Y011554D01*
X014634Y011551D01*
X014622Y011552D01*
X014612Y011557D01*
X014603Y011565D01*
X014598Y011575D01*
X014596Y011586D01*
X014596Y011783D02*
X014598Y011794D01*
X014603Y011804D01*
X014612Y011812D01*
X014622Y011817D01*
X014634Y011818D01*
X014645Y011815D01*
X014655Y011809D01*
X014662Y011800D01*
X014666Y011789D01*
X014666Y011777D01*
X014662Y011766D01*
X014655Y011757D01*
X014645Y011751D01*
X014634Y011748D01*
X014622Y011749D01*
X014612Y011754D01*
X014603Y011762D01*
X014598Y011772D01*
X014596Y011783D01*
D31*
X028985Y013283D03*
X028985Y014133D03*
X028985Y015233D03*
X028985Y015683D03*
X028985Y016133D03*
X028985Y016583D03*
X030735Y012083D03*
X031385Y012083D03*
X032635Y012083D03*
D32*
X027375Y012183D03*
X027375Y013183D03*
X027375Y014183D03*
X027375Y015183D03*
X027375Y016183D03*
X027375Y017183D03*
X027375Y018183D03*
X027375Y019183D03*
X027375Y011183D03*
X027375Y010183D03*
X010395Y010183D03*
X010395Y011183D03*
X010395Y012183D03*
X010395Y013183D03*
X010395Y014183D03*
X010395Y015183D03*
X010395Y016183D03*
X010395Y017183D03*
X010395Y018183D03*
X010395Y019183D03*
D33*
X013113Y019367D02*
X013113Y018999D01*
X012765Y018999D01*
X012765Y019367D01*
X013113Y019367D01*
X013113Y019085D02*
X012765Y019085D01*
X012765Y019171D02*
X013113Y019171D01*
X013113Y019257D02*
X012765Y019257D01*
X012765Y019343D02*
X013113Y019343D01*
X013704Y019367D02*
X013704Y018999D01*
X013356Y018999D01*
X013356Y019367D01*
X013704Y019367D01*
X013704Y019085D02*
X013356Y019085D01*
X013356Y019171D02*
X013704Y019171D01*
X013704Y019257D02*
X013356Y019257D01*
X013356Y019343D02*
X013704Y019343D01*
D34*
X014556Y017911D03*
X014556Y017754D03*
X014713Y017754D03*
X014713Y017911D03*
D35*
X014189Y016049D02*
X014189Y015517D01*
X014189Y016049D02*
X014681Y016049D01*
X014681Y015517D01*
X014189Y015517D01*
X014189Y015639D02*
X014681Y015639D01*
X014681Y015761D02*
X014189Y015761D01*
X014189Y015883D02*
X014681Y015883D01*
X014681Y016005D02*
X014189Y016005D01*
D36*
X013992Y016012D02*
X013696Y016012D01*
X013696Y016042D02*
X013992Y016042D01*
X013992Y016072D02*
X013696Y016072D01*
X013696Y016102D02*
X013992Y016102D01*
X013992Y016132D02*
X013696Y016132D01*
X013696Y016137D02*
X013992Y016137D01*
X013992Y015428D01*
X013696Y015428D01*
X013696Y016137D01*
X013696Y015982D02*
X013992Y015982D01*
X013992Y015952D02*
X013696Y015952D01*
X013696Y015922D02*
X013992Y015922D01*
X013992Y015892D02*
X013696Y015892D01*
X013696Y015862D02*
X013992Y015862D01*
X013992Y015832D02*
X013696Y015832D01*
X013696Y015802D02*
X013992Y015802D01*
X013992Y015772D02*
X013696Y015772D01*
X013696Y015742D02*
X013992Y015742D01*
X013992Y015712D02*
X013696Y015712D01*
X013696Y015682D02*
X013992Y015682D01*
X013992Y015652D02*
X013696Y015652D01*
X013696Y015622D02*
X013992Y015622D01*
X013992Y015592D02*
X013696Y015592D01*
X013696Y015562D02*
X013992Y015562D01*
X013992Y015532D02*
X013696Y015532D01*
X013696Y015502D02*
X013992Y015502D01*
X013992Y015472D02*
X013696Y015472D01*
X013696Y015442D02*
X013992Y015442D01*
X014877Y015442D02*
X015173Y015442D01*
X015173Y015428D02*
X014877Y015428D01*
X014877Y016137D01*
X015173Y016137D01*
X015173Y015428D01*
X015173Y015472D02*
X014877Y015472D01*
X014877Y015502D02*
X015173Y015502D01*
X015173Y015532D02*
X014877Y015532D01*
X014877Y015562D02*
X015173Y015562D01*
X015173Y015592D02*
X014877Y015592D01*
X014877Y015622D02*
X015173Y015622D01*
X015173Y015652D02*
X014877Y015652D01*
X014877Y015682D02*
X015173Y015682D01*
X015173Y015712D02*
X014877Y015712D01*
X014877Y015742D02*
X015173Y015742D01*
X015173Y015772D02*
X014877Y015772D01*
X014877Y015802D02*
X015173Y015802D01*
X015173Y015832D02*
X014877Y015832D01*
X014877Y015862D02*
X015173Y015862D01*
X015173Y015892D02*
X014877Y015892D01*
X014877Y015922D02*
X015173Y015922D01*
X015173Y015952D02*
X014877Y015952D01*
X014877Y015982D02*
X015173Y015982D01*
X015173Y016012D02*
X014877Y016012D01*
X014877Y016042D02*
X015173Y016042D01*
X015173Y016072D02*
X014877Y016072D01*
X014877Y016102D02*
X015173Y016102D01*
X015173Y016132D02*
X014877Y016132D01*
D37*
X032085Y019183D03*
X032585Y019183D03*
X033085Y019183D03*
X033585Y019183D03*
X034085Y019183D03*
X033585Y019683D03*
X033085Y019683D03*
X032585Y019683D03*
X032085Y019683D03*
D38*
X034085Y019683D03*
M02*
