G75*
G70*
%OFA0B0*%
%FSLAX24Y24*%
%IPPOS*%
%LPD*%
%AMOC8*
5,1,8,0,0,1.08239X$1,22.5*
%
%ADD10C,0.0514*%
%ADD11C,0.0440*%
%ADD12C,0.0320*%
%ADD13C,0.0410*%
%ADD14C,0.0080*%
%ADD15C,0.0220*%
D10*
X009885Y010183D03*
X010885Y010183D03*
X010885Y011183D03*
X009885Y011183D03*
X009885Y012183D03*
X010885Y012183D03*
X010885Y013183D03*
X009885Y013183D03*
X009885Y014183D03*
X010885Y014183D03*
X010885Y015183D03*
X009885Y015183D03*
X009885Y016183D03*
X010885Y016183D03*
X010885Y017183D03*
X009885Y017183D03*
X009885Y018183D03*
X010885Y018183D03*
X012685Y018083D03*
X013685Y018083D03*
X010885Y019183D03*
X009885Y019183D03*
X022885Y018183D03*
X023885Y018183D03*
X023885Y017183D03*
X022885Y017183D03*
X022885Y016183D03*
X023885Y016183D03*
X023885Y015183D03*
X022885Y015183D03*
X022885Y014183D03*
X023885Y014183D03*
X023885Y013183D03*
X022885Y013183D03*
X026885Y013183D03*
X027885Y013183D03*
X027885Y012183D03*
X026885Y012183D03*
X026885Y011183D03*
X027885Y011183D03*
X027885Y010183D03*
X026885Y010183D03*
X032235Y010033D03*
X033235Y010033D03*
X034235Y010033D03*
X034235Y011033D03*
X033235Y011033D03*
X032235Y011033D03*
X027885Y014183D03*
X026885Y014183D03*
X026885Y015183D03*
X027885Y015183D03*
X027885Y016183D03*
X026885Y016183D03*
X026885Y017183D03*
X027885Y017183D03*
X027885Y018183D03*
X026885Y018183D03*
X026885Y019183D03*
X027885Y019183D03*
D11*
X020385Y019183D03*
X020385Y018183D03*
X020385Y017183D03*
X020385Y016183D03*
X020385Y015183D03*
X020385Y014183D03*
X020385Y013183D03*
X020385Y012183D03*
X020385Y011183D03*
X020385Y010183D03*
X017385Y010183D03*
X017385Y011183D03*
X017385Y012183D03*
X017385Y013183D03*
X017385Y014183D03*
X017385Y015183D03*
X017385Y016183D03*
X017385Y017183D03*
X017385Y018183D03*
X016272Y018083D03*
X015485Y018083D03*
X015472Y019183D03*
X016259Y019183D03*
X017385Y019183D03*
X014685Y019183D03*
D12*
X028985Y016583D03*
X028985Y016133D03*
X028985Y015683D03*
X028985Y015233D03*
X028985Y014133D03*
X028985Y013283D03*
X030735Y012083D03*
X031385Y012083D03*
X032635Y012083D03*
D13*
X032585Y019183D03*
X033085Y019183D03*
X033585Y019183D03*
X034085Y019183D03*
X034085Y019683D03*
X033585Y019683D03*
X033085Y019683D03*
X032585Y019683D03*
X032085Y019683D03*
X032085Y019183D03*
D14*
X009357Y009279D02*
X009339Y009308D01*
X009328Y009339D01*
X009325Y009373D01*
X009325Y019993D01*
X009328Y020026D01*
X009339Y020058D01*
X009357Y020086D01*
X009381Y020110D01*
X009409Y020128D01*
X009441Y020139D01*
X009475Y020143D01*
X034465Y020143D01*
X034498Y020139D01*
X034530Y020128D01*
X034558Y020110D01*
X034582Y020086D01*
X034600Y020058D01*
X034611Y020026D01*
X034615Y019993D01*
X034615Y011152D01*
X034586Y011221D01*
X034543Y011286D01*
X034487Y011341D01*
X034422Y011384D01*
X034350Y011414D01*
X034275Y011429D01*
X034275Y011073D01*
X034195Y011073D01*
X034195Y011429D01*
X034119Y011414D01*
X034047Y011384D01*
X033982Y011341D01*
X033926Y011286D01*
X033883Y011221D01*
X033853Y011148D01*
X033838Y011073D01*
X034195Y011073D01*
X034195Y010993D01*
X034275Y010993D01*
X034275Y010636D01*
X034350Y010651D01*
X034422Y010681D01*
X034487Y010724D01*
X034543Y010780D01*
X034586Y010845D01*
X034615Y010913D01*
X034615Y009373D01*
X034611Y009339D01*
X034600Y009308D01*
X034582Y009279D01*
X034558Y009255D01*
X034530Y009238D01*
X034498Y009226D01*
X034465Y009223D01*
X016350Y009223D01*
X016365Y009237D01*
X016365Y009428D01*
X016230Y009563D01*
X016039Y009563D01*
X015905Y009428D01*
X015905Y009237D01*
X015919Y009223D01*
X012895Y009223D01*
X012895Y010233D01*
X015985Y010233D01*
X015985Y013333D01*
X014665Y013333D01*
X014665Y013478D01*
X014530Y013613D01*
X014339Y013613D01*
X014205Y013478D01*
X014205Y013333D01*
X012885Y013333D01*
X012885Y012908D01*
X012780Y013013D01*
X012589Y013013D01*
X012455Y012878D01*
X012455Y012687D01*
X012589Y012553D01*
X012780Y012553D01*
X012885Y012657D01*
X012885Y009223D01*
X009475Y009223D01*
X009441Y009226D01*
X009409Y009238D01*
X009381Y009255D01*
X009357Y009279D01*
X009384Y009254D02*
X011638Y009254D01*
X011639Y009253D02*
X011830Y009253D01*
X011965Y009387D01*
X011965Y009578D01*
X011830Y009713D01*
X011639Y009713D01*
X011505Y009578D01*
X011505Y009387D01*
X011639Y009253D01*
X011560Y009332D02*
X009331Y009332D01*
X009325Y009411D02*
X011505Y009411D01*
X011505Y009489D02*
X009325Y009489D01*
X009325Y009568D02*
X011505Y009568D01*
X011573Y009646D02*
X009325Y009646D01*
X009325Y009725D02*
X012885Y009725D01*
X012895Y009725D02*
X032010Y009725D01*
X032021Y009713D02*
X032160Y009656D01*
X032309Y009656D01*
X032448Y009713D01*
X032554Y009819D01*
X032611Y009958D01*
X032611Y010108D01*
X032554Y010246D01*
X032448Y010352D01*
X032309Y010410D01*
X032160Y010410D01*
X032021Y010352D01*
X031915Y010246D01*
X031858Y010108D01*
X031858Y009958D01*
X031915Y009819D01*
X032021Y009713D01*
X031931Y009803D02*
X030880Y009803D01*
X031015Y009937D01*
X031015Y010128D01*
X030880Y010263D01*
X030689Y010263D01*
X030555Y010128D01*
X030555Y009937D01*
X030689Y009803D01*
X030380Y009803D01*
X030515Y009937D01*
X030515Y010128D01*
X030380Y010263D01*
X030189Y010263D01*
X030055Y010128D01*
X030055Y009937D01*
X030189Y009803D01*
X025580Y009803D01*
X025715Y009937D01*
X025715Y010128D01*
X025580Y010263D01*
X025389Y010263D01*
X025255Y010128D01*
X025255Y009937D01*
X025389Y009803D01*
X012895Y009803D01*
X012885Y009803D02*
X009325Y009803D01*
X009325Y009882D02*
X009653Y009882D01*
X009671Y009863D02*
X009810Y009806D01*
X009959Y009806D01*
X010098Y009863D01*
X010204Y009969D01*
X010261Y010108D01*
X010261Y010258D01*
X010204Y010396D01*
X010098Y010502D01*
X009959Y010560D01*
X009810Y010560D01*
X009671Y010502D01*
X009565Y010396D01*
X009508Y010258D01*
X009508Y010108D01*
X009565Y009969D01*
X009671Y009863D01*
X009574Y009960D02*
X009325Y009960D01*
X009325Y010039D02*
X009536Y010039D01*
X009508Y010117D02*
X009325Y010117D01*
X009325Y010196D02*
X009508Y010196D01*
X009515Y010274D02*
X009325Y010274D01*
X009325Y010353D02*
X009547Y010353D01*
X009600Y010431D02*
X009325Y010431D01*
X009325Y010510D02*
X009689Y010510D01*
X009810Y010806D02*
X009959Y010806D01*
X010098Y010863D01*
X010204Y010969D01*
X010261Y011108D01*
X010261Y011258D01*
X010204Y011396D01*
X010098Y011502D01*
X009959Y011560D01*
X009810Y011560D01*
X009671Y011502D01*
X009565Y011396D01*
X009508Y011258D01*
X009508Y011108D01*
X009565Y010969D01*
X009671Y010863D01*
X009810Y010806D01*
X009766Y010824D02*
X009325Y010824D01*
X009325Y010902D02*
X009632Y010902D01*
X009560Y010981D02*
X009325Y010981D01*
X009325Y011059D02*
X009528Y011059D01*
X009508Y011138D02*
X009325Y011138D01*
X009325Y011216D02*
X009508Y011216D01*
X009523Y011295D02*
X009325Y011295D01*
X009325Y011373D02*
X009556Y011373D01*
X009621Y011452D02*
X009325Y011452D01*
X009325Y011530D02*
X009739Y011530D01*
X009810Y011806D02*
X009959Y011806D01*
X010098Y011863D01*
X010204Y011969D01*
X010261Y012108D01*
X010261Y012258D01*
X010204Y012396D01*
X010098Y012502D01*
X009959Y012560D01*
X009810Y012560D01*
X009671Y012502D01*
X009565Y012396D01*
X009508Y012258D01*
X009508Y012108D01*
X009565Y011969D01*
X009671Y011863D01*
X009810Y011806D01*
X009717Y011844D02*
X009325Y011844D01*
X009325Y011766D02*
X012885Y011766D01*
X012885Y011844D02*
X011052Y011844D01*
X011098Y011863D02*
X011204Y011969D01*
X011261Y012108D01*
X011261Y012258D01*
X011204Y012396D01*
X011098Y012502D01*
X010959Y012560D01*
X010810Y012560D01*
X010671Y012502D01*
X010565Y012396D01*
X010508Y012258D01*
X010508Y012108D01*
X010565Y011969D01*
X010671Y011863D01*
X010810Y011806D01*
X010959Y011806D01*
X011098Y011863D01*
X011157Y011923D02*
X012885Y011923D01*
X012885Y012001D02*
X011217Y012001D01*
X011250Y012080D02*
X012885Y012080D01*
X012885Y012158D02*
X011261Y012158D01*
X011261Y012237D02*
X012885Y012237D01*
X012885Y012315D02*
X011238Y012315D01*
X011205Y012394D02*
X012885Y012394D01*
X012885Y012472D02*
X011128Y012472D01*
X010981Y012551D02*
X012885Y012551D01*
X012885Y012629D02*
X012856Y012629D01*
X012849Y012943D02*
X012885Y012943D01*
X012885Y013022D02*
X011226Y013022D01*
X011204Y012969D02*
X011261Y013108D01*
X011261Y013258D01*
X011204Y013396D01*
X011098Y013502D01*
X010959Y013560D01*
X010810Y013560D01*
X010671Y013502D01*
X010565Y013396D01*
X010508Y013258D01*
X010508Y013108D01*
X010565Y012969D01*
X010671Y012863D01*
X010810Y012806D01*
X010959Y012806D01*
X011098Y012863D01*
X011204Y012969D01*
X011178Y012943D02*
X012520Y012943D01*
X012455Y012865D02*
X011099Y012865D01*
X011258Y013100D02*
X012885Y013100D01*
X012885Y013179D02*
X011261Y013179D01*
X011261Y013257D02*
X012885Y013257D01*
X012889Y013403D02*
X013080Y013403D01*
X013215Y013537D01*
X013215Y013728D01*
X013080Y013863D01*
X012889Y013863D01*
X012755Y013728D01*
X009325Y013728D01*
X009325Y013650D02*
X012755Y013650D01*
X012755Y013728D02*
X012755Y013537D01*
X012889Y013403D01*
X012878Y013414D02*
X011186Y013414D01*
X011229Y013336D02*
X014205Y013336D01*
X014205Y013414D02*
X013691Y013414D01*
X013680Y013403D02*
X013815Y013537D01*
X013815Y013728D01*
X013680Y013863D01*
X013489Y013863D01*
X013355Y013728D01*
X013214Y013728D01*
X013215Y013650D02*
X013355Y013650D01*
X013355Y013728D02*
X013355Y013537D01*
X013489Y013403D01*
X013680Y013403D01*
X013770Y013493D02*
X014219Y013493D01*
X014298Y013571D02*
X013815Y013571D01*
X013815Y013650D02*
X029855Y013650D01*
X029855Y013587D02*
X029989Y013453D01*
X030180Y013453D01*
X030315Y013587D01*
X030315Y013778D01*
X030180Y013913D01*
X029989Y013913D01*
X029855Y013778D01*
X029855Y013587D01*
X029871Y013571D02*
X014571Y013571D01*
X014650Y013493D02*
X017245Y013493D01*
X017192Y013471D02*
X017096Y013375D01*
X017045Y013250D01*
X017045Y013115D01*
X017096Y012990D01*
X017192Y012894D01*
X017317Y012843D01*
X017452Y012843D01*
X017577Y012894D01*
X017673Y012990D01*
X017725Y013115D01*
X017725Y013250D01*
X017673Y013375D01*
X017577Y013471D01*
X017452Y013523D01*
X017317Y013523D01*
X017192Y013471D01*
X017135Y013414D02*
X014665Y013414D01*
X014665Y013336D02*
X017080Y013336D01*
X017047Y013257D02*
X015985Y013257D01*
X015985Y013179D02*
X017045Y013179D01*
X017051Y013100D02*
X015985Y013100D01*
X015985Y013022D02*
X017083Y013022D01*
X017143Y012943D02*
X015985Y012943D01*
X015985Y012865D02*
X017264Y012865D01*
X017505Y012865D02*
X017977Y012865D01*
X017989Y012853D02*
X018180Y012853D01*
X018315Y012987D01*
X018315Y013178D01*
X018180Y013313D01*
X017989Y013313D01*
X017855Y013178D01*
X017855Y012987D01*
X017989Y012853D01*
X017899Y012943D02*
X017626Y012943D01*
X017686Y013022D02*
X017855Y013022D01*
X017855Y013100D02*
X017718Y013100D01*
X017725Y013179D02*
X017855Y013179D01*
X017934Y013257D02*
X017722Y013257D01*
X017689Y013336D02*
X019562Y013336D01*
X019505Y013278D02*
X019505Y013087D01*
X019639Y012953D01*
X019830Y012953D01*
X019965Y013087D01*
X019965Y013278D01*
X019830Y013413D01*
X019639Y013413D01*
X019505Y013278D01*
X019505Y013257D02*
X018235Y013257D01*
X018314Y013179D02*
X019505Y013179D01*
X019505Y013100D02*
X018315Y013100D01*
X018315Y013022D02*
X019570Y013022D01*
X019899Y013022D02*
X020083Y013022D01*
X020096Y012990D02*
X020192Y012894D01*
X020317Y012843D01*
X020452Y012843D01*
X020577Y012894D01*
X020673Y012990D01*
X020725Y013115D01*
X020725Y013250D01*
X020673Y013375D01*
X020577Y013471D01*
X020452Y013523D01*
X020317Y013523D01*
X020192Y013471D01*
X020096Y013375D01*
X020045Y013250D01*
X020045Y013115D01*
X020096Y012990D01*
X020143Y012943D02*
X018270Y012943D01*
X018192Y012865D02*
X020264Y012865D01*
X020505Y012865D02*
X022670Y012865D01*
X022671Y012863D02*
X022810Y012806D01*
X022959Y012806D01*
X023098Y012863D01*
X023204Y012969D01*
X023261Y013108D01*
X023261Y013258D01*
X023204Y013396D01*
X023098Y013502D01*
X022959Y013560D01*
X022810Y013560D01*
X022671Y013502D01*
X022565Y013396D01*
X022508Y013258D01*
X022508Y013108D01*
X022565Y012969D01*
X022671Y012863D01*
X022591Y012943D02*
X020626Y012943D01*
X020686Y013022D02*
X022543Y013022D01*
X022511Y013100D02*
X020718Y013100D01*
X020725Y013179D02*
X022508Y013179D01*
X022508Y013257D02*
X020722Y013257D01*
X020689Y013336D02*
X022540Y013336D01*
X022583Y013414D02*
X020634Y013414D01*
X020525Y013493D02*
X022662Y013493D01*
X022769Y013801D02*
X022845Y013786D01*
X022845Y014143D01*
X022925Y014143D01*
X022925Y014223D01*
X023281Y014223D01*
X023266Y014298D01*
X023236Y014371D01*
X023193Y014436D01*
X023137Y014491D01*
X023072Y014534D01*
X023000Y014564D01*
X022925Y014579D01*
X022925Y014223D01*
X022845Y014223D01*
X022845Y014579D01*
X022769Y014564D01*
X022697Y014534D01*
X022632Y014491D01*
X022576Y014436D01*
X022533Y014371D01*
X022503Y014298D01*
X022488Y014223D01*
X022845Y014223D01*
X022845Y014143D01*
X022488Y014143D01*
X022503Y014067D01*
X022533Y013995D01*
X022576Y013930D01*
X022632Y013874D01*
X022697Y013831D01*
X022769Y013801D01*
X022755Y013807D02*
X013736Y013807D01*
X013814Y013728D02*
X029855Y013728D01*
X029883Y013807D02*
X027962Y013807D01*
X027959Y013806D02*
X028098Y013863D01*
X028204Y013969D01*
X028261Y014108D01*
X028261Y014258D01*
X028204Y014396D01*
X028098Y014502D01*
X027959Y014560D01*
X027810Y014560D01*
X027671Y014502D01*
X027565Y014396D01*
X027508Y014258D01*
X027508Y014108D01*
X027565Y013969D01*
X027671Y013863D01*
X027810Y013806D01*
X027959Y013806D01*
X027807Y013807D02*
X026962Y013807D01*
X026959Y013806D02*
X027098Y013863D01*
X027204Y013969D01*
X027261Y014108D01*
X027261Y014258D01*
X027204Y014396D01*
X027098Y014502D01*
X026959Y014560D01*
X026810Y014560D01*
X026671Y014502D01*
X026565Y014396D01*
X026508Y014258D01*
X026508Y014108D01*
X026565Y013969D01*
X026671Y013863D01*
X026810Y013806D01*
X026959Y013806D01*
X026807Y013807D02*
X023962Y013807D01*
X023959Y013806D02*
X024098Y013863D01*
X024204Y013969D01*
X024261Y014108D01*
X024261Y014258D01*
X024204Y014396D01*
X024098Y014502D01*
X023959Y014560D01*
X023810Y014560D01*
X023671Y014502D01*
X023565Y014396D01*
X023508Y014258D01*
X023508Y014108D01*
X023565Y013969D01*
X023671Y013863D01*
X023810Y013806D01*
X023959Y013806D01*
X023807Y013807D02*
X023014Y013807D01*
X023000Y013801D02*
X023072Y013831D01*
X023137Y013874D01*
X023193Y013930D01*
X023236Y013995D01*
X023266Y014067D01*
X023281Y014143D01*
X022925Y014143D01*
X022925Y013786D01*
X023000Y013801D01*
X022925Y013807D02*
X022845Y013807D01*
X022845Y013885D02*
X022925Y013885D01*
X022925Y013964D02*
X022845Y013964D01*
X022845Y014042D02*
X022925Y014042D01*
X022925Y014121D02*
X022845Y014121D01*
X022845Y014199D02*
X020725Y014199D01*
X020725Y014250D02*
X020673Y014375D01*
X020577Y014471D01*
X020452Y014523D01*
X020317Y014523D01*
X020192Y014471D01*
X020096Y014375D01*
X020045Y014250D01*
X020045Y014115D01*
X020096Y013990D01*
X020192Y013894D01*
X020317Y013843D01*
X020452Y013843D01*
X020577Y013894D01*
X020673Y013990D01*
X020725Y014115D01*
X020725Y014250D01*
X020713Y014278D02*
X022499Y014278D01*
X022527Y014356D02*
X020681Y014356D01*
X020613Y014435D02*
X022576Y014435D01*
X022665Y014513D02*
X020475Y014513D01*
X020294Y014513D02*
X017475Y014513D01*
X017452Y014523D02*
X017317Y014523D01*
X017192Y014471D01*
X017096Y014375D01*
X017045Y014250D01*
X017045Y014115D01*
X017096Y013990D01*
X017192Y013894D01*
X017317Y013843D01*
X017452Y013843D01*
X017577Y013894D01*
X017673Y013990D01*
X017725Y014115D01*
X017725Y014250D01*
X017673Y014375D01*
X017577Y014471D01*
X017452Y014523D01*
X017294Y014513D02*
X011071Y014513D01*
X011098Y014502D02*
X010959Y014560D01*
X010810Y014560D01*
X010671Y014502D01*
X010565Y014396D01*
X010508Y014258D01*
X010508Y014108D01*
X010565Y013969D01*
X010671Y013863D01*
X010810Y013806D01*
X010959Y013806D01*
X011098Y013863D01*
X011204Y013969D01*
X011261Y014108D01*
X011261Y014258D01*
X011204Y014396D01*
X011098Y014502D01*
X011165Y014435D02*
X017156Y014435D01*
X017088Y014356D02*
X011221Y014356D01*
X011253Y014278D02*
X016054Y014278D01*
X016089Y014313D02*
X015955Y014178D01*
X015955Y013987D01*
X016089Y013853D01*
X016280Y013853D01*
X016415Y013987D01*
X016415Y014178D01*
X016280Y014313D01*
X016089Y014313D01*
X015976Y014199D02*
X011261Y014199D01*
X011261Y014121D02*
X015955Y014121D01*
X015955Y014042D02*
X011234Y014042D01*
X011198Y013964D02*
X015978Y013964D01*
X016057Y013885D02*
X011120Y013885D01*
X010962Y013807D02*
X012833Y013807D01*
X012755Y013571D02*
X009325Y013571D01*
X009325Y013493D02*
X009662Y013493D01*
X009671Y013502D02*
X009565Y013396D01*
X009508Y013258D01*
X009508Y013108D01*
X009565Y012969D01*
X009671Y012863D01*
X009810Y012806D01*
X009959Y012806D01*
X010098Y012863D01*
X010204Y012969D01*
X010261Y013108D01*
X010261Y013258D01*
X010204Y013396D01*
X010098Y013502D01*
X009959Y013560D01*
X009810Y013560D01*
X009671Y013502D01*
X009583Y013414D02*
X009325Y013414D01*
X009325Y013336D02*
X009540Y013336D01*
X009508Y013257D02*
X009325Y013257D01*
X009325Y013179D02*
X009508Y013179D01*
X009511Y013100D02*
X009325Y013100D01*
X009325Y013022D02*
X009543Y013022D01*
X009591Y012943D02*
X009325Y012943D01*
X009325Y012865D02*
X009670Y012865D01*
X009325Y012786D02*
X012455Y012786D01*
X012455Y012708D02*
X009325Y012708D01*
X009325Y012629D02*
X012513Y012629D01*
X013091Y013414D02*
X013478Y013414D01*
X013399Y013493D02*
X013170Y013493D01*
X013215Y013571D02*
X013355Y013571D01*
X013433Y013807D02*
X013136Y013807D01*
X012799Y013493D02*
X011107Y013493D01*
X010807Y013807D02*
X009962Y013807D01*
X009959Y013806D02*
X010098Y013863D01*
X010204Y013969D01*
X010261Y014108D01*
X010261Y014258D01*
X010204Y014396D01*
X010098Y014502D01*
X009959Y014560D01*
X009810Y014560D01*
X009671Y014502D01*
X009565Y014396D01*
X009508Y014258D01*
X009508Y014108D01*
X009565Y013969D01*
X009671Y013863D01*
X009810Y013806D01*
X009959Y013806D01*
X009807Y013807D02*
X009325Y013807D01*
X009325Y013885D02*
X009649Y013885D01*
X009571Y013964D02*
X009325Y013964D01*
X009325Y014042D02*
X009535Y014042D01*
X009508Y014121D02*
X009325Y014121D01*
X009325Y014199D02*
X009508Y014199D01*
X009516Y014278D02*
X009325Y014278D01*
X009325Y014356D02*
X009548Y014356D01*
X009604Y014435D02*
X009325Y014435D01*
X009325Y014513D02*
X009698Y014513D01*
X010071Y014513D02*
X010698Y014513D01*
X010604Y014435D02*
X010165Y014435D01*
X010221Y014356D02*
X010548Y014356D01*
X010516Y014278D02*
X010253Y014278D01*
X010261Y014199D02*
X010508Y014199D01*
X010508Y014121D02*
X010261Y014121D01*
X010234Y014042D02*
X010535Y014042D01*
X010571Y013964D02*
X010198Y013964D01*
X010120Y013885D02*
X010649Y013885D01*
X010662Y013493D02*
X010107Y013493D01*
X010186Y013414D02*
X010583Y013414D01*
X010540Y013336D02*
X010229Y013336D01*
X010261Y013257D02*
X010508Y013257D01*
X010508Y013179D02*
X010261Y013179D01*
X010258Y013100D02*
X010511Y013100D01*
X010543Y013022D02*
X010226Y013022D01*
X010178Y012943D02*
X010591Y012943D01*
X010670Y012865D02*
X010099Y012865D01*
X009981Y012551D02*
X010788Y012551D01*
X010641Y012472D02*
X010128Y012472D01*
X010205Y012394D02*
X010564Y012394D01*
X010532Y012315D02*
X010238Y012315D01*
X010261Y012237D02*
X010508Y012237D01*
X010508Y012158D02*
X010261Y012158D01*
X010250Y012080D02*
X010519Y012080D01*
X010552Y012001D02*
X010217Y012001D01*
X010157Y011923D02*
X010612Y011923D01*
X010717Y011844D02*
X010052Y011844D01*
X010030Y011530D02*
X010739Y011530D01*
X010671Y011502D02*
X010565Y011396D01*
X010508Y011258D01*
X010508Y011108D01*
X010565Y010969D01*
X010671Y010863D01*
X010810Y010806D01*
X010959Y010806D01*
X011098Y010863D01*
X011204Y010969D01*
X011261Y011108D01*
X011261Y011258D01*
X011204Y011396D01*
X011098Y011502D01*
X010959Y011560D01*
X010810Y011560D01*
X010671Y011502D01*
X010621Y011452D02*
X010148Y011452D01*
X010214Y011373D02*
X010556Y011373D01*
X010523Y011295D02*
X010246Y011295D01*
X010261Y011216D02*
X010508Y011216D01*
X010508Y011138D02*
X010261Y011138D01*
X010241Y011059D02*
X010528Y011059D01*
X010560Y010981D02*
X010209Y010981D01*
X010137Y010902D02*
X010632Y010902D01*
X010766Y010824D02*
X010003Y010824D01*
X010080Y010510D02*
X010689Y010510D01*
X010671Y010502D02*
X010565Y010396D01*
X010508Y010258D01*
X010508Y010108D01*
X010565Y009969D01*
X010671Y009863D01*
X010810Y009806D01*
X010959Y009806D01*
X011098Y009863D01*
X011204Y009969D01*
X011261Y010108D01*
X011261Y010258D01*
X011204Y010396D01*
X011098Y010502D01*
X010959Y010560D01*
X010810Y010560D01*
X010671Y010502D01*
X010600Y010431D02*
X010169Y010431D01*
X010222Y010353D02*
X010547Y010353D01*
X010515Y010274D02*
X010255Y010274D01*
X010261Y010196D02*
X010508Y010196D01*
X010508Y010117D02*
X010261Y010117D01*
X010233Y010039D02*
X010536Y010039D01*
X010574Y009960D02*
X010195Y009960D01*
X010116Y009882D02*
X010653Y009882D01*
X011116Y009882D02*
X012885Y009882D01*
X012895Y009882D02*
X017223Y009882D01*
X017192Y009894D02*
X017317Y009843D01*
X017452Y009843D01*
X017577Y009894D01*
X017673Y009990D01*
X017725Y010115D01*
X017725Y010250D01*
X017673Y010375D01*
X017577Y010471D01*
X017452Y010523D01*
X017317Y010523D01*
X017192Y010471D01*
X017096Y010375D01*
X017045Y010250D01*
X017045Y010115D01*
X017096Y009990D01*
X017192Y009894D01*
X017126Y009960D02*
X012895Y009960D01*
X012885Y009960D02*
X011195Y009960D01*
X011233Y010039D02*
X012885Y010039D01*
X012895Y010039D02*
X017076Y010039D01*
X017045Y010117D02*
X012895Y010117D01*
X012885Y010117D02*
X011261Y010117D01*
X011261Y010196D02*
X012885Y010196D01*
X012895Y010196D02*
X017045Y010196D01*
X017054Y010274D02*
X015985Y010274D01*
X015985Y010353D02*
X017087Y010353D01*
X017152Y010431D02*
X015985Y010431D01*
X015985Y010510D02*
X017286Y010510D01*
X017484Y010510D02*
X019586Y010510D01*
X019639Y010563D02*
X019505Y010428D01*
X019505Y010237D01*
X019639Y010103D01*
X019830Y010103D01*
X019965Y010237D01*
X019965Y010428D01*
X019830Y010563D01*
X019639Y010563D01*
X019508Y010431D02*
X017617Y010431D01*
X017682Y010353D02*
X019505Y010353D01*
X019505Y010274D02*
X017715Y010274D01*
X017725Y010196D02*
X019546Y010196D01*
X019625Y010117D02*
X017725Y010117D01*
X017693Y010039D02*
X020076Y010039D01*
X020096Y009990D02*
X020192Y009894D01*
X020317Y009843D01*
X020452Y009843D01*
X020577Y009894D01*
X020673Y009990D01*
X020725Y010115D01*
X020725Y010250D01*
X020673Y010375D01*
X020577Y010471D01*
X020452Y010523D01*
X020317Y010523D01*
X020192Y010471D01*
X020096Y010375D01*
X020045Y010250D01*
X020045Y010115D01*
X020096Y009990D01*
X020126Y009960D02*
X017643Y009960D01*
X017546Y009882D02*
X020223Y009882D01*
X020045Y010117D02*
X019844Y010117D01*
X019923Y010196D02*
X020045Y010196D01*
X020054Y010274D02*
X019965Y010274D01*
X019965Y010353D02*
X020087Y010353D01*
X020152Y010431D02*
X019961Y010431D01*
X019883Y010510D02*
X020286Y010510D01*
X020484Y010510D02*
X021305Y010510D01*
X021305Y010528D02*
X021305Y010337D01*
X021439Y010203D01*
X021630Y010203D01*
X021765Y010337D01*
X021765Y010528D01*
X021630Y010663D01*
X021439Y010663D01*
X021305Y010528D01*
X021365Y010588D02*
X015985Y010588D01*
X015985Y010667D02*
X025505Y010667D01*
X025505Y010745D02*
X015985Y010745D01*
X015985Y010824D02*
X025550Y010824D01*
X025505Y010778D02*
X025505Y010587D01*
X025639Y010453D01*
X025830Y010453D01*
X025965Y010587D01*
X025965Y010778D01*
X025830Y010913D01*
X025639Y010913D01*
X025505Y010778D01*
X025629Y010902D02*
X020585Y010902D01*
X020577Y010894D02*
X020673Y010990D01*
X020725Y011115D01*
X020725Y011250D01*
X020673Y011375D01*
X020577Y011471D01*
X020452Y011523D01*
X020317Y011523D01*
X020192Y011471D01*
X020096Y011375D01*
X020045Y011250D01*
X020045Y011115D01*
X020096Y010990D01*
X020192Y010894D01*
X020317Y010843D01*
X020452Y010843D01*
X020577Y010894D01*
X020663Y010981D02*
X021761Y010981D01*
X021705Y011037D02*
X021839Y010903D01*
X022030Y010903D01*
X022165Y011037D01*
X022165Y011228D01*
X022030Y011363D01*
X021839Y011363D01*
X021705Y011228D01*
X021705Y011037D01*
X021705Y011059D02*
X020701Y011059D01*
X020725Y011138D02*
X021705Y011138D01*
X021705Y011216D02*
X020725Y011216D01*
X020706Y011295D02*
X021771Y011295D01*
X022098Y011295D02*
X026523Y011295D01*
X026508Y011258D02*
X026565Y011396D01*
X026671Y011502D01*
X026810Y011560D01*
X026959Y011560D01*
X027098Y011502D01*
X027204Y011396D01*
X027261Y011258D01*
X027261Y011108D01*
X027204Y010969D01*
X027098Y010863D01*
X026959Y010806D01*
X026810Y010806D01*
X026671Y010863D01*
X026565Y010969D01*
X026508Y011108D01*
X026508Y011258D01*
X026508Y011216D02*
X022165Y011216D01*
X022165Y011138D02*
X026508Y011138D01*
X026528Y011059D02*
X022165Y011059D01*
X022108Y010981D02*
X026560Y010981D01*
X026632Y010902D02*
X025840Y010902D01*
X025919Y010824D02*
X026766Y010824D01*
X027003Y010824D02*
X027766Y010824D01*
X027810Y010806D02*
X027959Y010806D01*
X028098Y010863D01*
X028204Y010969D01*
X028261Y011108D01*
X028261Y011258D01*
X028204Y011396D01*
X028098Y011502D01*
X027959Y011560D01*
X027810Y011560D01*
X027671Y011502D01*
X027565Y011396D01*
X027508Y011258D01*
X027508Y011108D01*
X027565Y010969D01*
X027671Y010863D01*
X027810Y010806D01*
X028003Y010824D02*
X031913Y010824D01*
X031915Y010819D02*
X032021Y010713D01*
X032160Y010656D01*
X032309Y010656D01*
X032448Y010713D01*
X032554Y010819D01*
X032611Y010958D01*
X032611Y011108D01*
X032554Y011246D01*
X032448Y011352D01*
X032309Y011410D01*
X032160Y011410D01*
X032021Y011352D01*
X031915Y011246D01*
X031858Y011108D01*
X031858Y010958D01*
X031915Y010819D01*
X031881Y010902D02*
X028137Y010902D01*
X028209Y010981D02*
X031858Y010981D01*
X031858Y011059D02*
X028241Y011059D01*
X028261Y011138D02*
X031870Y011138D01*
X031903Y011216D02*
X028261Y011216D01*
X028246Y011295D02*
X031964Y011295D01*
X032072Y011373D02*
X028214Y011373D01*
X028148Y011452D02*
X034615Y011452D01*
X034615Y011530D02*
X028030Y011530D01*
X027959Y011806D02*
X028098Y011863D01*
X028204Y011969D01*
X028261Y012108D01*
X028261Y012258D01*
X028204Y012396D01*
X028098Y012502D01*
X027959Y012560D01*
X027810Y012560D01*
X027671Y012502D01*
X027565Y012396D01*
X027508Y012258D01*
X027508Y012108D01*
X027565Y011969D01*
X027671Y011863D01*
X027810Y011806D01*
X027959Y011806D01*
X028052Y011844D02*
X030579Y011844D01*
X030576Y011845D02*
X030679Y011803D01*
X030790Y011803D01*
X030893Y011845D01*
X030972Y011924D01*
X031015Y012027D01*
X031015Y012138D01*
X030972Y012241D01*
X030893Y012320D01*
X030790Y012363D01*
X030679Y012363D01*
X030576Y012320D01*
X030497Y012241D01*
X030455Y012138D01*
X030455Y012027D01*
X030497Y011924D01*
X030576Y011845D01*
X030499Y011923D02*
X028157Y011923D01*
X028217Y012001D02*
X030465Y012001D01*
X030455Y012080D02*
X028250Y012080D01*
X028261Y012158D02*
X030463Y012158D01*
X030495Y012237D02*
X028261Y012237D01*
X028238Y012315D02*
X030571Y012315D01*
X030898Y012315D02*
X031221Y012315D01*
X031226Y012320D02*
X031147Y012241D01*
X031105Y012138D01*
X031105Y012027D01*
X031147Y011924D01*
X031226Y011845D01*
X031329Y011803D01*
X031440Y011803D01*
X031543Y011845D01*
X031622Y011924D01*
X031650Y011992D01*
X031689Y011953D01*
X031880Y011953D01*
X031935Y012007D01*
X031989Y011953D01*
X032180Y011953D01*
X032315Y012087D01*
X032315Y012278D01*
X032180Y012413D01*
X031989Y012413D01*
X031935Y012358D01*
X031880Y012413D01*
X031689Y012413D01*
X031570Y012293D01*
X031543Y012320D01*
X031440Y012363D01*
X031329Y012363D01*
X031226Y012320D01*
X031145Y012237D02*
X030974Y012237D01*
X031006Y012158D02*
X031113Y012158D01*
X031105Y012080D02*
X031015Y012080D01*
X031004Y012001D02*
X031115Y012001D01*
X031149Y011923D02*
X030971Y011923D01*
X030890Y011844D02*
X031229Y011844D01*
X031540Y011844D02*
X032479Y011844D01*
X032476Y011845D02*
X032579Y011803D01*
X032690Y011803D01*
X032793Y011845D01*
X032872Y011924D01*
X032915Y012027D01*
X032915Y012138D01*
X032872Y012241D01*
X032793Y012320D01*
X032690Y012363D01*
X032579Y012363D01*
X032476Y012320D01*
X032397Y012241D01*
X032355Y012138D01*
X032355Y012027D01*
X032397Y011924D01*
X032476Y011845D01*
X032399Y011923D02*
X031621Y011923D01*
X031928Y012001D02*
X031941Y012001D01*
X032228Y012001D02*
X032365Y012001D01*
X032355Y012080D02*
X032307Y012080D01*
X032315Y012158D02*
X032363Y012158D01*
X032395Y012237D02*
X032315Y012237D01*
X032277Y012315D02*
X032471Y012315D01*
X032199Y012394D02*
X034615Y012394D01*
X034615Y012472D02*
X028128Y012472D01*
X028205Y012394D02*
X031670Y012394D01*
X031592Y012315D02*
X031548Y012315D01*
X031899Y012394D02*
X031970Y012394D01*
X032798Y012315D02*
X034615Y012315D01*
X034615Y012237D02*
X032874Y012237D01*
X032906Y012158D02*
X034615Y012158D01*
X034615Y012080D02*
X032915Y012080D01*
X032904Y012001D02*
X034615Y012001D01*
X034615Y011923D02*
X032871Y011923D01*
X032790Y011844D02*
X034615Y011844D01*
X034615Y011766D02*
X015985Y011766D01*
X015985Y011844D02*
X017313Y011844D01*
X017317Y011843D02*
X017452Y011843D01*
X017577Y011894D01*
X017673Y011990D01*
X017725Y012115D01*
X017725Y012250D01*
X017673Y012375D01*
X017577Y012471D01*
X017452Y012523D01*
X017317Y012523D01*
X017192Y012471D01*
X017096Y012375D01*
X017045Y012250D01*
X017045Y012115D01*
X017096Y011990D01*
X017192Y011894D01*
X017317Y011843D01*
X017456Y011844D02*
X020313Y011844D01*
X020317Y011843D02*
X020452Y011843D01*
X020577Y011894D01*
X020673Y011990D01*
X020725Y012115D01*
X020725Y012250D01*
X020673Y012375D01*
X020577Y012471D01*
X020452Y012523D01*
X020317Y012523D01*
X020192Y012471D01*
X020096Y012375D01*
X020045Y012250D01*
X020045Y012115D01*
X020096Y011990D01*
X020192Y011894D01*
X020317Y011843D01*
X020456Y011844D02*
X026717Y011844D01*
X026671Y011863D02*
X026810Y011806D01*
X026959Y011806D01*
X027098Y011863D01*
X027204Y011969D01*
X027261Y012108D01*
X027261Y012258D01*
X027204Y012396D01*
X027098Y012502D01*
X026959Y012560D01*
X026810Y012560D01*
X026671Y012502D01*
X026565Y012396D01*
X026508Y012258D01*
X026508Y012108D01*
X026565Y011969D01*
X026671Y011863D01*
X026612Y011923D02*
X020605Y011923D01*
X020677Y012001D02*
X026552Y012001D01*
X026519Y012080D02*
X020710Y012080D01*
X020725Y012158D02*
X026508Y012158D01*
X026508Y012237D02*
X020725Y012237D01*
X020698Y012315D02*
X026532Y012315D01*
X026564Y012394D02*
X020654Y012394D01*
X020574Y012472D02*
X026641Y012472D01*
X026788Y012551D02*
X015985Y012551D01*
X015985Y012629D02*
X034615Y012629D01*
X034615Y012551D02*
X027981Y012551D01*
X027788Y012551D02*
X026981Y012551D01*
X027128Y012472D02*
X027641Y012472D01*
X027564Y012394D02*
X027205Y012394D01*
X027238Y012315D02*
X027532Y012315D01*
X027508Y012237D02*
X027261Y012237D01*
X027261Y012158D02*
X027508Y012158D01*
X027519Y012080D02*
X027250Y012080D01*
X027217Y012001D02*
X027552Y012001D01*
X027612Y011923D02*
X027157Y011923D01*
X027052Y011844D02*
X027717Y011844D01*
X027739Y011530D02*
X027030Y011530D01*
X027148Y011452D02*
X027621Y011452D01*
X027556Y011373D02*
X027214Y011373D01*
X027246Y011295D02*
X027523Y011295D01*
X027508Y011216D02*
X027261Y011216D01*
X027261Y011138D02*
X027508Y011138D01*
X027528Y011059D02*
X027241Y011059D01*
X027209Y010981D02*
X027560Y010981D01*
X027632Y010902D02*
X027137Y010902D01*
X026959Y010560D02*
X026810Y010560D01*
X026671Y010502D01*
X026565Y010396D01*
X026508Y010258D01*
X026508Y010108D01*
X026565Y009969D01*
X026671Y009863D01*
X026810Y009806D01*
X026959Y009806D01*
X027098Y009863D01*
X027204Y009969D01*
X027261Y010108D01*
X027261Y010258D01*
X027204Y010396D01*
X027098Y010502D01*
X026959Y010560D01*
X027080Y010510D02*
X027689Y010510D01*
X027671Y010502D02*
X027565Y010396D01*
X027508Y010258D01*
X027508Y010108D01*
X027565Y009969D01*
X027671Y009863D01*
X027810Y009806D01*
X027959Y009806D01*
X028098Y009863D01*
X028204Y009969D01*
X028261Y010108D01*
X028261Y010258D01*
X028204Y010396D01*
X028098Y010502D01*
X027959Y010560D01*
X027810Y010560D01*
X027671Y010502D01*
X027600Y010431D02*
X027169Y010431D01*
X027222Y010353D02*
X027547Y010353D01*
X027515Y010274D02*
X027255Y010274D01*
X027261Y010196D02*
X027508Y010196D01*
X027508Y010117D02*
X027261Y010117D01*
X027233Y010039D02*
X027536Y010039D01*
X027574Y009960D02*
X027195Y009960D01*
X027116Y009882D02*
X027653Y009882D01*
X028116Y009882D02*
X030110Y009882D01*
X030055Y009960D02*
X028195Y009960D01*
X028233Y010039D02*
X030055Y010039D01*
X030055Y010117D02*
X028261Y010117D01*
X028261Y010196D02*
X030122Y010196D01*
X030447Y010196D02*
X030622Y010196D01*
X030555Y010117D02*
X030515Y010117D01*
X030515Y010039D02*
X030555Y010039D01*
X030555Y009960D02*
X030515Y009960D01*
X030459Y009882D02*
X030610Y009882D01*
X030689Y009803D02*
X030880Y009803D01*
X030959Y009882D02*
X031889Y009882D01*
X031858Y009960D02*
X031015Y009960D01*
X031015Y010039D02*
X031858Y010039D01*
X031862Y010117D02*
X031015Y010117D01*
X030947Y010196D02*
X031894Y010196D01*
X031943Y010274D02*
X028255Y010274D01*
X028222Y010353D02*
X032022Y010353D01*
X032447Y010353D02*
X033022Y010353D01*
X033021Y010352D02*
X032915Y010246D01*
X032858Y010108D01*
X032858Y009958D01*
X032915Y009819D01*
X033021Y009713D01*
X033160Y009656D01*
X033309Y009656D01*
X033448Y009713D01*
X033554Y009819D01*
X033611Y009958D01*
X033611Y010108D01*
X033554Y010246D01*
X033448Y010352D01*
X033309Y010410D01*
X033160Y010410D01*
X033021Y010352D01*
X032943Y010274D02*
X032526Y010274D01*
X032575Y010196D02*
X032894Y010196D01*
X032862Y010117D02*
X032607Y010117D01*
X032611Y010039D02*
X032858Y010039D01*
X032858Y009960D02*
X032611Y009960D01*
X032580Y009882D02*
X032889Y009882D01*
X032931Y009803D02*
X032538Y009803D01*
X032459Y009725D02*
X033010Y009725D01*
X033459Y009725D02*
X034010Y009725D01*
X034021Y009713D02*
X034160Y009656D01*
X034309Y009656D01*
X034448Y009713D01*
X034554Y009819D01*
X034611Y009958D01*
X034611Y010108D01*
X034554Y010246D01*
X034448Y010352D01*
X034309Y010410D01*
X034160Y010410D01*
X034021Y010352D01*
X033915Y010246D01*
X033858Y010108D01*
X033858Y009958D01*
X033915Y009819D01*
X034021Y009713D01*
X033931Y009803D02*
X033538Y009803D01*
X033580Y009882D02*
X033889Y009882D01*
X033858Y009960D02*
X033611Y009960D01*
X033611Y010039D02*
X033858Y010039D01*
X033862Y010117D02*
X033607Y010117D01*
X033575Y010196D02*
X033894Y010196D01*
X033943Y010274D02*
X033526Y010274D01*
X033447Y010353D02*
X034022Y010353D01*
X034447Y010353D02*
X034615Y010353D01*
X034615Y010431D02*
X028169Y010431D01*
X028080Y010510D02*
X034615Y010510D01*
X034615Y010588D02*
X025965Y010588D01*
X025965Y010667D02*
X032133Y010667D01*
X031989Y010745D02*
X025965Y010745D01*
X025887Y010510D02*
X026689Y010510D01*
X026600Y010431D02*
X021765Y010431D01*
X021765Y010353D02*
X026547Y010353D01*
X026515Y010274D02*
X021701Y010274D01*
X021765Y010510D02*
X025582Y010510D01*
X025505Y010588D02*
X021704Y010588D01*
X021305Y010431D02*
X020617Y010431D01*
X020682Y010353D02*
X021305Y010353D01*
X021368Y010274D02*
X020715Y010274D01*
X020725Y010196D02*
X025322Y010196D01*
X025255Y010117D02*
X020725Y010117D01*
X020693Y010039D02*
X025255Y010039D01*
X025255Y009960D02*
X020643Y009960D01*
X020546Y009882D02*
X025310Y009882D01*
X025389Y009803D02*
X025580Y009803D01*
X025659Y009882D02*
X026653Y009882D01*
X026574Y009960D02*
X025715Y009960D01*
X025715Y010039D02*
X026536Y010039D01*
X026508Y010117D02*
X025715Y010117D01*
X025647Y010196D02*
X026508Y010196D01*
X026556Y011373D02*
X020674Y011373D01*
X020596Y011452D02*
X026621Y011452D01*
X026739Y011530D02*
X015985Y011530D01*
X015985Y011452D02*
X017173Y011452D01*
X017192Y011471D02*
X017096Y011375D01*
X017045Y011250D01*
X017045Y011115D01*
X017096Y010990D01*
X017192Y010894D01*
X017317Y010843D01*
X017452Y010843D01*
X017577Y010894D01*
X017673Y010990D01*
X017725Y011115D01*
X017725Y011250D01*
X017673Y011375D01*
X017577Y011471D01*
X017452Y011523D01*
X017317Y011523D01*
X017192Y011471D01*
X017095Y011373D02*
X015985Y011373D01*
X015985Y011295D02*
X017063Y011295D01*
X017045Y011216D02*
X015985Y011216D01*
X015985Y011138D02*
X017045Y011138D01*
X017068Y011059D02*
X015985Y011059D01*
X015985Y010981D02*
X017106Y010981D01*
X017184Y010902D02*
X015985Y010902D01*
X015985Y011609D02*
X034615Y011609D01*
X034615Y011687D02*
X015985Y011687D01*
X015985Y011923D02*
X017164Y011923D01*
X017092Y012001D02*
X015985Y012001D01*
X015985Y012080D02*
X017059Y012080D01*
X017045Y012158D02*
X015985Y012158D01*
X015985Y012237D02*
X017045Y012237D01*
X017071Y012315D02*
X015985Y012315D01*
X015985Y012394D02*
X017115Y012394D01*
X017195Y012472D02*
X015985Y012472D01*
X015985Y012708D02*
X034615Y012708D01*
X034615Y012786D02*
X015985Y012786D01*
X017574Y012472D02*
X020195Y012472D01*
X020115Y012394D02*
X017654Y012394D01*
X017698Y012315D02*
X020071Y012315D01*
X020045Y012237D02*
X017725Y012237D01*
X017725Y012158D02*
X020045Y012158D01*
X020059Y012080D02*
X017710Y012080D01*
X017677Y012001D02*
X020092Y012001D01*
X020164Y011923D02*
X017605Y011923D01*
X017596Y011452D02*
X020173Y011452D01*
X020095Y011373D02*
X017674Y011373D01*
X017706Y011295D02*
X020063Y011295D01*
X020045Y011216D02*
X017725Y011216D01*
X017725Y011138D02*
X020045Y011138D01*
X020068Y011059D02*
X017701Y011059D01*
X017663Y010981D02*
X020106Y010981D01*
X020184Y010902D02*
X017585Y010902D01*
X016303Y009489D02*
X034615Y009489D01*
X034615Y009411D02*
X016365Y009411D01*
X016365Y009332D02*
X034608Y009332D01*
X034555Y009254D02*
X016365Y009254D01*
X015905Y009254D02*
X012895Y009254D01*
X012885Y009254D02*
X011831Y009254D01*
X011909Y009332D02*
X012885Y009332D01*
X012895Y009332D02*
X015905Y009332D01*
X015905Y009411D02*
X012895Y009411D01*
X012885Y009411D02*
X011965Y009411D01*
X011965Y009489D02*
X012885Y009489D01*
X012895Y009489D02*
X015966Y009489D01*
X012895Y009568D02*
X034615Y009568D01*
X034615Y009646D02*
X012895Y009646D01*
X012885Y009646D02*
X011896Y009646D01*
X011965Y009568D02*
X012885Y009568D01*
X012885Y010274D02*
X011255Y010274D01*
X011222Y010353D02*
X012885Y010353D01*
X012885Y010431D02*
X011169Y010431D01*
X011080Y010510D02*
X012885Y010510D01*
X012885Y010588D02*
X009325Y010588D01*
X009325Y010667D02*
X012885Y010667D01*
X012885Y010745D02*
X009325Y010745D01*
X009325Y011609D02*
X012885Y011609D01*
X012885Y011687D02*
X009325Y011687D01*
X009325Y011923D02*
X009612Y011923D01*
X009552Y012001D02*
X009325Y012001D01*
X009325Y012080D02*
X009519Y012080D01*
X009508Y012158D02*
X009325Y012158D01*
X009325Y012237D02*
X009508Y012237D01*
X009532Y012315D02*
X009325Y012315D01*
X009325Y012394D02*
X009564Y012394D01*
X009641Y012472D02*
X009325Y012472D01*
X009325Y012551D02*
X009788Y012551D01*
X011030Y011530D02*
X012885Y011530D01*
X012885Y011452D02*
X011148Y011452D01*
X011214Y011373D02*
X012885Y011373D01*
X012885Y011295D02*
X011246Y011295D01*
X011261Y011216D02*
X012885Y011216D01*
X012885Y011138D02*
X011261Y011138D01*
X011241Y011059D02*
X012885Y011059D01*
X012885Y010981D02*
X011209Y010981D01*
X011137Y010902D02*
X012885Y010902D01*
X012885Y010824D02*
X011003Y010824D01*
X016312Y013885D02*
X017214Y013885D01*
X017123Y013964D02*
X016391Y013964D01*
X016415Y014042D02*
X017075Y014042D01*
X017045Y014121D02*
X016415Y014121D01*
X016393Y014199D02*
X017045Y014199D01*
X017056Y014278D02*
X016315Y014278D01*
X017096Y014990D02*
X017192Y014894D01*
X017317Y014843D01*
X017452Y014843D01*
X017577Y014894D01*
X017673Y014990D01*
X017725Y015115D01*
X017725Y015250D01*
X017673Y015375D01*
X017577Y015471D01*
X017452Y015523D01*
X017317Y015523D01*
X017192Y015471D01*
X017096Y015375D01*
X017045Y015250D01*
X017045Y015115D01*
X017096Y014990D01*
X017102Y014984D02*
X011210Y014984D01*
X011204Y014969D02*
X011261Y015108D01*
X011261Y015258D01*
X011204Y015396D01*
X011098Y015502D01*
X010959Y015560D01*
X010810Y015560D01*
X010671Y015502D01*
X010565Y015396D01*
X010508Y015258D01*
X010508Y015108D01*
X010565Y014969D01*
X010671Y014863D01*
X010810Y014806D01*
X010959Y014806D01*
X011098Y014863D01*
X011204Y014969D01*
X011140Y014906D02*
X017181Y014906D01*
X017066Y015063D02*
X015540Y015063D01*
X015530Y015053D02*
X015665Y015187D01*
X015665Y015378D01*
X015610Y015433D01*
X015665Y015487D01*
X015665Y015678D01*
X015530Y015813D01*
X015339Y015813D01*
X015205Y015678D01*
X015205Y015487D01*
X015259Y015433D01*
X015205Y015378D01*
X015205Y015187D01*
X015339Y015053D01*
X015530Y015053D01*
X015618Y015141D02*
X017045Y015141D01*
X017045Y015220D02*
X015665Y015220D01*
X015665Y015298D02*
X017064Y015298D01*
X017098Y015377D02*
X015665Y015377D01*
X015632Y015455D02*
X017176Y015455D01*
X017593Y015455D02*
X020176Y015455D01*
X020192Y015471D02*
X020096Y015375D01*
X020045Y015250D01*
X020045Y015115D01*
X020096Y014990D01*
X020192Y014894D01*
X020317Y014843D01*
X020452Y014843D01*
X020577Y014894D01*
X020673Y014990D01*
X020725Y015115D01*
X020725Y015250D01*
X020673Y015375D01*
X020577Y015471D01*
X020452Y015523D01*
X020317Y015523D01*
X020192Y015471D01*
X020098Y015377D02*
X017671Y015377D01*
X017705Y015298D02*
X020064Y015298D01*
X020045Y015220D02*
X017725Y015220D01*
X017725Y015141D02*
X020045Y015141D01*
X020066Y015063D02*
X017703Y015063D01*
X017667Y014984D02*
X020102Y014984D01*
X020181Y014906D02*
X017588Y014906D01*
X017613Y014435D02*
X020156Y014435D01*
X020088Y014356D02*
X017681Y014356D01*
X017713Y014278D02*
X020056Y014278D01*
X020045Y014199D02*
X017725Y014199D01*
X017725Y014121D02*
X020045Y014121D01*
X020075Y014042D02*
X017694Y014042D01*
X017646Y013964D02*
X020123Y013964D01*
X020214Y013885D02*
X017555Y013885D01*
X017525Y013493D02*
X020245Y013493D01*
X020135Y013414D02*
X017634Y013414D01*
X019907Y013336D02*
X020080Y013336D01*
X020047Y013257D02*
X019965Y013257D01*
X019965Y013179D02*
X020045Y013179D01*
X020051Y013100D02*
X019965Y013100D01*
X020555Y013885D02*
X022621Y013885D01*
X022554Y013964D02*
X020646Y013964D01*
X020694Y014042D02*
X022513Y014042D01*
X022492Y014121D02*
X020725Y014121D01*
X020588Y014906D02*
X022629Y014906D01*
X022671Y014863D02*
X022810Y014806D01*
X022959Y014806D01*
X023098Y014863D01*
X023204Y014969D01*
X023261Y015108D01*
X023261Y015258D01*
X023204Y015396D01*
X023098Y015502D01*
X022959Y015560D01*
X022810Y015560D01*
X022671Y015502D01*
X022565Y015396D01*
X022508Y015258D01*
X022508Y015108D01*
X022565Y014969D01*
X022671Y014863D01*
X022758Y014827D02*
X011011Y014827D01*
X010758Y014827D02*
X010011Y014827D01*
X009959Y014806D02*
X010098Y014863D01*
X010204Y014969D01*
X010261Y015108D01*
X010261Y015258D01*
X010204Y015396D01*
X010098Y015502D01*
X009959Y015560D01*
X009810Y015560D01*
X009671Y015502D01*
X009565Y015396D01*
X009508Y015258D01*
X009508Y015108D01*
X009565Y014969D01*
X009671Y014863D01*
X009810Y014806D01*
X009959Y014806D01*
X009758Y014827D02*
X009325Y014827D01*
X009325Y014749D02*
X031505Y014749D01*
X031505Y014778D02*
X031505Y014587D01*
X031639Y014453D01*
X031830Y014453D01*
X031965Y014587D01*
X031965Y014778D01*
X031830Y014913D01*
X031639Y014913D01*
X031505Y014778D01*
X031554Y014827D02*
X028011Y014827D01*
X027959Y014806D02*
X028098Y014863D01*
X028204Y014969D01*
X028261Y015108D01*
X028261Y015258D01*
X028204Y015396D01*
X028098Y015502D01*
X027959Y015560D01*
X027810Y015560D01*
X027671Y015502D01*
X027565Y015396D01*
X027508Y015258D01*
X027508Y015108D01*
X027565Y014969D01*
X027671Y014863D01*
X027810Y014806D01*
X027959Y014806D01*
X027758Y014827D02*
X027011Y014827D01*
X026959Y014806D02*
X027098Y014863D01*
X027204Y014969D01*
X027261Y015108D01*
X027261Y015258D01*
X027204Y015396D01*
X027098Y015502D01*
X026959Y015560D01*
X026810Y015560D01*
X026671Y015502D01*
X026565Y015396D01*
X026508Y015258D01*
X026508Y015108D01*
X026565Y014969D01*
X026671Y014863D01*
X026810Y014806D01*
X026959Y014806D01*
X026758Y014827D02*
X024011Y014827D01*
X023959Y014806D02*
X024098Y014863D01*
X024204Y014969D01*
X024261Y015108D01*
X024261Y015258D01*
X024204Y015396D01*
X024098Y015502D01*
X023959Y015560D01*
X023810Y015560D01*
X023671Y015502D01*
X023565Y015396D01*
X023508Y015258D01*
X023508Y015108D01*
X023565Y014969D01*
X023671Y014863D01*
X023810Y014806D01*
X023959Y014806D01*
X023758Y014827D02*
X023011Y014827D01*
X023140Y014906D02*
X023629Y014906D01*
X023559Y014984D02*
X023210Y014984D01*
X023243Y015063D02*
X023526Y015063D01*
X023508Y015141D02*
X023261Y015141D01*
X023261Y015220D02*
X023508Y015220D01*
X023524Y015298D02*
X023245Y015298D01*
X023212Y015377D02*
X023557Y015377D01*
X023624Y015455D02*
X023145Y015455D01*
X023022Y015534D02*
X023747Y015534D01*
X024022Y015534D02*
X026747Y015534D01*
X026624Y015455D02*
X024145Y015455D01*
X024212Y015377D02*
X026557Y015377D01*
X026524Y015298D02*
X024245Y015298D01*
X024261Y015220D02*
X026508Y015220D01*
X026508Y015141D02*
X024261Y015141D01*
X024243Y015063D02*
X026526Y015063D01*
X026559Y014984D02*
X024210Y014984D01*
X024140Y014906D02*
X026629Y014906D01*
X027140Y014906D02*
X027629Y014906D01*
X027559Y014984D02*
X027210Y014984D01*
X027243Y015063D02*
X027526Y015063D01*
X027508Y015141D02*
X027261Y015141D01*
X027261Y015220D02*
X027508Y015220D01*
X027524Y015298D02*
X027245Y015298D01*
X027212Y015377D02*
X027557Y015377D01*
X027624Y015455D02*
X027145Y015455D01*
X027022Y015534D02*
X027747Y015534D01*
X028022Y015534D02*
X028743Y015534D01*
X028747Y015524D02*
X028814Y015458D01*
X028747Y015391D01*
X028705Y015288D01*
X028705Y015177D01*
X028747Y015074D01*
X028826Y014995D01*
X028929Y014953D01*
X029040Y014953D01*
X029143Y014995D01*
X029222Y015074D01*
X029265Y015177D01*
X029265Y015288D01*
X029222Y015391D01*
X029155Y015458D01*
X029222Y015524D01*
X029265Y015627D01*
X029265Y015738D01*
X029222Y015841D01*
X029168Y015895D01*
X029176Y015900D01*
X029218Y015941D01*
X029250Y015991D01*
X029273Y016045D01*
X029285Y016103D01*
X029285Y016123D01*
X028995Y016123D01*
X028995Y016143D01*
X029285Y016143D01*
X029285Y016162D01*
X029273Y016220D01*
X029250Y016275D01*
X029218Y016324D01*
X029176Y016366D01*
X029168Y016371D01*
X029222Y016424D01*
X029265Y016527D01*
X029265Y016638D01*
X029222Y016741D01*
X029143Y016820D01*
X029040Y016863D01*
X028929Y016863D01*
X028826Y016820D01*
X028747Y016741D01*
X028705Y016638D01*
X028705Y016527D01*
X028747Y016424D01*
X028801Y016371D01*
X028793Y016366D01*
X028751Y016324D01*
X028719Y016275D01*
X028696Y016220D01*
X028685Y016162D01*
X028685Y016143D01*
X028975Y016143D01*
X028975Y016123D01*
X028685Y016123D01*
X028685Y016103D01*
X028696Y016045D01*
X028719Y015991D01*
X028751Y015941D01*
X028793Y015900D01*
X028801Y015895D01*
X028747Y015841D01*
X028705Y015738D01*
X028705Y015627D01*
X028747Y015524D01*
X028811Y015455D02*
X028145Y015455D01*
X028212Y015377D02*
X028741Y015377D01*
X028709Y015298D02*
X028245Y015298D01*
X028261Y015220D02*
X028705Y015220D01*
X028719Y015141D02*
X028261Y015141D01*
X028243Y015063D02*
X028759Y015063D01*
X028853Y014984D02*
X028210Y014984D01*
X028140Y014906D02*
X031632Y014906D01*
X031837Y014906D02*
X034615Y014906D01*
X034615Y014984D02*
X029116Y014984D01*
X029211Y015063D02*
X034615Y015063D01*
X034615Y015141D02*
X029250Y015141D01*
X029265Y015220D02*
X034615Y015220D01*
X034615Y015298D02*
X029260Y015298D01*
X029228Y015377D02*
X034615Y015377D01*
X034615Y015455D02*
X029158Y015455D01*
X029226Y015534D02*
X034615Y015534D01*
X034615Y015612D02*
X029258Y015612D01*
X029265Y015691D02*
X034615Y015691D01*
X034615Y015769D02*
X029252Y015769D01*
X029215Y015848D02*
X034615Y015848D01*
X034615Y015926D02*
X029202Y015926D01*
X029256Y016005D02*
X030437Y016005D01*
X030489Y015953D02*
X030680Y015953D01*
X030785Y016057D01*
X030889Y015953D01*
X031080Y015953D01*
X031185Y016057D01*
X031289Y015953D01*
X031480Y015953D01*
X031615Y016087D01*
X031615Y016278D01*
X031480Y016413D01*
X031289Y016413D01*
X031185Y016308D01*
X031080Y016413D01*
X030889Y016413D01*
X030785Y016308D01*
X030680Y016413D01*
X030489Y016413D01*
X030355Y016278D01*
X030355Y016087D01*
X030489Y015953D01*
X030359Y016083D02*
X029281Y016083D01*
X029285Y016162D02*
X030355Y016162D01*
X030355Y016240D02*
X029265Y016240D01*
X029221Y016319D02*
X030395Y016319D01*
X030474Y016397D02*
X029195Y016397D01*
X029243Y016476D02*
X034615Y016476D01*
X034615Y016554D02*
X029265Y016554D01*
X029265Y016633D02*
X034615Y016633D01*
X034615Y016711D02*
X029234Y016711D01*
X029173Y016790D02*
X034615Y016790D01*
X034615Y016868D02*
X028103Y016868D01*
X028098Y016863D02*
X028204Y016969D01*
X028261Y017108D01*
X028261Y017258D01*
X028204Y017396D01*
X028098Y017502D01*
X027959Y017560D01*
X027810Y017560D01*
X027671Y017502D01*
X027565Y017396D01*
X027508Y017258D01*
X027508Y017108D01*
X027565Y016969D01*
X027671Y016863D01*
X027810Y016806D01*
X027959Y016806D01*
X028098Y016863D01*
X028181Y016947D02*
X034615Y016947D01*
X034615Y017025D02*
X033602Y017025D01*
X033665Y017087D02*
X033530Y016953D01*
X033339Y016953D01*
X033205Y017087D01*
X033205Y017278D01*
X033339Y017413D01*
X033530Y017413D01*
X033665Y017278D01*
X033665Y017087D01*
X033665Y017104D02*
X034615Y017104D01*
X034615Y017182D02*
X033665Y017182D01*
X033665Y017261D02*
X034615Y017261D01*
X034615Y017339D02*
X033603Y017339D01*
X033266Y017339D02*
X031753Y017339D01*
X031815Y017278D02*
X031680Y017413D01*
X031489Y017413D01*
X031355Y017278D01*
X031355Y017087D01*
X031489Y016953D01*
X031680Y016953D01*
X031815Y017087D01*
X031815Y017278D01*
X031815Y017261D02*
X033205Y017261D01*
X033205Y017182D02*
X031815Y017182D01*
X031815Y017104D02*
X033205Y017104D01*
X033267Y017025D02*
X031752Y017025D01*
X031417Y017025D02*
X028227Y017025D01*
X028260Y017104D02*
X031355Y017104D01*
X031355Y017182D02*
X028261Y017182D01*
X028260Y017261D02*
X031355Y017261D01*
X031416Y017339D02*
X028228Y017339D01*
X028182Y017418D02*
X030924Y017418D01*
X030939Y017403D02*
X031130Y017403D01*
X031265Y017537D01*
X031265Y017728D01*
X031130Y017863D01*
X030939Y017863D01*
X030805Y017728D01*
X030805Y017537D01*
X030939Y017403D01*
X030846Y017496D02*
X030323Y017496D01*
X030280Y017453D02*
X030415Y017587D01*
X030415Y017778D01*
X030280Y017913D01*
X030089Y017913D01*
X029955Y017778D01*
X029955Y017587D01*
X030089Y017453D01*
X030280Y017453D01*
X030402Y017575D02*
X030805Y017575D01*
X030805Y017653D02*
X030415Y017653D01*
X030415Y017732D02*
X030808Y017732D01*
X030887Y017810D02*
X030382Y017810D01*
X030304Y017889D02*
X034615Y017889D01*
X034615Y017967D02*
X028865Y017967D01*
X028865Y017937D02*
X028730Y017803D01*
X028539Y017803D01*
X028405Y017937D01*
X028405Y018128D01*
X028539Y018263D01*
X028730Y018263D01*
X028865Y018128D01*
X028865Y017937D01*
X028816Y017889D02*
X030065Y017889D01*
X029987Y017810D02*
X028737Y017810D01*
X028532Y017810D02*
X027970Y017810D01*
X027959Y017806D02*
X028098Y017863D01*
X028204Y017969D01*
X028261Y018108D01*
X028261Y018258D01*
X028204Y018396D01*
X028098Y018502D01*
X027959Y018560D01*
X027810Y018560D01*
X027671Y018502D01*
X027565Y018396D01*
X027508Y018258D01*
X027508Y018108D01*
X027565Y017969D01*
X027671Y017863D01*
X027810Y017806D01*
X027959Y017806D01*
X027799Y017810D02*
X026970Y017810D01*
X026959Y017806D02*
X027098Y017863D01*
X027204Y017969D01*
X027261Y018108D01*
X027261Y018258D01*
X027204Y018396D01*
X027098Y018502D01*
X026959Y018560D01*
X026810Y018560D01*
X026671Y018502D01*
X026565Y018396D01*
X026508Y018258D01*
X026508Y018108D01*
X026565Y017969D01*
X026671Y017863D01*
X026810Y017806D01*
X026959Y017806D01*
X026799Y017810D02*
X023970Y017810D01*
X023959Y017806D02*
X024098Y017863D01*
X024204Y017969D01*
X024261Y018108D01*
X024261Y018258D01*
X024204Y018396D01*
X024098Y018502D01*
X023959Y018560D01*
X023810Y018560D01*
X023671Y018502D01*
X023565Y018396D01*
X023508Y018258D01*
X023508Y018108D01*
X023565Y017969D01*
X023671Y017863D01*
X023810Y017806D01*
X023959Y017806D01*
X023799Y017810D02*
X023022Y017810D01*
X023000Y017801D02*
X023072Y017831D01*
X023137Y017874D01*
X023193Y017930D01*
X023236Y017995D01*
X023266Y018067D01*
X023281Y018143D01*
X022925Y018143D01*
X022925Y018223D01*
X023281Y018223D01*
X023266Y018298D01*
X023236Y018371D01*
X023193Y018436D01*
X023137Y018491D01*
X023072Y018534D01*
X023000Y018564D01*
X022925Y018579D01*
X022925Y018223D01*
X022845Y018223D01*
X022845Y018579D01*
X022769Y018564D01*
X022697Y018534D01*
X022632Y018491D01*
X022576Y018436D01*
X022533Y018371D01*
X022503Y018298D01*
X022488Y018223D01*
X022845Y018223D01*
X022845Y018143D01*
X022925Y018143D01*
X022925Y017786D01*
X023000Y017801D01*
X022925Y017810D02*
X022845Y017810D01*
X022845Y017786D02*
X022845Y018143D01*
X022488Y018143D01*
X022503Y018067D01*
X022533Y017995D01*
X022576Y017930D01*
X022632Y017874D01*
X022697Y017831D01*
X022769Y017801D01*
X022845Y017786D01*
X022747Y017810D02*
X016480Y017810D01*
X016465Y017794D02*
X016560Y017890D01*
X016612Y018015D01*
X016612Y018150D01*
X016560Y018275D01*
X016465Y018371D01*
X016340Y018423D01*
X016204Y018423D01*
X016079Y018371D01*
X015984Y018275D01*
X015932Y018150D01*
X015932Y018015D01*
X015984Y017890D01*
X016079Y017794D01*
X016204Y017743D01*
X016340Y017743D01*
X016465Y017794D01*
X016559Y017889D02*
X017206Y017889D01*
X017192Y017894D02*
X017317Y017843D01*
X017452Y017843D01*
X017577Y017894D01*
X017673Y017990D01*
X017725Y018115D01*
X017725Y018250D01*
X017673Y018375D01*
X017577Y018471D01*
X017452Y018523D01*
X017317Y018523D01*
X017192Y018471D01*
X017096Y018375D01*
X017045Y018250D01*
X017045Y018115D01*
X017096Y017990D01*
X017192Y017894D01*
X017119Y017967D02*
X016592Y017967D01*
X016612Y018046D02*
X017073Y018046D01*
X017045Y018124D02*
X016612Y018124D01*
X016590Y018203D02*
X017045Y018203D01*
X017057Y018281D02*
X016554Y018281D01*
X016476Y018360D02*
X017090Y018360D01*
X017159Y018438D02*
X013863Y018438D01*
X013872Y018434D02*
X013800Y018464D01*
X013725Y018479D01*
X013725Y018123D01*
X014081Y018123D01*
X014066Y018198D01*
X014036Y018271D01*
X013993Y018336D01*
X013937Y018391D01*
X013872Y018434D01*
X013969Y018360D02*
X015281Y018360D01*
X015292Y018371D02*
X015196Y018275D01*
X015145Y018150D01*
X015145Y018015D01*
X015196Y017890D01*
X015292Y017794D01*
X015417Y017743D01*
X015552Y017743D01*
X015677Y017794D01*
X015773Y017890D01*
X015825Y018015D01*
X015825Y018150D01*
X015773Y018275D01*
X015677Y018371D01*
X015552Y018423D01*
X015417Y018423D01*
X015292Y018371D01*
X015202Y018281D02*
X014029Y018281D01*
X014064Y018203D02*
X015166Y018203D01*
X015145Y018124D02*
X014081Y018124D01*
X014081Y018043D02*
X013725Y018043D01*
X013725Y018123D01*
X013645Y018123D01*
X013645Y018479D01*
X013569Y018464D01*
X013497Y018434D01*
X013432Y018391D01*
X013376Y018336D01*
X013333Y018271D01*
X013303Y018198D01*
X013288Y018123D01*
X013645Y018123D01*
X013645Y018043D01*
X013725Y018043D01*
X013725Y017686D01*
X013800Y017701D01*
X013872Y017731D01*
X013937Y017774D01*
X013993Y017830D01*
X014036Y017895D01*
X014066Y017967D01*
X014081Y018043D01*
X014066Y017967D02*
X015164Y017967D01*
X015145Y018046D02*
X013725Y018046D01*
X013725Y018124D02*
X013645Y018124D01*
X013645Y018046D02*
X013061Y018046D01*
X013061Y018008D02*
X013004Y017869D01*
X012898Y017763D01*
X012759Y017706D01*
X012610Y017706D01*
X012471Y017763D01*
X012365Y017869D01*
X012308Y018008D01*
X012308Y018158D01*
X012365Y018296D01*
X012471Y018402D01*
X012610Y018460D01*
X012759Y018460D01*
X012898Y018402D01*
X013004Y018296D01*
X013061Y018158D01*
X013061Y018008D01*
X013045Y017967D02*
X013303Y017967D01*
X013333Y017895D01*
X013376Y017830D01*
X013432Y017774D01*
X013497Y017731D01*
X013569Y017701D01*
X013645Y017686D01*
X013645Y018043D01*
X013288Y018043D01*
X013303Y017967D01*
X013337Y017889D02*
X013012Y017889D01*
X012945Y017810D02*
X013396Y017810D01*
X013495Y017732D02*
X012822Y017732D01*
X012547Y017732D02*
X009325Y017732D01*
X009325Y017810D02*
X009799Y017810D01*
X009810Y017806D02*
X009959Y017806D01*
X010098Y017863D01*
X010204Y017969D01*
X010261Y018108D01*
X010261Y018258D01*
X010204Y018396D01*
X010098Y018502D01*
X009959Y018560D01*
X009810Y018560D01*
X009671Y018502D01*
X009565Y018396D01*
X009508Y018258D01*
X009508Y018108D01*
X009565Y017969D01*
X009671Y017863D01*
X009810Y017806D01*
X009970Y017810D02*
X010799Y017810D01*
X010810Y017806D02*
X010959Y017806D01*
X011098Y017863D01*
X011204Y017969D01*
X011261Y018108D01*
X011261Y018258D01*
X011204Y018396D01*
X011098Y018502D01*
X010959Y018560D01*
X010810Y018560D01*
X010671Y018502D01*
X010565Y018396D01*
X010508Y018258D01*
X010508Y018108D01*
X010565Y017969D01*
X010671Y017863D01*
X010810Y017806D01*
X010970Y017810D02*
X012424Y017810D01*
X012357Y017889D02*
X011123Y017889D01*
X011202Y017967D02*
X012324Y017967D01*
X012308Y018046D02*
X011236Y018046D01*
X011261Y018124D02*
X012308Y018124D01*
X012326Y018203D02*
X011261Y018203D01*
X011252Y018281D02*
X012359Y018281D01*
X012429Y018360D02*
X011219Y018360D01*
X011162Y018438D02*
X012558Y018438D01*
X012811Y018438D02*
X013506Y018438D01*
X013400Y018360D02*
X012940Y018360D01*
X013010Y018281D02*
X013340Y018281D01*
X013305Y018203D02*
X013043Y018203D01*
X013061Y018124D02*
X013288Y018124D01*
X013645Y018203D02*
X013725Y018203D01*
X013725Y018281D02*
X013645Y018281D01*
X013645Y018360D02*
X013725Y018360D01*
X013725Y018438D02*
X013645Y018438D01*
X014396Y018990D02*
X014492Y018894D01*
X014617Y018843D01*
X014752Y018843D01*
X014877Y018894D01*
X014973Y018990D01*
X015025Y019115D01*
X015025Y019250D01*
X014973Y019375D01*
X014877Y019471D01*
X014752Y019523D01*
X014617Y019523D01*
X014492Y019471D01*
X014396Y019375D01*
X014345Y019250D01*
X014345Y019115D01*
X014396Y018990D01*
X014399Y018988D02*
X011212Y018988D01*
X011204Y018969D02*
X011261Y019108D01*
X011261Y019258D01*
X011204Y019396D01*
X011098Y019502D01*
X010959Y019560D01*
X010810Y019560D01*
X010671Y019502D01*
X010565Y019396D01*
X010508Y019258D01*
X010508Y019108D01*
X010565Y018969D01*
X010671Y018863D01*
X010810Y018806D01*
X010959Y018806D01*
X011098Y018863D01*
X011204Y018969D01*
X011144Y018909D02*
X014477Y018909D01*
X014365Y019066D02*
X011244Y019066D01*
X011261Y019145D02*
X014345Y019145D01*
X014345Y019223D02*
X011261Y019223D01*
X011243Y019302D02*
X014366Y019302D01*
X014401Y019380D02*
X011211Y019380D01*
X011141Y019459D02*
X014480Y019459D01*
X014889Y019459D02*
X015267Y019459D01*
X015279Y019471D02*
X015184Y019375D01*
X015132Y019250D01*
X015132Y019115D01*
X015184Y018990D01*
X015279Y018894D01*
X015404Y018843D01*
X015540Y018843D01*
X015665Y018894D01*
X015760Y018990D01*
X015812Y019115D01*
X015812Y019250D01*
X015760Y019375D01*
X015665Y019471D01*
X015540Y019523D01*
X015404Y019523D01*
X015279Y019471D01*
X015189Y019380D02*
X014968Y019380D01*
X015003Y019302D02*
X015153Y019302D01*
X015132Y019223D02*
X015025Y019223D01*
X015025Y019145D02*
X015132Y019145D01*
X015152Y019066D02*
X015004Y019066D01*
X014970Y018988D02*
X015186Y018988D01*
X015265Y018909D02*
X014892Y018909D01*
X015679Y018909D02*
X016052Y018909D01*
X016067Y018894D02*
X016192Y018843D01*
X016327Y018843D01*
X016452Y018894D01*
X016548Y018990D01*
X016599Y019115D01*
X016599Y019250D01*
X016548Y019375D01*
X016452Y019471D01*
X016327Y019523D01*
X016192Y019523D01*
X016067Y019471D01*
X015971Y019375D01*
X015919Y019250D01*
X015919Y019115D01*
X015971Y018990D01*
X016067Y018894D01*
X015973Y018988D02*
X015758Y018988D01*
X015792Y019066D02*
X015940Y019066D01*
X015919Y019145D02*
X015812Y019145D01*
X015812Y019223D02*
X015919Y019223D01*
X015941Y019302D02*
X015791Y019302D01*
X015755Y019380D02*
X015976Y019380D01*
X016055Y019459D02*
X015677Y019459D01*
X016464Y019459D02*
X017180Y019459D01*
X017192Y019471D02*
X017096Y019375D01*
X017045Y019250D01*
X017045Y019115D01*
X017096Y018990D01*
X017192Y018894D01*
X017317Y018843D01*
X017452Y018843D01*
X017577Y018894D01*
X017673Y018990D01*
X017725Y019115D01*
X017725Y019250D01*
X017673Y019375D01*
X017577Y019471D01*
X017452Y019523D01*
X017317Y019523D01*
X017192Y019471D01*
X017101Y019380D02*
X016543Y019380D01*
X016578Y019302D02*
X017066Y019302D01*
X017045Y019223D02*
X016599Y019223D01*
X016599Y019145D02*
X017045Y019145D01*
X017065Y019066D02*
X016579Y019066D01*
X016545Y018988D02*
X017099Y018988D01*
X017177Y018909D02*
X016467Y018909D01*
X017302Y018517D02*
X011063Y018517D01*
X011020Y018831D02*
X020309Y018831D01*
X020280Y018837D02*
X020345Y018824D01*
X020345Y019143D01*
X020425Y019143D01*
X020425Y019223D01*
X020345Y019223D01*
X020345Y019542D01*
X020280Y019529D01*
X020214Y019502D01*
X020155Y019462D01*
X020105Y019412D01*
X020065Y019353D01*
X020038Y019288D01*
X020025Y019223D01*
X020345Y019223D01*
X020425Y019223D01*
X020744Y019223D01*
X020731Y019288D01*
X020704Y019353D01*
X020664Y019412D01*
X020614Y019462D01*
X020555Y019502D01*
X020490Y019529D01*
X020425Y019542D01*
X020425Y019223D01*
X020425Y019145D02*
X026508Y019145D01*
X026508Y019108D02*
X026565Y018969D01*
X026671Y018863D01*
X026810Y018806D01*
X026959Y018806D01*
X027098Y018863D01*
X027204Y018969D01*
X027261Y019108D01*
X027261Y019258D01*
X027204Y019396D01*
X027098Y019502D01*
X026959Y019560D01*
X026810Y019560D01*
X026671Y019502D01*
X026565Y019396D01*
X026508Y019258D01*
X026508Y019108D01*
X026525Y019066D02*
X020726Y019066D01*
X020731Y019078D02*
X020704Y019012D01*
X020664Y018953D01*
X020614Y018903D01*
X020555Y018864D01*
X020490Y018837D01*
X020425Y018824D01*
X020425Y019143D01*
X020744Y019143D01*
X020731Y019078D01*
X020687Y018988D02*
X026557Y018988D01*
X026625Y018909D02*
X020620Y018909D01*
X020460Y018831D02*
X026749Y018831D01*
X027020Y018831D02*
X027697Y018831D01*
X027769Y018801D01*
X027845Y018786D01*
X027845Y019143D01*
X027925Y019143D01*
X027925Y019223D01*
X027845Y019223D01*
X027845Y019579D01*
X027769Y019564D01*
X027697Y019534D01*
X027632Y019491D01*
X027576Y019436D01*
X027533Y019371D01*
X027503Y019298D01*
X027488Y019223D01*
X027261Y019223D01*
X027261Y019145D02*
X027845Y019145D01*
X027845Y019143D02*
X027488Y019143D01*
X027503Y019067D01*
X027533Y018995D01*
X027576Y018930D01*
X027632Y018874D01*
X027697Y018831D01*
X027597Y018909D02*
X027144Y018909D01*
X027212Y018988D02*
X027538Y018988D01*
X027503Y019066D02*
X027244Y019066D01*
X027488Y019223D02*
X027845Y019223D01*
X027925Y019223D01*
X028281Y019223D01*
X031760Y019223D01*
X031760Y019247D02*
X031760Y019118D01*
X031809Y018999D01*
X031900Y018907D01*
X032020Y018858D01*
X032149Y018858D01*
X032269Y018907D01*
X032335Y018973D01*
X032400Y018907D01*
X032520Y018858D01*
X032649Y018858D01*
X032769Y018907D01*
X032835Y018973D01*
X032900Y018907D01*
X033020Y018858D01*
X033149Y018858D01*
X033269Y018907D01*
X033335Y018973D01*
X033400Y018907D01*
X033520Y018858D01*
X033649Y018858D01*
X033769Y018907D01*
X033835Y018973D01*
X033900Y018907D01*
X034020Y018858D01*
X034149Y018858D01*
X034269Y018907D01*
X034360Y018999D01*
X034410Y019118D01*
X034410Y019247D01*
X034360Y019367D01*
X034308Y019419D01*
X034352Y019463D01*
X034390Y019519D01*
X034416Y019582D01*
X034430Y019649D01*
X034430Y019650D01*
X034117Y019650D01*
X034117Y019715D01*
X034430Y019715D01*
X034430Y019717D01*
X034416Y019783D01*
X034390Y019846D01*
X034352Y019903D01*
X034304Y019951D01*
X034248Y019988D01*
X034185Y020014D01*
X034118Y020028D01*
X034117Y020028D01*
X034117Y019715D01*
X034052Y019715D01*
X034052Y020028D01*
X034051Y020028D01*
X033984Y020014D01*
X033921Y019988D01*
X033865Y019951D01*
X033820Y019906D01*
X033769Y019958D01*
X033649Y020008D01*
X033520Y020008D01*
X033400Y019958D01*
X033335Y019892D01*
X033269Y019958D01*
X033149Y020008D01*
X033020Y020008D01*
X032900Y019958D01*
X032835Y019892D01*
X032769Y019958D01*
X032649Y020008D01*
X032520Y020008D01*
X032400Y019958D01*
X032335Y019892D01*
X032269Y019958D01*
X032149Y020008D01*
X032020Y020008D01*
X031900Y019958D01*
X031809Y019867D01*
X031760Y019747D01*
X031760Y019618D01*
X031809Y019499D01*
X031875Y019433D01*
X031809Y019367D01*
X031760Y019247D01*
X031782Y019302D02*
X028265Y019302D01*
X028266Y019298D02*
X028236Y019371D01*
X028193Y019436D01*
X028137Y019491D01*
X028072Y019534D01*
X028000Y019564D01*
X027925Y019579D01*
X027925Y019223D01*
X027925Y019145D02*
X031760Y019145D01*
X031781Y019066D02*
X028266Y019066D01*
X028266Y019067D02*
X028281Y019143D01*
X027925Y019143D01*
X027925Y018786D01*
X028000Y018801D01*
X028072Y018831D01*
X034615Y018831D01*
X034615Y018909D02*
X034271Y018909D01*
X034349Y018988D02*
X034615Y018988D01*
X034615Y019066D02*
X034388Y019066D01*
X034410Y019145D02*
X034615Y019145D01*
X034615Y019223D02*
X034410Y019223D01*
X034387Y019302D02*
X034615Y019302D01*
X034615Y019380D02*
X034347Y019380D01*
X034348Y019459D02*
X034615Y019459D01*
X034615Y019537D02*
X034398Y019537D01*
X034423Y019616D02*
X034615Y019616D01*
X034615Y019694D02*
X034117Y019694D01*
X034117Y019773D02*
X034052Y019773D01*
X034052Y019851D02*
X034117Y019851D01*
X034117Y019930D02*
X034052Y019930D01*
X034052Y020008D02*
X034117Y020008D01*
X034200Y020008D02*
X034613Y020008D01*
X034615Y019930D02*
X034325Y019930D01*
X034387Y019851D02*
X034615Y019851D01*
X034615Y019773D02*
X034418Y019773D01*
X034581Y020087D02*
X009358Y020087D01*
X009326Y020008D02*
X033969Y020008D01*
X033844Y019930D02*
X033797Y019930D01*
X033372Y019930D02*
X033297Y019930D01*
X032872Y019930D02*
X032797Y019930D01*
X032372Y019930D02*
X032297Y019930D01*
X031872Y019930D02*
X009325Y019930D01*
X009325Y019851D02*
X031803Y019851D01*
X031770Y019773D02*
X009325Y019773D01*
X009325Y019694D02*
X031760Y019694D01*
X031760Y019616D02*
X009325Y019616D01*
X009325Y019537D02*
X009756Y019537D01*
X009810Y019560D02*
X009671Y019502D01*
X009565Y019396D01*
X009508Y019258D01*
X009508Y019108D01*
X009565Y018969D01*
X009671Y018863D01*
X009810Y018806D01*
X009959Y018806D01*
X010098Y018863D01*
X010204Y018969D01*
X010261Y019108D01*
X010261Y019258D01*
X010204Y019396D01*
X010098Y019502D01*
X009959Y019560D01*
X009810Y019560D01*
X010013Y019537D02*
X010756Y019537D01*
X010628Y019459D02*
X010141Y019459D01*
X010211Y019380D02*
X010558Y019380D01*
X010526Y019302D02*
X010243Y019302D01*
X010261Y019223D02*
X010508Y019223D01*
X010508Y019145D02*
X010261Y019145D01*
X010244Y019066D02*
X010525Y019066D01*
X010557Y018988D02*
X010212Y018988D01*
X010144Y018909D02*
X010625Y018909D01*
X010749Y018831D02*
X010020Y018831D01*
X009749Y018831D02*
X009325Y018831D01*
X009325Y018909D02*
X009625Y018909D01*
X009557Y018988D02*
X009325Y018988D01*
X009325Y019066D02*
X009525Y019066D01*
X009508Y019145D02*
X009325Y019145D01*
X009325Y019223D02*
X009508Y019223D01*
X009526Y019302D02*
X009325Y019302D01*
X009325Y019380D02*
X009558Y019380D01*
X009628Y019459D02*
X009325Y019459D01*
X009325Y018752D02*
X034615Y018752D01*
X034615Y018674D02*
X009325Y018674D01*
X009325Y018595D02*
X032322Y018595D01*
X032255Y018528D02*
X032255Y018337D01*
X032389Y018203D01*
X028790Y018203D01*
X028865Y018124D02*
X034615Y018124D01*
X034615Y018046D02*
X028865Y018046D01*
X028479Y018203D02*
X028261Y018203D01*
X028252Y018281D02*
X032311Y018281D01*
X032255Y018360D02*
X028219Y018360D01*
X028162Y018438D02*
X032255Y018438D01*
X032255Y018517D02*
X028063Y018517D01*
X028072Y018831D02*
X028137Y018874D01*
X028193Y018930D01*
X028236Y018995D01*
X028266Y019067D01*
X028232Y018988D02*
X031820Y018988D01*
X031898Y018909D02*
X028172Y018909D01*
X027925Y018909D02*
X027845Y018909D01*
X027845Y018831D02*
X027925Y018831D01*
X027925Y018988D02*
X027845Y018988D01*
X027845Y019066D02*
X027925Y019066D01*
X027845Y019143D02*
X027845Y019223D01*
X027845Y019302D02*
X027925Y019302D01*
X027925Y019380D02*
X027845Y019380D01*
X027845Y019459D02*
X027925Y019459D01*
X027925Y019537D02*
X027845Y019537D01*
X027703Y019537D02*
X027013Y019537D01*
X027141Y019459D02*
X027599Y019459D01*
X027539Y019380D02*
X027211Y019380D01*
X027243Y019302D02*
X027504Y019302D01*
X026756Y019537D02*
X020447Y019537D01*
X020425Y019537D02*
X020345Y019537D01*
X020322Y019537D02*
X011013Y019537D01*
X010706Y018517D02*
X010063Y018517D01*
X010162Y018438D02*
X010607Y018438D01*
X010550Y018360D02*
X010219Y018360D01*
X010252Y018281D02*
X010517Y018281D01*
X010508Y018203D02*
X010261Y018203D01*
X010261Y018124D02*
X010508Y018124D01*
X010533Y018046D02*
X010236Y018046D01*
X010202Y017967D02*
X010567Y017967D01*
X010646Y017889D02*
X010123Y017889D01*
X009959Y017560D02*
X009810Y017560D01*
X009671Y017502D01*
X009565Y017396D01*
X009508Y017258D01*
X009508Y017108D01*
X009565Y016969D01*
X009671Y016863D01*
X009810Y016806D01*
X009959Y016806D01*
X010098Y016863D01*
X010204Y016969D01*
X010261Y017108D01*
X010261Y017258D01*
X010204Y017396D01*
X010098Y017502D01*
X009959Y017560D01*
X010104Y017496D02*
X010665Y017496D01*
X010671Y017502D02*
X010565Y017396D01*
X010508Y017258D01*
X010508Y017108D01*
X010565Y016969D01*
X010671Y016863D01*
X010810Y016806D01*
X010959Y016806D01*
X011098Y016863D01*
X011204Y016969D01*
X011261Y017108D01*
X011261Y017258D01*
X011204Y017396D01*
X011098Y017502D01*
X010959Y017560D01*
X010810Y017560D01*
X010671Y017502D01*
X010587Y017418D02*
X010182Y017418D01*
X010228Y017339D02*
X010541Y017339D01*
X010509Y017261D02*
X010260Y017261D01*
X010261Y017182D02*
X010508Y017182D01*
X010509Y017104D02*
X010260Y017104D01*
X010227Y017025D02*
X010542Y017025D01*
X010588Y016947D02*
X010181Y016947D01*
X010103Y016868D02*
X010666Y016868D01*
X010797Y016554D02*
X009972Y016554D01*
X009959Y016560D02*
X009810Y016560D01*
X009671Y016502D01*
X009565Y016396D01*
X009508Y016258D01*
X009508Y016108D01*
X009565Y015969D01*
X009671Y015863D01*
X009810Y015806D01*
X009959Y015806D01*
X010098Y015863D01*
X010204Y015969D01*
X010261Y016108D01*
X010261Y016258D01*
X010204Y016396D01*
X010098Y016502D01*
X009959Y016560D01*
X009797Y016554D02*
X009325Y016554D01*
X009325Y016476D02*
X009645Y016476D01*
X009566Y016397D02*
X009325Y016397D01*
X009325Y016319D02*
X009533Y016319D01*
X009508Y016240D02*
X009325Y016240D01*
X009325Y016162D02*
X009508Y016162D01*
X009518Y016083D02*
X009325Y016083D01*
X009325Y016005D02*
X009550Y016005D01*
X009608Y015926D02*
X009325Y015926D01*
X009325Y015848D02*
X009708Y015848D01*
X010061Y015848D02*
X010708Y015848D01*
X010671Y015863D02*
X010810Y015806D01*
X010959Y015806D01*
X011098Y015863D01*
X011204Y015969D01*
X011261Y016108D01*
X011261Y016258D01*
X011204Y016396D01*
X011098Y016502D01*
X010959Y016560D01*
X010810Y016560D01*
X010671Y016502D01*
X010565Y016396D01*
X010508Y016258D01*
X010508Y016108D01*
X010565Y015969D01*
X010671Y015863D01*
X010608Y015926D02*
X010161Y015926D01*
X010219Y016005D02*
X010550Y016005D01*
X010518Y016083D02*
X010251Y016083D01*
X010261Y016162D02*
X010508Y016162D01*
X010508Y016240D02*
X010261Y016240D01*
X010236Y016319D02*
X010533Y016319D01*
X010566Y016397D02*
X010203Y016397D01*
X010124Y016476D02*
X010645Y016476D01*
X010972Y016554D02*
X022797Y016554D01*
X022810Y016560D02*
X022671Y016502D01*
X022565Y016396D01*
X022508Y016258D01*
X022508Y016108D01*
X022565Y015969D01*
X022671Y015863D01*
X022810Y015806D01*
X022959Y015806D01*
X023098Y015863D01*
X023204Y015969D01*
X023261Y016108D01*
X023261Y016258D01*
X023204Y016396D01*
X023098Y016502D01*
X022959Y016560D01*
X022810Y016560D01*
X022972Y016554D02*
X023797Y016554D01*
X023810Y016560D02*
X023671Y016502D01*
X023565Y016396D01*
X023508Y016258D01*
X023508Y016108D01*
X023565Y015969D01*
X023671Y015863D01*
X023810Y015806D01*
X023959Y015806D01*
X024098Y015863D01*
X024204Y015969D01*
X024261Y016108D01*
X024261Y016258D01*
X024204Y016396D01*
X024098Y016502D01*
X023959Y016560D01*
X023810Y016560D01*
X023972Y016554D02*
X026797Y016554D01*
X026810Y016560D02*
X026671Y016502D01*
X026565Y016396D01*
X026508Y016258D01*
X026508Y016108D01*
X026565Y015969D01*
X026671Y015863D01*
X026810Y015806D01*
X026959Y015806D01*
X027098Y015863D01*
X027204Y015969D01*
X027261Y016108D01*
X027261Y016258D01*
X027204Y016396D01*
X027098Y016502D01*
X026959Y016560D01*
X026810Y016560D01*
X026972Y016554D02*
X027797Y016554D01*
X027810Y016560D02*
X027671Y016502D01*
X027565Y016396D01*
X027508Y016258D01*
X027508Y016108D01*
X027565Y015969D01*
X027671Y015863D01*
X027810Y015806D01*
X027959Y015806D01*
X028098Y015863D01*
X028204Y015969D01*
X028261Y016108D01*
X028261Y016258D01*
X028204Y016396D01*
X028098Y016502D01*
X027959Y016560D01*
X027810Y016560D01*
X027972Y016554D02*
X028705Y016554D01*
X028705Y016633D02*
X009325Y016633D01*
X009325Y016711D02*
X028735Y016711D01*
X028796Y016790D02*
X009325Y016790D01*
X009325Y016868D02*
X009666Y016868D01*
X009588Y016947D02*
X009325Y016947D01*
X009325Y017025D02*
X009542Y017025D01*
X009509Y017104D02*
X009325Y017104D01*
X009325Y017182D02*
X009508Y017182D01*
X009509Y017261D02*
X009325Y017261D01*
X009325Y017339D02*
X009541Y017339D01*
X009587Y017418D02*
X009325Y017418D01*
X009325Y017496D02*
X009665Y017496D01*
X009325Y017575D02*
X029967Y017575D01*
X029955Y017653D02*
X009325Y017653D01*
X009325Y017889D02*
X009646Y017889D01*
X009567Y017967D02*
X009325Y017967D01*
X009325Y018046D02*
X009533Y018046D01*
X009508Y018124D02*
X009325Y018124D01*
X009325Y018203D02*
X009508Y018203D01*
X009517Y018281D02*
X009325Y018281D01*
X009325Y018360D02*
X009550Y018360D01*
X009607Y018438D02*
X009325Y018438D01*
X009325Y018517D02*
X009706Y018517D01*
X011104Y017496D02*
X017253Y017496D01*
X017192Y017471D02*
X017096Y017375D01*
X017045Y017250D01*
X017045Y017115D01*
X017096Y016990D01*
X017192Y016894D01*
X017317Y016843D01*
X017452Y016843D01*
X017577Y016894D01*
X017673Y016990D01*
X017725Y017115D01*
X017725Y017250D01*
X017673Y017375D01*
X017577Y017471D01*
X017452Y017523D01*
X017317Y017523D01*
X017192Y017471D01*
X017139Y017418D02*
X011182Y017418D01*
X011228Y017339D02*
X017081Y017339D01*
X017049Y017261D02*
X011260Y017261D01*
X011261Y017182D02*
X017045Y017182D01*
X017049Y017104D02*
X011260Y017104D01*
X011227Y017025D02*
X017082Y017025D01*
X017140Y016947D02*
X011181Y016947D01*
X011103Y016868D02*
X017255Y016868D01*
X017514Y016868D02*
X020255Y016868D01*
X020317Y016843D02*
X020452Y016843D01*
X020577Y016894D01*
X020673Y016990D01*
X020725Y017115D01*
X020725Y017250D01*
X020673Y017375D01*
X020577Y017471D01*
X020452Y017523D01*
X020317Y017523D01*
X020192Y017471D01*
X020096Y017375D01*
X020045Y017250D01*
X020045Y017115D01*
X020096Y016990D01*
X020192Y016894D01*
X020317Y016843D01*
X020514Y016868D02*
X022666Y016868D01*
X022671Y016863D02*
X022810Y016806D01*
X022959Y016806D01*
X023098Y016863D01*
X023204Y016969D01*
X023261Y017108D01*
X023261Y017258D01*
X023204Y017396D01*
X023098Y017502D01*
X022959Y017560D01*
X022810Y017560D01*
X022671Y017502D01*
X022565Y017396D01*
X022508Y017258D01*
X022508Y017108D01*
X022565Y016969D01*
X022671Y016863D01*
X022588Y016947D02*
X020629Y016947D01*
X020687Y017025D02*
X022542Y017025D01*
X022509Y017104D02*
X020720Y017104D01*
X020725Y017182D02*
X022508Y017182D01*
X022509Y017261D02*
X020720Y017261D01*
X020688Y017339D02*
X022541Y017339D01*
X022587Y017418D02*
X020630Y017418D01*
X020516Y017496D02*
X022665Y017496D01*
X023104Y017496D02*
X023665Y017496D01*
X023671Y017502D02*
X023565Y017396D01*
X023508Y017258D01*
X023508Y017108D01*
X023565Y016969D01*
X023671Y016863D01*
X023810Y016806D01*
X023959Y016806D01*
X024098Y016863D01*
X024204Y016969D01*
X024261Y017108D01*
X024261Y017258D01*
X024204Y017396D01*
X024098Y017502D01*
X023959Y017560D01*
X023810Y017560D01*
X023671Y017502D01*
X023587Y017418D02*
X023182Y017418D01*
X023228Y017339D02*
X023541Y017339D01*
X023509Y017261D02*
X023260Y017261D01*
X023261Y017182D02*
X023508Y017182D01*
X023509Y017104D02*
X023260Y017104D01*
X023227Y017025D02*
X023542Y017025D01*
X023588Y016947D02*
X023181Y016947D01*
X023103Y016868D02*
X023666Y016868D01*
X023645Y016476D02*
X023124Y016476D01*
X023203Y016397D02*
X023566Y016397D01*
X023533Y016319D02*
X023236Y016319D01*
X023261Y016240D02*
X023508Y016240D01*
X023508Y016162D02*
X023261Y016162D01*
X023251Y016083D02*
X023518Y016083D01*
X023550Y016005D02*
X023219Y016005D01*
X023161Y015926D02*
X023608Y015926D01*
X023708Y015848D02*
X023061Y015848D01*
X022708Y015848D02*
X021865Y015848D01*
X021865Y015878D02*
X021730Y016013D01*
X021539Y016013D01*
X021405Y015878D01*
X021405Y015687D01*
X021539Y015553D01*
X021730Y015553D01*
X021865Y015687D01*
X021865Y015878D01*
X021816Y015926D02*
X022608Y015926D01*
X022550Y016005D02*
X021738Y016005D01*
X021531Y016005D02*
X020679Y016005D01*
X020673Y015990D02*
X020725Y016115D01*
X020725Y016250D01*
X020673Y016375D01*
X020577Y016471D01*
X020452Y016523D01*
X020317Y016523D01*
X020192Y016471D01*
X020096Y016375D01*
X020045Y016250D01*
X020045Y016115D01*
X020096Y015990D01*
X020192Y015894D01*
X020317Y015843D01*
X020452Y015843D01*
X020577Y015894D01*
X020673Y015990D01*
X020609Y015926D02*
X021453Y015926D01*
X021405Y015848D02*
X020464Y015848D01*
X020305Y015848D02*
X017464Y015848D01*
X017452Y015843D02*
X017577Y015894D01*
X017673Y015990D01*
X017725Y016115D01*
X017725Y016250D01*
X017673Y016375D01*
X017577Y016471D01*
X017452Y016523D01*
X017317Y016523D01*
X017192Y016471D01*
X017096Y016375D01*
X017045Y016250D01*
X017045Y016115D01*
X017096Y015990D01*
X017192Y015894D01*
X017317Y015843D01*
X017452Y015843D01*
X017305Y015848D02*
X012765Y015848D01*
X012765Y015926D02*
X017160Y015926D01*
X017090Y016005D02*
X012688Y016005D01*
X012630Y016063D02*
X012765Y015928D01*
X012765Y015737D01*
X012630Y015603D01*
X012439Y015603D01*
X012305Y015737D01*
X012305Y015928D01*
X012439Y016063D01*
X012630Y016063D01*
X012381Y016005D02*
X011219Y016005D01*
X011251Y016083D02*
X017058Y016083D01*
X017045Y016162D02*
X011261Y016162D01*
X011261Y016240D02*
X017045Y016240D01*
X017073Y016319D02*
X011236Y016319D01*
X011203Y016397D02*
X017118Y016397D01*
X017203Y016476D02*
X011124Y016476D01*
X011161Y015926D02*
X012305Y015926D01*
X012305Y015848D02*
X011061Y015848D01*
X011022Y015534D02*
X015205Y015534D01*
X015205Y015612D02*
X012639Y015612D01*
X012718Y015691D02*
X015217Y015691D01*
X015296Y015769D02*
X012765Y015769D01*
X012430Y015612D02*
X009325Y015612D01*
X009325Y015534D02*
X009747Y015534D01*
X009624Y015455D02*
X009325Y015455D01*
X009325Y015377D02*
X009557Y015377D01*
X009524Y015298D02*
X009325Y015298D01*
X009325Y015220D02*
X009508Y015220D01*
X009508Y015141D02*
X009325Y015141D01*
X009325Y015063D02*
X009526Y015063D01*
X009559Y014984D02*
X009325Y014984D01*
X009325Y014906D02*
X009629Y014906D01*
X009325Y014670D02*
X031505Y014670D01*
X031505Y014592D02*
X009325Y014592D01*
X010140Y014906D02*
X010629Y014906D01*
X010559Y014984D02*
X010210Y014984D01*
X010243Y015063D02*
X010526Y015063D01*
X010508Y015141D02*
X010261Y015141D01*
X010261Y015220D02*
X010508Y015220D01*
X010524Y015298D02*
X010245Y015298D01*
X010212Y015377D02*
X010557Y015377D01*
X010624Y015455D02*
X010145Y015455D01*
X010022Y015534D02*
X010747Y015534D01*
X011145Y015455D02*
X015237Y015455D01*
X015205Y015377D02*
X011212Y015377D01*
X011245Y015298D02*
X015205Y015298D01*
X015205Y015220D02*
X011261Y015220D01*
X011261Y015141D02*
X015251Y015141D01*
X015329Y015063D02*
X011243Y015063D01*
X012351Y015691D02*
X009325Y015691D01*
X009325Y015769D02*
X012305Y015769D01*
X015573Y015769D02*
X021405Y015769D01*
X021405Y015691D02*
X015652Y015691D01*
X015665Y015612D02*
X021480Y015612D01*
X021789Y015612D02*
X028711Y015612D01*
X028705Y015691D02*
X021865Y015691D01*
X021865Y015769D02*
X028717Y015769D01*
X028754Y015848D02*
X028061Y015848D01*
X028161Y015926D02*
X028767Y015926D01*
X028713Y016005D02*
X028219Y016005D01*
X028251Y016083D02*
X028688Y016083D01*
X028685Y016162D02*
X028261Y016162D01*
X028261Y016240D02*
X028704Y016240D01*
X028748Y016319D02*
X028236Y016319D01*
X028203Y016397D02*
X028774Y016397D01*
X028726Y016476D02*
X028124Y016476D01*
X027645Y016476D02*
X027124Y016476D01*
X027203Y016397D02*
X027566Y016397D01*
X027533Y016319D02*
X027236Y016319D01*
X027261Y016240D02*
X027508Y016240D01*
X027508Y016162D02*
X027261Y016162D01*
X027251Y016083D02*
X027518Y016083D01*
X027550Y016005D02*
X027219Y016005D01*
X027161Y015926D02*
X027608Y015926D01*
X027708Y015848D02*
X027061Y015848D01*
X026708Y015848D02*
X024061Y015848D01*
X024161Y015926D02*
X026608Y015926D01*
X026550Y016005D02*
X024219Y016005D01*
X024251Y016083D02*
X026518Y016083D01*
X026508Y016162D02*
X024261Y016162D01*
X024261Y016240D02*
X026508Y016240D01*
X026533Y016319D02*
X024236Y016319D01*
X024203Y016397D02*
X026566Y016397D01*
X026645Y016476D02*
X024124Y016476D01*
X024103Y016868D02*
X026666Y016868D01*
X026671Y016863D02*
X026810Y016806D01*
X026959Y016806D01*
X027098Y016863D01*
X027204Y016969D01*
X027261Y017108D01*
X027261Y017258D01*
X027204Y017396D01*
X027098Y017502D01*
X026959Y017560D01*
X026810Y017560D01*
X026671Y017502D01*
X026565Y017396D01*
X026508Y017258D01*
X026508Y017108D01*
X026565Y016969D01*
X026671Y016863D01*
X026588Y016947D02*
X024181Y016947D01*
X024227Y017025D02*
X026542Y017025D01*
X026509Y017104D02*
X024260Y017104D01*
X024261Y017182D02*
X026508Y017182D01*
X026509Y017261D02*
X024260Y017261D01*
X024228Y017339D02*
X026541Y017339D01*
X026587Y017418D02*
X024182Y017418D01*
X024104Y017496D02*
X026665Y017496D01*
X027104Y017496D02*
X027665Y017496D01*
X027587Y017418D02*
X027182Y017418D01*
X027228Y017339D02*
X027541Y017339D01*
X027509Y017261D02*
X027260Y017261D01*
X027261Y017182D02*
X027508Y017182D01*
X027509Y017104D02*
X027260Y017104D01*
X027227Y017025D02*
X027542Y017025D01*
X027588Y016947D02*
X027181Y016947D01*
X027103Y016868D02*
X027666Y016868D01*
X028104Y017496D02*
X030046Y017496D01*
X029955Y017732D02*
X013874Y017732D01*
X013973Y017810D02*
X015276Y017810D01*
X015198Y017889D02*
X014032Y017889D01*
X013725Y017889D02*
X013645Y017889D01*
X013645Y017967D02*
X013725Y017967D01*
X013725Y017810D02*
X013645Y017810D01*
X013645Y017732D02*
X013725Y017732D01*
X015693Y017810D02*
X016064Y017810D01*
X015985Y017889D02*
X015771Y017889D01*
X015805Y017967D02*
X015952Y017967D01*
X015932Y018046D02*
X015825Y018046D01*
X015825Y018124D02*
X015932Y018124D01*
X015954Y018203D02*
X015803Y018203D01*
X015767Y018281D02*
X015990Y018281D01*
X016068Y018360D02*
X015688Y018360D01*
X017467Y018517D02*
X020302Y018517D01*
X020317Y018523D02*
X020192Y018471D01*
X020096Y018375D01*
X020045Y018250D01*
X020045Y018115D01*
X020096Y017990D01*
X020192Y017894D01*
X020317Y017843D01*
X020452Y017843D01*
X020577Y017894D01*
X020673Y017990D01*
X020725Y018115D01*
X020725Y018250D01*
X020673Y018375D01*
X020577Y018471D01*
X020452Y018523D01*
X020317Y018523D01*
X020467Y018517D02*
X022670Y018517D01*
X022579Y018438D02*
X020610Y018438D01*
X020679Y018360D02*
X022528Y018360D01*
X022499Y018281D02*
X020712Y018281D01*
X020725Y018203D02*
X022845Y018203D01*
X022845Y018281D02*
X022925Y018281D01*
X022925Y018203D02*
X023508Y018203D01*
X023517Y018281D02*
X023270Y018281D01*
X023241Y018360D02*
X023550Y018360D01*
X023607Y018438D02*
X023190Y018438D01*
X023099Y018517D02*
X023706Y018517D01*
X024063Y018517D02*
X026706Y018517D01*
X026607Y018438D02*
X024162Y018438D01*
X024219Y018360D02*
X026550Y018360D01*
X026517Y018281D02*
X024252Y018281D01*
X024261Y018203D02*
X026508Y018203D01*
X026508Y018124D02*
X024261Y018124D01*
X024236Y018046D02*
X026533Y018046D01*
X026567Y017967D02*
X024202Y017967D01*
X024123Y017889D02*
X026646Y017889D01*
X027123Y017889D02*
X027646Y017889D01*
X027567Y017967D02*
X027202Y017967D01*
X027236Y018046D02*
X027533Y018046D01*
X027508Y018124D02*
X027261Y018124D01*
X027261Y018203D02*
X027508Y018203D01*
X027517Y018281D02*
X027252Y018281D01*
X027219Y018360D02*
X027550Y018360D01*
X027607Y018438D02*
X027162Y018438D01*
X027063Y018517D02*
X027706Y018517D01*
X028261Y018124D02*
X028405Y018124D01*
X028405Y018046D02*
X028236Y018046D01*
X028202Y017967D02*
X028405Y017967D01*
X028453Y017889D02*
X028123Y017889D01*
X028281Y019223D02*
X028266Y019298D01*
X028230Y019380D02*
X031822Y019380D01*
X031849Y019459D02*
X028170Y019459D01*
X028066Y019537D02*
X031793Y019537D01*
X032271Y018909D02*
X032398Y018909D01*
X032389Y018663D02*
X032255Y018528D01*
X032389Y018663D02*
X032580Y018663D01*
X032715Y018528D01*
X032715Y018337D01*
X032580Y018203D01*
X033339Y018203D01*
X033530Y018203D01*
X034615Y018203D01*
X034615Y018281D02*
X033608Y018281D01*
X033665Y018337D02*
X033530Y018203D01*
X033665Y018337D02*
X033665Y018528D01*
X033530Y018663D01*
X033339Y018663D01*
X033205Y018528D01*
X033205Y018337D01*
X033339Y018203D01*
X033261Y018281D02*
X032658Y018281D01*
X032715Y018360D02*
X033205Y018360D01*
X033205Y018438D02*
X032715Y018438D01*
X032715Y018517D02*
X033205Y018517D01*
X033272Y018595D02*
X032647Y018595D01*
X032771Y018909D02*
X032898Y018909D01*
X033271Y018909D02*
X033398Y018909D01*
X033771Y018909D02*
X033898Y018909D01*
X033597Y018595D02*
X034615Y018595D01*
X034615Y018517D02*
X033665Y018517D01*
X033665Y018438D02*
X034615Y018438D01*
X034615Y018360D02*
X033665Y018360D01*
X032580Y018203D02*
X032389Y018203D01*
X031261Y017732D02*
X034615Y017732D01*
X034615Y017810D02*
X031182Y017810D01*
X031265Y017653D02*
X034615Y017653D01*
X034615Y017575D02*
X031265Y017575D01*
X031223Y017496D02*
X034615Y017496D01*
X034615Y017418D02*
X031145Y017418D01*
X031095Y016397D02*
X031274Y016397D01*
X031195Y016319D02*
X031174Y016319D01*
X030874Y016397D02*
X030695Y016397D01*
X030774Y016319D02*
X030795Y016319D01*
X030837Y016005D02*
X030732Y016005D01*
X031132Y016005D02*
X031237Y016005D01*
X031532Y016005D02*
X034615Y016005D01*
X034615Y016083D02*
X031610Y016083D01*
X031615Y016162D02*
X034615Y016162D01*
X034615Y016240D02*
X031615Y016240D01*
X031574Y016319D02*
X034615Y016319D01*
X034615Y016397D02*
X031495Y016397D01*
X031915Y014827D02*
X034615Y014827D01*
X034615Y014749D02*
X031965Y014749D01*
X031965Y014670D02*
X034615Y014670D01*
X034615Y014592D02*
X031965Y014592D01*
X031890Y014513D02*
X034615Y014513D01*
X034615Y014435D02*
X028165Y014435D01*
X028221Y014356D02*
X028812Y014356D01*
X028826Y014370D02*
X028747Y014291D01*
X028705Y014188D01*
X028705Y014077D01*
X028747Y013974D01*
X028826Y013895D01*
X028929Y013853D01*
X029040Y013853D01*
X029143Y013895D01*
X029222Y013974D01*
X029265Y014077D01*
X029265Y014188D01*
X029222Y014291D01*
X029143Y014370D01*
X029040Y014413D01*
X028929Y014413D01*
X028826Y014370D01*
X028742Y014278D02*
X028253Y014278D01*
X028261Y014199D02*
X028709Y014199D01*
X028705Y014121D02*
X028261Y014121D01*
X028234Y014042D02*
X028719Y014042D01*
X028758Y013964D02*
X028198Y013964D01*
X028120Y013885D02*
X028850Y013885D01*
X029119Y013885D02*
X029962Y013885D01*
X030207Y013885D02*
X034615Y013885D01*
X034615Y013807D02*
X030286Y013807D01*
X030315Y013728D02*
X034615Y013728D01*
X034615Y013650D02*
X030315Y013650D01*
X030298Y013571D02*
X034615Y013571D01*
X034615Y013493D02*
X030220Y013493D01*
X029949Y013493D02*
X029170Y013493D01*
X029143Y013520D02*
X029040Y013563D01*
X028929Y013563D01*
X028826Y013520D01*
X028747Y013441D01*
X028705Y013338D01*
X028705Y013227D01*
X028747Y013124D01*
X028826Y013045D01*
X028929Y013003D01*
X029040Y013003D01*
X029143Y013045D01*
X029222Y013124D01*
X029265Y013227D01*
X029265Y013338D01*
X029222Y013441D01*
X029143Y013520D01*
X029233Y013414D02*
X034615Y013414D01*
X034615Y013336D02*
X034327Y013336D01*
X034385Y013278D02*
X034250Y013413D01*
X034059Y013413D01*
X033925Y013278D01*
X033925Y013087D01*
X034059Y012953D01*
X034250Y012953D01*
X034385Y013087D01*
X034385Y013278D01*
X034385Y013257D02*
X034615Y013257D01*
X034615Y013179D02*
X034385Y013179D01*
X034385Y013100D02*
X034615Y013100D01*
X034615Y013022D02*
X034319Y013022D01*
X034615Y012943D02*
X028178Y012943D01*
X028204Y012969D02*
X028261Y013108D01*
X028261Y013258D01*
X028204Y013396D01*
X028098Y013502D01*
X027959Y013560D01*
X027810Y013560D01*
X027671Y013502D01*
X027565Y013396D01*
X027508Y013258D01*
X027508Y013108D01*
X027565Y012969D01*
X027671Y012863D01*
X027810Y012806D01*
X027959Y012806D01*
X028098Y012863D01*
X028204Y012969D01*
X028226Y013022D02*
X028883Y013022D01*
X028771Y013100D02*
X028258Y013100D01*
X028261Y013179D02*
X028725Y013179D01*
X028705Y013257D02*
X028261Y013257D01*
X028229Y013336D02*
X028705Y013336D01*
X028736Y013414D02*
X028186Y013414D01*
X028107Y013493D02*
X028799Y013493D01*
X029265Y013336D02*
X033262Y013336D01*
X033205Y013278D02*
X033205Y013087D01*
X033339Y012953D01*
X033530Y012953D01*
X033665Y013087D01*
X033665Y013278D01*
X033530Y013413D01*
X033339Y013413D01*
X033205Y013278D01*
X033205Y013257D02*
X029265Y013257D01*
X029245Y013179D02*
X033205Y013179D01*
X033205Y013100D02*
X029198Y013100D01*
X029086Y013022D02*
X033270Y013022D01*
X033599Y013022D02*
X033990Y013022D01*
X033925Y013100D02*
X033665Y013100D01*
X033665Y013179D02*
X033925Y013179D01*
X033925Y013257D02*
X033665Y013257D01*
X033607Y013336D02*
X033982Y013336D01*
X034615Y012865D02*
X028099Y012865D01*
X027670Y012865D02*
X027099Y012865D01*
X027098Y012863D02*
X027204Y012969D01*
X027261Y013108D01*
X027261Y013258D01*
X027204Y013396D01*
X027098Y013502D01*
X026959Y013560D01*
X026810Y013560D01*
X026671Y013502D01*
X026565Y013396D01*
X026508Y013258D01*
X026508Y013108D01*
X026565Y012969D01*
X026671Y012863D01*
X026810Y012806D01*
X026959Y012806D01*
X027098Y012863D01*
X027178Y012943D02*
X027591Y012943D01*
X027543Y013022D02*
X027226Y013022D01*
X027258Y013100D02*
X027511Y013100D01*
X027508Y013179D02*
X027261Y013179D01*
X027261Y013257D02*
X027508Y013257D01*
X027540Y013336D02*
X027229Y013336D01*
X027186Y013414D02*
X027583Y013414D01*
X027662Y013493D02*
X027107Y013493D01*
X026662Y013493D02*
X024107Y013493D01*
X024098Y013502D02*
X023959Y013560D01*
X023810Y013560D01*
X023671Y013502D01*
X023565Y013396D01*
X023508Y013258D01*
X023508Y013108D01*
X023565Y012969D01*
X023671Y012863D01*
X023810Y012806D01*
X023959Y012806D01*
X024098Y012863D01*
X024204Y012969D01*
X024261Y013108D01*
X024261Y013258D01*
X024204Y013396D01*
X024098Y013502D01*
X024186Y013414D02*
X026583Y013414D01*
X026540Y013336D02*
X024229Y013336D01*
X024261Y013257D02*
X026508Y013257D01*
X026508Y013179D02*
X024261Y013179D01*
X024258Y013100D02*
X026511Y013100D01*
X026543Y013022D02*
X024226Y013022D01*
X024178Y012943D02*
X026591Y012943D01*
X026670Y012865D02*
X024099Y012865D01*
X023670Y012865D02*
X023099Y012865D01*
X023178Y012943D02*
X023591Y012943D01*
X023543Y013022D02*
X023226Y013022D01*
X023258Y013100D02*
X023511Y013100D01*
X023508Y013179D02*
X023261Y013179D01*
X023261Y013257D02*
X023508Y013257D01*
X023540Y013336D02*
X023229Y013336D01*
X023186Y013414D02*
X023583Y013414D01*
X023662Y013493D02*
X023107Y013493D01*
X023148Y013885D02*
X023649Y013885D01*
X023571Y013964D02*
X023215Y013964D01*
X023256Y014042D02*
X023535Y014042D01*
X023508Y014121D02*
X023277Y014121D01*
X023270Y014278D02*
X023516Y014278D01*
X023508Y014199D02*
X022925Y014199D01*
X022925Y014278D02*
X022845Y014278D01*
X022845Y014356D02*
X022925Y014356D01*
X022925Y014435D02*
X022845Y014435D01*
X022845Y014513D02*
X022925Y014513D01*
X023104Y014513D02*
X023698Y014513D01*
X023604Y014435D02*
X023193Y014435D01*
X023242Y014356D02*
X023548Y014356D01*
X024071Y014513D02*
X026698Y014513D01*
X026604Y014435D02*
X024165Y014435D01*
X024221Y014356D02*
X026548Y014356D01*
X026516Y014278D02*
X024253Y014278D01*
X024261Y014199D02*
X026508Y014199D01*
X026508Y014121D02*
X024261Y014121D01*
X024234Y014042D02*
X026535Y014042D01*
X026571Y013964D02*
X024198Y013964D01*
X024120Y013885D02*
X026649Y013885D01*
X027120Y013885D02*
X027649Y013885D01*
X027571Y013964D02*
X027198Y013964D01*
X027234Y014042D02*
X027535Y014042D01*
X027508Y014121D02*
X027261Y014121D01*
X027261Y014199D02*
X027508Y014199D01*
X027516Y014278D02*
X027253Y014278D01*
X027221Y014356D02*
X027548Y014356D01*
X027604Y014435D02*
X027165Y014435D01*
X027071Y014513D02*
X027698Y014513D01*
X028071Y014513D02*
X031579Y014513D01*
X029260Y014199D02*
X034615Y014199D01*
X034615Y014121D02*
X029265Y014121D01*
X029250Y014042D02*
X034615Y014042D01*
X034615Y013964D02*
X029212Y013964D01*
X029228Y014278D02*
X034615Y014278D01*
X034615Y014356D02*
X029157Y014356D01*
X032397Y011373D02*
X033072Y011373D01*
X033021Y011352D02*
X032915Y011246D01*
X032858Y011108D01*
X032858Y010958D01*
X032915Y010819D01*
X033021Y010713D01*
X033160Y010656D01*
X033309Y010656D01*
X033448Y010713D01*
X033554Y010819D01*
X033611Y010958D01*
X033611Y011108D01*
X033554Y011246D01*
X033448Y011352D01*
X033309Y011410D01*
X033160Y011410D01*
X033021Y011352D01*
X032964Y011295D02*
X032505Y011295D01*
X032566Y011216D02*
X032903Y011216D01*
X032870Y011138D02*
X032599Y011138D01*
X032611Y011059D02*
X032858Y011059D01*
X032858Y010981D02*
X032611Y010981D01*
X032588Y010902D02*
X032881Y010902D01*
X032913Y010824D02*
X032556Y010824D01*
X032480Y010745D02*
X032989Y010745D01*
X033133Y010667D02*
X032336Y010667D01*
X033336Y010667D02*
X034081Y010667D01*
X034047Y010681D02*
X034119Y010651D01*
X034195Y010636D01*
X034195Y010993D01*
X033838Y010993D01*
X033853Y010917D01*
X033883Y010845D01*
X033926Y010780D01*
X033982Y010724D01*
X034047Y010681D01*
X033961Y010745D02*
X033480Y010745D01*
X033556Y010824D02*
X033897Y010824D01*
X033859Y010902D02*
X033588Y010902D01*
X033611Y010981D02*
X033840Y010981D01*
X033851Y011138D02*
X033599Y011138D01*
X033611Y011059D02*
X034195Y011059D01*
X034195Y010981D02*
X034275Y010981D01*
X034275Y010902D02*
X034195Y010902D01*
X034195Y010824D02*
X034275Y010824D01*
X034275Y010745D02*
X034195Y010745D01*
X034195Y010667D02*
X034275Y010667D01*
X034388Y010667D02*
X034615Y010667D01*
X034615Y010745D02*
X034508Y010745D01*
X034572Y010824D02*
X034615Y010824D01*
X034610Y010902D02*
X034615Y010902D01*
X034615Y011216D02*
X034588Y011216D01*
X034615Y011295D02*
X034534Y011295D01*
X034615Y011373D02*
X034439Y011373D01*
X034275Y011373D02*
X034195Y011373D01*
X034195Y011295D02*
X034275Y011295D01*
X034275Y011216D02*
X034195Y011216D01*
X034195Y011138D02*
X034275Y011138D01*
X034030Y011373D02*
X033397Y011373D01*
X033505Y011295D02*
X033935Y011295D01*
X033881Y011216D02*
X033566Y011216D01*
X034526Y010274D02*
X034615Y010274D01*
X034615Y010196D02*
X034575Y010196D01*
X034607Y010117D02*
X034615Y010117D01*
X034611Y010039D02*
X034615Y010039D01*
X034611Y009960D02*
X034615Y009960D01*
X034615Y009882D02*
X034580Y009882D01*
X034615Y009803D02*
X034538Y009803D01*
X034615Y009725D02*
X034459Y009725D01*
X030380Y009803D02*
X030189Y009803D01*
X022559Y014984D02*
X020667Y014984D01*
X020703Y015063D02*
X022526Y015063D01*
X022508Y015141D02*
X020725Y015141D01*
X020725Y015220D02*
X022508Y015220D01*
X022524Y015298D02*
X020705Y015298D01*
X020671Y015377D02*
X022557Y015377D01*
X022624Y015455D02*
X020593Y015455D01*
X020160Y015926D02*
X017609Y015926D01*
X017679Y016005D02*
X019337Y016005D01*
X019389Y015953D02*
X019580Y015953D01*
X019715Y016087D01*
X019715Y016278D01*
X019580Y016413D01*
X019389Y016413D01*
X019255Y016278D01*
X019255Y016087D01*
X019389Y015953D01*
X019259Y016083D02*
X017711Y016083D01*
X017725Y016162D02*
X019255Y016162D01*
X019255Y016240D02*
X017725Y016240D01*
X017696Y016319D02*
X019295Y016319D01*
X019374Y016397D02*
X017651Y016397D01*
X017566Y016476D02*
X020203Y016476D01*
X020118Y016397D02*
X019595Y016397D01*
X019674Y016319D02*
X020073Y016319D01*
X020045Y016240D02*
X019715Y016240D01*
X019715Y016162D02*
X020045Y016162D01*
X020058Y016083D02*
X019710Y016083D01*
X019632Y016005D02*
X020090Y016005D01*
X020711Y016083D02*
X022518Y016083D01*
X022508Y016162D02*
X020725Y016162D01*
X020725Y016240D02*
X022508Y016240D01*
X022533Y016319D02*
X020696Y016319D01*
X020651Y016397D02*
X022566Y016397D01*
X022645Y016476D02*
X020566Y016476D01*
X020140Y016947D02*
X017629Y016947D01*
X017687Y017025D02*
X018117Y017025D01*
X018055Y017087D02*
X018189Y016953D01*
X018380Y016953D01*
X018515Y017087D01*
X018515Y017278D01*
X018380Y017413D01*
X018189Y017413D01*
X018055Y017278D01*
X018055Y017087D01*
X018055Y017104D02*
X017720Y017104D01*
X017725Y017182D02*
X018055Y017182D01*
X018055Y017261D02*
X017720Y017261D01*
X017688Y017339D02*
X018116Y017339D01*
X018453Y017339D02*
X020081Y017339D01*
X020049Y017261D02*
X018515Y017261D01*
X018515Y017182D02*
X020045Y017182D01*
X020049Y017104D02*
X018515Y017104D01*
X018452Y017025D02*
X020082Y017025D01*
X020139Y017418D02*
X017630Y017418D01*
X017516Y017496D02*
X020253Y017496D01*
X020206Y017889D02*
X017563Y017889D01*
X017650Y017967D02*
X020119Y017967D01*
X020073Y018046D02*
X017696Y018046D01*
X017725Y018124D02*
X020045Y018124D01*
X020045Y018203D02*
X017725Y018203D01*
X017712Y018281D02*
X020057Y018281D01*
X020090Y018360D02*
X017679Y018360D01*
X017610Y018438D02*
X020159Y018438D01*
X020280Y018837D02*
X020214Y018864D01*
X020155Y018903D01*
X020105Y018953D01*
X020065Y019012D01*
X020038Y019078D01*
X020025Y019143D01*
X020345Y019143D01*
X020345Y019223D01*
X020345Y019145D02*
X017725Y019145D01*
X017725Y019223D02*
X020026Y019223D01*
X020044Y019302D02*
X017703Y019302D01*
X017668Y019380D02*
X020084Y019380D01*
X020151Y019459D02*
X017589Y019459D01*
X017704Y019066D02*
X020043Y019066D01*
X020082Y018988D02*
X017670Y018988D01*
X017592Y018909D02*
X020149Y018909D01*
X020345Y018909D02*
X020425Y018909D01*
X020425Y018831D02*
X020345Y018831D01*
X020345Y018988D02*
X020425Y018988D01*
X020425Y019066D02*
X020345Y019066D01*
X020744Y019223D02*
X026508Y019223D01*
X026526Y019302D02*
X020725Y019302D01*
X020686Y019380D02*
X026558Y019380D01*
X026628Y019459D02*
X020618Y019459D01*
X020425Y019459D02*
X020345Y019459D01*
X020345Y019380D02*
X020425Y019380D01*
X020425Y019302D02*
X020345Y019302D01*
X020725Y018124D02*
X022492Y018124D01*
X022512Y018046D02*
X020696Y018046D01*
X020650Y017967D02*
X022551Y017967D01*
X022617Y017889D02*
X020563Y017889D01*
X022845Y017889D02*
X022925Y017889D01*
X022925Y017967D02*
X022845Y017967D01*
X022845Y018046D02*
X022925Y018046D01*
X022925Y018124D02*
X022845Y018124D01*
X022845Y018360D02*
X022925Y018360D01*
X022925Y018438D02*
X022845Y018438D01*
X022845Y018517D02*
X022925Y018517D01*
X023278Y018124D02*
X023508Y018124D01*
X023533Y018046D02*
X023257Y018046D01*
X023218Y017967D02*
X023567Y017967D01*
X023646Y017889D02*
X023152Y017889D01*
X022747Y015534D02*
X015665Y015534D01*
D15*
X015435Y015583D03*
X015435Y015283D03*
X014835Y014783D03*
X013635Y015283D03*
X012535Y015833D03*
X011835Y016283D03*
X011835Y014983D03*
X013585Y014283D03*
X013585Y013633D03*
X012985Y013633D03*
X011835Y013283D03*
X012685Y012783D03*
X013885Y012333D03*
X014435Y012333D03*
X014985Y012333D03*
X013885Y011783D03*
X012685Y011783D03*
X014435Y013383D03*
X016185Y014083D03*
X018085Y013083D03*
X019735Y013183D03*
X021885Y012933D03*
X021885Y013983D03*
X021885Y014933D03*
X021635Y015783D03*
X021935Y015933D03*
X021885Y016933D03*
X021885Y017933D03*
X018885Y018183D03*
X018885Y017433D03*
X018285Y017183D03*
X016635Y016933D03*
X015785Y016033D03*
X018885Y014683D03*
X019485Y016183D03*
X018885Y019183D03*
X016885Y019733D03*
X011835Y017783D03*
X009435Y018683D03*
X009435Y020033D03*
X016235Y011683D03*
X018635Y010933D03*
X019735Y010333D03*
X018635Y010183D03*
X016535Y009333D03*
X016135Y009333D03*
X013285Y009533D03*
X011735Y009483D03*
X021535Y010433D03*
X022285Y009983D03*
X022885Y010983D03*
X021935Y011133D03*
X023985Y010033D03*
X025485Y010033D03*
X025735Y010683D03*
X025885Y009333D03*
X027385Y009303D03*
X028585Y010433D03*
X029235Y010433D03*
X030285Y010033D03*
X030785Y010033D03*
X031385Y009363D03*
X033835Y009363D03*
X033881Y011733D03*
X032085Y012183D03*
X031785Y012183D03*
X031985Y013183D03*
X033435Y013183D03*
X034155Y013183D03*
X034535Y013183D03*
X031735Y014683D03*
X030485Y014683D03*
X030085Y013683D03*
X029135Y012563D03*
X025885Y012183D03*
X025885Y013183D03*
X025885Y014183D03*
X025885Y015183D03*
X025885Y016183D03*
X025885Y017183D03*
X025885Y018183D03*
X025885Y019183D03*
X028635Y018033D03*
X030185Y017683D03*
X031035Y017633D03*
X031585Y017183D03*
X031935Y017533D03*
X033435Y017183D03*
X033735Y017183D03*
X034533Y017206D03*
X034535Y016183D03*
X033745Y016183D03*
X031385Y016183D03*
X030985Y016183D03*
X030585Y016183D03*
X030235Y016183D03*
X031185Y018583D03*
X032485Y018433D03*
X032785Y018433D03*
X033435Y018433D03*
X029485Y019633D03*
M02*
