G75*
G70*
%OFA0B0*%
%FSLAX24Y24*%
%IPPOS*%
%LPD*%
%AMOC8*
5,1,8,0,0,1.08239X$1,22.5*
%
%ADD10C,0.0514*%
%ADD11C,0.0440*%
%ADD12C,0.0320*%
%ADD13C,0.0410*%
%ADD14C,0.0220*%
%ADD15C,0.0080*%
%ADD16C,0.0250*%
D10*
X009885Y010183D03*
X010885Y010183D03*
X010885Y011183D03*
X009885Y011183D03*
X009885Y012183D03*
X010885Y012183D03*
X010885Y013183D03*
X009885Y013183D03*
X009885Y014183D03*
X010885Y014183D03*
X010885Y015183D03*
X009885Y015183D03*
X009885Y016183D03*
X010885Y016183D03*
X010885Y017183D03*
X009885Y017183D03*
X009885Y018183D03*
X010885Y018183D03*
X012685Y018083D03*
X013685Y018083D03*
X010885Y019183D03*
X009885Y019183D03*
X022885Y018183D03*
X023885Y018183D03*
X023885Y017183D03*
X022885Y017183D03*
X022885Y016183D03*
X023885Y016183D03*
X023885Y015183D03*
X022885Y015183D03*
X022885Y014183D03*
X023885Y014183D03*
X023885Y013183D03*
X022885Y013183D03*
X026885Y013183D03*
X027885Y013183D03*
X027885Y012183D03*
X026885Y012183D03*
X026885Y011183D03*
X027885Y011183D03*
X027885Y010183D03*
X026885Y010183D03*
X032235Y010033D03*
X033235Y010033D03*
X034235Y010033D03*
X034235Y011033D03*
X033235Y011033D03*
X032235Y011033D03*
X027885Y014183D03*
X026885Y014183D03*
X026885Y015183D03*
X027885Y015183D03*
X027885Y016183D03*
X026885Y016183D03*
X026885Y017183D03*
X027885Y017183D03*
X027885Y018183D03*
X026885Y018183D03*
X026885Y019183D03*
X027885Y019183D03*
D11*
X020385Y019183D03*
X020385Y018183D03*
X020385Y017183D03*
X020385Y016183D03*
X020385Y015183D03*
X020385Y014183D03*
X020385Y013183D03*
X020385Y012183D03*
X020385Y011183D03*
X020385Y010183D03*
X017385Y010183D03*
X017385Y011183D03*
X017385Y012183D03*
X017385Y013183D03*
X017385Y014183D03*
X017385Y015183D03*
X017385Y016183D03*
X017385Y017183D03*
X017385Y018183D03*
X016272Y018083D03*
X015485Y018083D03*
X015472Y019183D03*
X016259Y019183D03*
X017385Y019183D03*
X014685Y019183D03*
D12*
X028985Y016583D03*
X028985Y016133D03*
X028985Y015683D03*
X028985Y015233D03*
X028985Y014133D03*
X028985Y013283D03*
X030735Y012083D03*
X031385Y012083D03*
X032635Y012083D03*
D13*
X032585Y019183D03*
X033085Y019183D03*
X033585Y019183D03*
X034085Y019183D03*
X034085Y019683D03*
X033585Y019683D03*
X033085Y019683D03*
X032585Y019683D03*
X032085Y019683D03*
X032085Y019183D03*
D14*
X032485Y018433D03*
X032785Y018433D03*
X033435Y018433D03*
X031935Y017533D03*
X031585Y017183D03*
X031035Y017633D03*
X030185Y017683D03*
X031185Y018583D03*
X029485Y019633D03*
X028635Y018033D03*
X025885Y018183D03*
X025885Y017183D03*
X025885Y016183D03*
X025885Y015183D03*
X025885Y014183D03*
X025885Y013183D03*
X025885Y012183D03*
X025735Y010683D03*
X025485Y010033D03*
X025885Y009333D03*
X027385Y009303D03*
X028585Y010433D03*
X029235Y010433D03*
X030285Y010033D03*
X030785Y010033D03*
X031385Y009363D03*
X033835Y009363D03*
X033881Y011733D03*
X032085Y012183D03*
X031785Y012183D03*
X031985Y013183D03*
X033435Y013183D03*
X034155Y013183D03*
X034535Y013183D03*
X031735Y014683D03*
X030485Y014683D03*
X030085Y013683D03*
X029135Y012563D03*
X023985Y010033D03*
X022885Y010983D03*
X021935Y011133D03*
X021535Y010433D03*
X022285Y009983D03*
X019735Y010333D03*
X018635Y010183D03*
X018635Y010933D03*
X016235Y011683D03*
X014985Y012333D03*
X014435Y012333D03*
X013885Y012333D03*
X013885Y011783D03*
X012685Y011783D03*
X012685Y012783D03*
X011835Y013283D03*
X012985Y013633D03*
X013585Y013633D03*
X014435Y013383D03*
X013585Y014283D03*
X014835Y014783D03*
X015435Y015283D03*
X015435Y015583D03*
X015785Y016033D03*
X016635Y016933D03*
X018285Y017183D03*
X018885Y017433D03*
X018885Y018183D03*
X018885Y019183D03*
X016885Y019733D03*
X021885Y017933D03*
X021885Y016933D03*
X021935Y015933D03*
X021635Y015783D03*
X021885Y014933D03*
X021885Y013983D03*
X021885Y012933D03*
X019735Y013183D03*
X018085Y013083D03*
X016185Y014083D03*
X013635Y015283D03*
X012535Y015833D03*
X011835Y016283D03*
X011835Y014983D03*
X011835Y017783D03*
X009435Y018683D03*
X009435Y020033D03*
X019485Y016183D03*
X018885Y014683D03*
X025885Y019183D03*
X030235Y016183D03*
X030585Y016183D03*
X030985Y016183D03*
X031385Y016183D03*
X033435Y017183D03*
X033735Y017183D03*
X034533Y017206D03*
X034535Y016183D03*
X033745Y016183D03*
X016535Y009333D03*
X016135Y009333D03*
X013285Y009533D03*
X011735Y009483D03*
D15*
X009357Y009279D02*
X009339Y009308D01*
X009328Y009339D01*
X009325Y009373D01*
X009325Y018467D01*
X009339Y018453D01*
X009530Y018453D01*
X009665Y018587D01*
X009665Y018773D01*
X014951Y018773D01*
X015045Y018866D01*
X015045Y018999D01*
X015045Y020143D01*
X015895Y020143D01*
X015895Y018866D01*
X015988Y018773D01*
X030068Y018773D01*
X031459Y017382D01*
X031355Y017278D01*
X031355Y017087D01*
X031489Y016953D01*
X031680Y016953D01*
X031784Y017057D01*
X033625Y015216D01*
X033625Y013318D01*
X033530Y013413D01*
X033339Y013413D01*
X033205Y013278D01*
X033205Y013087D01*
X033339Y012953D01*
X033530Y012953D01*
X033659Y013082D01*
X033718Y013023D01*
X033818Y012923D01*
X034615Y012923D01*
X034615Y010152D01*
X034586Y010221D01*
X034543Y010286D01*
X034487Y010341D01*
X034422Y010384D01*
X034350Y010414D01*
X034275Y010429D01*
X034275Y010073D01*
X034195Y010073D01*
X034195Y010429D01*
X034119Y010414D01*
X034047Y010384D01*
X033982Y010341D01*
X033926Y010286D01*
X033883Y010221D01*
X033853Y010148D01*
X033838Y010073D01*
X034195Y010073D01*
X034195Y009993D01*
X034275Y009993D01*
X034275Y009636D01*
X034350Y009651D01*
X034422Y009681D01*
X034487Y009724D01*
X034543Y009780D01*
X034586Y009845D01*
X034615Y009913D01*
X034615Y009373D01*
X034611Y009339D01*
X034600Y009308D01*
X034582Y009279D01*
X034558Y009255D01*
X034530Y009238D01*
X034498Y009226D01*
X034465Y009223D01*
X034020Y009223D01*
X034065Y009267D01*
X034065Y009458D01*
X033930Y009593D01*
X033739Y009593D01*
X033605Y009458D01*
X033605Y009267D01*
X033649Y009223D01*
X031570Y009223D01*
X031615Y009267D01*
X031615Y009458D01*
X031480Y009593D01*
X031289Y009593D01*
X031155Y009458D01*
X031155Y009267D01*
X031199Y009223D01*
X027615Y009223D01*
X027615Y009398D01*
X027480Y009533D01*
X027289Y009533D01*
X027155Y009398D01*
X027155Y009223D01*
X026100Y009223D01*
X026115Y009237D01*
X026115Y009428D01*
X025980Y009563D01*
X025789Y009563D01*
X025655Y009428D01*
X025655Y009237D01*
X025669Y009223D01*
X016750Y009223D01*
X016765Y009237D01*
X016765Y009428D01*
X016630Y009563D01*
X016439Y009563D01*
X016335Y009458D01*
X016230Y009563D01*
X016039Y009563D01*
X015905Y009428D01*
X015905Y009237D01*
X015919Y009223D01*
X012895Y009223D01*
X012895Y010233D01*
X015985Y010233D01*
X015985Y013333D01*
X014665Y013333D01*
X014665Y013478D01*
X014530Y013613D01*
X014339Y013613D01*
X014205Y013478D01*
X014205Y013333D01*
X012885Y013333D01*
X012885Y012908D01*
X012780Y013013D01*
X012589Y013013D01*
X012455Y012878D01*
X012455Y012687D01*
X012589Y012553D01*
X012780Y012553D01*
X012885Y012657D01*
X012885Y011908D01*
X012780Y012013D01*
X012589Y012013D01*
X012455Y011878D01*
X012455Y011687D01*
X009325Y011687D01*
X009325Y011609D02*
X012533Y011609D01*
X012589Y011553D02*
X012780Y011553D01*
X012885Y011657D01*
X012885Y009223D01*
X009475Y009223D01*
X009441Y009226D01*
X009409Y009238D01*
X009381Y009255D01*
X009357Y009279D01*
X009384Y009254D02*
X012885Y009254D01*
X012895Y009254D02*
X015905Y009254D01*
X015905Y009332D02*
X013409Y009332D01*
X013380Y009303D02*
X013515Y009437D01*
X013515Y009628D01*
X013380Y009763D01*
X013189Y009763D01*
X013055Y009628D01*
X013055Y009437D01*
X013189Y009303D01*
X013380Y009303D01*
X013488Y009411D02*
X015905Y009411D01*
X015966Y009489D02*
X013515Y009489D01*
X013515Y009568D02*
X031264Y009568D01*
X031186Y009489D02*
X027523Y009489D01*
X027602Y009411D02*
X031155Y009411D01*
X031155Y009332D02*
X027615Y009332D01*
X027615Y009254D02*
X031168Y009254D01*
X031601Y009254D02*
X033618Y009254D01*
X033605Y009332D02*
X031615Y009332D01*
X031615Y009411D02*
X033605Y009411D01*
X033636Y009489D02*
X031583Y009489D01*
X031505Y009568D02*
X033714Y009568D01*
X033955Y009568D02*
X034615Y009568D01*
X034615Y009646D02*
X034326Y009646D01*
X034275Y009646D02*
X034195Y009646D01*
X034195Y009636D02*
X034195Y009993D01*
X033838Y009993D01*
X033853Y009917D01*
X033883Y009845D01*
X033926Y009780D01*
X033982Y009724D01*
X034047Y009681D01*
X034119Y009651D01*
X034195Y009636D01*
X034143Y009646D02*
X013496Y009646D01*
X013418Y009725D02*
X032010Y009725D01*
X032021Y009713D02*
X032160Y009656D01*
X032309Y009656D01*
X032448Y009713D01*
X032554Y009819D01*
X032611Y009958D01*
X032611Y010108D01*
X032554Y010246D01*
X032448Y010352D01*
X032309Y010410D01*
X032160Y010410D01*
X032021Y010352D01*
X031915Y010246D01*
X031858Y010108D01*
X031858Y009958D01*
X031915Y009819D01*
X032021Y009713D01*
X031931Y009803D02*
X030880Y009803D01*
X031015Y009937D01*
X031015Y010128D01*
X030880Y010263D01*
X030689Y010263D01*
X030555Y010128D01*
X030555Y009937D01*
X030689Y009803D01*
X030380Y009803D01*
X030515Y009937D01*
X030515Y010128D01*
X030380Y010263D01*
X030189Y010263D01*
X030055Y010128D01*
X030055Y009937D01*
X030189Y009803D01*
X024080Y009803D01*
X024215Y009937D01*
X024215Y010128D01*
X024080Y010263D01*
X023889Y010263D01*
X023755Y010128D01*
X023755Y009937D01*
X023889Y009803D01*
X022430Y009803D01*
X022380Y009753D02*
X022515Y009887D01*
X022515Y010078D01*
X022380Y010213D01*
X022189Y010213D01*
X022055Y010078D01*
X022055Y009887D01*
X022189Y009753D01*
X022380Y009753D01*
X022509Y009882D02*
X023810Y009882D01*
X023755Y009960D02*
X022515Y009960D01*
X022515Y010039D02*
X023755Y010039D01*
X023755Y010117D02*
X022475Y010117D01*
X022397Y010196D02*
X023822Y010196D01*
X024147Y010196D02*
X026508Y010196D01*
X026508Y010258D02*
X026508Y010108D01*
X026565Y009969D01*
X026671Y009863D01*
X026810Y009806D01*
X026959Y009806D01*
X027098Y009863D01*
X027204Y009969D01*
X027261Y010108D01*
X027261Y010258D01*
X027204Y010396D01*
X027098Y010502D01*
X026959Y010560D01*
X026810Y010560D01*
X026671Y010502D01*
X026565Y010396D01*
X026508Y010258D01*
X026515Y010274D02*
X021701Y010274D01*
X021765Y010337D02*
X021630Y010203D01*
X021439Y010203D01*
X021305Y010337D01*
X021305Y010528D01*
X021439Y010663D01*
X021630Y010663D01*
X021765Y010528D01*
X021765Y010337D01*
X021765Y010353D02*
X026547Y010353D01*
X026600Y010431D02*
X021765Y010431D01*
X021765Y010510D02*
X025582Y010510D01*
X025639Y010453D02*
X025830Y010453D01*
X025965Y010587D01*
X025965Y010778D01*
X025830Y010913D01*
X025639Y010913D01*
X025505Y010778D01*
X025505Y010587D01*
X025639Y010453D01*
X025505Y010588D02*
X021704Y010588D01*
X021365Y010588D02*
X015985Y010588D01*
X015985Y010510D02*
X017286Y010510D01*
X017317Y010523D02*
X017192Y010471D01*
X017096Y010375D01*
X017045Y010250D01*
X017045Y010115D01*
X017096Y009990D01*
X017192Y009894D01*
X017317Y009843D01*
X017452Y009843D01*
X017577Y009894D01*
X017673Y009990D01*
X017725Y010115D01*
X017725Y010250D01*
X017673Y010375D01*
X017577Y010471D01*
X017452Y010523D01*
X017317Y010523D01*
X017484Y010510D02*
X019586Y010510D01*
X019639Y010563D02*
X019505Y010428D01*
X019505Y010237D01*
X019639Y010103D01*
X019830Y010103D01*
X019965Y010237D01*
X019965Y010428D01*
X019830Y010563D01*
X019639Y010563D01*
X019508Y010431D02*
X017617Y010431D01*
X017682Y010353D02*
X018479Y010353D01*
X018539Y010413D02*
X018405Y010278D01*
X018405Y010087D01*
X018539Y009953D01*
X018730Y009953D01*
X018865Y010087D01*
X018865Y010278D01*
X018730Y010413D01*
X018539Y010413D01*
X018405Y010274D02*
X017715Y010274D01*
X017725Y010196D02*
X018405Y010196D01*
X018405Y010117D02*
X017725Y010117D01*
X017693Y010039D02*
X018453Y010039D01*
X018532Y009960D02*
X017643Y009960D01*
X017546Y009882D02*
X020223Y009882D01*
X020192Y009894D02*
X020317Y009843D01*
X020452Y009843D01*
X020577Y009894D01*
X020673Y009990D01*
X020725Y010115D01*
X020725Y010250D01*
X020673Y010375D01*
X020577Y010471D01*
X020452Y010523D01*
X020317Y010523D01*
X020192Y010471D01*
X020096Y010375D01*
X020045Y010250D01*
X020045Y010115D01*
X020096Y009990D01*
X020192Y009894D01*
X020126Y009960D02*
X018737Y009960D01*
X018816Y010039D02*
X020076Y010039D01*
X020045Y010117D02*
X019844Y010117D01*
X019923Y010196D02*
X020045Y010196D01*
X020054Y010274D02*
X019965Y010274D01*
X019965Y010353D02*
X020087Y010353D01*
X020152Y010431D02*
X019961Y010431D01*
X019883Y010510D02*
X020286Y010510D01*
X020484Y010510D02*
X021305Y010510D01*
X021305Y010431D02*
X020617Y010431D01*
X020682Y010353D02*
X021305Y010353D01*
X021368Y010274D02*
X020715Y010274D01*
X020725Y010196D02*
X022172Y010196D01*
X022094Y010117D02*
X020725Y010117D01*
X020693Y010039D02*
X022055Y010039D01*
X022055Y009960D02*
X020643Y009960D01*
X020546Y009882D02*
X022060Y009882D01*
X022139Y009803D02*
X012895Y009803D01*
X012885Y009803D02*
X009325Y009803D01*
X009325Y009725D02*
X012885Y009725D01*
X012895Y009725D02*
X013151Y009725D01*
X013073Y009646D02*
X012895Y009646D01*
X012885Y009646D02*
X009325Y009646D01*
X009325Y009568D02*
X012885Y009568D01*
X012895Y009568D02*
X013055Y009568D01*
X013055Y009489D02*
X012895Y009489D01*
X012885Y009489D02*
X009325Y009489D01*
X009325Y009411D02*
X012885Y009411D01*
X012895Y009411D02*
X013081Y009411D01*
X013160Y009332D02*
X012895Y009332D01*
X012885Y009332D02*
X009331Y009332D01*
X009325Y009882D02*
X009653Y009882D01*
X009671Y009863D02*
X009810Y009806D01*
X009959Y009806D01*
X010098Y009863D01*
X010204Y009969D01*
X010261Y010108D01*
X010261Y010258D01*
X010204Y010396D01*
X010098Y010502D01*
X009959Y010560D01*
X009810Y010560D01*
X009671Y010502D01*
X009565Y010396D01*
X009508Y010258D01*
X009508Y010108D01*
X009565Y009969D01*
X009671Y009863D01*
X009574Y009960D02*
X009325Y009960D01*
X009325Y010039D02*
X009536Y010039D01*
X009508Y010117D02*
X009325Y010117D01*
X009325Y010196D02*
X009508Y010196D01*
X009515Y010274D02*
X009325Y010274D01*
X009325Y010353D02*
X009547Y010353D01*
X009600Y010431D02*
X009325Y010431D01*
X009325Y010510D02*
X009689Y010510D01*
X009810Y010806D02*
X009959Y010806D01*
X010098Y010863D01*
X010204Y010969D01*
X010261Y011108D01*
X010261Y011258D01*
X010204Y011396D01*
X010098Y011502D01*
X009959Y011560D01*
X009810Y011560D01*
X009671Y011502D01*
X009565Y011396D01*
X009508Y011258D01*
X009508Y011108D01*
X009565Y010969D01*
X009671Y010863D01*
X009810Y010806D01*
X009766Y010824D02*
X009325Y010824D01*
X009325Y010902D02*
X009632Y010902D01*
X009560Y010981D02*
X009325Y010981D01*
X009325Y011059D02*
X009528Y011059D01*
X009508Y011138D02*
X009325Y011138D01*
X009325Y011216D02*
X009508Y011216D01*
X009523Y011295D02*
X009325Y011295D01*
X009325Y011373D02*
X009556Y011373D01*
X009621Y011452D02*
X009325Y011452D01*
X009325Y011530D02*
X009739Y011530D01*
X009810Y011806D02*
X009959Y011806D01*
X010098Y011863D01*
X010204Y011969D01*
X010261Y012108D01*
X010261Y012258D01*
X010204Y012396D01*
X010098Y012502D01*
X009959Y012560D01*
X009810Y012560D01*
X009671Y012502D01*
X009565Y012396D01*
X009508Y012258D01*
X009508Y012108D01*
X009565Y011969D01*
X009671Y011863D01*
X009810Y011806D01*
X009717Y011844D02*
X009325Y011844D01*
X009325Y011766D02*
X012455Y011766D01*
X012455Y011844D02*
X011052Y011844D01*
X011098Y011863D02*
X011204Y011969D01*
X011261Y012108D01*
X011261Y012258D01*
X011204Y012396D01*
X011098Y012502D01*
X010959Y012560D01*
X010810Y012560D01*
X010671Y012502D01*
X010565Y012396D01*
X010508Y012258D01*
X010508Y012108D01*
X010565Y011969D01*
X010671Y011863D01*
X010810Y011806D01*
X010959Y011806D01*
X011098Y011863D01*
X011157Y011923D02*
X012499Y011923D01*
X012578Y012001D02*
X011217Y012001D01*
X011250Y012080D02*
X012885Y012080D01*
X012885Y012158D02*
X011261Y012158D01*
X011261Y012237D02*
X012885Y012237D01*
X012885Y012315D02*
X011238Y012315D01*
X011205Y012394D02*
X012885Y012394D01*
X012885Y012472D02*
X011128Y012472D01*
X010981Y012551D02*
X012885Y012551D01*
X012885Y012629D02*
X012856Y012629D01*
X012849Y012943D02*
X012885Y012943D01*
X012885Y013022D02*
X011226Y013022D01*
X011204Y012969D02*
X011261Y013108D01*
X011261Y013258D01*
X011204Y013396D01*
X011098Y013502D01*
X010959Y013560D01*
X010810Y013560D01*
X010671Y013502D01*
X010565Y013396D01*
X010508Y013258D01*
X010508Y013108D01*
X010565Y012969D01*
X010671Y012863D01*
X010810Y012806D01*
X010959Y012806D01*
X011098Y012863D01*
X011204Y012969D01*
X011178Y012943D02*
X012520Y012943D01*
X012455Y012865D02*
X011099Y012865D01*
X011258Y013100D02*
X011692Y013100D01*
X011739Y013053D02*
X011605Y013187D01*
X011605Y013378D01*
X011739Y013513D01*
X011930Y013513D01*
X012065Y013378D01*
X012065Y013187D01*
X011930Y013053D01*
X011739Y013053D01*
X011613Y013179D02*
X011261Y013179D01*
X011261Y013257D02*
X011605Y013257D01*
X011605Y013336D02*
X011229Y013336D01*
X011186Y013414D02*
X011641Y013414D01*
X011719Y013493D02*
X011107Y013493D01*
X010962Y013807D02*
X013433Y013807D01*
X013489Y013863D02*
X013355Y013728D01*
X009325Y013728D01*
X009325Y013650D02*
X013355Y013650D01*
X013355Y013728D02*
X013355Y013537D01*
X013489Y013403D01*
X013680Y013403D01*
X013815Y013537D01*
X013815Y013728D01*
X013680Y013863D01*
X013489Y013863D01*
X013489Y014053D02*
X013680Y014053D01*
X013815Y014187D01*
X013815Y014378D01*
X013680Y014513D01*
X013489Y014513D01*
X013355Y014378D01*
X013355Y014187D01*
X013489Y014053D01*
X013421Y014121D02*
X011261Y014121D01*
X011261Y014108D02*
X011204Y013969D01*
X011098Y013863D01*
X010959Y013806D01*
X010810Y013806D01*
X010671Y013863D01*
X010565Y013969D01*
X010508Y014108D01*
X010508Y014258D01*
X010565Y014396D01*
X010671Y014502D01*
X010810Y014560D01*
X010959Y014560D01*
X011098Y014502D01*
X011204Y014396D01*
X011261Y014258D01*
X011261Y014108D01*
X011234Y014042D02*
X017075Y014042D01*
X017096Y013990D02*
X017192Y013894D01*
X017317Y013843D01*
X017452Y013843D01*
X017577Y013894D01*
X017673Y013990D01*
X017725Y014115D01*
X017725Y014250D01*
X017673Y014375D01*
X017577Y014471D01*
X017452Y014523D01*
X017317Y014523D01*
X017192Y014471D01*
X017096Y014375D01*
X017045Y014250D01*
X017045Y014115D01*
X017096Y013990D01*
X017123Y013964D02*
X011198Y013964D01*
X011120Y013885D02*
X017214Y013885D01*
X017045Y014121D02*
X013748Y014121D01*
X013815Y014199D02*
X017045Y014199D01*
X017056Y014278D02*
X013815Y014278D01*
X013815Y014356D02*
X017088Y014356D01*
X017156Y014435D02*
X013758Y014435D01*
X013411Y014435D02*
X011165Y014435D01*
X011221Y014356D02*
X013355Y014356D01*
X013355Y014278D02*
X011253Y014278D01*
X011261Y014199D02*
X013355Y014199D01*
X013736Y013807D02*
X021735Y013807D01*
X021789Y013753D02*
X021980Y013753D01*
X022115Y013887D01*
X022115Y014078D01*
X021980Y014213D01*
X021789Y014213D01*
X021655Y014078D01*
X021655Y013887D01*
X021789Y013753D01*
X021657Y013885D02*
X020555Y013885D01*
X020577Y013894D02*
X020673Y013990D01*
X020725Y014115D01*
X020725Y014250D01*
X020673Y014375D01*
X020577Y014471D01*
X020452Y014523D01*
X020317Y014523D01*
X020192Y014471D01*
X020096Y014375D01*
X020045Y014250D01*
X020045Y014115D01*
X020096Y013990D01*
X020192Y013894D01*
X020317Y013843D01*
X020452Y013843D01*
X020577Y013894D01*
X020646Y013964D02*
X021655Y013964D01*
X021655Y014042D02*
X020694Y014042D01*
X020725Y014121D02*
X021697Y014121D01*
X021776Y014199D02*
X020725Y014199D01*
X020713Y014278D02*
X022516Y014278D01*
X022508Y014258D02*
X022508Y014108D01*
X022565Y013969D01*
X022671Y013863D01*
X022810Y013806D01*
X022959Y013806D01*
X023098Y013863D01*
X023204Y013969D01*
X023261Y014108D01*
X023261Y014258D01*
X023204Y014396D01*
X023098Y014502D01*
X022959Y014560D01*
X022810Y014560D01*
X022671Y014502D01*
X022565Y014396D01*
X022508Y014258D01*
X022508Y014199D02*
X021993Y014199D01*
X022072Y014121D02*
X022508Y014121D01*
X022535Y014042D02*
X022115Y014042D01*
X022115Y013964D02*
X022571Y013964D01*
X022649Y013885D02*
X022112Y013885D01*
X022034Y013807D02*
X022807Y013807D01*
X022962Y013807D02*
X023807Y013807D01*
X023810Y013806D02*
X023671Y013863D01*
X023565Y013969D01*
X023508Y014108D01*
X023508Y014258D01*
X023565Y014396D01*
X023671Y014502D01*
X023810Y014560D01*
X023959Y014560D01*
X024098Y014502D01*
X024204Y014396D01*
X024261Y014258D01*
X024261Y014108D01*
X024204Y013969D01*
X024098Y013863D01*
X023959Y013806D01*
X023810Y013806D01*
X023962Y013807D02*
X026807Y013807D01*
X026810Y013806D02*
X026959Y013806D01*
X027098Y013863D01*
X027204Y013969D01*
X027261Y014108D01*
X027261Y014258D01*
X027204Y014396D01*
X027098Y014502D01*
X026959Y014560D01*
X026810Y014560D01*
X026671Y014502D01*
X026565Y014396D01*
X026508Y014258D01*
X026508Y014108D01*
X026565Y013969D01*
X026671Y013863D01*
X026810Y013806D01*
X026962Y013807D02*
X027807Y013807D01*
X027810Y013806D02*
X027959Y013806D01*
X028098Y013863D01*
X028204Y013969D01*
X028261Y014108D01*
X028261Y014258D01*
X028204Y014396D01*
X028098Y014502D01*
X027959Y014560D01*
X027810Y014560D01*
X027671Y014502D01*
X027565Y014396D01*
X027508Y014258D01*
X027508Y014108D01*
X027565Y013969D01*
X027671Y013863D01*
X027810Y013806D01*
X027962Y013807D02*
X029883Y013807D01*
X029855Y013778D02*
X029855Y013587D01*
X029989Y013453D01*
X030180Y013453D01*
X030315Y013587D01*
X030315Y013778D01*
X030180Y013913D01*
X029989Y013913D01*
X029855Y013778D01*
X029855Y013728D02*
X013814Y013728D01*
X013815Y013650D02*
X029855Y013650D01*
X029871Y013571D02*
X014571Y013571D01*
X014650Y013493D02*
X017245Y013493D01*
X017192Y013471D02*
X017096Y013375D01*
X017045Y013250D01*
X017045Y013115D01*
X017096Y012990D01*
X017192Y012894D01*
X017317Y012843D01*
X017452Y012843D01*
X017577Y012894D01*
X017673Y012990D01*
X017725Y013115D01*
X017725Y013250D01*
X017673Y013375D01*
X017577Y013471D01*
X017452Y013523D01*
X017317Y013523D01*
X017192Y013471D01*
X017135Y013414D02*
X014665Y013414D01*
X014665Y013336D02*
X017080Y013336D01*
X017047Y013257D02*
X015985Y013257D01*
X015985Y013179D02*
X017045Y013179D01*
X017051Y013100D02*
X015985Y013100D01*
X015985Y013022D02*
X017083Y013022D01*
X017143Y012943D02*
X015985Y012943D01*
X015985Y012865D02*
X017264Y012865D01*
X017505Y012865D02*
X017977Y012865D01*
X017989Y012853D02*
X018180Y012853D01*
X018315Y012987D01*
X018315Y013178D01*
X018180Y013313D01*
X017989Y013313D01*
X017855Y013178D01*
X017855Y012987D01*
X017989Y012853D01*
X017899Y012943D02*
X017626Y012943D01*
X017686Y013022D02*
X017855Y013022D01*
X017855Y013100D02*
X017718Y013100D01*
X017725Y013179D02*
X017855Y013179D01*
X017934Y013257D02*
X017722Y013257D01*
X017689Y013336D02*
X020080Y013336D01*
X020096Y013375D02*
X020045Y013250D01*
X020045Y013115D01*
X020096Y012990D01*
X020192Y012894D01*
X020317Y012843D01*
X020452Y012843D01*
X020577Y012894D01*
X020673Y012990D01*
X020725Y013115D01*
X020725Y013250D01*
X020673Y013375D01*
X020577Y013471D01*
X020452Y013523D01*
X020317Y013523D01*
X020192Y013471D01*
X020096Y013375D01*
X020135Y013414D02*
X017634Y013414D01*
X017525Y013493D02*
X020245Y013493D01*
X020525Y013493D02*
X022662Y013493D01*
X022671Y013502D02*
X022565Y013396D01*
X022508Y013258D01*
X022508Y013108D01*
X022565Y012969D01*
X022671Y012863D01*
X022810Y012806D01*
X022959Y012806D01*
X023098Y012863D01*
X023204Y012969D01*
X023261Y013108D01*
X023261Y013258D01*
X023204Y013396D01*
X023098Y013502D01*
X022959Y013560D01*
X022810Y013560D01*
X022671Y013502D01*
X022583Y013414D02*
X020634Y013414D01*
X020689Y013336D02*
X022540Y013336D01*
X022508Y013257D02*
X020722Y013257D01*
X020725Y013179D02*
X022508Y013179D01*
X022511Y013100D02*
X022042Y013100D01*
X021980Y013163D02*
X021789Y013163D01*
X021655Y013028D01*
X021655Y012837D01*
X021789Y012703D01*
X021980Y012703D01*
X022115Y012837D01*
X022115Y013028D01*
X021980Y013163D01*
X022115Y013022D02*
X022543Y013022D01*
X022591Y012943D02*
X022115Y012943D01*
X022115Y012865D02*
X022670Y012865D01*
X023099Y012865D02*
X023670Y012865D01*
X023671Y012863D02*
X023810Y012806D01*
X023959Y012806D01*
X024098Y012863D01*
X024204Y012969D01*
X024261Y013108D01*
X024261Y013258D01*
X024204Y013396D01*
X024098Y013502D01*
X023959Y013560D01*
X023810Y013560D01*
X023671Y013502D01*
X023565Y013396D01*
X023508Y013258D01*
X023508Y013108D01*
X023565Y012969D01*
X023671Y012863D01*
X023591Y012943D02*
X023178Y012943D01*
X023226Y013022D02*
X023543Y013022D01*
X023511Y013100D02*
X023258Y013100D01*
X023261Y013179D02*
X023508Y013179D01*
X023508Y013257D02*
X023261Y013257D01*
X023229Y013336D02*
X023540Y013336D01*
X023583Y013414D02*
X023186Y013414D01*
X023107Y013493D02*
X023662Y013493D01*
X024107Y013493D02*
X026662Y013493D01*
X026671Y013502D02*
X026565Y013396D01*
X026508Y013258D01*
X026508Y013108D01*
X026565Y012969D01*
X026671Y012863D01*
X026810Y012806D01*
X026959Y012806D01*
X027098Y012863D01*
X027204Y012969D01*
X027261Y013108D01*
X027261Y013258D01*
X027204Y013396D01*
X027098Y013502D01*
X026959Y013560D01*
X026810Y013560D01*
X026671Y013502D01*
X026583Y013414D02*
X024186Y013414D01*
X024229Y013336D02*
X025712Y013336D01*
X025655Y013278D02*
X025655Y013087D01*
X025789Y012953D01*
X025980Y012953D01*
X026115Y013087D01*
X026115Y013278D01*
X025980Y013413D01*
X025789Y013413D01*
X025655Y013278D01*
X025655Y013257D02*
X024261Y013257D01*
X024261Y013179D02*
X025655Y013179D01*
X025655Y013100D02*
X024258Y013100D01*
X024226Y013022D02*
X025720Y013022D01*
X026049Y013022D02*
X026543Y013022D01*
X026511Y013100D02*
X026115Y013100D01*
X026115Y013179D02*
X026508Y013179D01*
X026508Y013257D02*
X026115Y013257D01*
X026057Y013336D02*
X026540Y013336D01*
X027107Y013493D02*
X027662Y013493D01*
X027671Y013502D02*
X027565Y013396D01*
X027508Y013258D01*
X027508Y013108D01*
X027565Y012969D01*
X027671Y012863D01*
X027810Y012806D01*
X027959Y012806D01*
X028098Y012863D01*
X028204Y012969D01*
X028261Y013108D01*
X028261Y013258D01*
X028204Y013396D01*
X028098Y013502D01*
X027959Y013560D01*
X027810Y013560D01*
X027671Y013502D01*
X027583Y013414D02*
X027186Y013414D01*
X027229Y013336D02*
X027540Y013336D01*
X027508Y013257D02*
X027261Y013257D01*
X027261Y013179D02*
X027508Y013179D01*
X027511Y013100D02*
X027258Y013100D01*
X027226Y013022D02*
X027543Y013022D01*
X027591Y012943D02*
X027178Y012943D01*
X027099Y012865D02*
X027670Y012865D01*
X028099Y012865D02*
X034615Y012865D01*
X034615Y012786D02*
X029236Y012786D01*
X029230Y012793D02*
X029039Y012793D01*
X028905Y012658D01*
X028905Y012467D01*
X029039Y012333D01*
X029230Y012333D01*
X029365Y012467D01*
X029365Y012658D01*
X029230Y012793D01*
X029315Y012708D02*
X034615Y012708D01*
X034615Y012629D02*
X029365Y012629D01*
X029365Y012551D02*
X034615Y012551D01*
X034615Y012472D02*
X029365Y012472D01*
X029291Y012394D02*
X031670Y012394D01*
X031689Y012413D02*
X031570Y012293D01*
X031543Y012320D01*
X031440Y012363D01*
X031329Y012363D01*
X031226Y012320D01*
X031147Y012241D01*
X031105Y012138D01*
X031105Y012027D01*
X031147Y011924D01*
X031226Y011845D01*
X031329Y011803D01*
X031440Y011803D01*
X031543Y011845D01*
X031622Y011924D01*
X031650Y011992D01*
X031689Y011953D01*
X031880Y011953D01*
X031935Y012007D01*
X031989Y011953D01*
X032180Y011953D01*
X032315Y012087D01*
X032315Y012278D01*
X032180Y012413D01*
X031989Y012413D01*
X031935Y012358D01*
X031880Y012413D01*
X031689Y012413D01*
X031592Y012315D02*
X031548Y012315D01*
X031221Y012315D02*
X030898Y012315D01*
X030893Y012320D02*
X030790Y012363D01*
X030679Y012363D01*
X030576Y012320D01*
X030497Y012241D01*
X030455Y012138D01*
X030455Y012027D01*
X030497Y011924D01*
X030576Y011845D01*
X030679Y011803D01*
X030790Y011803D01*
X030893Y011845D01*
X030972Y011924D01*
X031015Y012027D01*
X031015Y012138D01*
X030972Y012241D01*
X030893Y012320D01*
X030974Y012237D02*
X031145Y012237D01*
X031113Y012158D02*
X031006Y012158D01*
X031015Y012080D02*
X031105Y012080D01*
X031115Y012001D02*
X031004Y012001D01*
X030971Y011923D02*
X031149Y011923D01*
X031229Y011844D02*
X030890Y011844D01*
X030579Y011844D02*
X028052Y011844D01*
X028098Y011863D02*
X028204Y011969D01*
X028261Y012108D01*
X028261Y012258D01*
X028204Y012396D01*
X028098Y012502D01*
X027959Y012560D01*
X027810Y012560D01*
X027671Y012502D01*
X027565Y012396D01*
X027508Y012258D01*
X027508Y012108D01*
X027565Y011969D01*
X027671Y011863D01*
X027810Y011806D01*
X027959Y011806D01*
X028098Y011863D01*
X028157Y011923D02*
X030499Y011923D01*
X030465Y012001D02*
X028217Y012001D01*
X028250Y012080D02*
X030455Y012080D01*
X030463Y012158D02*
X028261Y012158D01*
X028261Y012237D02*
X030495Y012237D01*
X030571Y012315D02*
X028238Y012315D01*
X028205Y012394D02*
X028978Y012394D01*
X028905Y012472D02*
X028128Y012472D01*
X027981Y012551D02*
X028905Y012551D01*
X028905Y012629D02*
X015985Y012629D01*
X015985Y012551D02*
X026788Y012551D01*
X026810Y012560D02*
X026671Y012502D01*
X026565Y012396D01*
X026508Y012258D01*
X026508Y012108D01*
X026565Y011969D01*
X026671Y011863D01*
X026810Y011806D01*
X026959Y011806D01*
X027098Y011863D01*
X027204Y011969D01*
X027261Y012108D01*
X027261Y012258D01*
X027204Y012396D01*
X027098Y012502D01*
X026959Y012560D01*
X026810Y012560D01*
X026981Y012551D02*
X027788Y012551D01*
X027641Y012472D02*
X027128Y012472D01*
X027205Y012394D02*
X027564Y012394D01*
X027532Y012315D02*
X027238Y012315D01*
X027261Y012237D02*
X027508Y012237D01*
X027508Y012158D02*
X027261Y012158D01*
X027250Y012080D02*
X027519Y012080D01*
X027552Y012001D02*
X027217Y012001D01*
X027157Y011923D02*
X027612Y011923D01*
X027717Y011844D02*
X027052Y011844D01*
X026959Y011560D02*
X026810Y011560D01*
X026671Y011502D01*
X026565Y011396D01*
X026508Y011258D01*
X026508Y011108D01*
X026565Y010969D01*
X026671Y010863D01*
X026810Y010806D01*
X026959Y010806D01*
X027098Y010863D01*
X027204Y010969D01*
X027261Y011108D01*
X027261Y011258D01*
X027204Y011396D01*
X027098Y011502D01*
X026959Y011560D01*
X027030Y011530D02*
X027739Y011530D01*
X027671Y011502D02*
X027565Y011396D01*
X027508Y011258D01*
X027508Y011108D01*
X027565Y010969D01*
X027671Y010863D01*
X027810Y010806D01*
X027959Y010806D01*
X028098Y010863D01*
X028204Y010969D01*
X028261Y011108D01*
X028261Y011258D01*
X028204Y011396D01*
X028098Y011502D01*
X027959Y011560D01*
X027810Y011560D01*
X027671Y011502D01*
X027621Y011452D02*
X027148Y011452D01*
X027214Y011373D02*
X027556Y011373D01*
X027523Y011295D02*
X027246Y011295D01*
X027261Y011216D02*
X027508Y011216D01*
X027508Y011138D02*
X027261Y011138D01*
X027241Y011059D02*
X027528Y011059D01*
X027560Y010981D02*
X027209Y010981D01*
X027137Y010902D02*
X027632Y010902D01*
X027766Y010824D02*
X027003Y010824D01*
X026766Y010824D02*
X025919Y010824D01*
X025965Y010745D02*
X031989Y010745D01*
X032021Y010713D02*
X032160Y010656D01*
X032309Y010656D01*
X032448Y010713D01*
X032554Y010819D01*
X032611Y010958D01*
X032611Y011108D01*
X032554Y011246D01*
X032448Y011352D01*
X032309Y011410D01*
X032160Y011410D01*
X032021Y011352D01*
X031915Y011246D01*
X031858Y011108D01*
X031858Y010958D01*
X031915Y010819D01*
X032021Y010713D01*
X032133Y010667D02*
X025965Y010667D01*
X025965Y010588D02*
X028415Y010588D01*
X028355Y010528D02*
X028355Y010337D01*
X028489Y010203D01*
X028680Y010203D01*
X028815Y010337D01*
X028815Y010528D01*
X028680Y010663D01*
X028489Y010663D01*
X028355Y010528D01*
X028355Y010510D02*
X028080Y010510D01*
X028098Y010502D02*
X027959Y010560D01*
X027810Y010560D01*
X027671Y010502D01*
X027565Y010396D01*
X027508Y010258D01*
X027508Y010108D01*
X027565Y009969D01*
X027671Y009863D01*
X027810Y009806D01*
X027959Y009806D01*
X028098Y009863D01*
X028204Y009969D01*
X028261Y010108D01*
X028261Y010258D01*
X028204Y010396D01*
X028098Y010502D01*
X028169Y010431D02*
X028355Y010431D01*
X028355Y010353D02*
X028222Y010353D01*
X028255Y010274D02*
X028418Y010274D01*
X028261Y010196D02*
X030122Y010196D01*
X030055Y010117D02*
X028261Y010117D01*
X028233Y010039D02*
X030055Y010039D01*
X030055Y009960D02*
X028195Y009960D01*
X028116Y009882D02*
X030110Y009882D01*
X030189Y009803D02*
X030380Y009803D01*
X030459Y009882D02*
X030610Y009882D01*
X030555Y009960D02*
X030515Y009960D01*
X030515Y010039D02*
X030555Y010039D01*
X030555Y010117D02*
X030515Y010117D01*
X030447Y010196D02*
X030622Y010196D01*
X030947Y010196D02*
X031894Y010196D01*
X031862Y010117D02*
X031015Y010117D01*
X031015Y010039D02*
X031858Y010039D01*
X031858Y009960D02*
X031015Y009960D01*
X030959Y009882D02*
X031889Y009882D01*
X032459Y009725D02*
X033010Y009725D01*
X033021Y009713D02*
X033160Y009656D01*
X033309Y009656D01*
X033448Y009713D01*
X033554Y009819D01*
X033611Y009958D01*
X033611Y010108D01*
X033554Y010246D01*
X033448Y010352D01*
X033309Y010410D01*
X033160Y010410D01*
X033021Y010352D01*
X032915Y010246D01*
X032858Y010108D01*
X032858Y009958D01*
X032915Y009819D01*
X033021Y009713D01*
X032931Y009803D02*
X032538Y009803D01*
X032580Y009882D02*
X032889Y009882D01*
X032858Y009960D02*
X032611Y009960D01*
X032611Y010039D02*
X032858Y010039D01*
X032862Y010117D02*
X032607Y010117D01*
X032575Y010196D02*
X032894Y010196D01*
X032943Y010274D02*
X032526Y010274D01*
X032447Y010353D02*
X033022Y010353D01*
X033447Y010353D02*
X033999Y010353D01*
X033919Y010274D02*
X033526Y010274D01*
X033575Y010196D02*
X033872Y010196D01*
X033847Y010117D02*
X033607Y010117D01*
X033611Y010039D02*
X034195Y010039D01*
X034195Y010117D02*
X034275Y010117D01*
X034275Y010196D02*
X034195Y010196D01*
X034195Y010274D02*
X034275Y010274D01*
X034275Y010353D02*
X034195Y010353D01*
X034470Y010353D02*
X034615Y010353D01*
X034615Y010431D02*
X029465Y010431D01*
X029465Y010353D02*
X032022Y010353D01*
X031943Y010274D02*
X029401Y010274D01*
X029465Y010337D02*
X029330Y010203D01*
X029139Y010203D01*
X029005Y010337D01*
X029005Y010528D01*
X029139Y010663D01*
X029330Y010663D01*
X029465Y010528D01*
X029465Y010337D01*
X029465Y010510D02*
X034615Y010510D01*
X034615Y010588D02*
X029404Y010588D01*
X029065Y010588D02*
X028754Y010588D01*
X028815Y010510D02*
X029005Y010510D01*
X029005Y010431D02*
X028815Y010431D01*
X028815Y010353D02*
X029005Y010353D01*
X029068Y010274D02*
X028751Y010274D01*
X028003Y010824D02*
X031913Y010824D01*
X031881Y010902D02*
X028137Y010902D01*
X028209Y010981D02*
X031858Y010981D01*
X031858Y011059D02*
X028241Y011059D01*
X028261Y011138D02*
X031870Y011138D01*
X031903Y011216D02*
X028261Y011216D01*
X028246Y011295D02*
X031964Y011295D01*
X032072Y011373D02*
X028214Y011373D01*
X028148Y011452D02*
X034615Y011452D01*
X034615Y011530D02*
X034004Y011530D01*
X033977Y011503D02*
X034111Y011637D01*
X034111Y011828D01*
X033977Y011963D01*
X033786Y011963D01*
X033651Y011828D01*
X033651Y011637D01*
X033786Y011503D01*
X033977Y011503D01*
X034083Y011609D02*
X034615Y011609D01*
X034615Y011687D02*
X034111Y011687D01*
X034111Y011766D02*
X034615Y011766D01*
X034615Y011844D02*
X034095Y011844D01*
X034017Y011923D02*
X034615Y011923D01*
X034615Y012001D02*
X032904Y012001D01*
X032915Y012027D02*
X032872Y011924D01*
X032793Y011845D01*
X032690Y011803D01*
X032579Y011803D01*
X032476Y011845D01*
X032397Y011924D01*
X032355Y012027D01*
X032355Y012138D01*
X032397Y012241D01*
X032476Y012320D01*
X032579Y012363D01*
X032690Y012363D01*
X032793Y012320D01*
X032872Y012241D01*
X032915Y012138D01*
X032915Y012027D01*
X032915Y012080D02*
X034615Y012080D01*
X034615Y012158D02*
X032906Y012158D01*
X032874Y012237D02*
X034615Y012237D01*
X034615Y012315D02*
X032798Y012315D01*
X032471Y012315D02*
X032277Y012315D01*
X032315Y012237D02*
X032395Y012237D01*
X032363Y012158D02*
X032315Y012158D01*
X032307Y012080D02*
X032355Y012080D01*
X032365Y012001D02*
X032228Y012001D01*
X032399Y011923D02*
X031621Y011923D01*
X031540Y011844D02*
X032479Y011844D01*
X032790Y011844D02*
X033668Y011844D01*
X033651Y011766D02*
X016465Y011766D01*
X016465Y011778D02*
X016330Y011913D01*
X016139Y011913D01*
X016005Y011778D01*
X016005Y011587D01*
X016139Y011453D01*
X016330Y011453D01*
X016465Y011587D01*
X016465Y011778D01*
X016465Y011687D02*
X033651Y011687D01*
X033680Y011609D02*
X016465Y011609D01*
X016407Y011530D02*
X026739Y011530D01*
X026621Y011452D02*
X020596Y011452D01*
X020577Y011471D02*
X020452Y011523D01*
X020317Y011523D01*
X020192Y011471D01*
X020096Y011375D01*
X020045Y011250D01*
X020045Y011115D01*
X020096Y010990D01*
X020192Y010894D01*
X020317Y010843D01*
X020452Y010843D01*
X020577Y010894D01*
X020673Y010990D01*
X020725Y011115D01*
X020725Y011250D01*
X020673Y011375D01*
X020577Y011471D01*
X020674Y011373D02*
X026556Y011373D01*
X026523Y011295D02*
X022098Y011295D01*
X022165Y011228D02*
X022030Y011363D01*
X021839Y011363D01*
X021705Y011228D01*
X021705Y011037D01*
X021839Y010903D01*
X022030Y010903D01*
X022165Y011037D01*
X022165Y011228D01*
X022165Y011216D02*
X026508Y011216D01*
X026508Y011138D02*
X023055Y011138D01*
X023115Y011078D02*
X022980Y011213D01*
X022789Y011213D01*
X022655Y011078D01*
X022655Y010887D01*
X022789Y010753D01*
X022980Y010753D01*
X023115Y010887D01*
X023115Y011078D01*
X023115Y011059D02*
X026528Y011059D01*
X026560Y010981D02*
X023115Y010981D01*
X023115Y010902D02*
X025629Y010902D01*
X025550Y010824D02*
X023051Y010824D01*
X022718Y010824D02*
X018851Y010824D01*
X018865Y010837D02*
X018730Y010703D01*
X018539Y010703D01*
X018405Y010837D01*
X018405Y011028D01*
X018539Y011163D01*
X018730Y011163D01*
X018865Y011028D01*
X018865Y010837D01*
X018865Y010902D02*
X020184Y010902D01*
X020106Y010981D02*
X018865Y010981D01*
X018833Y011059D02*
X020068Y011059D01*
X020045Y011138D02*
X018755Y011138D01*
X018514Y011138D02*
X017725Y011138D01*
X017725Y011115D02*
X017673Y010990D01*
X017577Y010894D01*
X017452Y010843D01*
X017317Y010843D01*
X017192Y010894D01*
X017096Y010990D01*
X017045Y011115D01*
X017045Y011250D01*
X017096Y011375D01*
X017192Y011471D01*
X017317Y011523D01*
X017452Y011523D01*
X017577Y011471D01*
X017673Y011375D01*
X017725Y011250D01*
X017725Y011115D01*
X017701Y011059D02*
X018436Y011059D01*
X018405Y010981D02*
X017663Y010981D01*
X017585Y010902D02*
X018405Y010902D01*
X018418Y010824D02*
X015985Y010824D01*
X015985Y010902D02*
X017184Y010902D01*
X017106Y010981D02*
X015985Y010981D01*
X015985Y011059D02*
X017068Y011059D01*
X017045Y011138D02*
X015985Y011138D01*
X015985Y011216D02*
X017045Y011216D01*
X017063Y011295D02*
X015985Y011295D01*
X015985Y011373D02*
X017095Y011373D01*
X017173Y011452D02*
X015985Y011452D01*
X015985Y011530D02*
X016062Y011530D01*
X016005Y011609D02*
X015985Y011609D01*
X015985Y011687D02*
X016005Y011687D01*
X016005Y011766D02*
X015985Y011766D01*
X015985Y011844D02*
X016071Y011844D01*
X015985Y011923D02*
X017164Y011923D01*
X017192Y011894D02*
X017317Y011843D01*
X017452Y011843D01*
X017577Y011894D01*
X017673Y011990D01*
X017725Y012115D01*
X017725Y012250D01*
X017673Y012375D01*
X017577Y012471D01*
X017452Y012523D01*
X017317Y012523D01*
X017192Y012471D01*
X017096Y012375D01*
X017045Y012250D01*
X017045Y012115D01*
X017096Y011990D01*
X017192Y011894D01*
X017313Y011844D02*
X016398Y011844D01*
X015985Y012001D02*
X017092Y012001D01*
X017059Y012080D02*
X015985Y012080D01*
X015985Y012158D02*
X017045Y012158D01*
X017045Y012237D02*
X015985Y012237D01*
X015985Y012315D02*
X017071Y012315D01*
X017115Y012394D02*
X015985Y012394D01*
X015985Y012472D02*
X017195Y012472D01*
X017574Y012472D02*
X020195Y012472D01*
X020192Y012471D02*
X020096Y012375D01*
X020045Y012250D01*
X020045Y012115D01*
X020096Y011990D01*
X020192Y011894D01*
X020317Y011843D01*
X020452Y011843D01*
X020577Y011894D01*
X020673Y011990D01*
X020725Y012115D01*
X020725Y012250D01*
X020673Y012375D01*
X020577Y012471D01*
X020452Y012523D01*
X020317Y012523D01*
X020192Y012471D01*
X020115Y012394D02*
X017654Y012394D01*
X017698Y012315D02*
X020071Y012315D01*
X020045Y012237D02*
X017725Y012237D01*
X017725Y012158D02*
X020045Y012158D01*
X020059Y012080D02*
X017710Y012080D01*
X017677Y012001D02*
X020092Y012001D01*
X020164Y011923D02*
X017605Y011923D01*
X017456Y011844D02*
X020313Y011844D01*
X020456Y011844D02*
X026717Y011844D01*
X026612Y011923D02*
X020605Y011923D01*
X020677Y012001D02*
X025741Y012001D01*
X025789Y011953D02*
X025980Y011953D01*
X026115Y012087D01*
X026115Y012278D01*
X025980Y012413D01*
X025789Y012413D01*
X025655Y012278D01*
X025655Y012087D01*
X025789Y011953D01*
X025662Y012080D02*
X020710Y012080D01*
X020725Y012158D02*
X025655Y012158D01*
X025655Y012237D02*
X020725Y012237D01*
X020698Y012315D02*
X025692Y012315D01*
X025770Y012394D02*
X020654Y012394D01*
X020574Y012472D02*
X026641Y012472D01*
X026564Y012394D02*
X025999Y012394D01*
X026077Y012315D02*
X026532Y012315D01*
X026508Y012237D02*
X026115Y012237D01*
X026115Y012158D02*
X026508Y012158D01*
X026519Y012080D02*
X026107Y012080D01*
X026028Y012001D02*
X026552Y012001D01*
X026670Y012865D02*
X024099Y012865D01*
X024178Y012943D02*
X026591Y012943D01*
X028178Y012943D02*
X033798Y012943D01*
X033719Y013022D02*
X033599Y013022D01*
X033785Y013183D02*
X033785Y015283D01*
X031815Y017253D01*
X031815Y017278D01*
X031680Y017413D01*
X031655Y017413D01*
X030135Y018933D01*
X028167Y018933D01*
X028204Y018969D01*
X028261Y019108D01*
X028261Y019258D01*
X028204Y019396D01*
X028098Y019502D01*
X027959Y019560D01*
X027810Y019560D01*
X027671Y019502D01*
X027565Y019396D01*
X027508Y019258D01*
X027508Y019108D01*
X027565Y018969D01*
X027602Y018933D01*
X027167Y018933D01*
X027204Y018969D01*
X027261Y019108D01*
X027261Y019258D01*
X027204Y019396D01*
X027098Y019502D01*
X026959Y019560D01*
X026810Y019560D01*
X026671Y019502D01*
X026565Y019396D01*
X026508Y019258D01*
X026508Y019108D01*
X026565Y018969D01*
X026602Y018933D01*
X020615Y018933D01*
X020673Y018990D01*
X020725Y019115D01*
X020725Y019250D01*
X020673Y019375D01*
X020577Y019471D01*
X020452Y019523D01*
X020317Y019523D01*
X020192Y019471D01*
X020096Y019375D01*
X020045Y019250D01*
X020045Y019115D01*
X020096Y018990D01*
X020154Y018933D01*
X017630Y018933D01*
X017630Y018947D01*
X017673Y018990D01*
X017725Y019115D01*
X017725Y019250D01*
X017673Y019375D01*
X017577Y019471D01*
X017452Y019523D01*
X017317Y019523D01*
X017192Y019471D01*
X017096Y019375D01*
X017045Y019250D01*
X017045Y019115D01*
X017096Y018990D01*
X017140Y018947D01*
X017140Y018933D01*
X016518Y018933D01*
X016539Y018953D01*
X016578Y019012D01*
X016605Y019078D01*
X016618Y019143D01*
X016299Y019143D01*
X016299Y019223D01*
X016219Y019223D01*
X016219Y019542D01*
X016154Y019529D01*
X016089Y019502D01*
X016055Y019479D01*
X016055Y020143D01*
X034465Y020143D01*
X034498Y020139D01*
X034530Y020128D01*
X034558Y020110D01*
X034582Y020086D01*
X034600Y020058D01*
X034611Y020026D01*
X034615Y019993D01*
X034615Y017436D01*
X034437Y017436D01*
X034303Y017302D01*
X034303Y017111D01*
X034437Y016976D01*
X034615Y016976D01*
X034615Y016413D01*
X034439Y016413D01*
X034305Y016278D01*
X034305Y016087D01*
X034439Y015953D01*
X034615Y015953D01*
X034615Y013413D01*
X034439Y013413D01*
X034305Y013278D01*
X034305Y013087D01*
X034309Y013083D01*
X033885Y013083D01*
X033785Y013183D01*
X033789Y013179D02*
X034305Y013179D01*
X034305Y013257D02*
X033785Y013257D01*
X033785Y013336D02*
X034362Y013336D01*
X034305Y013100D02*
X033867Y013100D01*
X033785Y013414D02*
X034615Y013414D01*
X034615Y013493D02*
X033785Y013493D01*
X033785Y013571D02*
X034615Y013571D01*
X034615Y013650D02*
X033785Y013650D01*
X033785Y013728D02*
X034615Y013728D01*
X034615Y013807D02*
X033785Y013807D01*
X033785Y013885D02*
X034615Y013885D01*
X034615Y013964D02*
X033785Y013964D01*
X033785Y014042D02*
X034615Y014042D01*
X034615Y014121D02*
X033785Y014121D01*
X033785Y014199D02*
X034615Y014199D01*
X034615Y014278D02*
X033785Y014278D01*
X033785Y014356D02*
X034615Y014356D01*
X034615Y014435D02*
X033785Y014435D01*
X033785Y014513D02*
X034615Y014513D01*
X034615Y014592D02*
X033785Y014592D01*
X033785Y014670D02*
X034615Y014670D01*
X034615Y014749D02*
X033785Y014749D01*
X033785Y014827D02*
X034615Y014827D01*
X034615Y014906D02*
X033785Y014906D01*
X033785Y014984D02*
X034615Y014984D01*
X034615Y015063D02*
X033785Y015063D01*
X033785Y015141D02*
X034615Y015141D01*
X034615Y015220D02*
X033785Y015220D01*
X033769Y015298D02*
X034615Y015298D01*
X034615Y015377D02*
X033690Y015377D01*
X033612Y015455D02*
X034615Y015455D01*
X034615Y015534D02*
X033533Y015534D01*
X033455Y015612D02*
X034615Y015612D01*
X034615Y015691D02*
X033376Y015691D01*
X033298Y015769D02*
X034615Y015769D01*
X034615Y015848D02*
X033219Y015848D01*
X033141Y015926D02*
X034615Y015926D01*
X034387Y016005D02*
X033892Y016005D01*
X033840Y015953D02*
X033975Y016087D01*
X033975Y016278D01*
X033840Y016413D01*
X033650Y016413D01*
X033515Y016278D01*
X033515Y016087D01*
X033650Y015953D01*
X033840Y015953D01*
X033971Y016083D02*
X034309Y016083D01*
X034305Y016162D02*
X033975Y016162D01*
X033975Y016240D02*
X034305Y016240D01*
X034345Y016319D02*
X033934Y016319D01*
X033856Y016397D02*
X034424Y016397D01*
X034615Y016476D02*
X032591Y016476D01*
X032513Y016554D02*
X034615Y016554D01*
X034615Y016633D02*
X032434Y016633D01*
X032356Y016711D02*
X034615Y016711D01*
X034615Y016790D02*
X032277Y016790D01*
X032199Y016868D02*
X034615Y016868D01*
X034615Y016947D02*
X032120Y016947D01*
X032042Y017025D02*
X033267Y017025D01*
X033205Y017087D02*
X033339Y016953D01*
X033530Y016953D01*
X033585Y017007D01*
X033639Y016953D01*
X033830Y016953D01*
X033965Y017087D01*
X033965Y017278D01*
X033830Y017413D01*
X033639Y017413D01*
X033585Y017358D01*
X033530Y017413D01*
X033339Y017413D01*
X033205Y017278D01*
X033205Y017087D01*
X033205Y017104D02*
X031963Y017104D01*
X031885Y017182D02*
X033205Y017182D01*
X033205Y017261D02*
X031815Y017261D01*
X031839Y017303D02*
X032030Y017303D01*
X032165Y017437D01*
X032165Y017628D01*
X032030Y017763D01*
X031839Y017763D01*
X031705Y017628D01*
X031705Y017437D01*
X031839Y017303D01*
X031803Y017339D02*
X031753Y017339D01*
X031724Y017418D02*
X031649Y017418D01*
X031705Y017496D02*
X031571Y017496D01*
X031492Y017575D02*
X031705Y017575D01*
X031730Y017653D02*
X031414Y017653D01*
X031335Y017732D02*
X031808Y017732D01*
X032061Y017732D02*
X034615Y017732D01*
X034615Y017810D02*
X031257Y017810D01*
X031178Y017889D02*
X034615Y017889D01*
X034615Y017967D02*
X031100Y017967D01*
X031021Y018046D02*
X034615Y018046D01*
X034615Y018124D02*
X030943Y018124D01*
X030864Y018203D02*
X032389Y018203D01*
X032580Y018203D01*
X032689Y018203D01*
X032880Y018203D01*
X033339Y018203D01*
X033530Y018203D01*
X034615Y018203D01*
X034615Y018281D02*
X033608Y018281D01*
X033665Y018337D02*
X033530Y018203D01*
X033665Y018337D02*
X033665Y018528D01*
X033530Y018663D01*
X033339Y018663D01*
X033205Y018528D01*
X033205Y018337D01*
X033339Y018203D01*
X033261Y018281D02*
X032958Y018281D01*
X033015Y018337D02*
X032880Y018203D01*
X033015Y018337D02*
X033015Y018528D01*
X032880Y018663D01*
X032689Y018663D01*
X032635Y018608D01*
X032580Y018663D01*
X032389Y018663D01*
X032255Y018528D01*
X032255Y018337D01*
X032389Y018203D01*
X032311Y018281D02*
X030786Y018281D01*
X030707Y018360D02*
X031082Y018360D01*
X031089Y018353D02*
X031280Y018353D01*
X031415Y018487D01*
X031415Y018678D01*
X031280Y018813D01*
X031089Y018813D01*
X030955Y018678D01*
X030955Y018487D01*
X031089Y018353D01*
X031004Y018438D02*
X030629Y018438D01*
X030550Y018517D02*
X030955Y018517D01*
X030955Y018595D02*
X030472Y018595D01*
X030393Y018674D02*
X030955Y018674D01*
X031029Y018752D02*
X030315Y018752D01*
X030236Y018831D02*
X034615Y018831D01*
X034615Y018909D02*
X034271Y018909D01*
X034269Y018907D02*
X034360Y018999D01*
X034410Y019118D01*
X034410Y019247D01*
X034360Y019367D01*
X034294Y019433D01*
X034360Y019499D01*
X034410Y019618D01*
X034410Y019747D01*
X034360Y019867D01*
X034269Y019958D01*
X034149Y020008D01*
X034020Y020008D01*
X033900Y019958D01*
X033835Y019892D01*
X033769Y019958D01*
X033649Y020008D01*
X033520Y020008D01*
X033400Y019958D01*
X033335Y019892D01*
X033269Y019958D01*
X033149Y020008D01*
X033020Y020008D01*
X032900Y019958D01*
X032835Y019892D01*
X032769Y019958D01*
X032649Y020008D01*
X032520Y020008D01*
X032400Y019958D01*
X032335Y019892D01*
X032269Y019958D01*
X032149Y020008D01*
X032020Y020008D01*
X031900Y019958D01*
X031809Y019867D01*
X031760Y019747D01*
X031760Y019618D01*
X031809Y019499D01*
X031875Y019433D01*
X031809Y019367D01*
X031760Y019247D01*
X031760Y019118D01*
X031809Y018999D01*
X031900Y018907D01*
X032020Y018858D01*
X032149Y018858D01*
X032269Y018907D01*
X032335Y018973D01*
X032400Y018907D01*
X032520Y018858D01*
X032649Y018858D01*
X032769Y018907D01*
X032835Y018973D01*
X032900Y018907D01*
X033020Y018858D01*
X033149Y018858D01*
X033269Y018907D01*
X033335Y018973D01*
X033400Y018907D01*
X033520Y018858D01*
X033649Y018858D01*
X033769Y018907D01*
X033835Y018973D01*
X033900Y018907D01*
X034020Y018858D01*
X034149Y018858D01*
X034269Y018907D01*
X034349Y018988D02*
X034615Y018988D01*
X034615Y019066D02*
X034388Y019066D01*
X034410Y019145D02*
X034615Y019145D01*
X034615Y019223D02*
X034410Y019223D01*
X034387Y019302D02*
X034615Y019302D01*
X034615Y019380D02*
X034347Y019380D01*
X034320Y019459D02*
X034615Y019459D01*
X034615Y019537D02*
X034376Y019537D01*
X034409Y019616D02*
X034615Y019616D01*
X034615Y019694D02*
X034410Y019694D01*
X034399Y019773D02*
X034615Y019773D01*
X034615Y019851D02*
X034366Y019851D01*
X034297Y019930D02*
X034615Y019930D01*
X034613Y020008D02*
X016055Y020008D01*
X016055Y019930D02*
X016756Y019930D01*
X016789Y019963D02*
X016655Y019828D01*
X016655Y019637D01*
X016789Y019503D01*
X016980Y019503D01*
X017115Y019637D01*
X017115Y019828D01*
X016980Y019963D01*
X016789Y019963D01*
X016678Y019851D02*
X016055Y019851D01*
X016055Y019773D02*
X016655Y019773D01*
X016655Y019694D02*
X016055Y019694D01*
X016055Y019616D02*
X016676Y019616D01*
X016755Y019537D02*
X016322Y019537D01*
X016299Y019537D02*
X016219Y019537D01*
X016196Y019537D02*
X016055Y019537D01*
X015895Y019537D02*
X015535Y019537D01*
X015512Y019537D02*
X015432Y019537D01*
X015432Y019542D02*
X015367Y019529D01*
X015301Y019502D01*
X015242Y019462D01*
X015192Y019412D01*
X015153Y019353D01*
X015126Y019288D01*
X015113Y019223D01*
X015045Y019223D01*
X015113Y019223D02*
X015432Y019223D01*
X015512Y019223D01*
X015432Y019223D01*
X015432Y019542D01*
X015409Y019537D02*
X015045Y019537D01*
X015045Y019459D02*
X015239Y019459D01*
X015171Y019380D02*
X015045Y019380D01*
X015045Y019302D02*
X015132Y019302D01*
X015113Y019143D02*
X015126Y019078D01*
X015153Y019012D01*
X015192Y018953D01*
X015242Y018903D01*
X015301Y018864D01*
X015367Y018837D01*
X015432Y018824D01*
X015432Y019143D01*
X015113Y019143D01*
X015045Y019145D02*
X015432Y019145D01*
X015432Y019143D02*
X015432Y019223D01*
X015432Y019302D02*
X015512Y019302D01*
X015512Y019380D02*
X015432Y019380D01*
X015432Y019459D02*
X015512Y019459D01*
X015512Y019542D02*
X015512Y019223D01*
X015831Y019223D01*
X015895Y019223D01*
X015831Y019223D02*
X015818Y019288D01*
X015791Y019353D01*
X015752Y019412D01*
X015701Y019462D01*
X015642Y019502D01*
X015577Y019529D01*
X015512Y019542D01*
X015705Y019459D02*
X015895Y019459D01*
X015895Y019380D02*
X015773Y019380D01*
X015812Y019302D02*
X015895Y019302D01*
X015895Y019145D02*
X015512Y019145D01*
X015512Y019143D02*
X015512Y019223D01*
X015512Y019143D02*
X015831Y019143D01*
X015818Y019078D01*
X015791Y019012D01*
X015752Y018953D01*
X015701Y018903D01*
X015642Y018864D01*
X015577Y018837D01*
X015512Y018824D01*
X015512Y019143D01*
X015432Y019143D01*
X015432Y019066D02*
X015512Y019066D01*
X015512Y018988D02*
X015432Y018988D01*
X015432Y018909D02*
X015512Y018909D01*
X015512Y018831D02*
X015432Y018831D01*
X015396Y018831D02*
X015009Y018831D01*
X015045Y018909D02*
X015236Y018909D01*
X015169Y018988D02*
X015045Y018988D01*
X015045Y019066D02*
X015131Y019066D01*
X014725Y019223D02*
X014645Y019223D01*
X014725Y019223D01*
X014725Y019542D01*
X014790Y019529D01*
X014855Y019502D01*
X014885Y019482D01*
X014885Y020143D01*
X009650Y020143D01*
X009665Y020128D01*
X009665Y019937D01*
X009530Y019803D01*
X009339Y019803D01*
X009325Y019817D01*
X009325Y018933D01*
X009574Y018933D01*
X009533Y018995D01*
X009503Y019067D01*
X009488Y019143D01*
X009845Y019143D01*
X009845Y019223D01*
X009925Y019223D01*
X010281Y019223D01*
X010508Y019223D01*
X010508Y019258D02*
X010508Y019108D01*
X010565Y018969D01*
X010602Y018933D01*
X010195Y018933D01*
X010236Y018995D01*
X010266Y019067D01*
X010281Y019143D01*
X009925Y019143D01*
X009925Y019223D01*
X009845Y019223D01*
X009845Y019579D01*
X009769Y019564D01*
X009697Y019534D01*
X009632Y019491D01*
X009576Y019436D01*
X009533Y019371D01*
X009503Y019298D01*
X009488Y019223D01*
X009325Y019223D01*
X009325Y019145D02*
X009845Y019145D01*
X009845Y019223D02*
X009488Y019223D01*
X009504Y019302D02*
X009325Y019302D01*
X009325Y019380D02*
X009539Y019380D01*
X009599Y019459D02*
X009325Y019459D01*
X009325Y019537D02*
X009703Y019537D01*
X009845Y019537D02*
X009925Y019537D01*
X009925Y019579D02*
X009925Y019223D01*
X009925Y019145D02*
X010508Y019145D01*
X010525Y019066D02*
X010266Y019066D01*
X010232Y018988D02*
X010557Y018988D01*
X010508Y019258D02*
X010565Y019396D01*
X010671Y019502D01*
X010810Y019560D01*
X010959Y019560D01*
X011098Y019502D01*
X011204Y019396D01*
X011261Y019258D01*
X011261Y019108D01*
X011204Y018969D01*
X011167Y018933D01*
X014425Y018933D01*
X014405Y018953D01*
X014365Y019012D01*
X014338Y019078D01*
X014325Y019143D01*
X014645Y019143D01*
X014645Y019223D01*
X014645Y019542D01*
X014580Y019529D01*
X014514Y019502D01*
X014455Y019462D01*
X014405Y019412D01*
X014365Y019353D01*
X014338Y019288D01*
X014325Y019223D01*
X014645Y019223D01*
X014645Y019145D02*
X011261Y019145D01*
X011261Y019223D02*
X014326Y019223D01*
X014344Y019302D02*
X011243Y019302D01*
X011211Y019380D02*
X014384Y019380D01*
X014451Y019459D02*
X011141Y019459D01*
X011013Y019537D02*
X014622Y019537D01*
X014645Y019537D02*
X014725Y019537D01*
X014747Y019537D02*
X014885Y019537D01*
X014885Y019616D02*
X009325Y019616D01*
X009325Y019694D02*
X014885Y019694D01*
X014885Y019773D02*
X009325Y019773D01*
X009578Y019851D02*
X014885Y019851D01*
X014885Y019930D02*
X009657Y019930D01*
X009665Y020008D02*
X014885Y020008D01*
X014885Y020087D02*
X009665Y020087D01*
X009925Y019579D02*
X010000Y019564D01*
X010072Y019534D01*
X010137Y019491D01*
X010193Y019436D01*
X010236Y019371D01*
X010266Y019298D01*
X010281Y019223D01*
X010265Y019302D02*
X010526Y019302D01*
X010558Y019380D02*
X010230Y019380D01*
X010170Y019459D02*
X010628Y019459D01*
X010756Y019537D02*
X010066Y019537D01*
X009925Y019459D02*
X009845Y019459D01*
X009845Y019380D02*
X009925Y019380D01*
X009925Y019302D02*
X009845Y019302D01*
X009503Y019066D02*
X009325Y019066D01*
X009325Y018988D02*
X009538Y018988D01*
X009665Y018752D02*
X030089Y018752D01*
X030167Y018674D02*
X009665Y018674D01*
X009665Y018595D02*
X030246Y018595D01*
X030324Y018517D02*
X028063Y018517D01*
X028098Y018502D02*
X027959Y018560D01*
X027810Y018560D01*
X027671Y018502D01*
X027565Y018396D01*
X027508Y018258D01*
X027508Y018108D01*
X027565Y017969D01*
X027671Y017863D01*
X027810Y017806D01*
X027959Y017806D01*
X028098Y017863D01*
X028204Y017969D01*
X028261Y018108D01*
X028261Y018258D01*
X028204Y018396D01*
X028098Y018502D01*
X028162Y018438D02*
X030403Y018438D01*
X030481Y018360D02*
X028219Y018360D01*
X028252Y018281D02*
X030560Y018281D01*
X030638Y018203D02*
X028261Y018203D01*
X028261Y018124D02*
X030717Y018124D01*
X030795Y018046D02*
X028236Y018046D01*
X028202Y017967D02*
X030874Y017967D01*
X030952Y017889D02*
X030304Y017889D01*
X030280Y017913D02*
X030089Y017913D01*
X029955Y017778D01*
X029955Y017587D01*
X030089Y017453D01*
X030280Y017453D01*
X030415Y017587D01*
X030415Y017778D01*
X030280Y017913D01*
X030382Y017810D02*
X031031Y017810D01*
X031109Y017732D02*
X030415Y017732D01*
X030415Y017653D02*
X031188Y017653D01*
X031266Y017575D02*
X030402Y017575D01*
X030323Y017496D02*
X031345Y017496D01*
X031423Y017418D02*
X028182Y017418D01*
X028204Y017396D02*
X028098Y017502D01*
X027959Y017560D01*
X027810Y017560D01*
X027671Y017502D01*
X027565Y017396D01*
X027508Y017258D01*
X027508Y017108D01*
X027565Y016969D01*
X027671Y016863D01*
X027810Y016806D01*
X027959Y016806D01*
X028098Y016863D01*
X028204Y016969D01*
X028261Y017108D01*
X028261Y017258D01*
X028204Y017396D01*
X028228Y017339D02*
X031416Y017339D01*
X031355Y017261D02*
X028260Y017261D01*
X028261Y017182D02*
X031355Y017182D01*
X031355Y017104D02*
X028260Y017104D01*
X028227Y017025D02*
X031417Y017025D01*
X031752Y017025D02*
X031816Y017025D01*
X031894Y016947D02*
X028181Y016947D01*
X028103Y016868D02*
X031973Y016868D01*
X032051Y016790D02*
X029173Y016790D01*
X029143Y016820D02*
X029040Y016863D01*
X028929Y016863D01*
X028826Y016820D01*
X028747Y016741D01*
X028705Y016638D01*
X028705Y016527D01*
X028747Y016424D01*
X028814Y016358D01*
X028747Y016291D01*
X028705Y016188D01*
X028705Y016077D01*
X028747Y015974D01*
X028814Y015908D01*
X028747Y015841D01*
X028705Y015738D01*
X028705Y015627D01*
X028747Y015524D01*
X028814Y015458D01*
X028747Y015391D01*
X028705Y015288D01*
X028705Y015177D01*
X028747Y015074D01*
X028826Y014995D01*
X028929Y014953D01*
X029040Y014953D01*
X029143Y014995D01*
X029222Y015074D01*
X029265Y015177D01*
X029265Y015288D01*
X029222Y015391D01*
X029155Y015458D01*
X029222Y015524D01*
X029265Y015627D01*
X029265Y015738D01*
X029222Y015841D01*
X029155Y015908D01*
X029222Y015974D01*
X029265Y016077D01*
X029265Y016188D01*
X029222Y016291D01*
X029155Y016358D01*
X029222Y016424D01*
X029265Y016527D01*
X029265Y016638D01*
X029222Y016741D01*
X029143Y016820D01*
X029234Y016711D02*
X032130Y016711D01*
X032208Y016633D02*
X029265Y016633D01*
X029265Y016554D02*
X032287Y016554D01*
X032365Y016476D02*
X029243Y016476D01*
X029195Y016397D02*
X030124Y016397D01*
X030139Y016413D02*
X030005Y016278D01*
X030005Y016087D01*
X030139Y015953D01*
X030330Y015953D01*
X030410Y016032D01*
X030489Y015953D01*
X030680Y015953D01*
X030785Y016057D01*
X030889Y015953D01*
X031080Y015953D01*
X031185Y016057D01*
X031289Y015953D01*
X031480Y015953D01*
X031615Y016087D01*
X031615Y016278D01*
X031480Y016413D01*
X031289Y016413D01*
X031185Y016308D01*
X031080Y016413D01*
X030889Y016413D01*
X030785Y016308D01*
X030680Y016413D01*
X030489Y016413D01*
X030410Y016333D01*
X030330Y016413D01*
X030139Y016413D01*
X030045Y016319D02*
X029194Y016319D01*
X029243Y016240D02*
X030005Y016240D01*
X030005Y016162D02*
X029265Y016162D01*
X029265Y016083D02*
X030009Y016083D01*
X030087Y016005D02*
X029235Y016005D01*
X029174Y015926D02*
X032915Y015926D01*
X032993Y015848D02*
X029215Y015848D01*
X029252Y015769D02*
X033072Y015769D01*
X033150Y015691D02*
X029265Y015691D01*
X029258Y015612D02*
X033229Y015612D01*
X033307Y015534D02*
X029226Y015534D01*
X029158Y015455D02*
X033386Y015455D01*
X033464Y015377D02*
X029228Y015377D01*
X029260Y015298D02*
X033543Y015298D01*
X033621Y015220D02*
X029265Y015220D01*
X029250Y015141D02*
X033625Y015141D01*
X033625Y015063D02*
X029211Y015063D01*
X029116Y014984D02*
X033625Y014984D01*
X033625Y014906D02*
X030587Y014906D01*
X030580Y014913D02*
X030389Y014913D01*
X030255Y014778D01*
X030255Y014587D01*
X030389Y014453D01*
X030580Y014453D01*
X030715Y014587D01*
X030715Y014778D01*
X030580Y014913D01*
X030665Y014827D02*
X033625Y014827D01*
X033625Y014749D02*
X030715Y014749D01*
X030715Y014670D02*
X033625Y014670D01*
X033625Y014592D02*
X030715Y014592D01*
X030640Y014513D02*
X033625Y014513D01*
X033625Y014435D02*
X028165Y014435D01*
X028221Y014356D02*
X028812Y014356D01*
X028826Y014370D02*
X028747Y014291D01*
X028705Y014188D01*
X028705Y014077D01*
X028747Y013974D01*
X028826Y013895D01*
X028929Y013853D01*
X029040Y013853D01*
X029143Y013895D01*
X029222Y013974D01*
X029265Y014077D01*
X029265Y014188D01*
X029222Y014291D01*
X029143Y014370D01*
X029040Y014413D01*
X028929Y014413D01*
X028826Y014370D01*
X028742Y014278D02*
X028253Y014278D01*
X028261Y014199D02*
X028709Y014199D01*
X028705Y014121D02*
X028261Y014121D01*
X028234Y014042D02*
X028719Y014042D01*
X028758Y013964D02*
X028198Y013964D01*
X028120Y013885D02*
X028850Y013885D01*
X029119Y013885D02*
X029962Y013885D01*
X030207Y013885D02*
X033625Y013885D01*
X033625Y013807D02*
X030286Y013807D01*
X030315Y013728D02*
X033625Y013728D01*
X033625Y013650D02*
X030315Y013650D01*
X030298Y013571D02*
X033625Y013571D01*
X033625Y013493D02*
X030220Y013493D01*
X029949Y013493D02*
X029170Y013493D01*
X029143Y013520D02*
X029040Y013563D01*
X028929Y013563D01*
X028826Y013520D01*
X028747Y013441D01*
X028705Y013338D01*
X028705Y013227D01*
X028747Y013124D01*
X028826Y013045D01*
X028929Y013003D01*
X029040Y013003D01*
X029143Y013045D01*
X029222Y013124D01*
X029265Y013227D01*
X029265Y013338D01*
X029222Y013441D01*
X029143Y013520D01*
X029233Y013414D02*
X033625Y013414D01*
X033625Y013336D02*
X033607Y013336D01*
X033262Y013336D02*
X032157Y013336D01*
X032215Y013278D02*
X032080Y013413D01*
X031889Y013413D01*
X031755Y013278D01*
X031755Y013087D01*
X031889Y012953D01*
X032080Y012953D01*
X032215Y013087D01*
X032215Y013278D01*
X032215Y013257D02*
X033205Y013257D01*
X033205Y013179D02*
X032215Y013179D01*
X032215Y013100D02*
X033205Y013100D01*
X033270Y013022D02*
X032149Y013022D01*
X031820Y013022D02*
X029086Y013022D01*
X029198Y013100D02*
X031755Y013100D01*
X031755Y013179D02*
X029245Y013179D01*
X029265Y013257D02*
X031755Y013257D01*
X031812Y013336D02*
X029265Y013336D01*
X028883Y013022D02*
X028226Y013022D01*
X028258Y013100D02*
X028771Y013100D01*
X028725Y013179D02*
X028261Y013179D01*
X028261Y013257D02*
X028705Y013257D01*
X028705Y013336D02*
X028229Y013336D01*
X028186Y013414D02*
X028736Y013414D01*
X028799Y013493D02*
X028107Y013493D01*
X027649Y013885D02*
X027120Y013885D01*
X027198Y013964D02*
X027571Y013964D01*
X027535Y014042D02*
X027234Y014042D01*
X027261Y014121D02*
X027508Y014121D01*
X027508Y014199D02*
X027261Y014199D01*
X027253Y014278D02*
X027516Y014278D01*
X027548Y014356D02*
X027221Y014356D01*
X027165Y014435D02*
X027604Y014435D01*
X027698Y014513D02*
X027071Y014513D01*
X026698Y014513D02*
X024071Y014513D01*
X024165Y014435D02*
X026604Y014435D01*
X026548Y014356D02*
X026036Y014356D01*
X025980Y014413D02*
X025789Y014413D01*
X025655Y014278D01*
X025655Y014087D01*
X025789Y013953D01*
X025980Y013953D01*
X026115Y014087D01*
X026115Y014278D01*
X025980Y014413D01*
X026115Y014278D02*
X026516Y014278D01*
X026508Y014199D02*
X026115Y014199D01*
X026115Y014121D02*
X026508Y014121D01*
X026535Y014042D02*
X026069Y014042D01*
X025991Y013964D02*
X026571Y013964D01*
X026649Y013885D02*
X024120Y013885D01*
X024198Y013964D02*
X025778Y013964D01*
X025700Y014042D02*
X024234Y014042D01*
X024261Y014121D02*
X025655Y014121D01*
X025655Y014199D02*
X024261Y014199D01*
X024253Y014278D02*
X025655Y014278D01*
X025733Y014356D02*
X024221Y014356D01*
X023698Y014513D02*
X023071Y014513D01*
X023165Y014435D02*
X023604Y014435D01*
X023548Y014356D02*
X023221Y014356D01*
X023253Y014278D02*
X023516Y014278D01*
X023508Y014199D02*
X023261Y014199D01*
X023261Y014121D02*
X023508Y014121D01*
X023535Y014042D02*
X023234Y014042D01*
X023198Y013964D02*
X023571Y013964D01*
X023649Y013885D02*
X023120Y013885D01*
X022548Y014356D02*
X020681Y014356D01*
X020613Y014435D02*
X022604Y014435D01*
X022698Y014513D02*
X020475Y014513D01*
X020294Y014513D02*
X019040Y014513D01*
X018980Y014453D02*
X019115Y014587D01*
X019115Y014778D01*
X018980Y014913D01*
X018789Y014913D01*
X018655Y014778D01*
X018655Y014587D01*
X018789Y014453D01*
X018980Y014453D01*
X019115Y014592D02*
X030255Y014592D01*
X030255Y014670D02*
X019115Y014670D01*
X019115Y014749D02*
X021743Y014749D01*
X021789Y014703D02*
X021980Y014703D01*
X022115Y014837D01*
X022115Y015028D01*
X021980Y015163D01*
X021789Y015163D01*
X021655Y015028D01*
X021655Y014837D01*
X021789Y014703D01*
X021665Y014827D02*
X019065Y014827D01*
X018987Y014906D02*
X020181Y014906D01*
X020192Y014894D02*
X020317Y014843D01*
X020452Y014843D01*
X020577Y014894D01*
X020673Y014990D01*
X020725Y015115D01*
X020725Y015250D01*
X020673Y015375D01*
X020577Y015471D01*
X020452Y015523D01*
X020317Y015523D01*
X020192Y015471D01*
X020096Y015375D01*
X020045Y015250D01*
X020045Y015115D01*
X020096Y014990D01*
X020192Y014894D01*
X020102Y014984D02*
X017667Y014984D01*
X017673Y014990D02*
X017725Y015115D01*
X017725Y015250D01*
X017673Y015375D01*
X017577Y015471D01*
X017452Y015523D01*
X017317Y015523D01*
X017192Y015471D01*
X017096Y015375D01*
X017045Y015250D01*
X017045Y015115D01*
X017096Y014990D01*
X017192Y014894D01*
X017317Y014843D01*
X017452Y014843D01*
X017577Y014894D01*
X017673Y014990D01*
X017703Y015063D02*
X020066Y015063D01*
X020045Y015141D02*
X017725Y015141D01*
X017725Y015220D02*
X020045Y015220D01*
X020064Y015298D02*
X017705Y015298D01*
X017671Y015377D02*
X020098Y015377D01*
X020176Y015455D02*
X017593Y015455D01*
X017176Y015455D02*
X015632Y015455D01*
X015610Y015433D02*
X015665Y015487D01*
X015665Y015678D01*
X015530Y015813D01*
X015339Y015813D01*
X015205Y015678D01*
X015205Y015487D01*
X015259Y015433D01*
X015205Y015378D01*
X015205Y015187D01*
X015339Y015053D01*
X015530Y015053D01*
X015665Y015187D01*
X015665Y015378D01*
X015610Y015433D01*
X015665Y015377D02*
X017098Y015377D01*
X017064Y015298D02*
X015665Y015298D01*
X015665Y015220D02*
X017045Y015220D01*
X017045Y015141D02*
X015618Y015141D01*
X015540Y015063D02*
X017066Y015063D01*
X017102Y014984D02*
X014958Y014984D01*
X014930Y015013D02*
X014739Y015013D01*
X014605Y014878D01*
X014605Y014687D01*
X014739Y014553D01*
X014930Y014553D01*
X015065Y014687D01*
X015065Y014878D01*
X014930Y015013D01*
X015037Y014906D02*
X017181Y014906D01*
X017588Y014906D02*
X018782Y014906D01*
X018704Y014827D02*
X015065Y014827D01*
X015065Y014749D02*
X018655Y014749D01*
X018655Y014670D02*
X015047Y014670D01*
X014969Y014592D02*
X018655Y014592D01*
X018729Y014513D02*
X017475Y014513D01*
X017613Y014435D02*
X020156Y014435D01*
X020088Y014356D02*
X017681Y014356D01*
X017713Y014278D02*
X020056Y014278D01*
X020045Y014199D02*
X017725Y014199D01*
X017725Y014121D02*
X020045Y014121D01*
X020075Y014042D02*
X017694Y014042D01*
X017646Y013964D02*
X020123Y013964D01*
X020214Y013885D02*
X017555Y013885D01*
X017294Y014513D02*
X011071Y014513D01*
X010698Y014513D02*
X010071Y014513D01*
X010098Y014502D02*
X009959Y014560D01*
X009810Y014560D01*
X009671Y014502D01*
X009565Y014396D01*
X009508Y014258D01*
X009508Y014108D01*
X009565Y013969D01*
X009671Y013863D01*
X009810Y013806D01*
X009959Y013806D01*
X010098Y013863D01*
X010204Y013969D01*
X010261Y014108D01*
X010261Y014258D01*
X010204Y014396D01*
X010098Y014502D01*
X010165Y014435D02*
X010604Y014435D01*
X010548Y014356D02*
X010221Y014356D01*
X010253Y014278D02*
X010516Y014278D01*
X010508Y014199D02*
X010261Y014199D01*
X010261Y014121D02*
X010508Y014121D01*
X010535Y014042D02*
X010234Y014042D01*
X010198Y013964D02*
X010571Y013964D01*
X010649Y013885D02*
X010120Y013885D01*
X009962Y013807D02*
X010807Y013807D01*
X010662Y013493D02*
X010107Y013493D01*
X010098Y013502D02*
X009959Y013560D01*
X009810Y013560D01*
X009671Y013502D01*
X009565Y013396D01*
X009508Y013258D01*
X009508Y013108D01*
X009565Y012969D01*
X009671Y012863D01*
X009810Y012806D01*
X009959Y012806D01*
X010098Y012863D01*
X010204Y012969D01*
X010261Y013108D01*
X010261Y013258D01*
X010204Y013396D01*
X010098Y013502D01*
X010186Y013414D02*
X010583Y013414D01*
X010540Y013336D02*
X010229Y013336D01*
X010261Y013257D02*
X010508Y013257D01*
X010508Y013179D02*
X010261Y013179D01*
X010258Y013100D02*
X010511Y013100D01*
X010543Y013022D02*
X010226Y013022D01*
X010178Y012943D02*
X010591Y012943D01*
X010670Y012865D02*
X010099Y012865D01*
X009670Y012865D02*
X009325Y012865D01*
X009325Y012943D02*
X009591Y012943D01*
X009543Y013022D02*
X009325Y013022D01*
X009325Y013100D02*
X009511Y013100D01*
X009508Y013179D02*
X009325Y013179D01*
X009325Y013257D02*
X009508Y013257D01*
X009540Y013336D02*
X009325Y013336D01*
X009325Y013414D02*
X009583Y013414D01*
X009662Y013493D02*
X009325Y013493D01*
X009325Y013571D02*
X013355Y013571D01*
X013399Y013493D02*
X011950Y013493D01*
X012028Y013414D02*
X013478Y013414D01*
X013691Y013414D02*
X014205Y013414D01*
X014205Y013336D02*
X012065Y013336D01*
X012065Y013257D02*
X012885Y013257D01*
X012885Y013179D02*
X012056Y013179D01*
X011977Y013100D02*
X012885Y013100D01*
X012455Y012786D02*
X009325Y012786D01*
X009325Y012708D02*
X012455Y012708D01*
X012513Y012629D02*
X009325Y012629D01*
X009325Y012551D02*
X009788Y012551D01*
X009641Y012472D02*
X009325Y012472D01*
X009325Y012394D02*
X009564Y012394D01*
X009532Y012315D02*
X009325Y012315D01*
X009325Y012237D02*
X009508Y012237D01*
X009508Y012158D02*
X009325Y012158D01*
X009325Y012080D02*
X009519Y012080D01*
X009552Y012001D02*
X009325Y012001D01*
X009325Y011923D02*
X009612Y011923D01*
X010052Y011844D02*
X010717Y011844D01*
X010612Y011923D02*
X010157Y011923D01*
X010217Y012001D02*
X010552Y012001D01*
X010519Y012080D02*
X010250Y012080D01*
X010261Y012158D02*
X010508Y012158D01*
X010508Y012237D02*
X010261Y012237D01*
X010238Y012315D02*
X010532Y012315D01*
X010564Y012394D02*
X010205Y012394D01*
X010128Y012472D02*
X010641Y012472D01*
X010788Y012551D02*
X009981Y012551D01*
X010030Y011530D02*
X010739Y011530D01*
X010671Y011502D02*
X010565Y011396D01*
X010508Y011258D01*
X010508Y011108D01*
X010565Y010969D01*
X010671Y010863D01*
X010810Y010806D01*
X010959Y010806D01*
X011098Y010863D01*
X011204Y010969D01*
X011261Y011108D01*
X011261Y011258D01*
X011204Y011396D01*
X011098Y011502D01*
X010959Y011560D01*
X010810Y011560D01*
X010671Y011502D01*
X010621Y011452D02*
X010148Y011452D01*
X010214Y011373D02*
X010556Y011373D01*
X010523Y011295D02*
X010246Y011295D01*
X010261Y011216D02*
X010508Y011216D01*
X010508Y011138D02*
X010261Y011138D01*
X010241Y011059D02*
X010528Y011059D01*
X010560Y010981D02*
X010209Y010981D01*
X010137Y010902D02*
X010632Y010902D01*
X010766Y010824D02*
X010003Y010824D01*
X010080Y010510D02*
X010689Y010510D01*
X010671Y010502D02*
X010565Y010396D01*
X010508Y010258D01*
X010508Y010108D01*
X010565Y009969D01*
X010671Y009863D01*
X010810Y009806D01*
X010959Y009806D01*
X011098Y009863D01*
X011204Y009969D01*
X011261Y010108D01*
X011261Y010258D01*
X011204Y010396D01*
X011098Y010502D01*
X010959Y010560D01*
X010810Y010560D01*
X010671Y010502D01*
X010600Y010431D02*
X010169Y010431D01*
X010222Y010353D02*
X010547Y010353D01*
X010515Y010274D02*
X010255Y010274D01*
X010261Y010196D02*
X010508Y010196D01*
X010508Y010117D02*
X010261Y010117D01*
X010233Y010039D02*
X010536Y010039D01*
X010574Y009960D02*
X010195Y009960D01*
X010116Y009882D02*
X010653Y009882D01*
X011116Y009882D02*
X012885Y009882D01*
X012895Y009882D02*
X017223Y009882D01*
X017126Y009960D02*
X012895Y009960D01*
X012885Y009960D02*
X011195Y009960D01*
X011233Y010039D02*
X012885Y010039D01*
X012895Y010039D02*
X017076Y010039D01*
X017045Y010117D02*
X012895Y010117D01*
X012885Y010117D02*
X011261Y010117D01*
X011261Y010196D02*
X012885Y010196D01*
X012895Y010196D02*
X017045Y010196D01*
X017054Y010274D02*
X015985Y010274D01*
X015985Y010353D02*
X017087Y010353D01*
X017152Y010431D02*
X015985Y010431D01*
X015985Y010667D02*
X025505Y010667D01*
X025505Y010745D02*
X018772Y010745D01*
X018497Y010745D02*
X015985Y010745D01*
X017596Y011452D02*
X020173Y011452D01*
X020095Y011373D02*
X017674Y011373D01*
X017706Y011295D02*
X020063Y011295D01*
X020045Y011216D02*
X017725Y011216D01*
X018790Y010353D02*
X019505Y010353D01*
X019505Y010274D02*
X018865Y010274D01*
X018865Y010196D02*
X019546Y010196D01*
X019625Y010117D02*
X018865Y010117D01*
X020585Y010902D02*
X022655Y010902D01*
X022655Y010981D02*
X022108Y010981D01*
X022165Y011059D02*
X022655Y011059D01*
X022714Y011138D02*
X022165Y011138D01*
X021771Y011295D02*
X020706Y011295D01*
X020725Y011216D02*
X021705Y011216D01*
X021705Y011138D02*
X020725Y011138D01*
X020701Y011059D02*
X021705Y011059D01*
X021761Y010981D02*
X020663Y010981D01*
X021784Y012708D02*
X015985Y012708D01*
X015985Y012786D02*
X021706Y012786D01*
X021655Y012865D02*
X020505Y012865D01*
X020626Y012943D02*
X021655Y012943D01*
X021655Y013022D02*
X020686Y013022D01*
X020718Y013100D02*
X021727Y013100D01*
X022063Y012786D02*
X029033Y012786D01*
X028954Y012708D02*
X021985Y012708D01*
X020264Y012865D02*
X018192Y012865D01*
X018270Y012943D02*
X020143Y012943D01*
X020083Y013022D02*
X018315Y013022D01*
X018315Y013100D02*
X020051Y013100D01*
X020045Y013179D02*
X018314Y013179D01*
X018235Y013257D02*
X020047Y013257D01*
X020588Y014906D02*
X021655Y014906D01*
X021655Y014984D02*
X020667Y014984D01*
X020703Y015063D02*
X021689Y015063D01*
X021768Y015141D02*
X020725Y015141D01*
X020725Y015220D02*
X022508Y015220D01*
X022508Y015258D02*
X022508Y015108D01*
X022565Y014969D01*
X022671Y014863D01*
X022810Y014806D01*
X022959Y014806D01*
X023098Y014863D01*
X023204Y014969D01*
X023261Y015108D01*
X023261Y015258D01*
X023204Y015396D01*
X023098Y015502D01*
X022959Y015560D01*
X022810Y015560D01*
X022671Y015502D01*
X022565Y015396D01*
X022508Y015258D01*
X022524Y015298D02*
X020705Y015298D01*
X020671Y015377D02*
X022557Y015377D01*
X022624Y015455D02*
X020593Y015455D01*
X020452Y015843D02*
X020577Y015894D01*
X020673Y015990D01*
X020725Y016115D01*
X020725Y016250D01*
X020673Y016375D01*
X020577Y016471D01*
X020452Y016523D01*
X020317Y016523D01*
X020192Y016471D01*
X020096Y016375D01*
X020045Y016250D01*
X020045Y016115D01*
X020096Y015990D01*
X020192Y015894D01*
X020317Y015843D01*
X020452Y015843D01*
X020464Y015848D02*
X021705Y015848D01*
X021705Y015837D02*
X021839Y015703D01*
X022030Y015703D01*
X022165Y015837D01*
X022165Y016028D01*
X022030Y016163D01*
X021839Y016163D01*
X021705Y016028D01*
X021705Y015837D01*
X021705Y015926D02*
X020609Y015926D01*
X020679Y016005D02*
X021705Y016005D01*
X021760Y016083D02*
X020711Y016083D01*
X020725Y016162D02*
X021838Y016162D01*
X022031Y016162D02*
X022508Y016162D01*
X022508Y016108D02*
X022565Y015969D01*
X022671Y015863D01*
X022810Y015806D01*
X022959Y015806D01*
X023098Y015863D01*
X023204Y015969D01*
X023261Y016108D01*
X023261Y016258D01*
X023204Y016396D01*
X023098Y016502D01*
X022959Y016560D01*
X022810Y016560D01*
X022671Y016502D01*
X022565Y016396D01*
X022508Y016258D01*
X022508Y016108D01*
X022518Y016083D02*
X022109Y016083D01*
X022165Y016005D02*
X022550Y016005D01*
X022608Y015926D02*
X022165Y015926D01*
X022165Y015848D02*
X022708Y015848D01*
X023061Y015848D02*
X023708Y015848D01*
X023671Y015863D02*
X023810Y015806D01*
X023959Y015806D01*
X024098Y015863D01*
X024204Y015969D01*
X024261Y016108D01*
X024261Y016258D01*
X024204Y016396D01*
X024098Y016502D01*
X023959Y016560D01*
X023810Y016560D01*
X023671Y016502D01*
X023565Y016396D01*
X023508Y016258D01*
X023508Y016108D01*
X023565Y015969D01*
X023671Y015863D01*
X023608Y015926D02*
X023161Y015926D01*
X023219Y016005D02*
X023550Y016005D01*
X023518Y016083D02*
X023251Y016083D01*
X023261Y016162D02*
X023508Y016162D01*
X023508Y016240D02*
X023261Y016240D01*
X023236Y016319D02*
X023533Y016319D01*
X023566Y016397D02*
X023203Y016397D01*
X023124Y016476D02*
X023645Y016476D01*
X023797Y016554D02*
X022972Y016554D01*
X022797Y016554D02*
X010972Y016554D01*
X010959Y016560D02*
X010810Y016560D01*
X010671Y016502D01*
X010565Y016396D01*
X010508Y016258D01*
X010508Y016108D01*
X010565Y015969D01*
X010671Y015863D01*
X010810Y015806D01*
X010959Y015806D01*
X011098Y015863D01*
X011204Y015969D01*
X011261Y016108D01*
X011261Y016258D01*
X011204Y016396D01*
X011098Y016502D01*
X010959Y016560D01*
X010797Y016554D02*
X009972Y016554D01*
X009959Y016560D02*
X009810Y016560D01*
X009671Y016502D01*
X009565Y016396D01*
X009508Y016258D01*
X009508Y016108D01*
X009565Y015969D01*
X009671Y015863D01*
X009810Y015806D01*
X009959Y015806D01*
X010098Y015863D01*
X010204Y015969D01*
X010261Y016108D01*
X010261Y016258D01*
X010204Y016396D01*
X010098Y016502D01*
X009959Y016560D01*
X009797Y016554D02*
X009325Y016554D01*
X009325Y016476D02*
X009645Y016476D01*
X009566Y016397D02*
X009325Y016397D01*
X009325Y016319D02*
X009533Y016319D01*
X009508Y016240D02*
X009325Y016240D01*
X009325Y016162D02*
X009508Y016162D01*
X009518Y016083D02*
X009325Y016083D01*
X009325Y016005D02*
X009550Y016005D01*
X009608Y015926D02*
X009325Y015926D01*
X009325Y015848D02*
X009708Y015848D01*
X010061Y015848D02*
X010708Y015848D01*
X010608Y015926D02*
X010161Y015926D01*
X010219Y016005D02*
X010550Y016005D01*
X010518Y016083D02*
X010251Y016083D01*
X010261Y016162D02*
X010508Y016162D01*
X010508Y016240D02*
X010261Y016240D01*
X010236Y016319D02*
X010533Y016319D01*
X010566Y016397D02*
X010203Y016397D01*
X010124Y016476D02*
X010645Y016476D01*
X010810Y016806D02*
X010959Y016806D01*
X011098Y016863D01*
X011204Y016969D01*
X011261Y017108D01*
X011261Y017258D01*
X011204Y017396D01*
X011098Y017502D01*
X010959Y017560D01*
X010810Y017560D01*
X010671Y017502D01*
X010565Y017396D01*
X010508Y017258D01*
X010508Y017108D01*
X010565Y016969D01*
X010671Y016863D01*
X010810Y016806D01*
X010666Y016868D02*
X010103Y016868D01*
X010098Y016863D02*
X010204Y016969D01*
X010261Y017108D01*
X010261Y017258D01*
X010204Y017396D01*
X010098Y017502D01*
X009959Y017560D01*
X009810Y017560D01*
X009671Y017502D01*
X009565Y017396D01*
X009508Y017258D01*
X009508Y017108D01*
X009565Y016969D01*
X009671Y016863D01*
X009810Y016806D01*
X009959Y016806D01*
X010098Y016863D01*
X010181Y016947D02*
X010588Y016947D01*
X010542Y017025D02*
X010227Y017025D01*
X010260Y017104D02*
X010509Y017104D01*
X010508Y017182D02*
X010261Y017182D01*
X010260Y017261D02*
X010509Y017261D01*
X010541Y017339D02*
X010228Y017339D01*
X010182Y017418D02*
X010587Y017418D01*
X010665Y017496D02*
X010104Y017496D01*
X009665Y017496D02*
X009325Y017496D01*
X009325Y017418D02*
X009587Y017418D01*
X009541Y017339D02*
X009325Y017339D01*
X009325Y017261D02*
X009509Y017261D01*
X009508Y017182D02*
X009325Y017182D01*
X009325Y017104D02*
X009509Y017104D01*
X009542Y017025D02*
X009325Y017025D01*
X009325Y016947D02*
X009588Y016947D01*
X009666Y016868D02*
X009325Y016868D01*
X009325Y016790D02*
X016452Y016790D01*
X016405Y016837D02*
X016539Y016703D01*
X016730Y016703D01*
X016865Y016837D01*
X016865Y017028D01*
X016730Y017163D01*
X016539Y017163D01*
X016405Y017028D01*
X016405Y016837D01*
X016405Y016868D02*
X011103Y016868D01*
X011181Y016947D02*
X016405Y016947D01*
X016405Y017025D02*
X011227Y017025D01*
X011260Y017104D02*
X016480Y017104D01*
X016789Y017104D02*
X017049Y017104D01*
X017045Y017115D02*
X017096Y016990D01*
X017192Y016894D01*
X017317Y016843D01*
X017452Y016843D01*
X017577Y016894D01*
X017673Y016990D01*
X017725Y017115D01*
X017725Y017250D01*
X017673Y017375D01*
X017577Y017471D01*
X017452Y017523D01*
X017317Y017523D01*
X017192Y017471D01*
X017096Y017375D01*
X017045Y017250D01*
X017045Y017115D01*
X017045Y017182D02*
X011261Y017182D01*
X011260Y017261D02*
X017049Y017261D01*
X017081Y017339D02*
X011228Y017339D01*
X011182Y017418D02*
X017139Y017418D01*
X017253Y017496D02*
X011104Y017496D01*
X011605Y017687D02*
X011739Y017553D01*
X011930Y017553D01*
X012065Y017687D01*
X012065Y017878D01*
X011930Y018013D01*
X011739Y018013D01*
X011605Y017878D01*
X011605Y017687D01*
X011605Y017732D02*
X009325Y017732D01*
X009325Y017810D02*
X009799Y017810D01*
X009810Y017806D02*
X009959Y017806D01*
X010098Y017863D01*
X010204Y017969D01*
X010261Y018108D01*
X010261Y018258D01*
X010204Y018396D01*
X010098Y018502D01*
X009959Y018560D01*
X009810Y018560D01*
X009671Y018502D01*
X009565Y018396D01*
X009508Y018258D01*
X009508Y018108D01*
X009565Y017969D01*
X009671Y017863D01*
X009810Y017806D01*
X009970Y017810D02*
X010799Y017810D01*
X010810Y017806D02*
X010959Y017806D01*
X011098Y017863D01*
X011204Y017969D01*
X011261Y018108D01*
X011261Y018258D01*
X011204Y018396D01*
X011098Y018502D01*
X010959Y018560D01*
X010810Y018560D01*
X010671Y018502D01*
X010565Y018396D01*
X010508Y018258D01*
X010508Y018108D01*
X010565Y017969D01*
X010671Y017863D01*
X010810Y017806D01*
X010970Y017810D02*
X011605Y017810D01*
X011615Y017889D02*
X011123Y017889D01*
X011202Y017967D02*
X011694Y017967D01*
X011975Y017967D02*
X012324Y017967D01*
X012308Y018008D02*
X012365Y017869D01*
X012471Y017763D01*
X012610Y017706D01*
X012759Y017706D01*
X012898Y017763D01*
X013004Y017869D01*
X013061Y018008D01*
X013061Y018158D01*
X013004Y018296D01*
X012898Y018402D01*
X012759Y018460D01*
X012610Y018460D01*
X012471Y018402D01*
X012365Y018296D01*
X012308Y018158D01*
X012308Y018008D01*
X012308Y018046D02*
X011236Y018046D01*
X011261Y018124D02*
X012308Y018124D01*
X012326Y018203D02*
X011261Y018203D01*
X011252Y018281D02*
X012359Y018281D01*
X012429Y018360D02*
X011219Y018360D01*
X011162Y018438D02*
X012558Y018438D01*
X012811Y018438D02*
X013558Y018438D01*
X013610Y018460D02*
X013471Y018402D01*
X013365Y018296D01*
X013308Y018158D01*
X013308Y018008D01*
X013365Y017869D01*
X013471Y017763D01*
X013610Y017706D01*
X013759Y017706D01*
X013898Y017763D01*
X014004Y017869D01*
X014061Y018008D01*
X014061Y018158D01*
X014004Y018296D01*
X013898Y018402D01*
X013759Y018460D01*
X013610Y018460D01*
X013811Y018438D02*
X017159Y018438D01*
X017192Y018471D02*
X017096Y018375D01*
X017045Y018250D01*
X017045Y018115D01*
X017096Y017990D01*
X017192Y017894D01*
X017317Y017843D01*
X017452Y017843D01*
X017577Y017894D01*
X017673Y017990D01*
X017725Y018115D01*
X017725Y018250D01*
X017673Y018375D01*
X017577Y018471D01*
X017452Y018523D01*
X017317Y018523D01*
X017192Y018471D01*
X017302Y018517D02*
X011063Y018517D01*
X010706Y018517D02*
X010063Y018517D01*
X010162Y018438D02*
X010607Y018438D01*
X010550Y018360D02*
X010219Y018360D01*
X010252Y018281D02*
X010517Y018281D01*
X010508Y018203D02*
X010261Y018203D01*
X010261Y018124D02*
X010508Y018124D01*
X010533Y018046D02*
X010236Y018046D01*
X010202Y017967D02*
X010567Y017967D01*
X010646Y017889D02*
X010123Y017889D01*
X009646Y017889D02*
X009325Y017889D01*
X009325Y017967D02*
X009567Y017967D01*
X009533Y018046D02*
X009325Y018046D01*
X009325Y018124D02*
X009508Y018124D01*
X009508Y018203D02*
X009325Y018203D01*
X009325Y018281D02*
X009517Y018281D01*
X009550Y018360D02*
X009325Y018360D01*
X009325Y018438D02*
X009607Y018438D01*
X009594Y018517D02*
X009706Y018517D01*
X011212Y018988D02*
X014382Y018988D01*
X014343Y019066D02*
X011244Y019066D01*
X012940Y018360D02*
X013429Y018360D01*
X013359Y018281D02*
X013010Y018281D01*
X013043Y018203D02*
X013326Y018203D01*
X013308Y018124D02*
X013061Y018124D01*
X013061Y018046D02*
X013308Y018046D01*
X013324Y017967D02*
X013045Y017967D01*
X013012Y017889D02*
X013357Y017889D01*
X013424Y017810D02*
X012945Y017810D01*
X012822Y017732D02*
X013547Y017732D01*
X013822Y017732D02*
X021760Y017732D01*
X021789Y017703D02*
X021980Y017703D01*
X022115Y017837D01*
X022115Y018028D01*
X021980Y018163D01*
X021789Y018163D01*
X021655Y018028D01*
X021655Y017837D01*
X021789Y017703D01*
X021682Y017810D02*
X016480Y017810D01*
X016465Y017794D02*
X016560Y017890D01*
X016612Y018015D01*
X016612Y018150D01*
X016560Y018275D01*
X016465Y018371D01*
X016340Y018423D01*
X016204Y018423D01*
X016079Y018371D01*
X015984Y018275D01*
X015932Y018150D01*
X015932Y018015D01*
X015984Y017890D01*
X016079Y017794D01*
X016204Y017743D01*
X016340Y017743D01*
X016465Y017794D01*
X016559Y017889D02*
X017206Y017889D01*
X017119Y017967D02*
X016592Y017967D01*
X016612Y018046D02*
X017073Y018046D01*
X017045Y018124D02*
X016612Y018124D01*
X016590Y018203D02*
X017045Y018203D01*
X017057Y018281D02*
X016554Y018281D01*
X016476Y018360D02*
X017090Y018360D01*
X017467Y018517D02*
X020302Y018517D01*
X020317Y018523D02*
X020192Y018471D01*
X020096Y018375D01*
X020045Y018250D01*
X020045Y018115D01*
X020096Y017990D01*
X020192Y017894D01*
X020317Y017843D01*
X020452Y017843D01*
X020577Y017894D01*
X020673Y017990D01*
X020725Y018115D01*
X020725Y018250D01*
X020673Y018375D01*
X020577Y018471D01*
X020452Y018523D01*
X020317Y018523D01*
X020467Y018517D02*
X022706Y018517D01*
X022671Y018502D02*
X022565Y018396D01*
X022508Y018258D01*
X022508Y018108D01*
X022565Y017969D01*
X022671Y017863D01*
X022810Y017806D01*
X022959Y017806D01*
X023098Y017863D01*
X023204Y017969D01*
X023261Y018108D01*
X023261Y018258D01*
X023204Y018396D01*
X023098Y018502D01*
X022959Y018560D01*
X022810Y018560D01*
X022671Y018502D01*
X022607Y018438D02*
X020610Y018438D01*
X020679Y018360D02*
X022550Y018360D01*
X022517Y018281D02*
X020712Y018281D01*
X020725Y018203D02*
X022508Y018203D01*
X022508Y018124D02*
X022018Y018124D01*
X022097Y018046D02*
X022533Y018046D01*
X022567Y017967D02*
X022115Y017967D01*
X022115Y017889D02*
X022646Y017889D01*
X022799Y017810D02*
X022087Y017810D01*
X022009Y017732D02*
X029955Y017732D01*
X029955Y017653D02*
X018989Y017653D01*
X018980Y017663D02*
X018789Y017663D01*
X018655Y017528D01*
X018655Y017337D01*
X018789Y017203D01*
X018980Y017203D01*
X019115Y017337D01*
X019115Y017528D01*
X018980Y017663D01*
X019068Y017575D02*
X022821Y017575D01*
X022845Y017575D02*
X022925Y017575D01*
X022925Y017579D02*
X023000Y017564D01*
X023072Y017534D01*
X023137Y017491D01*
X023193Y017436D01*
X023236Y017371D01*
X023266Y017298D01*
X023281Y017223D01*
X022925Y017223D01*
X022925Y017143D01*
X023281Y017143D01*
X023266Y017067D01*
X023236Y016995D01*
X023193Y016930D01*
X023137Y016874D01*
X023072Y016831D01*
X023000Y016801D01*
X022925Y016786D01*
X022925Y017143D01*
X022845Y017143D01*
X022845Y016786D01*
X022769Y016801D01*
X022697Y016831D01*
X022632Y016874D01*
X022576Y016930D01*
X022533Y016995D01*
X022503Y017067D01*
X022488Y017143D01*
X022845Y017143D01*
X022845Y017223D01*
X022845Y017579D01*
X022769Y017564D01*
X022697Y017534D01*
X022632Y017491D01*
X022576Y017436D01*
X022533Y017371D01*
X022503Y017298D01*
X022488Y017223D01*
X022845Y017223D01*
X022925Y017223D01*
X022925Y017579D01*
X022948Y017575D02*
X029967Y017575D01*
X030046Y017496D02*
X028104Y017496D01*
X027665Y017496D02*
X027104Y017496D01*
X027098Y017502D02*
X026959Y017560D01*
X026810Y017560D01*
X026671Y017502D01*
X026565Y017396D01*
X026508Y017258D01*
X026508Y017108D01*
X026565Y016969D01*
X026671Y016863D01*
X026810Y016806D01*
X026959Y016806D01*
X027098Y016863D01*
X027204Y016969D01*
X027261Y017108D01*
X027261Y017258D01*
X027204Y017396D01*
X027098Y017502D01*
X027182Y017418D02*
X027587Y017418D01*
X027541Y017339D02*
X027228Y017339D01*
X027260Y017261D02*
X027509Y017261D01*
X027508Y017182D02*
X027261Y017182D01*
X027260Y017104D02*
X027509Y017104D01*
X027542Y017025D02*
X027227Y017025D01*
X027181Y016947D02*
X027588Y016947D01*
X027666Y016868D02*
X027103Y016868D01*
X026972Y016554D02*
X027797Y016554D01*
X027810Y016560D02*
X027671Y016502D01*
X027565Y016396D01*
X027508Y016258D01*
X027508Y016108D01*
X027565Y015969D01*
X027671Y015863D01*
X027810Y015806D01*
X027959Y015806D01*
X028098Y015863D01*
X028204Y015969D01*
X028261Y016108D01*
X028261Y016258D01*
X028204Y016396D01*
X028098Y016502D01*
X027959Y016560D01*
X027810Y016560D01*
X027972Y016554D02*
X028705Y016554D01*
X028705Y016633D02*
X009325Y016633D01*
X009325Y016711D02*
X016531Y016711D01*
X016738Y016711D02*
X021781Y016711D01*
X021789Y016703D02*
X021980Y016703D01*
X022115Y016837D01*
X022115Y017028D01*
X021980Y017163D01*
X021789Y017163D01*
X021655Y017028D01*
X021655Y016837D01*
X021789Y016703D01*
X021702Y016790D02*
X016817Y016790D01*
X016865Y016868D02*
X017255Y016868D01*
X017140Y016947D02*
X016865Y016947D01*
X016865Y017025D02*
X017082Y017025D01*
X017514Y016868D02*
X020255Y016868D01*
X020317Y016843D02*
X020452Y016843D01*
X020577Y016894D01*
X020673Y016990D01*
X020725Y017115D01*
X020725Y017250D01*
X020673Y017375D01*
X020577Y017471D01*
X020452Y017523D01*
X020317Y017523D01*
X020192Y017471D01*
X020096Y017375D01*
X020045Y017250D01*
X020045Y017115D01*
X020096Y016990D01*
X020192Y016894D01*
X020317Y016843D01*
X020514Y016868D02*
X021655Y016868D01*
X021655Y016947D02*
X020629Y016947D01*
X020687Y017025D02*
X021655Y017025D01*
X021730Y017104D02*
X020720Y017104D01*
X020725Y017182D02*
X022845Y017182D01*
X022845Y017104D02*
X022925Y017104D01*
X022925Y017182D02*
X023508Y017182D01*
X023508Y017108D02*
X023508Y017258D01*
X023565Y017396D01*
X023671Y017502D01*
X023810Y017560D01*
X023959Y017560D01*
X024098Y017502D01*
X024204Y017396D01*
X024261Y017258D01*
X024261Y017108D01*
X024204Y016969D01*
X024098Y016863D01*
X023959Y016806D01*
X023810Y016806D01*
X023671Y016863D01*
X023565Y016969D01*
X023508Y017108D01*
X023509Y017104D02*
X023273Y017104D01*
X023249Y017025D02*
X023542Y017025D01*
X023588Y016947D02*
X023204Y016947D01*
X023128Y016868D02*
X023666Y016868D01*
X024103Y016868D02*
X026666Y016868D01*
X026588Y016947D02*
X024181Y016947D01*
X024227Y017025D02*
X025717Y017025D01*
X025655Y017087D02*
X025789Y016953D01*
X025980Y016953D01*
X026115Y017087D01*
X026115Y017278D01*
X025980Y017413D01*
X025789Y017413D01*
X025655Y017278D01*
X025655Y017087D01*
X025655Y017104D02*
X024260Y017104D01*
X024261Y017182D02*
X025655Y017182D01*
X025655Y017261D02*
X024260Y017261D01*
X024228Y017339D02*
X025716Y017339D01*
X026053Y017339D02*
X026541Y017339D01*
X026509Y017261D02*
X026115Y017261D01*
X026115Y017182D02*
X026508Y017182D01*
X026509Y017104D02*
X026115Y017104D01*
X026052Y017025D02*
X026542Y017025D01*
X026587Y017418D02*
X024182Y017418D01*
X024104Y017496D02*
X026665Y017496D01*
X026799Y017810D02*
X023970Y017810D01*
X023959Y017806D02*
X024098Y017863D01*
X024204Y017969D01*
X024261Y018108D01*
X024261Y018258D01*
X024204Y018396D01*
X024098Y018502D01*
X023959Y018560D01*
X023810Y018560D01*
X023671Y018502D01*
X023565Y018396D01*
X023508Y018258D01*
X023508Y018108D01*
X023565Y017969D01*
X023671Y017863D01*
X023810Y017806D01*
X023959Y017806D01*
X023799Y017810D02*
X022970Y017810D01*
X023123Y017889D02*
X023646Y017889D01*
X023567Y017967D02*
X023202Y017967D01*
X023236Y018046D02*
X023533Y018046D01*
X023508Y018124D02*
X023261Y018124D01*
X023261Y018203D02*
X023508Y018203D01*
X023517Y018281D02*
X023252Y018281D01*
X023219Y018360D02*
X023550Y018360D01*
X023607Y018438D02*
X023162Y018438D01*
X023063Y018517D02*
X023706Y018517D01*
X024063Y018517D02*
X026706Y018517D01*
X026671Y018502D02*
X026565Y018396D01*
X026508Y018258D01*
X026508Y018108D01*
X026565Y017969D01*
X026671Y017863D01*
X026810Y017806D01*
X026959Y017806D01*
X027098Y017863D01*
X027204Y017969D01*
X027261Y018108D01*
X027261Y018258D01*
X027204Y018396D01*
X027098Y018502D01*
X026959Y018560D01*
X026810Y018560D01*
X026671Y018502D01*
X026607Y018438D02*
X024162Y018438D01*
X024219Y018360D02*
X025736Y018360D01*
X025789Y018413D02*
X025655Y018278D01*
X025655Y018087D01*
X025789Y017953D01*
X025980Y017953D01*
X026115Y018087D01*
X026115Y018278D01*
X025980Y018413D01*
X025789Y018413D01*
X025658Y018281D02*
X024252Y018281D01*
X024261Y018203D02*
X025655Y018203D01*
X025655Y018124D02*
X024261Y018124D01*
X024236Y018046D02*
X025696Y018046D01*
X025775Y017967D02*
X024202Y017967D01*
X024123Y017889D02*
X026646Y017889D01*
X026567Y017967D02*
X025994Y017967D01*
X026073Y018046D02*
X026533Y018046D01*
X026508Y018124D02*
X026115Y018124D01*
X026115Y018203D02*
X026508Y018203D01*
X026517Y018281D02*
X026111Y018281D01*
X026033Y018360D02*
X026550Y018360D01*
X027063Y018517D02*
X027706Y018517D01*
X027607Y018438D02*
X027162Y018438D01*
X027219Y018360D02*
X027550Y018360D01*
X027517Y018281D02*
X027252Y018281D01*
X027261Y018203D02*
X027508Y018203D01*
X027508Y018124D02*
X027261Y018124D01*
X027236Y018046D02*
X027533Y018046D01*
X027567Y017967D02*
X027202Y017967D01*
X027123Y017889D02*
X027646Y017889D01*
X027799Y017810D02*
X026970Y017810D01*
X027970Y017810D02*
X029987Y017810D01*
X030065Y017889D02*
X028123Y017889D01*
X028212Y018988D02*
X031820Y018988D01*
X031781Y019066D02*
X028244Y019066D01*
X028261Y019145D02*
X031760Y019145D01*
X031760Y019223D02*
X028261Y019223D01*
X028243Y019302D02*
X031782Y019302D01*
X031822Y019380D02*
X028211Y019380D01*
X028141Y019459D02*
X029333Y019459D01*
X029389Y019403D02*
X029580Y019403D01*
X029715Y019537D01*
X029715Y019728D01*
X029580Y019863D01*
X029389Y019863D01*
X029255Y019728D01*
X029255Y019537D01*
X028013Y019537D01*
X027756Y019537D02*
X027013Y019537D01*
X027141Y019459D02*
X027628Y019459D01*
X027558Y019380D02*
X027211Y019380D01*
X027243Y019302D02*
X027526Y019302D01*
X027508Y019223D02*
X027261Y019223D01*
X027261Y019145D02*
X027508Y019145D01*
X027525Y019066D02*
X027244Y019066D01*
X027212Y018988D02*
X027557Y018988D01*
X026557Y018988D02*
X026015Y018988D01*
X025980Y018953D02*
X026115Y019087D01*
X026115Y019278D01*
X025980Y019413D01*
X025789Y019413D01*
X025655Y019278D01*
X025655Y019087D01*
X025789Y018953D01*
X025980Y018953D01*
X026093Y019066D02*
X026525Y019066D01*
X026508Y019145D02*
X026115Y019145D01*
X026115Y019223D02*
X026508Y019223D01*
X026526Y019302D02*
X026091Y019302D01*
X026012Y019380D02*
X026558Y019380D01*
X026628Y019459D02*
X020589Y019459D01*
X020668Y019380D02*
X025757Y019380D01*
X025678Y019302D02*
X020703Y019302D01*
X020725Y019223D02*
X025655Y019223D01*
X025655Y019145D02*
X020725Y019145D01*
X020704Y019066D02*
X025676Y019066D01*
X025754Y018988D02*
X020670Y018988D01*
X020099Y018988D02*
X019015Y018988D01*
X018980Y018953D02*
X019115Y019087D01*
X019115Y019278D01*
X018980Y019413D01*
X018789Y019413D01*
X018655Y019278D01*
X018655Y019087D01*
X018789Y018953D01*
X018980Y018953D01*
X019093Y019066D02*
X020065Y019066D01*
X020045Y019145D02*
X019115Y019145D01*
X019115Y019223D02*
X020045Y019223D01*
X020066Y019302D02*
X019091Y019302D01*
X019012Y019380D02*
X020101Y019380D01*
X020180Y019459D02*
X017589Y019459D01*
X017668Y019380D02*
X018757Y019380D01*
X018678Y019302D02*
X017703Y019302D01*
X017725Y019223D02*
X018655Y019223D01*
X018655Y019145D02*
X017725Y019145D01*
X017704Y019066D02*
X018676Y019066D01*
X018754Y018988D02*
X017670Y018988D01*
X017610Y018438D02*
X020159Y018438D01*
X020090Y018360D02*
X019033Y018360D01*
X018980Y018413D02*
X018789Y018413D01*
X018655Y018278D01*
X018655Y018087D01*
X018789Y017953D01*
X018980Y017953D01*
X019115Y018087D01*
X019115Y018278D01*
X018980Y018413D01*
X019111Y018281D02*
X020057Y018281D01*
X020045Y018203D02*
X019115Y018203D01*
X019115Y018124D02*
X020045Y018124D01*
X020073Y018046D02*
X019073Y018046D01*
X018994Y017967D02*
X020119Y017967D01*
X020206Y017889D02*
X017563Y017889D01*
X017650Y017967D02*
X018775Y017967D01*
X018696Y018046D02*
X017696Y018046D01*
X017725Y018124D02*
X018655Y018124D01*
X018655Y018203D02*
X017725Y018203D01*
X017712Y018281D02*
X018658Y018281D01*
X018736Y018360D02*
X017679Y018360D01*
X017099Y018988D02*
X016562Y018988D01*
X016601Y019066D02*
X017065Y019066D01*
X017045Y019145D02*
X016299Y019145D01*
X016299Y019223D02*
X016618Y019223D01*
X017045Y019223D01*
X017066Y019302D02*
X016600Y019302D01*
X016605Y019288D02*
X016578Y019353D01*
X016539Y019412D01*
X016489Y019462D01*
X016430Y019502D01*
X016364Y019529D01*
X016299Y019542D01*
X016299Y019223D01*
X016219Y019223D01*
X016219Y019302D02*
X016299Y019302D01*
X016299Y019380D02*
X016219Y019380D01*
X016219Y019459D02*
X016299Y019459D01*
X016492Y019459D02*
X017180Y019459D01*
X017101Y019380D02*
X016560Y019380D01*
X016605Y019288D02*
X016618Y019223D01*
X015895Y019066D02*
X015813Y019066D01*
X015775Y018988D02*
X015895Y018988D01*
X015895Y018909D02*
X015708Y018909D01*
X015548Y018831D02*
X015930Y018831D01*
X016068Y018360D02*
X015688Y018360D01*
X015677Y018371D02*
X015552Y018423D01*
X015417Y018423D01*
X015292Y018371D01*
X015196Y018275D01*
X015145Y018150D01*
X015145Y018015D01*
X015196Y017890D01*
X015292Y017794D01*
X015417Y017743D01*
X015552Y017743D01*
X015677Y017794D01*
X015773Y017890D01*
X015825Y018015D01*
X015825Y018150D01*
X015773Y018275D01*
X015677Y018371D01*
X015767Y018281D02*
X015990Y018281D01*
X015954Y018203D02*
X015803Y018203D01*
X015825Y018124D02*
X015932Y018124D01*
X015932Y018046D02*
X015825Y018046D01*
X015805Y017967D02*
X015952Y017967D01*
X015985Y017889D02*
X015771Y017889D01*
X015693Y017810D02*
X016064Y017810D01*
X015276Y017810D02*
X013945Y017810D01*
X014012Y017889D02*
X015198Y017889D01*
X015164Y017967D02*
X014045Y017967D01*
X014061Y018046D02*
X015145Y018046D01*
X015145Y018124D02*
X014061Y018124D01*
X014043Y018203D02*
X015166Y018203D01*
X015202Y018281D02*
X014010Y018281D01*
X013940Y018360D02*
X015281Y018360D01*
X014725Y019302D02*
X014645Y019302D01*
X014645Y019380D02*
X014725Y019380D01*
X014725Y019459D02*
X014645Y019459D01*
X015045Y019616D02*
X015895Y019616D01*
X015895Y019694D02*
X015045Y019694D01*
X015045Y019773D02*
X015895Y019773D01*
X015895Y019851D02*
X015045Y019851D01*
X015045Y019930D02*
X015895Y019930D01*
X015895Y020008D02*
X015045Y020008D01*
X015045Y020087D02*
X015895Y020087D01*
X016055Y020087D02*
X034581Y020087D01*
X033872Y019930D02*
X033797Y019930D01*
X033372Y019930D02*
X033297Y019930D01*
X032872Y019930D02*
X032797Y019930D01*
X032372Y019930D02*
X032297Y019930D01*
X031872Y019930D02*
X017013Y019930D01*
X017091Y019851D02*
X029378Y019851D01*
X029299Y019773D02*
X017115Y019773D01*
X017115Y019694D02*
X029255Y019694D01*
X029255Y019616D02*
X017093Y019616D01*
X017014Y019537D02*
X026756Y019537D01*
X029255Y019537D02*
X029389Y019403D01*
X029636Y019459D02*
X031849Y019459D01*
X031793Y019537D02*
X029714Y019537D01*
X029715Y019616D02*
X031760Y019616D01*
X031760Y019694D02*
X029715Y019694D01*
X029670Y019773D02*
X031770Y019773D01*
X031803Y019851D02*
X029591Y019851D01*
X030158Y018909D02*
X031898Y018909D01*
X032271Y018909D02*
X032398Y018909D01*
X032771Y018909D02*
X032898Y018909D01*
X033271Y018909D02*
X033398Y018909D01*
X033771Y018909D02*
X033898Y018909D01*
X034615Y018752D02*
X031340Y018752D01*
X031415Y018674D02*
X034615Y018674D01*
X034615Y018595D02*
X033597Y018595D01*
X033665Y018517D02*
X034615Y018517D01*
X034615Y018438D02*
X033665Y018438D01*
X033665Y018360D02*
X034615Y018360D01*
X034615Y017653D02*
X032139Y017653D01*
X032165Y017575D02*
X034615Y017575D01*
X034615Y017496D02*
X032165Y017496D01*
X032145Y017418D02*
X034419Y017418D01*
X034340Y017339D02*
X033903Y017339D01*
X033965Y017261D02*
X034303Y017261D01*
X034303Y017182D02*
X033965Y017182D01*
X033965Y017104D02*
X034310Y017104D01*
X034388Y017025D02*
X033902Y017025D01*
X033266Y017339D02*
X032066Y017339D01*
X032580Y018203D02*
X032635Y018257D01*
X032689Y018203D01*
X033015Y018360D02*
X033205Y018360D01*
X033205Y018438D02*
X033015Y018438D01*
X033015Y018517D02*
X033205Y018517D01*
X033272Y018595D02*
X032947Y018595D01*
X032322Y018595D02*
X031415Y018595D01*
X031415Y018517D02*
X032255Y018517D01*
X032255Y018438D02*
X031365Y018438D01*
X031287Y018360D02*
X032255Y018360D01*
X032444Y016397D02*
X031495Y016397D01*
X031574Y016319D02*
X032522Y016319D01*
X032601Y016240D02*
X031615Y016240D01*
X031615Y016162D02*
X032679Y016162D01*
X032758Y016083D02*
X031610Y016083D01*
X031532Y016005D02*
X032836Y016005D01*
X032984Y016083D02*
X033519Y016083D01*
X033515Y016162D02*
X032905Y016162D01*
X032827Y016240D02*
X033515Y016240D01*
X033556Y016319D02*
X032748Y016319D01*
X032670Y016397D02*
X033634Y016397D01*
X033598Y016005D02*
X033062Y016005D01*
X031237Y016005D02*
X031132Y016005D01*
X030837Y016005D02*
X030732Y016005D01*
X030437Y016005D02*
X030382Y016005D01*
X030345Y016397D02*
X030474Y016397D01*
X030695Y016397D02*
X030874Y016397D01*
X030795Y016319D02*
X030774Y016319D01*
X031095Y016397D02*
X031274Y016397D01*
X031195Y016319D02*
X031174Y016319D01*
X028775Y016319D02*
X028236Y016319D01*
X028261Y016240D02*
X028726Y016240D01*
X028705Y016162D02*
X028261Y016162D01*
X028251Y016083D02*
X028705Y016083D01*
X028734Y016005D02*
X028219Y016005D01*
X028161Y015926D02*
X028795Y015926D01*
X028754Y015848D02*
X028061Y015848D01*
X027708Y015848D02*
X027061Y015848D01*
X027098Y015863D02*
X027204Y015969D01*
X027261Y016108D01*
X027261Y016258D01*
X027204Y016396D01*
X027098Y016502D01*
X026959Y016560D01*
X026810Y016560D01*
X026671Y016502D01*
X026565Y016396D01*
X026508Y016258D01*
X026508Y016108D01*
X026565Y015969D01*
X026671Y015863D01*
X026810Y015806D01*
X026959Y015806D01*
X027098Y015863D01*
X027161Y015926D02*
X027608Y015926D01*
X027550Y016005D02*
X027219Y016005D01*
X027251Y016083D02*
X027518Y016083D01*
X027508Y016162D02*
X027261Y016162D01*
X027261Y016240D02*
X027508Y016240D01*
X027533Y016319D02*
X027236Y016319D01*
X027203Y016397D02*
X027566Y016397D01*
X027645Y016476D02*
X027124Y016476D01*
X026797Y016554D02*
X023972Y016554D01*
X024124Y016476D02*
X026645Y016476D01*
X026566Y016397D02*
X025995Y016397D01*
X025980Y016413D02*
X025789Y016413D01*
X025655Y016278D01*
X025655Y016087D01*
X025789Y015953D01*
X025980Y015953D01*
X026115Y016087D01*
X026115Y016278D01*
X025980Y016413D01*
X026074Y016319D02*
X026533Y016319D01*
X026508Y016240D02*
X026115Y016240D01*
X026115Y016162D02*
X026508Y016162D01*
X026518Y016083D02*
X026110Y016083D01*
X026032Y016005D02*
X026550Y016005D01*
X026608Y015926D02*
X024161Y015926D01*
X024219Y016005D02*
X025737Y016005D01*
X025659Y016083D02*
X024251Y016083D01*
X024261Y016162D02*
X025655Y016162D01*
X025655Y016240D02*
X024261Y016240D01*
X024236Y016319D02*
X025695Y016319D01*
X025774Y016397D02*
X024203Y016397D01*
X024061Y015848D02*
X026708Y015848D01*
X026810Y015560D02*
X026671Y015502D01*
X026565Y015396D01*
X026508Y015258D01*
X026508Y015108D01*
X026565Y014969D01*
X026671Y014863D01*
X026810Y014806D01*
X026959Y014806D01*
X027098Y014863D01*
X027204Y014969D01*
X027261Y015108D01*
X027261Y015258D01*
X027204Y015396D01*
X027098Y015502D01*
X026959Y015560D01*
X026810Y015560D01*
X026747Y015534D02*
X024022Y015534D01*
X023959Y015560D02*
X023810Y015560D01*
X023671Y015502D01*
X023565Y015396D01*
X023508Y015258D01*
X023508Y015108D01*
X023565Y014969D01*
X023671Y014863D01*
X023810Y014806D01*
X023959Y014806D01*
X024098Y014863D01*
X024204Y014969D01*
X024261Y015108D01*
X024261Y015258D01*
X024204Y015396D01*
X024098Y015502D01*
X023959Y015560D01*
X023747Y015534D02*
X023022Y015534D01*
X023145Y015455D02*
X023624Y015455D01*
X023557Y015377D02*
X023212Y015377D01*
X023245Y015298D02*
X023524Y015298D01*
X023508Y015220D02*
X023261Y015220D01*
X023261Y015141D02*
X023508Y015141D01*
X023526Y015063D02*
X023243Y015063D01*
X023210Y014984D02*
X023559Y014984D01*
X023629Y014906D02*
X023140Y014906D01*
X023011Y014827D02*
X023758Y014827D01*
X024011Y014827D02*
X026758Y014827D01*
X026629Y014906D02*
X024140Y014906D01*
X024210Y014984D02*
X025758Y014984D01*
X025789Y014953D02*
X025655Y015087D01*
X025655Y015278D01*
X025789Y015413D01*
X025980Y015413D01*
X026115Y015278D01*
X026115Y015087D01*
X025980Y014953D01*
X025789Y014953D01*
X025679Y015063D02*
X024243Y015063D01*
X024261Y015141D02*
X025655Y015141D01*
X025655Y015220D02*
X024261Y015220D01*
X024245Y015298D02*
X025675Y015298D01*
X025753Y015377D02*
X024212Y015377D01*
X024145Y015455D02*
X026624Y015455D01*
X026557Y015377D02*
X026016Y015377D01*
X026094Y015298D02*
X026524Y015298D01*
X026508Y015220D02*
X026115Y015220D01*
X026115Y015141D02*
X026508Y015141D01*
X026526Y015063D02*
X026090Y015063D01*
X026011Y014984D02*
X026559Y014984D01*
X027011Y014827D02*
X027758Y014827D01*
X027810Y014806D02*
X027959Y014806D01*
X028098Y014863D01*
X028204Y014969D01*
X028261Y015108D01*
X028261Y015258D01*
X028204Y015396D01*
X028098Y015502D01*
X027959Y015560D01*
X027810Y015560D01*
X027671Y015502D01*
X027565Y015396D01*
X027508Y015258D01*
X027508Y015108D01*
X027565Y014969D01*
X027671Y014863D01*
X027810Y014806D01*
X028011Y014827D02*
X030304Y014827D01*
X030255Y014749D02*
X022026Y014749D01*
X022104Y014827D02*
X022758Y014827D01*
X022629Y014906D02*
X022115Y014906D01*
X022115Y014984D02*
X022559Y014984D01*
X022526Y015063D02*
X022080Y015063D01*
X022001Y015141D02*
X022508Y015141D01*
X022747Y015534D02*
X015665Y015534D01*
X015665Y015612D02*
X028711Y015612D01*
X028705Y015691D02*
X015652Y015691D01*
X015573Y015769D02*
X021773Y015769D01*
X022096Y015769D02*
X028717Y015769D01*
X028743Y015534D02*
X028022Y015534D01*
X028145Y015455D02*
X028811Y015455D01*
X028741Y015377D02*
X028212Y015377D01*
X028245Y015298D02*
X028709Y015298D01*
X028705Y015220D02*
X028261Y015220D01*
X028261Y015141D02*
X028719Y015141D01*
X028759Y015063D02*
X028243Y015063D01*
X028210Y014984D02*
X028853Y014984D01*
X028140Y014906D02*
X030382Y014906D01*
X030329Y014513D02*
X028071Y014513D01*
X027629Y014906D02*
X027140Y014906D01*
X027210Y014984D02*
X027559Y014984D01*
X027526Y015063D02*
X027243Y015063D01*
X027261Y015141D02*
X027508Y015141D01*
X027508Y015220D02*
X027261Y015220D01*
X027245Y015298D02*
X027524Y015298D01*
X027557Y015377D02*
X027212Y015377D01*
X027145Y015455D02*
X027624Y015455D01*
X027747Y015534D02*
X027022Y015534D01*
X028203Y016397D02*
X028774Y016397D01*
X028726Y016476D02*
X028124Y016476D01*
X028735Y016711D02*
X021988Y016711D01*
X022067Y016790D02*
X022826Y016790D01*
X022845Y016790D02*
X022925Y016790D01*
X022943Y016790D02*
X028796Y016790D01*
X029157Y014356D02*
X033625Y014356D01*
X033625Y014278D02*
X029228Y014278D01*
X029260Y014199D02*
X033625Y014199D01*
X033625Y014121D02*
X029265Y014121D01*
X029250Y014042D02*
X033625Y014042D01*
X033625Y013964D02*
X029212Y013964D01*
X031899Y012394D02*
X031970Y012394D01*
X032199Y012394D02*
X034615Y012394D01*
X033746Y011923D02*
X032871Y011923D01*
X031941Y012001D02*
X031928Y012001D01*
X032397Y011373D02*
X033072Y011373D01*
X033021Y011352D02*
X032915Y011246D01*
X032858Y011108D01*
X032858Y010958D01*
X032915Y010819D01*
X033021Y010713D01*
X033160Y010656D01*
X033309Y010656D01*
X033448Y010713D01*
X033554Y010819D01*
X033611Y010958D01*
X033611Y011108D01*
X033554Y011246D01*
X033448Y011352D01*
X033309Y011410D01*
X033160Y011410D01*
X033021Y011352D01*
X032964Y011295D02*
X032505Y011295D01*
X032566Y011216D02*
X032903Y011216D01*
X032870Y011138D02*
X032599Y011138D01*
X032611Y011059D02*
X032858Y011059D01*
X032858Y010981D02*
X032611Y010981D01*
X032588Y010902D02*
X032881Y010902D01*
X032913Y010824D02*
X032556Y010824D01*
X032480Y010745D02*
X032989Y010745D01*
X033133Y010667D02*
X032336Y010667D01*
X033336Y010667D02*
X034133Y010667D01*
X034160Y010656D02*
X034309Y010656D01*
X034448Y010713D01*
X034554Y010819D01*
X034611Y010958D01*
X034611Y011108D01*
X034554Y011246D01*
X034448Y011352D01*
X034309Y011410D01*
X034160Y011410D01*
X034021Y011352D01*
X033915Y011246D01*
X033858Y011108D01*
X033858Y010958D01*
X033915Y010819D01*
X034021Y010713D01*
X034160Y010656D01*
X034336Y010667D02*
X034615Y010667D01*
X034615Y010745D02*
X034480Y010745D01*
X034556Y010824D02*
X034615Y010824D01*
X034615Y010902D02*
X034588Y010902D01*
X034611Y010981D02*
X034615Y010981D01*
X034611Y011059D02*
X034615Y011059D01*
X034615Y011138D02*
X034599Y011138D01*
X034615Y011216D02*
X034566Y011216D01*
X034615Y011295D02*
X034505Y011295D01*
X034397Y011373D02*
X034615Y011373D01*
X034072Y011373D02*
X033397Y011373D01*
X033505Y011295D02*
X033964Y011295D01*
X033903Y011216D02*
X033566Y011216D01*
X033599Y011138D02*
X033870Y011138D01*
X033858Y011059D02*
X033611Y011059D01*
X033611Y010981D02*
X033858Y010981D01*
X033881Y010902D02*
X033588Y010902D01*
X033556Y010824D02*
X033913Y010824D01*
X033989Y010745D02*
X033480Y010745D01*
X034550Y010274D02*
X034615Y010274D01*
X034615Y010196D02*
X034597Y010196D01*
X034602Y009882D02*
X034615Y009882D01*
X034615Y009803D02*
X034558Y009803D01*
X034615Y009725D02*
X034488Y009725D01*
X034275Y009725D02*
X034195Y009725D01*
X034195Y009803D02*
X034275Y009803D01*
X034275Y009882D02*
X034195Y009882D01*
X034195Y009960D02*
X034275Y009960D01*
X033981Y009725D02*
X033459Y009725D01*
X033538Y009803D02*
X033911Y009803D01*
X033868Y009882D02*
X033580Y009882D01*
X033611Y009960D02*
X033844Y009960D01*
X034033Y009489D02*
X034615Y009489D01*
X034615Y009411D02*
X034065Y009411D01*
X034065Y009332D02*
X034608Y009332D01*
X034555Y009254D02*
X034051Y009254D01*
X030880Y009803D02*
X030689Y009803D01*
X027653Y009882D02*
X027116Y009882D01*
X027195Y009960D02*
X027574Y009960D01*
X027536Y010039D02*
X027233Y010039D01*
X027261Y010117D02*
X027508Y010117D01*
X027508Y010196D02*
X027261Y010196D01*
X027255Y010274D02*
X027515Y010274D01*
X027547Y010353D02*
X027222Y010353D01*
X027169Y010431D02*
X027600Y010431D01*
X027689Y010510D02*
X027080Y010510D01*
X026689Y010510D02*
X025887Y010510D01*
X025840Y010902D02*
X026632Y010902D01*
X026508Y010117D02*
X024215Y010117D01*
X024215Y010039D02*
X026536Y010039D01*
X026574Y009960D02*
X024215Y009960D01*
X024159Y009882D02*
X026653Y009882D01*
X027167Y009411D02*
X026115Y009411D01*
X026115Y009332D02*
X027155Y009332D01*
X027155Y009254D02*
X026115Y009254D01*
X026053Y009489D02*
X027246Y009489D01*
X025716Y009489D02*
X016703Y009489D01*
X016765Y009411D02*
X025655Y009411D01*
X025655Y009332D02*
X016765Y009332D01*
X016765Y009254D02*
X025655Y009254D01*
X024080Y009803D02*
X023889Y009803D01*
X028030Y011530D02*
X033759Y011530D01*
X023509Y017261D02*
X023274Y017261D01*
X023249Y017339D02*
X023541Y017339D01*
X023587Y017418D02*
X023205Y017418D01*
X023130Y017496D02*
X023665Y017496D01*
X022925Y017496D02*
X022845Y017496D01*
X022845Y017418D02*
X022925Y017418D01*
X022925Y017339D02*
X022845Y017339D01*
X022845Y017261D02*
X022925Y017261D01*
X022925Y017025D02*
X022845Y017025D01*
X022845Y016947D02*
X022925Y016947D01*
X022925Y016868D02*
X022845Y016868D01*
X022641Y016868D02*
X022115Y016868D01*
X022115Y016947D02*
X022565Y016947D01*
X022520Y017025D02*
X022115Y017025D01*
X022039Y017104D02*
X022496Y017104D01*
X022495Y017261D02*
X020720Y017261D01*
X020688Y017339D02*
X022520Y017339D01*
X022564Y017418D02*
X020630Y017418D01*
X020516Y017496D02*
X022639Y017496D01*
X021655Y017889D02*
X020563Y017889D01*
X020650Y017967D02*
X021655Y017967D01*
X021672Y018046D02*
X020696Y018046D01*
X020725Y018124D02*
X021751Y018124D01*
X020253Y017496D02*
X019115Y017496D01*
X019115Y017418D02*
X020139Y017418D01*
X020081Y017339D02*
X019115Y017339D01*
X019038Y017261D02*
X020049Y017261D01*
X020045Y017182D02*
X018515Y017182D01*
X018515Y017104D02*
X020049Y017104D01*
X020082Y017025D02*
X018452Y017025D01*
X018515Y017087D02*
X018380Y016953D01*
X018189Y016953D01*
X018055Y017087D01*
X018055Y017278D01*
X018189Y017413D01*
X018380Y017413D01*
X018515Y017278D01*
X018515Y017087D01*
X018515Y017261D02*
X018731Y017261D01*
X018655Y017339D02*
X018453Y017339D01*
X018655Y017418D02*
X017630Y017418D01*
X017688Y017339D02*
X018116Y017339D01*
X018055Y017261D02*
X017720Y017261D01*
X017725Y017182D02*
X018055Y017182D01*
X018055Y017104D02*
X017720Y017104D01*
X017687Y017025D02*
X018117Y017025D01*
X017629Y016947D02*
X020140Y016947D01*
X020203Y016476D02*
X017566Y016476D01*
X017577Y016471D02*
X017452Y016523D01*
X017317Y016523D01*
X017192Y016471D01*
X017096Y016375D01*
X017045Y016250D01*
X017045Y016115D01*
X017096Y015990D01*
X017192Y015894D01*
X017317Y015843D01*
X017452Y015843D01*
X017577Y015894D01*
X017673Y015990D01*
X017725Y016115D01*
X017725Y016250D01*
X017673Y016375D01*
X017577Y016471D01*
X017651Y016397D02*
X020118Y016397D01*
X020073Y016319D02*
X017696Y016319D01*
X017725Y016240D02*
X020045Y016240D01*
X020045Y016162D02*
X017725Y016162D01*
X017711Y016083D02*
X020058Y016083D01*
X020090Y016005D02*
X017679Y016005D01*
X017609Y015926D02*
X020160Y015926D01*
X020305Y015848D02*
X017464Y015848D01*
X017305Y015848D02*
X015925Y015848D01*
X015880Y015803D02*
X016015Y015937D01*
X016015Y016128D01*
X015880Y016263D01*
X015689Y016263D01*
X015555Y016128D01*
X015555Y015937D01*
X015689Y015803D01*
X015880Y015803D01*
X016003Y015926D02*
X017160Y015926D01*
X017090Y016005D02*
X016015Y016005D01*
X016015Y016083D02*
X017058Y016083D01*
X017045Y016162D02*
X015981Y016162D01*
X015902Y016240D02*
X017045Y016240D01*
X017073Y016319D02*
X012065Y016319D01*
X012065Y016378D02*
X011930Y016513D01*
X011739Y016513D01*
X011605Y016378D01*
X011605Y016187D01*
X011739Y016053D01*
X011930Y016053D01*
X012065Y016187D01*
X012065Y016378D01*
X012045Y016397D02*
X017118Y016397D01*
X017203Y016476D02*
X011967Y016476D01*
X011702Y016476D02*
X011124Y016476D01*
X011203Y016397D02*
X011624Y016397D01*
X011605Y016319D02*
X011236Y016319D01*
X011261Y016240D02*
X011605Y016240D01*
X011630Y016162D02*
X011261Y016162D01*
X011251Y016083D02*
X011709Y016083D01*
X011960Y016083D02*
X015555Y016083D01*
X015555Y016005D02*
X011219Y016005D01*
X011161Y015926D02*
X015566Y015926D01*
X015644Y015848D02*
X011061Y015848D01*
X010959Y015560D02*
X010810Y015560D01*
X010671Y015502D01*
X010565Y015396D01*
X010508Y015258D01*
X010508Y015108D01*
X010565Y014969D01*
X010671Y014863D01*
X010810Y014806D01*
X010959Y014806D01*
X011098Y014863D01*
X011204Y014969D01*
X011261Y015108D01*
X011261Y015258D01*
X011204Y015396D01*
X011098Y015502D01*
X010959Y015560D01*
X011022Y015534D02*
X015205Y015534D01*
X015205Y015612D02*
X009325Y015612D01*
X009325Y015534D02*
X009747Y015534D01*
X009810Y015560D02*
X009671Y015502D01*
X009565Y015396D01*
X009508Y015258D01*
X009508Y015108D01*
X009565Y014969D01*
X009671Y014863D01*
X009810Y014806D01*
X009959Y014806D01*
X010098Y014863D01*
X010204Y014969D01*
X010261Y015108D01*
X010261Y015258D01*
X010204Y015396D01*
X010098Y015502D01*
X009959Y015560D01*
X009810Y015560D01*
X009624Y015455D02*
X009325Y015455D01*
X009325Y015377D02*
X009557Y015377D01*
X009524Y015298D02*
X009325Y015298D01*
X009325Y015220D02*
X009508Y015220D01*
X009508Y015141D02*
X009325Y015141D01*
X009325Y015063D02*
X009526Y015063D01*
X009559Y014984D02*
X009325Y014984D01*
X009325Y014906D02*
X009629Y014906D01*
X009758Y014827D02*
X009325Y014827D01*
X009325Y014749D02*
X014605Y014749D01*
X014605Y014827D02*
X012004Y014827D01*
X012065Y014887D02*
X011930Y014753D01*
X011739Y014753D01*
X011605Y014887D01*
X011605Y015078D01*
X011739Y015213D01*
X011930Y015213D01*
X012065Y015078D01*
X012065Y014887D01*
X012065Y014906D02*
X014632Y014906D01*
X014711Y014984D02*
X012065Y014984D01*
X012065Y015063D02*
X013529Y015063D01*
X013539Y015053D02*
X013730Y015053D01*
X013865Y015187D01*
X013865Y015378D01*
X013730Y015513D01*
X013539Y015513D01*
X013405Y015378D01*
X013405Y015187D01*
X013539Y015053D01*
X013451Y015141D02*
X012001Y015141D01*
X011668Y015141D02*
X011261Y015141D01*
X011261Y015220D02*
X013405Y015220D01*
X013405Y015298D02*
X011245Y015298D01*
X011212Y015377D02*
X013405Y015377D01*
X013482Y015455D02*
X011145Y015455D01*
X010747Y015534D02*
X010022Y015534D01*
X010145Y015455D02*
X010624Y015455D01*
X010557Y015377D02*
X010212Y015377D01*
X010245Y015298D02*
X010524Y015298D01*
X010508Y015220D02*
X010261Y015220D01*
X010261Y015141D02*
X010508Y015141D01*
X010526Y015063D02*
X010243Y015063D01*
X010210Y014984D02*
X010559Y014984D01*
X010629Y014906D02*
X010140Y014906D01*
X010011Y014827D02*
X010758Y014827D01*
X011011Y014827D02*
X011665Y014827D01*
X011605Y014906D02*
X011140Y014906D01*
X011210Y014984D02*
X011605Y014984D01*
X011605Y015063D02*
X011243Y015063D01*
X009698Y014513D02*
X009325Y014513D01*
X009325Y014435D02*
X009604Y014435D01*
X009548Y014356D02*
X009325Y014356D01*
X009325Y014278D02*
X009516Y014278D01*
X009508Y014199D02*
X009325Y014199D01*
X009325Y014121D02*
X009508Y014121D01*
X009535Y014042D02*
X009325Y014042D01*
X009325Y013964D02*
X009571Y013964D01*
X009649Y013885D02*
X009325Y013885D01*
X009325Y013807D02*
X009807Y013807D01*
X009325Y014592D02*
X014700Y014592D01*
X014622Y014670D02*
X009325Y014670D01*
X009325Y015691D02*
X015217Y015691D01*
X015296Y015769D02*
X009325Y015769D01*
X012039Y016162D02*
X015588Y016162D01*
X015667Y016240D02*
X012065Y016240D01*
X013787Y015455D02*
X015237Y015455D01*
X015205Y015377D02*
X013865Y015377D01*
X013865Y015298D02*
X015205Y015298D01*
X015205Y015220D02*
X013865Y015220D01*
X013818Y015141D02*
X015251Y015141D01*
X015329Y015063D02*
X013740Y015063D01*
X013815Y013571D02*
X014298Y013571D01*
X014219Y013493D02*
X013770Y013493D01*
X012885Y012001D02*
X012791Y012001D01*
X012870Y011923D02*
X012885Y011923D01*
X012885Y011609D02*
X012836Y011609D01*
X012885Y011530D02*
X011030Y011530D01*
X011148Y011452D02*
X012885Y011452D01*
X012885Y011373D02*
X011214Y011373D01*
X011246Y011295D02*
X012885Y011295D01*
X012885Y011216D02*
X011261Y011216D01*
X011261Y011138D02*
X012885Y011138D01*
X012885Y011059D02*
X011241Y011059D01*
X011209Y010981D02*
X012885Y010981D01*
X012885Y010902D02*
X011137Y010902D01*
X011003Y010824D02*
X012885Y010824D01*
X012885Y010745D02*
X009325Y010745D01*
X009325Y010667D02*
X012885Y010667D01*
X012885Y010588D02*
X009325Y010588D01*
X011080Y010510D02*
X012885Y010510D01*
X012885Y010431D02*
X011169Y010431D01*
X011222Y010353D02*
X012885Y010353D01*
X012885Y010274D02*
X011255Y010274D01*
X012589Y011553D02*
X012455Y011687D01*
X016303Y009489D02*
X016366Y009489D01*
X020725Y016240D02*
X022508Y016240D01*
X022533Y016319D02*
X020696Y016319D01*
X020651Y016397D02*
X022566Y016397D01*
X022645Y016476D02*
X020566Y016476D01*
X018780Y017653D02*
X012030Y017653D01*
X012065Y017732D02*
X012547Y017732D01*
X012424Y017810D02*
X012065Y017810D01*
X012054Y017889D02*
X012357Y017889D01*
X011952Y017575D02*
X018701Y017575D01*
X018655Y017496D02*
X017516Y017496D01*
X011717Y017575D02*
X009325Y017575D01*
X009325Y017653D02*
X011639Y017653D01*
D16*
X017385Y018683D02*
X017385Y019183D01*
M02*
