G75*
G70*
%OFA0B0*%
%FSLAX24Y24*%
%IPPOS*%
%LPD*%
%AMOC8*
5,1,8,0,0,1.08239X$1,22.5*
%
%ADD10R,0.0591X0.0591*%
%ADD11OC8,0.0591*%
%ADD12C,0.0075*%
%ADD13C,0.0080*%
%ADD14C,0.0440*%
%ADD15R,0.0440X0.0440*%
%ADD16C,0.0440*%
%ADD17C,0.0514*%
%ADD18C,0.0050*%
%ADD19C,0.0320*%
%ADD20R,0.0200X0.0200*%
%ADD21C,0.0410*%
%ADD22R,0.0410X0.0410*%
%ADD23C,0.0103*%
%ADD24C,0.0220*%
%ADD25C,0.0100*%
%ADD26C,0.0200*%
D10*
X027885Y010183D03*
X013685Y018083D03*
X009885Y019183D03*
D11*
X009885Y018183D03*
X009885Y017183D03*
X009885Y016183D03*
X009885Y015183D03*
X009885Y014183D03*
X009885Y013183D03*
X009885Y012183D03*
X009885Y011183D03*
X009885Y010183D03*
X012685Y018083D03*
X027885Y018183D03*
X027885Y017183D03*
X027885Y016183D03*
X027885Y015183D03*
X027885Y014183D03*
X027885Y013183D03*
X027885Y012183D03*
X027885Y011183D03*
X027885Y019183D03*
D12*
X029420Y017343D02*
X029420Y017023D01*
X029420Y017343D02*
X029720Y017343D01*
X029720Y017023D01*
X029420Y017023D01*
X029420Y017097D02*
X029720Y017097D01*
X029720Y017171D02*
X029420Y017171D01*
X029420Y017245D02*
X029720Y017245D01*
X029720Y017319D02*
X029420Y017319D01*
X030049Y017343D02*
X030049Y017023D01*
X030049Y017343D02*
X030349Y017343D01*
X030349Y017023D01*
X030049Y017023D01*
X030049Y017097D02*
X030349Y017097D01*
X030349Y017171D02*
X030049Y017171D01*
X030049Y017245D02*
X030349Y017245D01*
X030349Y017319D02*
X030049Y017319D01*
X030605Y015243D02*
X030605Y014923D01*
X030305Y014923D01*
X030305Y015243D01*
X030605Y015243D01*
X030605Y014997D02*
X030305Y014997D01*
X030305Y015071D02*
X030605Y015071D01*
X030605Y015145D02*
X030305Y015145D01*
X030305Y015219D02*
X030605Y015219D01*
X031235Y015243D02*
X031235Y014923D01*
X030935Y014923D01*
X030935Y015243D01*
X031235Y015243D01*
X031235Y014997D02*
X030935Y014997D01*
X030935Y015071D02*
X031235Y015071D01*
X031235Y015145D02*
X030935Y015145D01*
X030935Y015219D02*
X031235Y015219D01*
X031864Y015243D02*
X031864Y014923D01*
X031564Y014923D01*
X031564Y015243D01*
X031864Y015243D01*
X031864Y014997D02*
X031564Y014997D01*
X031564Y015071D02*
X031864Y015071D01*
X031864Y015145D02*
X031564Y015145D01*
X031564Y015219D02*
X031864Y015219D01*
X031564Y014443D02*
X031564Y014123D01*
X031564Y014443D02*
X031864Y014443D01*
X031864Y014123D01*
X031564Y014123D01*
X031564Y014197D02*
X031864Y014197D01*
X031864Y014271D02*
X031564Y014271D01*
X031564Y014345D02*
X031864Y014345D01*
X031864Y014419D02*
X031564Y014419D01*
X030935Y014443D02*
X030935Y014123D01*
X030935Y014443D02*
X031235Y014443D01*
X031235Y014123D01*
X030935Y014123D01*
X030935Y014197D02*
X031235Y014197D01*
X031235Y014271D02*
X030935Y014271D01*
X030935Y014345D02*
X031235Y014345D01*
X031235Y014419D02*
X030935Y014419D01*
X030305Y014443D02*
X030305Y014123D01*
X030305Y014443D02*
X030605Y014443D01*
X030605Y014123D01*
X030305Y014123D01*
X030305Y014197D02*
X030605Y014197D01*
X030605Y014271D02*
X030305Y014271D01*
X030305Y014345D02*
X030605Y014345D01*
X030605Y014419D02*
X030305Y014419D01*
X025249Y011843D02*
X025249Y011523D01*
X024949Y011523D01*
X024949Y011843D01*
X025249Y011843D01*
X025249Y011597D02*
X024949Y011597D01*
X024949Y011671D02*
X025249Y011671D01*
X025249Y011745D02*
X024949Y011745D01*
X024949Y011819D02*
X025249Y011819D01*
X024620Y011843D02*
X024620Y011523D01*
X024320Y011523D01*
X024320Y011843D01*
X024620Y011843D01*
X024620Y011597D02*
X024320Y011597D01*
X024320Y011671D02*
X024620Y011671D01*
X024620Y011745D02*
X024320Y011745D01*
X024320Y011819D02*
X024620Y011819D01*
X024620Y010843D02*
X024620Y010523D01*
X024320Y010523D01*
X024320Y010843D01*
X024620Y010843D01*
X024620Y010597D02*
X024320Y010597D01*
X024320Y010671D02*
X024620Y010671D01*
X024620Y010745D02*
X024320Y010745D01*
X024320Y010819D02*
X024620Y010819D01*
X025249Y010843D02*
X025249Y010523D01*
X024949Y010523D01*
X024949Y010843D01*
X025249Y010843D01*
X025249Y010597D02*
X024949Y010597D01*
X024949Y010671D02*
X025249Y010671D01*
X025249Y010745D02*
X024949Y010745D01*
X024949Y010819D02*
X025249Y010819D01*
X025249Y009843D02*
X025249Y009523D01*
X024949Y009523D01*
X024949Y009843D01*
X025249Y009843D01*
X025249Y009597D02*
X024949Y009597D01*
X024949Y009671D02*
X025249Y009671D01*
X025249Y009745D02*
X024949Y009745D01*
X024949Y009819D02*
X025249Y009819D01*
X024620Y009843D02*
X024620Y009523D01*
X024320Y009523D01*
X024320Y009843D01*
X024620Y009843D01*
X024620Y009597D02*
X024320Y009597D01*
X024320Y009671D02*
X024620Y009671D01*
X024620Y009745D02*
X024320Y009745D01*
X024320Y009819D02*
X024620Y009819D01*
X018645Y012003D02*
X018325Y012003D01*
X018325Y012303D01*
X018645Y012303D01*
X018645Y012003D01*
X018645Y012077D02*
X018325Y012077D01*
X018325Y012151D02*
X018645Y012151D01*
X018645Y012225D02*
X018325Y012225D01*
X018325Y012299D02*
X018645Y012299D01*
X018645Y012633D02*
X018325Y012633D01*
X018325Y012933D01*
X018645Y012933D01*
X018645Y012633D01*
X018645Y012707D02*
X018325Y012707D01*
X018325Y012781D02*
X018645Y012781D01*
X018645Y012855D02*
X018325Y012855D01*
X018325Y012929D02*
X018645Y012929D01*
X018645Y013263D02*
X018325Y013263D01*
X018325Y013563D01*
X018645Y013563D01*
X018645Y013263D01*
X018645Y013337D02*
X018325Y013337D01*
X018325Y013411D02*
X018645Y013411D01*
X018645Y013485D02*
X018325Y013485D01*
X018325Y013559D02*
X018645Y013559D01*
D13*
X009985Y009233D02*
X009335Y009883D01*
X009335Y017633D01*
X009885Y018183D01*
X010385Y018683D01*
X016685Y018683D01*
X017185Y018183D01*
X017385Y018183D01*
X017672Y017843D02*
X017097Y017843D01*
X016972Y017894D01*
X016876Y017990D01*
X016825Y018115D01*
X016825Y018250D01*
X016844Y018297D01*
X016618Y018523D01*
X011464Y018523D01*
X011464Y017843D01*
X011651Y017843D01*
X011745Y017749D01*
X012151Y017343D01*
X016863Y017343D01*
X016876Y017375D01*
X016972Y017471D01*
X017097Y017523D01*
X017672Y017523D01*
X017797Y017471D01*
X017893Y017375D01*
X017945Y017250D01*
X017945Y017115D01*
X017893Y016990D01*
X017797Y016894D01*
X017672Y016843D01*
X017097Y016843D01*
X016972Y016894D01*
X016876Y016990D01*
X016863Y017023D01*
X012018Y017023D01*
X011518Y017523D01*
X011464Y017523D01*
X011464Y017343D01*
X011651Y017343D01*
X012151Y016843D01*
X017951Y016843D01*
X018351Y016443D01*
X018445Y016349D01*
X018445Y015943D01*
X019924Y015943D01*
X019876Y015990D01*
X019825Y016115D01*
X019825Y016250D01*
X019876Y016375D01*
X019972Y016471D01*
X020097Y016523D01*
X020672Y016523D01*
X020797Y016471D01*
X020893Y016375D01*
X020945Y016250D01*
X020945Y016115D01*
X020893Y015990D01*
X020845Y015943D01*
X020868Y015943D01*
X021175Y016249D01*
X021268Y016343D01*
X022125Y016343D01*
X022125Y017549D01*
X022218Y017643D01*
X022218Y017643D01*
X022305Y017730D01*
X022305Y018523D01*
X022151Y018523D01*
X021151Y017523D01*
X018445Y017523D01*
X018445Y017348D01*
X018515Y017278D01*
X018515Y017087D01*
X018380Y016953D01*
X018189Y016953D01*
X018055Y017087D01*
X018055Y017278D01*
X018125Y017348D01*
X018125Y017523D01*
X016606Y017523D01*
X016372Y017756D01*
X016340Y017743D01*
X016204Y017743D01*
X016079Y017794D01*
X015984Y017890D01*
X015932Y018015D01*
X015932Y018150D01*
X015984Y018275D01*
X016079Y018371D01*
X016204Y018423D01*
X016340Y018423D01*
X016465Y018371D01*
X016560Y018275D01*
X016612Y018150D01*
X016612Y018015D01*
X016598Y017982D01*
X016738Y017843D01*
X021018Y017843D01*
X022018Y018843D01*
X023451Y018843D01*
X023531Y018762D01*
X024417Y018762D01*
X024464Y018716D01*
X024464Y017843D01*
X024951Y017843D01*
X025951Y016843D01*
X026305Y016843D01*
X026305Y019716D01*
X026352Y019762D01*
X027417Y019762D01*
X027464Y019716D01*
X027464Y019378D01*
X027704Y019618D01*
X027845Y019618D01*
X027845Y019223D01*
X027925Y019223D01*
X028320Y019223D01*
X030749Y019223D01*
X030827Y019302D02*
X028320Y019302D01*
X028320Y019363D02*
X028065Y019618D01*
X027925Y019618D01*
X027925Y019223D01*
X027925Y019143D01*
X028320Y019143D01*
X028320Y019002D01*
X028065Y018747D01*
X027925Y018747D01*
X027925Y019143D01*
X027845Y019143D01*
X027845Y018747D01*
X027704Y018747D01*
X027464Y018988D01*
X027464Y016843D01*
X027637Y016843D01*
X027469Y017011D01*
X027469Y017355D01*
X027713Y017598D01*
X028057Y017598D01*
X028300Y017355D01*
X028300Y017343D01*
X029263Y017343D01*
X029263Y017407D01*
X029355Y017500D01*
X029784Y017500D01*
X029877Y017407D01*
X029877Y017353D01*
X029892Y017353D01*
X029892Y017407D01*
X029985Y017500D01*
X030025Y017500D01*
X030025Y017517D01*
X029955Y017587D01*
X029955Y017778D01*
X030025Y017848D01*
X030025Y018499D01*
X030118Y018593D01*
X031668Y020143D01*
X009475Y020143D01*
X009441Y020139D01*
X009409Y020128D01*
X009381Y020110D01*
X009357Y020086D01*
X009339Y020058D01*
X009328Y020026D01*
X009325Y019993D01*
X009325Y017849D01*
X009478Y018002D01*
X009469Y018011D01*
X009469Y018355D01*
X009713Y018598D01*
X010057Y018598D01*
X010065Y018589D01*
X010225Y018749D01*
X010225Y018749D01*
X010305Y018830D01*
X010305Y019716D01*
X010352Y019762D01*
X011417Y019762D01*
X011464Y019716D01*
X011464Y018843D01*
X016751Y018843D01*
X017078Y018515D01*
X017097Y018523D01*
X017672Y018523D01*
X017797Y018471D01*
X017893Y018375D01*
X017945Y018250D01*
X017945Y018115D01*
X017893Y017990D01*
X017797Y017894D01*
X017672Y017843D01*
X017783Y017889D02*
X019986Y017889D01*
X019972Y017894D02*
X020097Y017843D01*
X020672Y017843D01*
X020797Y017894D01*
X020893Y017990D01*
X020945Y018115D01*
X020945Y018250D01*
X020893Y018375D01*
X020797Y018471D01*
X020672Y018523D01*
X020097Y018523D01*
X019972Y018471D01*
X019876Y018375D01*
X019825Y018250D01*
X019825Y018115D01*
X019876Y017990D01*
X019972Y017894D01*
X019899Y017967D02*
X017870Y017967D01*
X017916Y018046D02*
X019853Y018046D01*
X019825Y018124D02*
X017945Y018124D01*
X017945Y018203D02*
X019825Y018203D01*
X019837Y018281D02*
X017932Y018281D01*
X017899Y018360D02*
X019870Y018360D01*
X019939Y018438D02*
X017830Y018438D01*
X017687Y018517D02*
X020082Y018517D01*
X020129Y018823D02*
X020345Y018823D01*
X020345Y019143D01*
X020425Y019143D01*
X020425Y019223D01*
X020345Y019223D01*
X020345Y019543D01*
X020129Y019543D01*
X020060Y019529D01*
X019994Y019502D01*
X019935Y019462D01*
X019885Y019412D01*
X019845Y019353D01*
X019818Y019288D01*
X019805Y019223D01*
X020345Y019223D01*
X020425Y019223D01*
X020964Y019223D01*
X020951Y019288D01*
X020924Y019353D01*
X020884Y019412D01*
X020834Y019462D01*
X020775Y019502D01*
X020710Y019529D01*
X020640Y019543D01*
X020425Y019543D01*
X020425Y019223D01*
X020425Y019145D02*
X026305Y019145D01*
X026305Y019223D02*
X020964Y019223D01*
X020964Y019143D02*
X020425Y019143D01*
X020425Y018823D01*
X020640Y018823D01*
X020710Y018837D01*
X020775Y018864D01*
X020834Y018903D01*
X020884Y018953D01*
X020924Y019012D01*
X020951Y019078D01*
X020964Y019143D01*
X020946Y019066D02*
X026305Y019066D01*
X026305Y018988D02*
X020907Y018988D01*
X020840Y018909D02*
X026305Y018909D01*
X026305Y018831D02*
X023463Y018831D01*
X023385Y018683D02*
X022085Y018683D01*
X021085Y017683D01*
X018285Y017683D01*
X018285Y017183D01*
X018515Y017182D02*
X019825Y017182D01*
X019825Y017115D02*
X019825Y017250D01*
X019876Y017375D01*
X019972Y017471D01*
X020097Y017523D01*
X020672Y017523D01*
X020797Y017471D01*
X020893Y017375D01*
X020945Y017250D01*
X020945Y017115D01*
X020893Y016990D01*
X020797Y016894D01*
X020672Y016843D01*
X020097Y016843D01*
X019972Y016894D01*
X019876Y016990D01*
X019825Y017115D01*
X019829Y017104D02*
X018515Y017104D01*
X018452Y017025D02*
X019862Y017025D01*
X019920Y016947D02*
X017849Y016947D01*
X017907Y017025D02*
X018117Y017025D01*
X018055Y017104D02*
X017940Y017104D01*
X017945Y017182D02*
X018055Y017182D01*
X018055Y017261D02*
X017940Y017261D01*
X017908Y017339D02*
X018116Y017339D01*
X018125Y017418D02*
X017850Y017418D01*
X017736Y017496D02*
X018125Y017496D01*
X018285Y017683D02*
X016672Y017683D01*
X016272Y018083D01*
X016590Y018203D02*
X016825Y018203D01*
X016825Y018124D02*
X016612Y018124D01*
X016612Y018046D02*
X016853Y018046D01*
X016899Y017967D02*
X016614Y017967D01*
X016692Y017889D02*
X016986Y017889D01*
X016554Y017575D02*
X011919Y017575D01*
X011840Y017653D02*
X013349Y017653D01*
X013335Y017657D02*
X013371Y017647D01*
X013645Y017647D01*
X013645Y018043D01*
X013725Y018043D01*
X013725Y018123D01*
X014120Y018123D01*
X014120Y018396D01*
X014110Y018432D01*
X014092Y018464D01*
X014066Y018490D01*
X014034Y018508D01*
X013998Y018518D01*
X013725Y018518D01*
X013725Y018123D01*
X013645Y018123D01*
X013645Y018518D01*
X013371Y018518D01*
X013335Y018508D01*
X013303Y018490D01*
X013277Y018464D01*
X013259Y018432D01*
X013249Y018396D01*
X013249Y018123D01*
X013645Y018123D01*
X013645Y018043D01*
X013249Y018043D01*
X013249Y017769D01*
X013259Y017733D01*
X013277Y017701D01*
X013303Y017675D01*
X013335Y017657D01*
X013260Y017732D02*
X012921Y017732D01*
X012857Y017667D02*
X013100Y017911D01*
X013100Y018255D01*
X012857Y018498D01*
X012513Y018498D01*
X012269Y018255D01*
X012269Y017911D01*
X012513Y017667D01*
X012857Y017667D01*
X012999Y017810D02*
X013249Y017810D01*
X013249Y017889D02*
X013078Y017889D01*
X013100Y017967D02*
X013249Y017967D01*
X013249Y018124D02*
X013100Y018124D01*
X013100Y018046D02*
X013645Y018046D01*
X013645Y018124D02*
X013725Y018124D01*
X013725Y018046D02*
X015145Y018046D01*
X015145Y018124D02*
X014120Y018124D01*
X014120Y018203D02*
X015145Y018203D01*
X015145Y018281D02*
X014120Y018281D01*
X014120Y018360D02*
X015152Y018360D01*
X015145Y018352D02*
X015145Y017813D01*
X015215Y017743D01*
X015754Y017743D01*
X015825Y017813D01*
X015825Y018352D01*
X015754Y018423D01*
X015215Y018423D01*
X015145Y018352D01*
X015817Y018360D02*
X016068Y018360D01*
X015990Y018281D02*
X015825Y018281D01*
X015825Y018203D02*
X015954Y018203D01*
X015932Y018124D02*
X015825Y018124D01*
X015825Y018046D02*
X015932Y018046D01*
X015952Y017967D02*
X015825Y017967D01*
X015825Y017889D02*
X015985Y017889D01*
X016064Y017810D02*
X015822Y017810D01*
X015147Y017810D02*
X014120Y017810D01*
X014120Y017769D02*
X014120Y018043D01*
X013725Y018043D01*
X013725Y017647D01*
X013998Y017647D01*
X014034Y017657D01*
X014066Y017675D01*
X014092Y017701D01*
X014110Y017733D01*
X014120Y017769D01*
X014109Y017732D02*
X016397Y017732D01*
X016475Y017653D02*
X014020Y017653D01*
X014120Y017889D02*
X015145Y017889D01*
X015145Y017967D02*
X014120Y017967D01*
X013725Y017967D02*
X013645Y017967D01*
X013645Y017889D02*
X013725Y017889D01*
X013725Y017810D02*
X013645Y017810D01*
X013645Y017732D02*
X013725Y017732D01*
X013725Y017653D02*
X013645Y017653D01*
X013645Y018203D02*
X013725Y018203D01*
X013725Y018281D02*
X013645Y018281D01*
X013645Y018360D02*
X013725Y018360D01*
X013725Y018438D02*
X013645Y018438D01*
X013645Y018517D02*
X013725Y018517D01*
X014003Y018517D02*
X016624Y018517D01*
X016703Y018438D02*
X014107Y018438D01*
X014415Y018843D02*
X014954Y018843D01*
X015025Y018913D01*
X015025Y019452D01*
X014954Y019523D01*
X014415Y019523D01*
X014345Y019452D01*
X014345Y018913D01*
X014415Y018843D01*
X014348Y018909D02*
X011464Y018909D01*
X011464Y018988D02*
X014345Y018988D01*
X014345Y019066D02*
X011464Y019066D01*
X011464Y019145D02*
X014345Y019145D01*
X014345Y019223D02*
X011464Y019223D01*
X011464Y019302D02*
X014345Y019302D01*
X014345Y019380D02*
X011464Y019380D01*
X011464Y019459D02*
X014351Y019459D01*
X015018Y019459D02*
X015267Y019459D01*
X015279Y019471D02*
X015184Y019375D01*
X015132Y019250D01*
X015132Y019115D01*
X015184Y018990D01*
X015279Y018894D01*
X015404Y018843D01*
X015540Y018843D01*
X015665Y018894D01*
X015760Y018990D01*
X015812Y019115D01*
X015812Y019250D01*
X015760Y019375D01*
X015665Y019471D01*
X015540Y019523D01*
X015404Y019523D01*
X015279Y019471D01*
X015189Y019380D02*
X015025Y019380D01*
X015025Y019302D02*
X015153Y019302D01*
X015132Y019223D02*
X015025Y019223D01*
X015025Y019145D02*
X015132Y019145D01*
X015152Y019066D02*
X015025Y019066D01*
X015025Y018988D02*
X015186Y018988D01*
X015265Y018909D02*
X015021Y018909D01*
X015679Y018909D02*
X016052Y018909D01*
X016067Y018894D02*
X016192Y018843D01*
X016327Y018843D01*
X016452Y018894D01*
X016548Y018990D01*
X016599Y019115D01*
X016599Y019250D01*
X016548Y019375D01*
X016452Y019471D01*
X016327Y019523D01*
X016192Y019523D01*
X016067Y019471D01*
X015971Y019375D01*
X015919Y019250D01*
X015919Y019115D01*
X015971Y018990D01*
X016067Y018894D01*
X015973Y018988D02*
X015758Y018988D01*
X015792Y019066D02*
X015940Y019066D01*
X015919Y019145D02*
X015812Y019145D01*
X015812Y019223D02*
X015919Y019223D01*
X015941Y019302D02*
X015791Y019302D01*
X015755Y019380D02*
X015976Y019380D01*
X016055Y019459D02*
X015677Y019459D01*
X016464Y019459D02*
X016960Y019459D01*
X016972Y019471D02*
X016876Y019375D01*
X016825Y019250D01*
X016825Y019115D01*
X016876Y018990D01*
X016972Y018894D01*
X017097Y018843D01*
X017672Y018843D01*
X017797Y018894D01*
X017893Y018990D01*
X017945Y019115D01*
X017945Y019250D01*
X017893Y019375D01*
X017797Y019471D01*
X017672Y019523D01*
X017097Y019523D01*
X016972Y019471D01*
X016881Y019380D02*
X016543Y019380D01*
X016578Y019302D02*
X016846Y019302D01*
X016825Y019223D02*
X016599Y019223D01*
X016599Y019145D02*
X016825Y019145D01*
X016845Y019066D02*
X016579Y019066D01*
X016545Y018988D02*
X016879Y018988D01*
X016957Y018909D02*
X016467Y018909D01*
X016763Y018831D02*
X020089Y018831D01*
X020060Y018837D02*
X020129Y018823D01*
X020060Y018837D02*
X019994Y018864D01*
X019935Y018903D01*
X019885Y018953D01*
X019845Y019012D01*
X019818Y019078D01*
X019805Y019143D01*
X020345Y019143D01*
X020345Y019223D01*
X020345Y019145D02*
X017945Y019145D01*
X017945Y019223D02*
X019806Y019223D01*
X019824Y019302D02*
X017923Y019302D01*
X017888Y019380D02*
X019864Y019380D01*
X019931Y019459D02*
X017809Y019459D01*
X017924Y019066D02*
X019823Y019066D01*
X019862Y018988D02*
X017890Y018988D01*
X017812Y018909D02*
X019929Y018909D01*
X020345Y018909D02*
X020425Y018909D01*
X020425Y018831D02*
X020345Y018831D01*
X020345Y018988D02*
X020425Y018988D01*
X020425Y019066D02*
X020345Y019066D01*
X020680Y018831D02*
X022006Y018831D01*
X021928Y018752D02*
X016841Y018752D01*
X016920Y018674D02*
X021849Y018674D01*
X021771Y018595D02*
X016998Y018595D01*
X017077Y018517D02*
X017082Y018517D01*
X016781Y018360D02*
X016476Y018360D01*
X016554Y018281D02*
X016837Y018281D01*
X017033Y017496D02*
X011997Y017496D01*
X012076Y017418D02*
X016919Y017418D01*
X017385Y017183D02*
X012085Y017183D01*
X011585Y017683D01*
X010385Y017683D01*
X010235Y017533D01*
X009885Y017183D01*
X010385Y016683D02*
X011785Y016683D01*
X011985Y016483D01*
X016885Y016483D01*
X017185Y016183D01*
X017385Y016183D01*
X016924Y015943D02*
X015568Y015943D01*
X015438Y015813D01*
X015339Y015813D01*
X015205Y015678D01*
X015205Y015487D01*
X015249Y015443D01*
X015201Y015443D01*
X014951Y015693D01*
X012720Y015693D01*
X012765Y015737D01*
X012765Y015928D01*
X012630Y016063D01*
X012439Y016063D01*
X012305Y015928D01*
X012305Y015737D01*
X012349Y015693D01*
X012301Y015693D01*
X011745Y016249D01*
X011651Y016343D01*
X011464Y016343D01*
X011464Y016523D01*
X011718Y016523D01*
X011825Y016416D01*
X011918Y016323D01*
X016818Y016323D01*
X016844Y016297D01*
X016825Y016250D01*
X016825Y016115D01*
X016876Y015990D01*
X016924Y015943D01*
X016870Y016005D02*
X012688Y016005D01*
X012765Y015926D02*
X015552Y015926D01*
X015473Y015848D02*
X012765Y015848D01*
X012765Y015769D02*
X015296Y015769D01*
X015217Y015691D02*
X014953Y015691D01*
X015031Y015612D02*
X015205Y015612D01*
X015205Y015534D02*
X015110Y015534D01*
X015188Y015455D02*
X015237Y015455D01*
X015135Y015283D02*
X015435Y015283D01*
X015685Y015283D01*
X015985Y015583D01*
X020835Y015583D01*
X021085Y015333D01*
X021085Y015183D01*
X022885Y015183D01*
X023385Y015683D01*
X023385Y016583D01*
X023485Y016683D01*
X024885Y016683D01*
X025885Y015683D01*
X028335Y015683D01*
X028455Y015563D01*
X028635Y015563D01*
X029155Y015458D02*
X029222Y015524D01*
X029265Y015627D01*
X029265Y015738D01*
X029222Y015841D01*
X029168Y015895D01*
X029176Y015900D01*
X029218Y015941D01*
X029250Y015991D01*
X029273Y016045D01*
X029285Y016103D01*
X029285Y016123D01*
X028995Y016123D01*
X028995Y016143D01*
X029285Y016143D01*
X029285Y016162D01*
X029273Y016220D01*
X029250Y016275D01*
X029218Y016324D01*
X029176Y016366D01*
X029168Y016371D01*
X029222Y016424D01*
X029265Y016527D01*
X029265Y016638D01*
X029222Y016741D01*
X029143Y016820D01*
X029040Y016863D01*
X029016Y016863D01*
X028956Y016923D01*
X028485Y016923D01*
X028415Y016852D01*
X028415Y016729D01*
X028395Y016749D01*
X028301Y016843D01*
X028132Y016843D01*
X028300Y017011D01*
X028300Y017023D01*
X029263Y017023D01*
X029263Y016958D01*
X029355Y016866D01*
X029784Y016866D01*
X029877Y016958D01*
X029877Y017013D01*
X029892Y017013D01*
X029892Y016958D01*
X029985Y016866D01*
X030414Y016866D01*
X030506Y016958D01*
X030506Y017023D01*
X030883Y017023D01*
X033275Y014631D01*
X033275Y013348D01*
X033205Y013278D01*
X033205Y013179D01*
X033018Y012993D01*
X030477Y012993D01*
X030477Y013039D01*
X030377Y013140D01*
X030340Y013140D01*
X030340Y013204D01*
X030091Y013453D01*
X030180Y013453D01*
X030250Y013523D01*
X030851Y013523D01*
X031151Y013823D01*
X031245Y013916D01*
X031245Y013966D01*
X031299Y013966D01*
X031392Y014058D01*
X031392Y014507D01*
X031299Y014600D01*
X030870Y014600D01*
X030778Y014507D01*
X030778Y014481D01*
X030770Y014511D01*
X030746Y014551D01*
X030713Y014584D01*
X030673Y014607D01*
X030628Y014620D01*
X030495Y014620D01*
X030495Y014453D01*
X030468Y014453D01*
X030415Y014399D01*
X030415Y014620D01*
X030282Y014620D01*
X030237Y014607D01*
X030196Y014584D01*
X030163Y014551D01*
X030140Y014511D01*
X030128Y014465D01*
X030128Y014323D01*
X030375Y014323D01*
X030375Y014243D01*
X030128Y014243D01*
X030128Y014100D01*
X030140Y014055D01*
X030163Y014014D01*
X030196Y013981D01*
X030237Y013958D01*
X030282Y013946D01*
X030415Y013946D01*
X030415Y014166D01*
X030468Y014113D01*
X030495Y014113D01*
X030495Y013946D01*
X030628Y013946D01*
X030673Y013958D01*
X030713Y013981D01*
X030746Y014014D01*
X030770Y014055D01*
X030778Y014085D01*
X030778Y014058D01*
X030856Y013980D01*
X030718Y013843D01*
X030250Y013843D01*
X030180Y013913D01*
X029989Y013913D01*
X029855Y013778D01*
X029855Y013689D01*
X029845Y013699D01*
X029751Y013793D01*
X028718Y013793D01*
X028495Y013569D01*
X028495Y013866D01*
X028705Y014077D01*
X028747Y013974D01*
X028826Y013895D01*
X028929Y013853D01*
X029040Y013853D01*
X029143Y013895D01*
X029222Y013974D01*
X029265Y014077D01*
X029265Y014188D01*
X029222Y014291D01*
X029190Y014323D01*
X029351Y014323D01*
X029445Y014416D01*
X030151Y015123D01*
X030415Y015123D01*
X030415Y015386D01*
X030925Y015896D01*
X030925Y015816D01*
X030925Y015400D01*
X030870Y015400D01*
X030778Y015307D01*
X030778Y015281D01*
X030770Y015311D01*
X030746Y015351D01*
X030713Y015384D01*
X030673Y015407D01*
X030628Y015420D01*
X030495Y015420D01*
X030495Y015123D01*
X030415Y015123D01*
X030415Y015043D01*
X030495Y015043D01*
X030495Y014746D01*
X030628Y014746D01*
X030673Y014758D01*
X030713Y014781D01*
X030746Y014814D01*
X030770Y014855D01*
X030778Y014885D01*
X030778Y014858D01*
X030870Y014766D01*
X031299Y014766D01*
X031392Y014858D01*
X031392Y014913D01*
X031407Y014913D01*
X031407Y014858D01*
X031500Y014766D01*
X031505Y014766D01*
X031505Y014600D01*
X031500Y014600D01*
X031407Y014507D01*
X031407Y014058D01*
X031500Y013966D01*
X031929Y013966D01*
X032021Y014058D01*
X032021Y014507D01*
X031953Y014576D01*
X031965Y014587D01*
X031965Y014778D01*
X031953Y014790D01*
X032021Y014858D01*
X032021Y015307D01*
X031929Y015400D01*
X031500Y015400D01*
X031407Y015307D01*
X031407Y015253D01*
X031392Y015253D01*
X031392Y015307D01*
X031299Y015400D01*
X031245Y015400D01*
X031245Y015816D01*
X031381Y015953D01*
X031480Y015953D01*
X031615Y016087D01*
X031615Y016278D01*
X031480Y016413D01*
X031289Y016413D01*
X031185Y016308D01*
X031080Y016413D01*
X030889Y016413D01*
X030785Y016308D01*
X030680Y016413D01*
X030489Y016413D01*
X030355Y016278D01*
X030355Y016179D01*
X029268Y015093D01*
X029230Y015093D01*
X029265Y015177D01*
X029265Y015288D01*
X029222Y015391D01*
X029155Y015458D01*
X029158Y015455D02*
X029631Y015455D01*
X029709Y015534D02*
X029226Y015534D01*
X029258Y015612D02*
X029788Y015612D01*
X029866Y015691D02*
X029265Y015691D01*
X029252Y015769D02*
X029945Y015769D01*
X030023Y015848D02*
X029215Y015848D01*
X029202Y015926D02*
X030102Y015926D01*
X030180Y016005D02*
X029256Y016005D01*
X029281Y016083D02*
X030259Y016083D01*
X030337Y016162D02*
X029285Y016162D01*
X029265Y016240D02*
X030355Y016240D01*
X030395Y016319D02*
X029221Y016319D01*
X029195Y016397D02*
X030474Y016397D01*
X030695Y016397D02*
X030874Y016397D01*
X030795Y016319D02*
X030774Y016319D01*
X030935Y016183D02*
X030985Y016183D01*
X029285Y014483D01*
X028885Y014483D01*
X028335Y013933D01*
X028335Y013633D01*
X027885Y013183D01*
X028335Y013183D02*
X028335Y012933D01*
X028085Y012683D01*
X024385Y012683D01*
X023885Y013183D01*
X024464Y013179D02*
X026305Y013179D01*
X026305Y013257D02*
X024464Y013257D01*
X024464Y013336D02*
X026305Y013336D01*
X026305Y013414D02*
X024464Y013414D01*
X024464Y013493D02*
X026305Y013493D01*
X026305Y013523D02*
X026305Y012843D01*
X024464Y012843D01*
X024464Y013523D01*
X026305Y013523D01*
X026305Y013843D02*
X024464Y013843D01*
X024464Y014636D01*
X024545Y014716D01*
X024545Y015749D01*
X024464Y015830D01*
X024464Y016523D01*
X024818Y016523D01*
X025818Y015523D01*
X026305Y015523D01*
X026305Y013843D01*
X026305Y013885D02*
X024464Y013885D01*
X024464Y013964D02*
X026305Y013964D01*
X026305Y014042D02*
X024464Y014042D01*
X024464Y014121D02*
X026305Y014121D01*
X026305Y014199D02*
X024464Y014199D01*
X024464Y014278D02*
X026305Y014278D01*
X026305Y014356D02*
X024464Y014356D01*
X024464Y014435D02*
X026305Y014435D01*
X026305Y014513D02*
X024464Y014513D01*
X024464Y014592D02*
X026305Y014592D01*
X026305Y014670D02*
X024498Y014670D01*
X024545Y014749D02*
X026305Y014749D01*
X026305Y014827D02*
X024545Y014827D01*
X024545Y014906D02*
X026305Y014906D01*
X026305Y014984D02*
X024545Y014984D01*
X024545Y015063D02*
X026305Y015063D01*
X026305Y015141D02*
X024545Y015141D01*
X024545Y015220D02*
X026305Y015220D01*
X026305Y015298D02*
X024545Y015298D01*
X024545Y015377D02*
X026305Y015377D01*
X026305Y015455D02*
X024545Y015455D01*
X024545Y015534D02*
X025807Y015534D01*
X025729Y015612D02*
X024545Y015612D01*
X024545Y015691D02*
X025650Y015691D01*
X025572Y015769D02*
X024524Y015769D01*
X024464Y015848D02*
X025493Y015848D01*
X025415Y015926D02*
X024464Y015926D01*
X024464Y016005D02*
X025336Y016005D01*
X025258Y016083D02*
X024464Y016083D01*
X024464Y016162D02*
X025179Y016162D01*
X025101Y016240D02*
X024464Y016240D01*
X024464Y016319D02*
X025022Y016319D01*
X024944Y016397D02*
X024464Y016397D01*
X024464Y016476D02*
X024865Y016476D01*
X025082Y016711D02*
X025630Y016711D01*
X025708Y016633D02*
X025161Y016633D01*
X025239Y016554D02*
X025787Y016554D01*
X025818Y016523D02*
X024818Y017523D01*
X024464Y017523D01*
X024464Y016843D01*
X024951Y016843D01*
X025045Y016749D01*
X025951Y015843D01*
X026305Y015843D01*
X026305Y016523D01*
X025818Y016523D01*
X025885Y016683D02*
X024885Y017683D01*
X022485Y017683D01*
X022285Y017483D01*
X022285Y016183D01*
X022885Y016183D01*
X022285Y016183D02*
X021335Y016183D01*
X020935Y015783D01*
X018285Y015783D01*
X018285Y016283D01*
X017885Y016683D01*
X012085Y016683D01*
X011585Y017183D01*
X010885Y017183D01*
X011464Y017418D02*
X011623Y017418D01*
X011654Y017339D02*
X011702Y017339D01*
X011733Y017261D02*
X011780Y017261D01*
X011811Y017182D02*
X011859Y017182D01*
X011890Y017104D02*
X011937Y017104D01*
X011968Y017025D02*
X012016Y017025D01*
X012047Y016947D02*
X016920Y016947D01*
X017035Y016868D02*
X012125Y016868D01*
X011765Y016476D02*
X011464Y016476D01*
X011464Y016397D02*
X011844Y016397D01*
X011745Y016249D02*
X011745Y016249D01*
X011753Y016240D02*
X016825Y016240D01*
X016825Y016162D02*
X011832Y016162D01*
X011910Y016083D02*
X016838Y016083D01*
X016822Y016319D02*
X011675Y016319D01*
X011585Y016183D02*
X010885Y016183D01*
X010635Y016183D01*
X010385Y016683D02*
X009885Y016183D01*
X010385Y015683D02*
X011585Y015683D01*
X012235Y015033D01*
X016935Y015033D01*
X017085Y015183D01*
X017385Y015183D01*
X017797Y014894D02*
X017893Y014990D01*
X017945Y015115D01*
X017945Y015250D01*
X017893Y015375D01*
X017845Y015423D01*
X019924Y015423D01*
X019876Y015375D01*
X019863Y015343D01*
X019768Y015343D01*
X019675Y015249D01*
X019025Y014599D01*
X019025Y012769D01*
X018851Y012943D01*
X018801Y012943D01*
X019025Y012943D01*
X019025Y012865D02*
X018929Y012865D01*
X019007Y012786D02*
X019025Y012786D01*
X018885Y012683D02*
X018785Y012783D01*
X018485Y012783D01*
X018495Y012733D02*
X018475Y012733D01*
X018475Y012233D01*
X018495Y012233D01*
X018495Y012733D01*
X018495Y012708D02*
X018475Y012708D01*
X018475Y012629D02*
X018495Y012629D01*
X018495Y012551D02*
X018475Y012551D01*
X018475Y012472D02*
X018495Y012472D01*
X018495Y012394D02*
X018475Y012394D01*
X018475Y012315D02*
X018495Y012315D01*
X018495Y012237D02*
X018475Y012237D01*
X018455Y012183D02*
X018485Y012153D01*
X018455Y012183D02*
X018085Y012183D01*
X018085Y013083D01*
X018315Y013090D02*
X018315Y013106D01*
X018709Y013106D01*
X018801Y013198D01*
X018801Y013627D01*
X018709Y013720D01*
X018645Y013720D01*
X018645Y013849D01*
X018151Y014343D01*
X017906Y014343D01*
X017893Y014375D01*
X017797Y014471D01*
X017672Y014523D01*
X017097Y014523D01*
X017078Y014515D01*
X016901Y014693D01*
X011801Y014693D01*
X011651Y014843D01*
X011464Y014843D01*
X011464Y015523D01*
X011518Y015523D01*
X012075Y014966D01*
X012168Y014873D01*
X017001Y014873D01*
X017008Y014880D01*
X017097Y014843D01*
X017672Y014843D01*
X017797Y014894D01*
X017808Y014906D02*
X019331Y014906D01*
X019410Y014984D02*
X017887Y014984D01*
X017923Y015063D02*
X019488Y015063D01*
X019567Y015141D02*
X017945Y015141D01*
X017945Y015220D02*
X019645Y015220D01*
X019724Y015298D02*
X017925Y015298D01*
X017891Y015377D02*
X019878Y015377D01*
X019835Y015183D02*
X020385Y015183D01*
X019835Y015183D02*
X019185Y014533D01*
X019185Y010183D01*
X019585Y009783D01*
X020885Y009783D01*
X021535Y010433D01*
X021885Y010333D02*
X021135Y009583D01*
X019435Y009583D01*
X018885Y010133D01*
X018885Y012683D01*
X018801Y012943D02*
X018801Y012997D01*
X018709Y013090D01*
X018315Y013090D01*
X018315Y013100D02*
X019025Y013100D01*
X019025Y013022D02*
X018777Y013022D01*
X018782Y013179D02*
X019025Y013179D01*
X019025Y013257D02*
X018801Y013257D01*
X018801Y013336D02*
X019025Y013336D01*
X019025Y013414D02*
X018801Y013414D01*
X018801Y013493D02*
X019025Y013493D01*
X019025Y013571D02*
X018801Y013571D01*
X018779Y013650D02*
X019025Y013650D01*
X019025Y013728D02*
X018645Y013728D01*
X018645Y013807D02*
X019025Y013807D01*
X019025Y013885D02*
X018608Y013885D01*
X018530Y013964D02*
X019025Y013964D01*
X019025Y014042D02*
X018451Y014042D01*
X018373Y014121D02*
X019025Y014121D01*
X019025Y014199D02*
X018294Y014199D01*
X018216Y014278D02*
X019025Y014278D01*
X019025Y014356D02*
X017901Y014356D01*
X017833Y014435D02*
X019025Y014435D01*
X019025Y014513D02*
X017695Y014513D01*
X017385Y014183D02*
X017185Y014183D01*
X016835Y014533D01*
X011735Y014533D01*
X011585Y014683D01*
X010385Y014683D01*
X009885Y014183D01*
X010385Y013683D02*
X011585Y013683D01*
X011935Y014033D01*
X015585Y014033D01*
X016435Y013183D01*
X017385Y013183D01*
X017672Y012843D02*
X017097Y012843D01*
X016972Y012894D01*
X016876Y012990D01*
X016863Y013023D01*
X016368Y013023D01*
X016275Y013116D01*
X015518Y013873D01*
X012001Y013873D01*
X011745Y013616D01*
X011651Y013523D01*
X011464Y013523D01*
X011464Y011730D01*
X012801Y010393D01*
X012885Y010393D01*
X012885Y012163D01*
X012814Y012163D01*
X012614Y012363D01*
X012515Y012462D01*
X012515Y012627D01*
X012455Y012687D01*
X012455Y012878D01*
X012589Y013013D01*
X012780Y013013D01*
X012885Y012908D01*
X012885Y013333D01*
X014205Y013333D01*
X014205Y013473D01*
X013750Y013473D01*
X013680Y013403D01*
X013489Y013403D01*
X013355Y013537D01*
X013355Y013728D01*
X013214Y013728D01*
X013215Y013728D02*
X013080Y013863D01*
X012889Y013863D01*
X012755Y013728D01*
X011856Y013728D01*
X011778Y013650D02*
X012755Y013650D01*
X012755Y013728D02*
X012755Y013537D01*
X012889Y013403D01*
X013080Y013403D01*
X013215Y013537D01*
X013215Y013728D01*
X013215Y013650D02*
X013355Y013650D01*
X013355Y013728D02*
X013489Y013863D01*
X013680Y013863D01*
X013750Y013793D01*
X014801Y013793D01*
X015051Y013543D01*
X015051Y013543D01*
X015145Y013449D01*
X015145Y013333D01*
X015985Y013333D01*
X015985Y010509D01*
X016575Y011099D01*
X016575Y011799D01*
X016668Y011893D01*
X016668Y011893D01*
X016844Y012068D01*
X016825Y012115D01*
X016825Y012250D01*
X016876Y012375D01*
X016972Y012471D01*
X017097Y012523D01*
X017672Y012523D01*
X017797Y012471D01*
X017893Y012375D01*
X017906Y012343D01*
X017925Y012343D01*
X017925Y012917D01*
X017872Y012970D01*
X017797Y012894D01*
X017672Y012843D01*
X017725Y012865D02*
X017925Y012865D01*
X017925Y012786D02*
X015985Y012786D01*
X015985Y012708D02*
X017925Y012708D01*
X017925Y012629D02*
X015985Y012629D01*
X015985Y012551D02*
X017925Y012551D01*
X017925Y012472D02*
X017794Y012472D01*
X017874Y012394D02*
X017925Y012394D01*
X018085Y012183D02*
X017385Y012183D01*
X017185Y012183D01*
X016735Y011733D01*
X016735Y011033D01*
X015935Y010233D01*
X012735Y010233D01*
X011285Y011683D01*
X010385Y011683D01*
X009885Y012183D01*
X009885Y013183D02*
X010385Y013683D01*
X011464Y013843D02*
X011464Y014523D01*
X011518Y014523D01*
X011668Y014373D01*
X016768Y014373D01*
X016844Y014297D01*
X016825Y014250D01*
X016825Y014115D01*
X016876Y013990D01*
X016972Y013894D01*
X017097Y013843D01*
X017672Y013843D01*
X017797Y013894D01*
X017893Y013990D01*
X017906Y014023D01*
X018018Y014023D01*
X018321Y013720D01*
X018260Y013720D01*
X018168Y013627D01*
X018168Y013313D01*
X017989Y013313D01*
X017939Y013263D01*
X017893Y013375D01*
X017797Y013471D01*
X017672Y013523D01*
X017097Y013523D01*
X016972Y013471D01*
X016876Y013375D01*
X016863Y013343D01*
X016501Y013343D01*
X015651Y014193D01*
X011868Y014193D01*
X011775Y014099D01*
X011518Y013843D01*
X011464Y013843D01*
X011464Y013885D02*
X011561Y013885D01*
X011639Y013964D02*
X011464Y013964D01*
X011464Y014042D02*
X011718Y014042D01*
X011796Y014121D02*
X011464Y014121D01*
X011464Y014199D02*
X015976Y014199D01*
X015955Y014178D02*
X015955Y013987D01*
X016089Y013853D01*
X016280Y013853D01*
X016415Y013987D01*
X016415Y014178D01*
X016280Y014313D01*
X016089Y014313D01*
X015955Y014178D01*
X015955Y014121D02*
X015723Y014121D01*
X015801Y014042D02*
X015955Y014042D01*
X015978Y013964D02*
X015880Y013964D01*
X015958Y013885D02*
X016057Y013885D01*
X016037Y013807D02*
X018234Y013807D01*
X018156Y013885D02*
X017775Y013885D01*
X017866Y013964D02*
X018077Y013964D01*
X018085Y014183D02*
X018485Y013783D01*
X018485Y013413D01*
X018168Y013414D02*
X017854Y013414D01*
X017909Y013336D02*
X018168Y013336D01*
X018168Y013493D02*
X017745Y013493D01*
X018168Y013571D02*
X016272Y013571D01*
X016194Y013650D02*
X018190Y013650D01*
X018313Y013728D02*
X016115Y013728D01*
X016312Y013885D02*
X016994Y013885D01*
X016903Y013964D02*
X016391Y013964D01*
X016415Y014042D02*
X016855Y014042D01*
X016825Y014121D02*
X016415Y014121D01*
X016393Y014199D02*
X016825Y014199D01*
X016836Y014278D02*
X016315Y014278D01*
X016054Y014278D02*
X011464Y014278D01*
X011464Y014356D02*
X016785Y014356D01*
X017002Y014592D02*
X019025Y014592D01*
X019096Y014670D02*
X016923Y014670D01*
X017385Y014183D02*
X018085Y014183D01*
X019174Y014749D02*
X011745Y014749D01*
X011666Y014827D02*
X019253Y014827D01*
X019485Y014483D02*
X019785Y014783D01*
X020935Y014783D01*
X021085Y014933D01*
X021085Y015183D01*
X021245Y015343D02*
X021245Y015399D01*
X021011Y015633D01*
X021095Y015716D01*
X021401Y016023D01*
X022305Y016023D01*
X022305Y015650D01*
X022305Y015343D01*
X021245Y015343D01*
X021245Y015377D02*
X022305Y015377D01*
X022305Y015455D02*
X021188Y015455D01*
X021110Y015534D02*
X022305Y015534D01*
X022305Y015612D02*
X021789Y015612D01*
X021730Y015553D02*
X021865Y015687D01*
X021865Y015878D01*
X021730Y016013D01*
X021539Y016013D01*
X021405Y015878D01*
X021405Y015687D01*
X021539Y015553D01*
X021730Y015553D01*
X021865Y015691D02*
X022305Y015691D01*
X022305Y015769D02*
X021865Y015769D01*
X021865Y015848D02*
X022305Y015848D01*
X022305Y015926D02*
X021816Y015926D01*
X021738Y016005D02*
X022305Y016005D01*
X022125Y016397D02*
X020871Y016397D01*
X020916Y016319D02*
X021244Y016319D01*
X021166Y016240D02*
X020945Y016240D01*
X020945Y016162D02*
X021087Y016162D01*
X021009Y016083D02*
X020931Y016083D01*
X020930Y016005D02*
X020899Y016005D01*
X021147Y015769D02*
X021405Y015769D01*
X021405Y015691D02*
X021069Y015691D01*
X021031Y015612D02*
X021480Y015612D01*
X021405Y015848D02*
X021226Y015848D01*
X021304Y015926D02*
X021453Y015926D01*
X021383Y016005D02*
X021531Y016005D01*
X022125Y016476D02*
X020786Y016476D01*
X020734Y016868D02*
X022125Y016868D01*
X022125Y016790D02*
X018004Y016790D01*
X018082Y016711D02*
X022125Y016711D01*
X022125Y016633D02*
X018161Y016633D01*
X018239Y016554D02*
X022125Y016554D01*
X022125Y016947D02*
X020849Y016947D01*
X020907Y017025D02*
X022125Y017025D01*
X022125Y017104D02*
X020940Y017104D01*
X020945Y017182D02*
X022125Y017182D01*
X022125Y017261D02*
X020940Y017261D01*
X020908Y017339D02*
X022125Y017339D01*
X022125Y017418D02*
X020850Y017418D01*
X020736Y017496D02*
X022125Y017496D01*
X022150Y017575D02*
X021203Y017575D01*
X021281Y017653D02*
X022229Y017653D01*
X022305Y017732D02*
X021360Y017732D01*
X021438Y017810D02*
X022305Y017810D01*
X022305Y017889D02*
X021517Y017889D01*
X021595Y017967D02*
X022305Y017967D01*
X022305Y018046D02*
X021674Y018046D01*
X021752Y018124D02*
X022305Y018124D01*
X022305Y018203D02*
X021831Y018203D01*
X021909Y018281D02*
X022305Y018281D01*
X022305Y018360D02*
X021988Y018360D01*
X022066Y018438D02*
X022305Y018438D01*
X022305Y018517D02*
X022145Y018517D01*
X021692Y018517D02*
X020687Y018517D01*
X020830Y018438D02*
X021614Y018438D01*
X021535Y018360D02*
X020899Y018360D01*
X020932Y018281D02*
X021457Y018281D01*
X021378Y018203D02*
X020945Y018203D01*
X020945Y018124D02*
X021300Y018124D01*
X021221Y018046D02*
X020916Y018046D01*
X020870Y017967D02*
X021143Y017967D01*
X021064Y017889D02*
X020783Y017889D01*
X020033Y017496D02*
X018445Y017496D01*
X018445Y017418D02*
X019919Y017418D01*
X019861Y017339D02*
X018453Y017339D01*
X018515Y017261D02*
X019829Y017261D01*
X020035Y016868D02*
X017734Y016868D01*
X018318Y016476D02*
X019983Y016476D01*
X019898Y016397D02*
X019595Y016397D01*
X019580Y016413D02*
X019389Y016413D01*
X019255Y016278D01*
X019255Y016087D01*
X019389Y015953D01*
X019580Y015953D01*
X019715Y016087D01*
X019715Y016278D01*
X019580Y016413D01*
X019674Y016319D02*
X019853Y016319D01*
X019825Y016240D02*
X019715Y016240D01*
X019715Y016162D02*
X019825Y016162D01*
X019838Y016083D02*
X019710Y016083D01*
X019632Y016005D02*
X019870Y016005D01*
X019337Y016005D02*
X018445Y016005D01*
X018445Y016083D02*
X019259Y016083D01*
X019255Y016162D02*
X018445Y016162D01*
X018445Y016240D02*
X019255Y016240D01*
X019295Y016319D02*
X018445Y016319D01*
X018396Y016397D02*
X019374Y016397D01*
X018285Y015783D02*
X015635Y015783D01*
X015435Y015583D01*
X015135Y015283D02*
X014885Y015533D01*
X012235Y015533D01*
X011585Y016183D01*
X011518Y016023D02*
X012075Y015466D01*
X012168Y015373D01*
X014818Y015373D01*
X014975Y015216D01*
X014998Y015193D01*
X012301Y015193D01*
X011651Y015843D01*
X011464Y015843D01*
X011464Y016023D01*
X011518Y016023D01*
X011536Y016005D02*
X011464Y016005D01*
X011464Y015926D02*
X011615Y015926D01*
X011693Y015848D02*
X011464Y015848D01*
X011724Y015769D02*
X011772Y015769D01*
X011803Y015691D02*
X011850Y015691D01*
X011881Y015612D02*
X011929Y015612D01*
X011960Y015534D02*
X012007Y015534D01*
X012038Y015455D02*
X012086Y015455D01*
X012117Y015377D02*
X012164Y015377D01*
X012195Y015298D02*
X014893Y015298D01*
X014971Y015220D02*
X012274Y015220D01*
X012057Y014984D02*
X011464Y014984D01*
X011464Y014906D02*
X012135Y014906D01*
X011978Y015063D02*
X011464Y015063D01*
X011464Y015141D02*
X011900Y015141D01*
X011821Y015220D02*
X011464Y015220D01*
X011464Y015298D02*
X011743Y015298D01*
X011664Y015377D02*
X011464Y015377D01*
X011464Y015455D02*
X011586Y015455D01*
X012067Y015926D02*
X012305Y015926D01*
X012305Y015848D02*
X012146Y015848D01*
X012224Y015769D02*
X012305Y015769D01*
X012381Y016005D02*
X011989Y016005D01*
X010385Y015683D02*
X009885Y015183D01*
X011464Y014513D02*
X011528Y014513D01*
X011464Y014435D02*
X011606Y014435D01*
X011935Y013807D02*
X012833Y013807D01*
X012755Y013571D02*
X011699Y013571D01*
X011464Y013493D02*
X012799Y013493D01*
X012878Y013414D02*
X011464Y013414D01*
X011464Y013336D02*
X014205Y013336D01*
X014205Y013414D02*
X013691Y013414D01*
X013478Y013414D02*
X013091Y013414D01*
X013170Y013493D02*
X013399Y013493D01*
X013355Y013571D02*
X013215Y013571D01*
X013136Y013807D02*
X013433Y013807D01*
X013585Y013633D02*
X014735Y013633D01*
X014985Y013383D01*
X014985Y012333D01*
X015145Y012498D02*
X015145Y012583D01*
X015285Y012583D01*
X015285Y010923D01*
X013585Y010923D01*
X013585Y012163D01*
X013729Y012163D01*
X013789Y012103D01*
X013980Y012103D01*
X014115Y012237D01*
X014115Y012428D01*
X013980Y012563D01*
X013789Y012563D01*
X013729Y012503D01*
X013585Y012503D01*
X013585Y012583D01*
X014275Y012583D01*
X014275Y012498D01*
X014205Y012428D01*
X014205Y012237D01*
X014114Y012237D01*
X014115Y012315D02*
X014205Y012315D01*
X014205Y012237D02*
X014339Y012103D01*
X014530Y012103D01*
X014665Y012237D01*
X014665Y012428D01*
X014595Y012498D01*
X014595Y012583D01*
X014825Y012583D01*
X014825Y012498D01*
X014755Y012428D01*
X014755Y012237D01*
X014664Y012237D01*
X014665Y012315D02*
X014755Y012315D01*
X014755Y012237D02*
X014889Y012103D01*
X015080Y012103D01*
X015215Y012237D01*
X015215Y012428D01*
X015145Y012498D01*
X015170Y012472D02*
X015285Y012472D01*
X015285Y012394D02*
X015215Y012394D01*
X015215Y012315D02*
X015285Y012315D01*
X015285Y012237D02*
X015214Y012237D01*
X015285Y012158D02*
X015135Y012158D01*
X015285Y012080D02*
X013585Y012080D01*
X013585Y012158D02*
X013734Y012158D01*
X013585Y012001D02*
X015285Y012001D01*
X015285Y011923D02*
X013585Y011923D01*
X013585Y011844D02*
X015285Y011844D01*
X015285Y011766D02*
X013585Y011766D01*
X013585Y011687D02*
X015285Y011687D01*
X015285Y011609D02*
X013585Y011609D01*
X013585Y011530D02*
X015285Y011530D01*
X015285Y011452D02*
X013585Y011452D01*
X013585Y011373D02*
X015285Y011373D01*
X015285Y011295D02*
X013585Y011295D01*
X013585Y011216D02*
X015285Y011216D01*
X015285Y011138D02*
X013585Y011138D01*
X013585Y011059D02*
X015285Y011059D01*
X015285Y010981D02*
X013585Y010981D01*
X012885Y010981D02*
X012213Y010981D01*
X012134Y011059D02*
X012885Y011059D01*
X012885Y011138D02*
X012056Y011138D01*
X011977Y011216D02*
X012885Y011216D01*
X012885Y011295D02*
X011899Y011295D01*
X011820Y011373D02*
X012885Y011373D01*
X012885Y011452D02*
X011742Y011452D01*
X011663Y011530D02*
X012885Y011530D01*
X012885Y011609D02*
X011585Y011609D01*
X011506Y011687D02*
X012885Y011687D01*
X012885Y011766D02*
X011464Y011766D01*
X011464Y011844D02*
X012885Y011844D01*
X012885Y011923D02*
X011464Y011923D01*
X011464Y012001D02*
X012885Y012001D01*
X012885Y012080D02*
X011464Y012080D01*
X011464Y012158D02*
X012885Y012158D01*
X012740Y012237D02*
X011464Y012237D01*
X011464Y012315D02*
X012662Y012315D01*
X012583Y012394D02*
X011464Y012394D01*
X011464Y012472D02*
X012515Y012472D01*
X012515Y012551D02*
X011464Y012551D01*
X011464Y012629D02*
X012513Y012629D01*
X012455Y012708D02*
X011464Y012708D01*
X011464Y012786D02*
X012455Y012786D01*
X012455Y012865D02*
X011464Y012865D01*
X011464Y012943D02*
X012520Y012943D01*
X012849Y012943D02*
X012885Y012943D01*
X012885Y013022D02*
X011464Y013022D01*
X011464Y013100D02*
X012885Y013100D01*
X012885Y013179D02*
X011464Y013179D01*
X011464Y013257D02*
X012885Y013257D01*
X013736Y013807D02*
X015584Y013807D01*
X015663Y013728D02*
X014865Y013728D01*
X014944Y013650D02*
X015741Y013650D01*
X015820Y013571D02*
X015022Y013571D01*
X015101Y013493D02*
X015898Y013493D01*
X015977Y013414D02*
X015145Y013414D01*
X015145Y013336D02*
X016055Y013336D01*
X015985Y013257D02*
X016134Y013257D01*
X016212Y013179D02*
X015985Y013179D01*
X015985Y013100D02*
X016291Y013100D01*
X015985Y013022D02*
X016863Y013022D01*
X016923Y012943D02*
X015985Y012943D01*
X015985Y012865D02*
X017044Y012865D01*
X016975Y012472D02*
X015985Y012472D01*
X015985Y012394D02*
X016895Y012394D01*
X016851Y012315D02*
X015985Y012315D01*
X015985Y012237D02*
X016825Y012237D01*
X016825Y012158D02*
X015985Y012158D01*
X015985Y012080D02*
X016839Y012080D01*
X016777Y012001D02*
X015985Y012001D01*
X015985Y011923D02*
X016698Y011923D01*
X016620Y011844D02*
X015985Y011844D01*
X015985Y011766D02*
X016575Y011766D01*
X016575Y011687D02*
X015985Y011687D01*
X015985Y011609D02*
X016575Y011609D01*
X016575Y011530D02*
X015985Y011530D01*
X015985Y011452D02*
X016575Y011452D01*
X016575Y011373D02*
X015985Y011373D01*
X015985Y011295D02*
X016575Y011295D01*
X016575Y011216D02*
X015985Y011216D01*
X015985Y011138D02*
X016575Y011138D01*
X016535Y011059D02*
X015985Y011059D01*
X015985Y010981D02*
X016456Y010981D01*
X016378Y010902D02*
X015985Y010902D01*
X015985Y010824D02*
X016299Y010824D01*
X016221Y010745D02*
X015985Y010745D01*
X015985Y010667D02*
X016142Y010667D01*
X016064Y010588D02*
X015985Y010588D01*
X015985Y010510D02*
X015985Y010510D01*
X016424Y010196D02*
X016825Y010196D01*
X016825Y010250D02*
X016825Y010115D01*
X016844Y010068D01*
X016768Y009993D01*
X016221Y009993D01*
X017078Y010850D01*
X017097Y010843D01*
X017672Y010843D01*
X017797Y010894D01*
X017893Y010990D01*
X017945Y011115D01*
X017945Y011250D01*
X017893Y011375D01*
X017797Y011471D01*
X017672Y011523D01*
X017097Y011523D01*
X016972Y011471D01*
X016895Y011394D01*
X016895Y011666D01*
X017078Y011850D01*
X017097Y011843D01*
X017672Y011843D01*
X017797Y011894D01*
X017893Y011990D01*
X017906Y012023D01*
X018168Y012023D01*
X018168Y011938D01*
X018260Y011846D01*
X018709Y011846D01*
X018725Y011861D01*
X018725Y010066D01*
X018818Y009973D01*
X019248Y009543D01*
X018451Y009543D01*
X017925Y010068D01*
X017945Y010115D01*
X017945Y010250D01*
X017893Y010375D01*
X017797Y010471D01*
X017672Y010523D01*
X017097Y010523D01*
X016972Y010471D01*
X016876Y010375D01*
X016825Y010250D01*
X016834Y010274D02*
X016502Y010274D01*
X016581Y010353D02*
X016867Y010353D01*
X016932Y010431D02*
X016659Y010431D01*
X016738Y010510D02*
X017066Y010510D01*
X016895Y010667D02*
X018725Y010667D01*
X018725Y010745D02*
X016973Y010745D01*
X017052Y010824D02*
X018725Y010824D01*
X018725Y010902D02*
X017805Y010902D01*
X017883Y010981D02*
X018725Y010981D01*
X018725Y011059D02*
X017921Y011059D01*
X017945Y011138D02*
X018725Y011138D01*
X018725Y011216D02*
X017945Y011216D01*
X017926Y011295D02*
X018725Y011295D01*
X018725Y011373D02*
X017894Y011373D01*
X017816Y011452D02*
X018725Y011452D01*
X018725Y011530D02*
X016895Y011530D01*
X016895Y011452D02*
X016953Y011452D01*
X016895Y011609D02*
X018725Y011609D01*
X018725Y011687D02*
X016915Y011687D01*
X016994Y011766D02*
X018725Y011766D01*
X018725Y011844D02*
X017676Y011844D01*
X017825Y011923D02*
X018183Y011923D01*
X018168Y012001D02*
X017897Y012001D01*
X017093Y011844D02*
X017072Y011844D01*
X017185Y011183D02*
X017385Y011183D01*
X017185Y011183D02*
X016035Y010033D01*
X012235Y010033D01*
X011585Y010683D01*
X010385Y010683D01*
X009885Y011183D01*
X009885Y010183D02*
X010385Y009683D01*
X011585Y009683D01*
X011735Y009833D01*
X016835Y009833D01*
X017185Y010183D01*
X017385Y010183D01*
X017585Y010183D01*
X018385Y009383D01*
X021335Y009383D01*
X021635Y009683D01*
X024470Y009683D01*
X024535Y009693D02*
X024535Y009673D01*
X025035Y009673D01*
X025035Y009693D01*
X024535Y009693D01*
X024777Y009853D02*
X024777Y009907D01*
X024684Y010000D01*
X024255Y010000D01*
X024163Y009907D01*
X024163Y009843D01*
X021621Y009843D01*
X021951Y010173D01*
X025299Y010173D01*
X025255Y010128D01*
X025255Y010000D01*
X024885Y010000D01*
X024792Y009907D01*
X024792Y009853D01*
X024777Y009853D01*
X024777Y009882D02*
X024792Y009882D01*
X024845Y009960D02*
X024724Y009960D01*
X025099Y009683D02*
X025935Y009683D01*
X026085Y009533D01*
X029385Y009533D01*
X031785Y011933D01*
X032185Y011933D01*
X032335Y012083D01*
X032335Y012383D01*
X032085Y012633D01*
X030585Y012633D01*
X029635Y011683D01*
X025885Y011683D01*
X025385Y012183D01*
X023885Y012183D01*
X022885Y013183D01*
X022305Y013179D02*
X020945Y013179D01*
X020945Y013115D02*
X020945Y013250D01*
X020893Y013375D01*
X020797Y013471D01*
X020672Y013523D01*
X020097Y013523D01*
X020078Y013515D01*
X019895Y013699D01*
X019895Y013972D01*
X019972Y013894D01*
X020097Y013843D01*
X020672Y013843D01*
X020691Y013850D01*
X021018Y013523D01*
X022305Y013523D01*
X022305Y012650D01*
X022352Y012603D01*
X023238Y012603D01*
X023818Y012023D01*
X025318Y012023D01*
X025818Y011523D01*
X026305Y011523D01*
X026305Y010843D01*
X026166Y010843D01*
X025406Y011602D01*
X025406Y011907D01*
X025314Y012000D01*
X024885Y012000D01*
X024792Y011907D01*
X024792Y011853D01*
X024777Y011853D01*
X024777Y011907D01*
X024684Y012000D01*
X024255Y012000D01*
X024163Y011907D01*
X024163Y011843D01*
X022418Y011843D01*
X022325Y011749D01*
X021938Y011363D01*
X021839Y011363D01*
X021769Y011293D01*
X020927Y011293D01*
X020893Y011375D01*
X020797Y011471D01*
X020672Y011523D01*
X020097Y011523D01*
X019972Y011471D01*
X019895Y011394D01*
X019895Y011972D01*
X019972Y011894D01*
X020097Y011843D01*
X020672Y011843D01*
X020797Y011894D01*
X020893Y011990D01*
X020945Y012115D01*
X020945Y012250D01*
X020893Y012375D01*
X020797Y012471D01*
X020672Y012523D01*
X020097Y012523D01*
X019972Y012471D01*
X019895Y012394D01*
X019895Y012394D01*
X019895Y012666D01*
X020078Y012850D01*
X020097Y012843D01*
X020672Y012843D01*
X020797Y012894D01*
X020893Y012990D01*
X020945Y013115D01*
X020938Y013100D02*
X022305Y013100D01*
X022305Y013022D02*
X020906Y013022D01*
X020846Y012943D02*
X022305Y012943D01*
X022305Y012865D02*
X020725Y012865D01*
X020385Y013183D02*
X020185Y013183D01*
X019735Y013633D01*
X019735Y014383D01*
X019935Y014583D01*
X021035Y014583D01*
X021135Y014683D01*
X024285Y014683D01*
X024385Y014783D01*
X024385Y015683D01*
X023885Y016183D01*
X024464Y016868D02*
X025473Y016868D01*
X025551Y016790D02*
X025004Y016790D01*
X025316Y017025D02*
X024464Y017025D01*
X024464Y016947D02*
X025394Y016947D01*
X025237Y017104D02*
X024464Y017104D01*
X024464Y017182D02*
X025159Y017182D01*
X025080Y017261D02*
X024464Y017261D01*
X024464Y017339D02*
X025002Y017339D01*
X024923Y017418D02*
X024464Y017418D01*
X024464Y017496D02*
X024845Y017496D01*
X025062Y017732D02*
X026305Y017732D01*
X026305Y017810D02*
X024983Y017810D01*
X025140Y017653D02*
X026305Y017653D01*
X026305Y017575D02*
X025219Y017575D01*
X025297Y017496D02*
X026305Y017496D01*
X026305Y017418D02*
X025376Y017418D01*
X025454Y017339D02*
X026305Y017339D01*
X026305Y017261D02*
X025533Y017261D01*
X025611Y017182D02*
X026305Y017182D01*
X026305Y017104D02*
X025690Y017104D01*
X025768Y017025D02*
X026305Y017025D01*
X026305Y016947D02*
X025847Y016947D01*
X025925Y016868D02*
X026305Y016868D01*
X026305Y016476D02*
X025318Y016476D01*
X025396Y016397D02*
X026305Y016397D01*
X026305Y016319D02*
X025475Y016319D01*
X025553Y016240D02*
X026305Y016240D01*
X026305Y016162D02*
X025632Y016162D01*
X025710Y016083D02*
X026305Y016083D01*
X026305Y016005D02*
X025789Y016005D01*
X025867Y015926D02*
X026305Y015926D01*
X026305Y015848D02*
X025946Y015848D01*
X025885Y016683D02*
X028235Y016683D01*
X028455Y016463D01*
X028635Y016463D01*
X028705Y016243D02*
X028696Y016220D01*
X028685Y016162D01*
X028685Y016143D01*
X028975Y016143D01*
X028975Y016123D01*
X028685Y016123D01*
X028685Y016103D01*
X028696Y016045D01*
X028705Y016023D01*
X028485Y016023D01*
X028415Y015952D01*
X028415Y015829D01*
X028401Y015843D01*
X028132Y015843D01*
X028300Y016011D01*
X028300Y016355D01*
X028132Y016523D01*
X028168Y016523D01*
X028388Y016303D01*
X028425Y016303D01*
X028485Y016243D01*
X028705Y016243D01*
X028704Y016240D02*
X028300Y016240D01*
X028300Y016162D02*
X028685Y016162D01*
X028688Y016083D02*
X028300Y016083D01*
X028294Y016005D02*
X028467Y016005D01*
X028415Y015926D02*
X028215Y015926D01*
X028137Y015848D02*
X028415Y015848D01*
X028372Y016319D02*
X028300Y016319D01*
X028294Y016397D02*
X028257Y016397D01*
X028215Y016476D02*
X028179Y016476D01*
X028354Y016790D02*
X028415Y016790D01*
X028430Y016868D02*
X028157Y016868D01*
X028236Y016947D02*
X029274Y016947D01*
X029352Y016868D02*
X029010Y016868D01*
X029173Y016790D02*
X031116Y016790D01*
X031038Y016868D02*
X030417Y016868D01*
X030495Y016947D02*
X030959Y016947D01*
X030949Y017183D02*
X033435Y014698D01*
X033435Y013183D01*
X033085Y012833D01*
X030180Y012833D01*
X030180Y013137D01*
X029685Y013633D01*
X028785Y013633D01*
X028335Y013183D01*
X028535Y012833D02*
X027885Y012183D01*
X028300Y012158D02*
X029884Y012158D01*
X029962Y012237D02*
X028300Y012237D01*
X028300Y012315D02*
X030041Y012315D01*
X030119Y012394D02*
X028322Y012394D01*
X028291Y012363D02*
X028601Y012673D01*
X029292Y012673D01*
X029292Y012626D01*
X029392Y012526D01*
X029786Y012526D01*
X029885Y012624D01*
X029983Y012526D01*
X030251Y012526D01*
X029568Y011843D01*
X028132Y011843D01*
X028300Y012011D01*
X028300Y012355D01*
X028291Y012363D01*
X028400Y012472D02*
X030198Y012472D01*
X029958Y012551D02*
X029811Y012551D01*
X029367Y012551D02*
X028479Y012551D01*
X028557Y012629D02*
X029292Y012629D01*
X029589Y012833D02*
X028535Y012833D01*
X028497Y013571D02*
X028495Y013571D01*
X028495Y013650D02*
X028575Y013650D01*
X028495Y013728D02*
X028654Y013728D01*
X028495Y013807D02*
X029883Y013807D01*
X029855Y013728D02*
X029815Y013728D01*
X029962Y013885D02*
X029119Y013885D01*
X029212Y013964D02*
X030227Y013964D01*
X030207Y013885D02*
X030761Y013885D01*
X030683Y013964D02*
X030839Y013964D01*
X030793Y014042D02*
X030762Y014042D01*
X030495Y014042D02*
X030415Y014042D01*
X030415Y013964D02*
X030495Y013964D01*
X030460Y014121D02*
X030415Y014121D01*
X030375Y014278D02*
X029228Y014278D01*
X029260Y014199D02*
X030128Y014199D01*
X030128Y014121D02*
X029265Y014121D01*
X029250Y014042D02*
X030147Y014042D01*
X030085Y013683D02*
X030785Y013683D01*
X031085Y013983D01*
X031085Y014283D01*
X031035Y014278D02*
X030535Y014278D01*
X030535Y014273D02*
X030535Y014293D01*
X031035Y014293D01*
X031035Y014273D01*
X030535Y014273D01*
X030485Y014313D02*
X030485Y014683D01*
X030485Y015053D01*
X030455Y015083D01*
X030415Y015063D02*
X030091Y015063D01*
X030128Y015043D02*
X030128Y014900D01*
X030140Y014855D01*
X030163Y014814D01*
X030196Y014781D01*
X030237Y014758D01*
X030282Y014746D01*
X030415Y014746D01*
X030415Y015043D01*
X030128Y015043D01*
X030128Y014984D02*
X030012Y014984D01*
X029934Y014906D02*
X030128Y014906D01*
X030156Y014827D02*
X029855Y014827D01*
X029777Y014749D02*
X030271Y014749D01*
X030415Y014749D02*
X030495Y014749D01*
X030495Y014827D02*
X030415Y014827D01*
X030415Y014906D02*
X030495Y014906D01*
X030495Y014984D02*
X030415Y014984D01*
X030415Y015141D02*
X030495Y015141D01*
X030495Y015220D02*
X030415Y015220D01*
X030415Y015298D02*
X030495Y015298D01*
X030495Y015377D02*
X030415Y015377D01*
X030483Y015455D02*
X030925Y015455D01*
X030925Y015534D02*
X030562Y015534D01*
X030640Y015612D02*
X030925Y015612D01*
X030925Y015691D02*
X030719Y015691D01*
X030797Y015769D02*
X030925Y015769D01*
X030925Y015848D02*
X030876Y015848D01*
X031085Y015883D02*
X031385Y016183D01*
X031615Y016162D02*
X031744Y016162D01*
X031666Y016240D02*
X031615Y016240D01*
X031587Y016319D02*
X031574Y016319D01*
X031509Y016397D02*
X031495Y016397D01*
X031430Y016476D02*
X029243Y016476D01*
X029265Y016554D02*
X031352Y016554D01*
X031273Y016633D02*
X029265Y016633D01*
X029234Y016711D02*
X031195Y016711D01*
X031412Y016947D02*
X033275Y016947D01*
X033275Y017017D02*
X033275Y015966D01*
X033368Y015873D01*
X033525Y015716D01*
X033525Y014834D01*
X031016Y017343D01*
X030506Y017343D01*
X030506Y017407D01*
X030414Y017500D01*
X030345Y017500D01*
X030345Y017517D01*
X030415Y017587D01*
X030415Y017778D01*
X030345Y017848D01*
X030345Y018366D01*
X031784Y019806D01*
X031760Y019747D01*
X031760Y019618D01*
X031809Y019499D01*
X031875Y019433D01*
X031809Y019367D01*
X031760Y019247D01*
X031760Y019118D01*
X031809Y018999D01*
X031900Y018907D01*
X032019Y018858D01*
X031024Y017863D01*
X030939Y017863D01*
X030805Y017728D01*
X030805Y017537D01*
X030939Y017403D01*
X031130Y017403D01*
X031265Y017537D01*
X031265Y017622D01*
X032205Y018563D01*
X032289Y018563D01*
X032255Y018528D01*
X032255Y018429D01*
X031518Y017693D01*
X031425Y017599D01*
X031425Y017348D01*
X031355Y017278D01*
X031355Y017087D01*
X031489Y016953D01*
X031680Y016953D01*
X031815Y017087D01*
X031815Y017278D01*
X031745Y017348D01*
X031745Y017466D01*
X032481Y018203D01*
X032580Y018203D01*
X033339Y018203D01*
X033438Y018203D01*
X033825Y017816D01*
X033825Y015949D01*
X033785Y015909D01*
X033595Y016099D01*
X033595Y017017D01*
X033665Y017087D01*
X033665Y017278D01*
X033530Y017413D01*
X033339Y017413D01*
X033205Y017278D01*
X033205Y017087D01*
X033275Y017017D01*
X033267Y017025D02*
X031752Y017025D01*
X031815Y017104D02*
X033205Y017104D01*
X033205Y017182D02*
X031815Y017182D01*
X031815Y017261D02*
X033205Y017261D01*
X033266Y017339D02*
X031753Y017339D01*
X031745Y017418D02*
X033825Y017418D01*
X033825Y017496D02*
X031774Y017496D01*
X031853Y017575D02*
X033825Y017575D01*
X033825Y017653D02*
X031931Y017653D01*
X032010Y017732D02*
X033825Y017732D01*
X033825Y017810D02*
X032088Y017810D01*
X032167Y017889D02*
X033752Y017889D01*
X033674Y017967D02*
X032245Y017967D01*
X032324Y018046D02*
X033595Y018046D01*
X033517Y018124D02*
X032402Y018124D01*
X032580Y018203D02*
X032715Y018337D01*
X032715Y018528D01*
X032680Y018563D01*
X033239Y018563D01*
X033205Y018528D01*
X033205Y018337D01*
X033339Y018203D01*
X033261Y018281D02*
X032658Y018281D01*
X032715Y018360D02*
X033205Y018360D01*
X033205Y018438D02*
X032715Y018438D01*
X032715Y018517D02*
X033205Y018517D01*
X033435Y018433D02*
X033985Y017883D01*
X033985Y015883D01*
X033885Y015783D01*
X033885Y012583D01*
X032835Y011533D01*
X031885Y011533D01*
X030785Y010433D01*
X030785Y010033D01*
X030947Y010196D02*
X031655Y010196D01*
X031655Y010274D02*
X030945Y010274D01*
X030945Y010198D02*
X030945Y010366D01*
X031655Y011077D01*
X031655Y009500D01*
X031702Y009453D01*
X034615Y009453D01*
X034615Y009373D01*
X034611Y009339D01*
X034600Y009308D01*
X034582Y009279D01*
X034558Y009255D01*
X034530Y009238D01*
X034498Y009226D01*
X034465Y009223D01*
X016350Y009223D01*
X016365Y009237D01*
X016365Y009428D01*
X016230Y009563D01*
X016039Y009563D01*
X015905Y009428D01*
X015905Y009393D01*
X012895Y009393D01*
X012895Y009673D01*
X016901Y009673D01*
X017078Y009850D01*
X017097Y009843D01*
X017672Y009843D01*
X017691Y009850D01*
X018225Y009316D01*
X018318Y009223D01*
X021401Y009223D01*
X021701Y009523D01*
X024163Y009523D01*
X024163Y009458D01*
X024255Y009366D01*
X024684Y009366D01*
X024777Y009458D01*
X024777Y009513D01*
X024792Y009513D01*
X024792Y009458D01*
X024885Y009366D01*
X025314Y009366D01*
X025406Y009458D01*
X025406Y009523D01*
X025868Y009523D01*
X025925Y009466D01*
X026018Y009373D01*
X029451Y009373D01*
X029545Y009466D01*
X030055Y009976D01*
X030055Y009937D01*
X030189Y009803D01*
X029881Y009803D01*
X029803Y009725D02*
X031655Y009725D01*
X031655Y009803D02*
X030880Y009803D01*
X031015Y009937D01*
X031015Y010128D01*
X030945Y010198D01*
X031015Y010117D02*
X031655Y010117D01*
X031655Y010039D02*
X031015Y010039D01*
X031015Y009960D02*
X031655Y009960D01*
X031655Y009882D02*
X030959Y009882D01*
X030880Y009803D02*
X030689Y009803D01*
X030380Y009803D01*
X030515Y009937D01*
X030515Y010128D01*
X030485Y010157D01*
X030625Y010296D01*
X030625Y010198D01*
X030555Y010128D01*
X030555Y009937D01*
X030689Y009803D01*
X030610Y009882D02*
X030459Y009882D01*
X030515Y009960D02*
X030555Y009960D01*
X030555Y010039D02*
X030515Y010039D01*
X030515Y010117D02*
X030555Y010117D01*
X030524Y010196D02*
X030622Y010196D01*
X030625Y010274D02*
X030602Y010274D01*
X030285Y010183D02*
X030285Y010033D01*
X030285Y010183D02*
X031835Y011733D01*
X032785Y011733D01*
X033685Y012633D01*
X033685Y015783D01*
X033435Y016033D01*
X033435Y017183D01*
X033665Y017182D02*
X033825Y017182D01*
X033825Y017104D02*
X033665Y017104D01*
X033602Y017025D02*
X033825Y017025D01*
X033825Y016947D02*
X033595Y016947D01*
X033595Y016868D02*
X033825Y016868D01*
X033825Y016790D02*
X033595Y016790D01*
X033595Y016711D02*
X033825Y016711D01*
X033825Y016633D02*
X033595Y016633D01*
X033595Y016554D02*
X033825Y016554D01*
X033825Y016476D02*
X033595Y016476D01*
X033595Y016397D02*
X033825Y016397D01*
X033825Y016319D02*
X033595Y016319D01*
X033595Y016240D02*
X033825Y016240D01*
X033825Y016162D02*
X033595Y016162D01*
X033610Y016083D02*
X033825Y016083D01*
X033825Y016005D02*
X033689Y016005D01*
X033767Y015926D02*
X033802Y015926D01*
X034045Y015716D02*
X034051Y015723D01*
X034145Y015816D01*
X034145Y017949D01*
X033665Y018429D01*
X033665Y018528D01*
X033630Y018563D01*
X033705Y018563D01*
X033805Y018662D01*
X034006Y018864D01*
X034020Y018858D01*
X034149Y018858D01*
X034269Y018907D01*
X034360Y018999D01*
X034410Y019118D01*
X034410Y019247D01*
X034363Y019359D01*
X034375Y019366D01*
X034402Y019392D01*
X034420Y019424D01*
X034430Y019459D01*
X034430Y019650D01*
X034117Y019650D01*
X034117Y019715D01*
X034430Y019715D01*
X034430Y019906D01*
X034420Y019942D01*
X034402Y019974D01*
X034375Y020000D01*
X034344Y020018D01*
X034308Y020028D01*
X034117Y020028D01*
X034117Y019715D01*
X034052Y019715D01*
X034052Y020028D01*
X033861Y020028D01*
X033825Y020018D01*
X033794Y020000D01*
X033767Y019974D01*
X033761Y019962D01*
X033649Y020008D01*
X033520Y020008D01*
X033400Y019958D01*
X033335Y019892D01*
X033269Y019958D01*
X033149Y020008D01*
X033020Y020008D01*
X032900Y019958D01*
X032835Y019892D01*
X032769Y019958D01*
X032649Y020008D01*
X032520Y020008D01*
X032496Y019998D01*
X032351Y020143D01*
X034465Y020143D01*
X034498Y020139D01*
X034530Y020128D01*
X034558Y020110D01*
X034582Y020086D01*
X034600Y020058D01*
X034611Y020026D01*
X034615Y019993D01*
X034615Y011612D01*
X033140Y011612D01*
X033951Y012423D01*
X034045Y012516D01*
X034045Y012967D01*
X034059Y012953D01*
X034250Y012953D01*
X034385Y013087D01*
X034385Y013278D01*
X034250Y013413D01*
X034059Y013413D01*
X034045Y013398D01*
X034045Y015716D01*
X034045Y015691D02*
X034615Y015691D01*
X034615Y015769D02*
X034097Y015769D01*
X034145Y015848D02*
X034615Y015848D01*
X034615Y015926D02*
X034145Y015926D01*
X034145Y016005D02*
X034615Y016005D01*
X034615Y016083D02*
X034145Y016083D01*
X034145Y016162D02*
X034615Y016162D01*
X034615Y016240D02*
X034145Y016240D01*
X034145Y016319D02*
X034615Y016319D01*
X034615Y016397D02*
X034145Y016397D01*
X034145Y016476D02*
X034615Y016476D01*
X034615Y016554D02*
X034145Y016554D01*
X034145Y016633D02*
X034615Y016633D01*
X034615Y016711D02*
X034145Y016711D01*
X034145Y016790D02*
X034615Y016790D01*
X034615Y016868D02*
X034145Y016868D01*
X034145Y016947D02*
X034615Y016947D01*
X034615Y017025D02*
X034145Y017025D01*
X034145Y017104D02*
X034615Y017104D01*
X034615Y017182D02*
X034145Y017182D01*
X034145Y017261D02*
X034615Y017261D01*
X034615Y017339D02*
X034145Y017339D01*
X034145Y017418D02*
X034615Y017418D01*
X034615Y017496D02*
X034145Y017496D01*
X034145Y017575D02*
X034615Y017575D01*
X034615Y017653D02*
X034145Y017653D01*
X034145Y017732D02*
X034615Y017732D01*
X034615Y017810D02*
X034145Y017810D01*
X034145Y017889D02*
X034615Y017889D01*
X034615Y017967D02*
X034126Y017967D01*
X034048Y018046D02*
X034615Y018046D01*
X034615Y018124D02*
X033969Y018124D01*
X033891Y018203D02*
X034615Y018203D01*
X034615Y018281D02*
X033812Y018281D01*
X033734Y018360D02*
X034615Y018360D01*
X034615Y018438D02*
X033665Y018438D01*
X033665Y018517D02*
X034615Y018517D01*
X034615Y018595D02*
X033737Y018595D01*
X033816Y018674D02*
X034615Y018674D01*
X034615Y018752D02*
X033894Y018752D01*
X033973Y018831D02*
X034615Y018831D01*
X034615Y018909D02*
X034271Y018909D01*
X034349Y018988D02*
X034615Y018988D01*
X034615Y019066D02*
X034388Y019066D01*
X034410Y019145D02*
X034615Y019145D01*
X034615Y019223D02*
X034410Y019223D01*
X034387Y019302D02*
X034615Y019302D01*
X034615Y019380D02*
X034390Y019380D01*
X034429Y019459D02*
X034615Y019459D01*
X034615Y019537D02*
X034430Y019537D01*
X034430Y019616D02*
X034615Y019616D01*
X034615Y019694D02*
X034117Y019694D01*
X034117Y019773D02*
X034052Y019773D01*
X034052Y019851D02*
X034117Y019851D01*
X034117Y019930D02*
X034052Y019930D01*
X034052Y020008D02*
X034117Y020008D01*
X034361Y020008D02*
X034613Y020008D01*
X034615Y019930D02*
X034423Y019930D01*
X034430Y019851D02*
X034615Y019851D01*
X034615Y019773D02*
X034430Y019773D01*
X034581Y020087D02*
X032407Y020087D01*
X032485Y020008D02*
X033808Y020008D01*
X033372Y019930D02*
X033297Y019930D01*
X032872Y019930D02*
X032797Y019930D01*
X032585Y019683D02*
X032185Y020083D01*
X031835Y020083D01*
X030185Y018433D01*
X030185Y017683D01*
X030185Y017198D01*
X030199Y017183D01*
X030949Y017183D01*
X031098Y017261D02*
X031355Y017261D01*
X031355Y017182D02*
X031176Y017182D01*
X031255Y017104D02*
X031355Y017104D01*
X031333Y017025D02*
X031417Y017025D01*
X031490Y016868D02*
X033275Y016868D01*
X033275Y016790D02*
X031569Y016790D01*
X031647Y016711D02*
X033275Y016711D01*
X033275Y016633D02*
X031726Y016633D01*
X031804Y016554D02*
X033275Y016554D01*
X033275Y016476D02*
X031883Y016476D01*
X031961Y016397D02*
X033275Y016397D01*
X033275Y016319D02*
X032040Y016319D01*
X032118Y016240D02*
X033275Y016240D01*
X033275Y016162D02*
X032197Y016162D01*
X032275Y016083D02*
X033275Y016083D01*
X033275Y016005D02*
X032354Y016005D01*
X032432Y015926D02*
X033315Y015926D01*
X033393Y015848D02*
X032511Y015848D01*
X032589Y015769D02*
X033472Y015769D01*
X033525Y015691D02*
X032668Y015691D01*
X032746Y015612D02*
X033525Y015612D01*
X033525Y015534D02*
X032825Y015534D01*
X032903Y015455D02*
X033525Y015455D01*
X033525Y015377D02*
X032982Y015377D01*
X033060Y015298D02*
X033525Y015298D01*
X033525Y015220D02*
X033139Y015220D01*
X033217Y015141D02*
X033525Y015141D01*
X033525Y015063D02*
X033296Y015063D01*
X033374Y014984D02*
X033525Y014984D01*
X033525Y014906D02*
X033453Y014906D01*
X033236Y014670D02*
X031965Y014670D01*
X031965Y014592D02*
X033275Y014592D01*
X033275Y014513D02*
X032016Y014513D01*
X032021Y014435D02*
X033275Y014435D01*
X033275Y014356D02*
X032021Y014356D01*
X032021Y014278D02*
X033275Y014278D01*
X033275Y014199D02*
X032021Y014199D01*
X032021Y014121D02*
X033275Y014121D01*
X033275Y014042D02*
X032006Y014042D01*
X031735Y014303D02*
X031714Y014283D01*
X031735Y014303D02*
X031735Y014683D01*
X031735Y015063D01*
X031714Y015083D01*
X031635Y015073D02*
X031635Y015093D01*
X031135Y015093D01*
X031135Y015073D01*
X031635Y015073D01*
X031407Y014906D02*
X031392Y014906D01*
X031361Y014827D02*
X031438Y014827D01*
X031505Y014749D02*
X030638Y014749D01*
X030754Y014827D02*
X030808Y014827D01*
X030862Y014592D02*
X030700Y014592D01*
X030768Y014513D02*
X030783Y014513D01*
X030495Y014513D02*
X030415Y014513D01*
X030415Y014435D02*
X030450Y014435D01*
X030485Y014313D02*
X030455Y014283D01*
X030128Y014356D02*
X029384Y014356D01*
X029445Y014416D02*
X029445Y014416D01*
X029463Y014435D02*
X030128Y014435D01*
X030141Y014513D02*
X029541Y014513D01*
X029620Y014592D02*
X030209Y014592D01*
X030415Y014592D02*
X030495Y014592D01*
X031307Y014592D02*
X031492Y014592D01*
X031505Y014670D02*
X029698Y014670D01*
X029335Y014933D02*
X030585Y016183D01*
X031095Y016397D02*
X031274Y016397D01*
X031195Y016319D02*
X031174Y016319D01*
X031610Y016083D02*
X031823Y016083D01*
X031901Y016005D02*
X031532Y016005D01*
X031354Y015926D02*
X031980Y015926D01*
X032058Y015848D02*
X031276Y015848D01*
X031245Y015769D02*
X032137Y015769D01*
X032215Y015691D02*
X031245Y015691D01*
X031245Y015612D02*
X032294Y015612D01*
X032372Y015534D02*
X031245Y015534D01*
X031245Y015455D02*
X032451Y015455D01*
X032529Y015377D02*
X031952Y015377D01*
X032021Y015298D02*
X032608Y015298D01*
X032686Y015220D02*
X032021Y015220D01*
X032021Y015141D02*
X032765Y015141D01*
X032843Y015063D02*
X032021Y015063D01*
X032021Y014984D02*
X032922Y014984D01*
X033000Y014906D02*
X032021Y014906D01*
X031991Y014827D02*
X033079Y014827D01*
X033157Y014749D02*
X031965Y014749D01*
X031413Y014513D02*
X031386Y014513D01*
X031392Y014435D02*
X031407Y014435D01*
X031407Y014356D02*
X031392Y014356D01*
X031392Y014278D02*
X031407Y014278D01*
X031407Y014199D02*
X031392Y014199D01*
X031392Y014121D02*
X031407Y014121D01*
X031423Y014042D02*
X031376Y014042D01*
X031245Y013964D02*
X033275Y013964D01*
X033275Y013885D02*
X031213Y013885D01*
X031135Y013807D02*
X033275Y013807D01*
X033275Y013728D02*
X031056Y013728D01*
X030978Y013650D02*
X033275Y013650D01*
X033275Y013571D02*
X030899Y013571D01*
X030220Y013493D02*
X033275Y013493D01*
X033275Y013414D02*
X030129Y013414D01*
X030208Y013336D02*
X033262Y013336D01*
X033205Y013257D02*
X030286Y013257D01*
X030340Y013179D02*
X033204Y013179D01*
X033126Y013100D02*
X030416Y013100D01*
X030477Y013022D02*
X033047Y013022D01*
X034045Y012943D02*
X034615Y012943D01*
X034615Y012865D02*
X034045Y012865D01*
X034045Y012786D02*
X034615Y012786D01*
X034615Y012708D02*
X034045Y012708D01*
X034045Y012629D02*
X034615Y012629D01*
X034615Y012551D02*
X034045Y012551D01*
X034000Y012472D02*
X034615Y012472D01*
X034615Y012394D02*
X033922Y012394D01*
X033951Y012423D02*
X033951Y012423D01*
X033843Y012315D02*
X034615Y012315D01*
X034615Y012237D02*
X033765Y012237D01*
X033686Y012158D02*
X034615Y012158D01*
X034615Y012080D02*
X033608Y012080D01*
X033529Y012001D02*
X034615Y012001D01*
X034615Y011923D02*
X033451Y011923D01*
X033372Y011844D02*
X034615Y011844D01*
X034615Y011766D02*
X033294Y011766D01*
X033215Y011687D02*
X034615Y011687D01*
X032085Y012183D02*
X032085Y012283D01*
X031935Y012433D01*
X030635Y012433D01*
X028885Y010683D01*
X028885Y010283D01*
X028335Y009733D01*
X026135Y009733D01*
X025535Y010333D01*
X021885Y010333D01*
X021895Y010117D02*
X025255Y010117D01*
X025255Y010039D02*
X021817Y010039D01*
X021738Y009960D02*
X024215Y009960D01*
X024163Y009882D02*
X021660Y009882D01*
X021667Y009489D02*
X024163Y009489D01*
X024210Y009411D02*
X021589Y009411D01*
X021510Y009332D02*
X034608Y009332D01*
X034615Y009411D02*
X029489Y009411D01*
X029545Y009466D02*
X029545Y009466D01*
X029567Y009489D02*
X031666Y009489D01*
X031655Y009568D02*
X029646Y009568D01*
X029724Y009646D02*
X031655Y009646D01*
X031655Y010353D02*
X030945Y010353D01*
X031009Y010431D02*
X031655Y010431D01*
X031655Y010510D02*
X031088Y010510D01*
X031166Y010588D02*
X031655Y010588D01*
X031655Y010667D02*
X031245Y010667D01*
X031323Y010745D02*
X031655Y010745D01*
X031655Y010824D02*
X031402Y010824D01*
X031480Y010902D02*
X031655Y010902D01*
X031655Y010981D02*
X031559Y010981D01*
X031637Y011059D02*
X031655Y011059D01*
X031077Y011452D02*
X029880Y011452D01*
X029958Y011530D02*
X031156Y011530D01*
X031234Y011609D02*
X030037Y011609D01*
X030115Y011687D02*
X031313Y011687D01*
X031391Y011766D02*
X030194Y011766D01*
X030272Y011844D02*
X030579Y011844D01*
X030576Y011845D02*
X030679Y011803D01*
X030790Y011803D01*
X030893Y011845D01*
X030972Y011924D01*
X031015Y012027D01*
X031015Y012138D01*
X030972Y012241D01*
X030940Y012273D01*
X031179Y012273D01*
X031147Y012241D01*
X031105Y012138D01*
X031105Y012027D01*
X031147Y011924D01*
X031226Y011845D01*
X031329Y011803D01*
X031428Y011803D01*
X029318Y009693D01*
X028521Y009693D01*
X028951Y010123D01*
X029045Y010216D01*
X029045Y010616D01*
X030455Y012027D01*
X030497Y011924D01*
X030576Y011845D01*
X030499Y011923D02*
X030351Y011923D01*
X030429Y012001D02*
X030465Y012001D01*
X030890Y011844D02*
X031229Y011844D01*
X031149Y011923D02*
X030971Y011923D01*
X031004Y012001D02*
X031115Y012001D01*
X031105Y012080D02*
X031015Y012080D01*
X031006Y012158D02*
X031113Y012158D01*
X031145Y012237D02*
X030974Y012237D01*
X031785Y012183D02*
X031785Y011933D01*
X030999Y011373D02*
X029801Y011373D01*
X029723Y011295D02*
X030920Y011295D01*
X030842Y011216D02*
X029644Y011216D01*
X029566Y011138D02*
X030763Y011138D01*
X030685Y011059D02*
X029487Y011059D01*
X029409Y010981D02*
X030606Y010981D01*
X030528Y010902D02*
X029330Y010902D01*
X029252Y010824D02*
X030449Y010824D01*
X030371Y010745D02*
X029173Y010745D01*
X029095Y010667D02*
X030292Y010667D01*
X030214Y010588D02*
X029045Y010588D01*
X029045Y010510D02*
X030135Y010510D01*
X030057Y010431D02*
X029045Y010431D01*
X029045Y010353D02*
X029978Y010353D01*
X029900Y010274D02*
X029045Y010274D01*
X029024Y010196D02*
X029821Y010196D01*
X029743Y010117D02*
X028945Y010117D01*
X028867Y010039D02*
X029664Y010039D01*
X029586Y009960D02*
X028788Y009960D01*
X028710Y009882D02*
X029507Y009882D01*
X029429Y009803D02*
X028631Y009803D01*
X028553Y009725D02*
X029350Y009725D01*
X029960Y009882D02*
X030110Y009882D01*
X030055Y009960D02*
X030038Y009960D01*
X030189Y009803D02*
X030380Y009803D01*
X028725Y010349D02*
X028725Y010749D01*
X029498Y011523D01*
X028132Y011523D01*
X028300Y011355D01*
X028300Y011011D01*
X028057Y010767D01*
X027713Y010767D01*
X027704Y010776D01*
X027545Y010616D01*
X027464Y010536D01*
X027464Y009893D01*
X027469Y009893D01*
X027469Y010528D01*
X027540Y010598D01*
X028230Y010598D01*
X028300Y010528D01*
X028300Y009924D01*
X028725Y010349D01*
X028725Y010353D02*
X028300Y010353D01*
X028300Y010431D02*
X028725Y010431D01*
X028725Y010510D02*
X028300Y010510D01*
X028239Y010588D02*
X028725Y010588D01*
X028725Y010667D02*
X027595Y010667D01*
X027530Y010588D02*
X027516Y010588D01*
X027469Y010510D02*
X027464Y010510D01*
X027464Y010431D02*
X027469Y010431D01*
X027464Y010353D02*
X027469Y010353D01*
X027464Y010274D02*
X027469Y010274D01*
X027464Y010196D02*
X027469Y010196D01*
X027464Y010117D02*
X027469Y010117D01*
X027464Y010039D02*
X027469Y010039D01*
X027464Y009960D02*
X027469Y009960D01*
X028300Y009960D02*
X028336Y009960D01*
X028300Y010039D02*
X028414Y010039D01*
X028493Y010117D02*
X028300Y010117D01*
X028300Y010196D02*
X028571Y010196D01*
X028650Y010274D02*
X028300Y010274D01*
X028113Y010824D02*
X028799Y010824D01*
X028725Y010745D02*
X027673Y010745D01*
X027385Y010683D02*
X026099Y010683D01*
X025099Y011683D01*
X025035Y011687D02*
X024535Y011687D01*
X024535Y011693D02*
X024535Y011673D01*
X025035Y011673D01*
X025035Y011693D01*
X024535Y011693D01*
X024470Y011683D02*
X022485Y011683D01*
X021935Y011133D01*
X020435Y011133D01*
X020385Y011183D01*
X020672Y010843D02*
X020097Y010843D01*
X019972Y010894D01*
X019895Y010972D01*
X019895Y010498D01*
X019947Y010446D01*
X019972Y010471D01*
X020097Y010523D01*
X020672Y010523D01*
X020691Y010515D01*
X021018Y010843D01*
X024163Y010843D01*
X024163Y010907D01*
X024255Y011000D01*
X024684Y011000D01*
X024777Y010907D01*
X024777Y010853D01*
X024792Y010853D01*
X024792Y010907D01*
X024885Y011000D01*
X025314Y011000D01*
X025406Y010907D01*
X025406Y010843D01*
X025569Y010843D01*
X025639Y010913D01*
X025643Y010913D01*
X025190Y011366D01*
X024885Y011366D01*
X024792Y011458D01*
X024792Y011513D01*
X024777Y011513D01*
X024777Y011458D01*
X024684Y011366D01*
X024255Y011366D01*
X024163Y011458D01*
X024163Y011523D01*
X022551Y011523D01*
X022165Y011136D01*
X022165Y011037D01*
X022030Y010903D01*
X021839Y010903D01*
X021769Y010973D01*
X020875Y010973D01*
X020797Y010894D01*
X020672Y010843D01*
X020805Y010902D02*
X024163Y010902D01*
X024236Y010981D02*
X022108Y010981D01*
X022165Y011059D02*
X025497Y011059D01*
X025575Y010981D02*
X025333Y010981D01*
X025406Y010902D02*
X025629Y010902D01*
X025735Y010683D02*
X025099Y010683D01*
X025035Y010673D02*
X025035Y010693D01*
X024535Y010693D01*
X024535Y010673D01*
X025035Y010673D01*
X024792Y010902D02*
X024777Y010902D01*
X024703Y010981D02*
X024866Y010981D01*
X024470Y010683D02*
X021085Y010683D01*
X020585Y010183D01*
X020385Y010183D01*
X020285Y010083D01*
X019635Y010083D01*
X019485Y010233D01*
X019485Y014483D01*
X019895Y013964D02*
X019903Y013964D01*
X019895Y013885D02*
X019994Y013885D01*
X019895Y013807D02*
X020734Y013807D01*
X020813Y013728D02*
X019895Y013728D01*
X019944Y013650D02*
X020891Y013650D01*
X020970Y013571D02*
X020022Y013571D01*
X020185Y013183D02*
X019735Y012733D01*
X019735Y010333D01*
X019895Y010510D02*
X020066Y010510D01*
X019895Y010588D02*
X020764Y010588D01*
X020842Y010667D02*
X019895Y010667D01*
X019895Y010745D02*
X020921Y010745D01*
X020999Y010824D02*
X019895Y010824D01*
X019895Y010902D02*
X019964Y010902D01*
X019953Y011452D02*
X019895Y011452D01*
X019895Y011530D02*
X022106Y011530D01*
X022184Y011609D02*
X019895Y011609D01*
X019895Y011687D02*
X022263Y011687D01*
X022341Y011766D02*
X019895Y011766D01*
X019895Y011844D02*
X020093Y011844D01*
X019944Y011923D02*
X019895Y011923D01*
X019895Y012472D02*
X019975Y012472D01*
X019895Y012551D02*
X023290Y012551D01*
X023369Y012472D02*
X020794Y012472D01*
X020874Y012394D02*
X023447Y012394D01*
X023526Y012315D02*
X020918Y012315D01*
X020945Y012237D02*
X023604Y012237D01*
X023683Y012158D02*
X020945Y012158D01*
X020930Y012080D02*
X023761Y012080D01*
X023951Y012343D02*
X023690Y012603D01*
X024238Y012603D01*
X024318Y012523D01*
X026305Y012523D01*
X026305Y011843D01*
X025951Y011843D01*
X025545Y012249D01*
X025451Y012343D01*
X023951Y012343D01*
X023900Y012394D02*
X026305Y012394D01*
X026305Y012472D02*
X023821Y012472D01*
X023743Y012551D02*
X024290Y012551D01*
X024464Y012865D02*
X026305Y012865D01*
X026305Y012943D02*
X024464Y012943D01*
X024464Y013022D02*
X026305Y013022D01*
X026305Y013100D02*
X024464Y013100D01*
X025478Y012315D02*
X026305Y012315D01*
X026305Y012237D02*
X025557Y012237D01*
X025635Y012158D02*
X026305Y012158D01*
X026305Y012080D02*
X025714Y012080D01*
X025792Y012001D02*
X026305Y012001D01*
X026305Y011923D02*
X025871Y011923D01*
X025949Y011844D02*
X026305Y011844D01*
X025811Y011530D02*
X025478Y011530D01*
X025406Y011609D02*
X025732Y011609D01*
X025654Y011687D02*
X025406Y011687D01*
X025406Y011766D02*
X025575Y011766D01*
X025497Y011844D02*
X025406Y011844D01*
X025418Y011923D02*
X025391Y011923D01*
X025340Y012001D02*
X020897Y012001D01*
X020825Y011923D02*
X024178Y011923D01*
X024163Y011844D02*
X020676Y011844D01*
X020816Y011452D02*
X022027Y011452D01*
X021949Y011373D02*
X020894Y011373D01*
X020926Y011295D02*
X021771Y011295D01*
X022166Y011138D02*
X025418Y011138D01*
X025340Y011216D02*
X022244Y011216D01*
X022323Y011295D02*
X025261Y011295D01*
X025557Y011452D02*
X026305Y011452D01*
X026305Y011373D02*
X025635Y011373D01*
X025714Y011295D02*
X026305Y011295D01*
X026305Y011216D02*
X025792Y011216D01*
X025871Y011138D02*
X026305Y011138D01*
X026305Y011059D02*
X025949Y011059D01*
X026028Y010981D02*
X026305Y010981D01*
X026305Y010902D02*
X026106Y010902D01*
X027385Y010683D02*
X027885Y011183D01*
X028191Y010902D02*
X028878Y010902D01*
X028956Y010981D02*
X028270Y010981D01*
X028300Y011059D02*
X029035Y011059D01*
X029113Y011138D02*
X028300Y011138D01*
X028300Y011216D02*
X029192Y011216D01*
X029270Y011295D02*
X028300Y011295D01*
X028281Y011373D02*
X029349Y011373D01*
X029427Y011452D02*
X028203Y011452D01*
X028133Y011844D02*
X029570Y011844D01*
X029648Y011923D02*
X028212Y011923D01*
X028290Y012001D02*
X029727Y012001D01*
X029805Y012080D02*
X028300Y012080D01*
X027385Y013683D02*
X027885Y014183D01*
X028635Y014933D01*
X029335Y014933D01*
X029317Y015141D02*
X029250Y015141D01*
X029265Y015220D02*
X029395Y015220D01*
X029474Y015298D02*
X029260Y015298D01*
X029228Y015377D02*
X029552Y015377D01*
X030721Y015377D02*
X030847Y015377D01*
X030778Y015298D02*
X030773Y015298D01*
X031085Y015083D02*
X031085Y015883D01*
X031322Y015377D02*
X031477Y015377D01*
X031407Y015298D02*
X031392Y015298D01*
X034045Y015298D02*
X034615Y015298D01*
X034615Y015220D02*
X034045Y015220D01*
X034045Y015141D02*
X034615Y015141D01*
X034615Y015063D02*
X034045Y015063D01*
X034045Y014984D02*
X034615Y014984D01*
X034615Y014906D02*
X034045Y014906D01*
X034045Y014827D02*
X034615Y014827D01*
X034615Y014749D02*
X034045Y014749D01*
X034045Y014670D02*
X034615Y014670D01*
X034615Y014592D02*
X034045Y014592D01*
X034045Y014513D02*
X034615Y014513D01*
X034615Y014435D02*
X034045Y014435D01*
X034045Y014356D02*
X034615Y014356D01*
X034615Y014278D02*
X034045Y014278D01*
X034045Y014199D02*
X034615Y014199D01*
X034615Y014121D02*
X034045Y014121D01*
X034045Y014042D02*
X034615Y014042D01*
X034615Y013964D02*
X034045Y013964D01*
X034045Y013885D02*
X034615Y013885D01*
X034615Y013807D02*
X034045Y013807D01*
X034045Y013728D02*
X034615Y013728D01*
X034615Y013650D02*
X034045Y013650D01*
X034045Y013571D02*
X034615Y013571D01*
X034615Y013493D02*
X034045Y013493D01*
X034045Y013414D02*
X034615Y013414D01*
X034615Y013336D02*
X034327Y013336D01*
X034385Y013257D02*
X034615Y013257D01*
X034615Y013179D02*
X034385Y013179D01*
X034385Y013100D02*
X034615Y013100D01*
X034615Y013022D02*
X034319Y013022D01*
X034045Y015377D02*
X034615Y015377D01*
X034615Y015455D02*
X034045Y015455D01*
X034045Y015534D02*
X034615Y015534D01*
X034615Y015612D02*
X034045Y015612D01*
X033825Y017261D02*
X033665Y017261D01*
X033603Y017339D02*
X033825Y017339D01*
X032028Y018203D02*
X031845Y018203D01*
X031923Y018281D02*
X032107Y018281D01*
X032185Y018360D02*
X032002Y018360D01*
X032080Y018438D02*
X032255Y018438D01*
X032255Y018517D02*
X032159Y018517D01*
X032485Y018433D02*
X031585Y017533D01*
X031585Y017183D01*
X031416Y017339D02*
X031019Y017339D01*
X030924Y017418D02*
X030496Y017418D01*
X030418Y017496D02*
X030846Y017496D01*
X030805Y017575D02*
X030402Y017575D01*
X030415Y017653D02*
X030805Y017653D01*
X030808Y017732D02*
X030415Y017732D01*
X030382Y017810D02*
X030887Y017810D01*
X031050Y017889D02*
X030345Y017889D01*
X030345Y017967D02*
X031129Y017967D01*
X031207Y018046D02*
X030345Y018046D01*
X030345Y018124D02*
X031286Y018124D01*
X031364Y018203D02*
X030345Y018203D01*
X030345Y018281D02*
X031443Y018281D01*
X031521Y018360D02*
X030345Y018360D01*
X030416Y018438D02*
X031600Y018438D01*
X031678Y018517D02*
X030495Y018517D01*
X030573Y018595D02*
X031757Y018595D01*
X031835Y018674D02*
X030652Y018674D01*
X030730Y018752D02*
X031914Y018752D01*
X031992Y018831D02*
X030809Y018831D01*
X030887Y018909D02*
X031898Y018909D01*
X031820Y018988D02*
X030966Y018988D01*
X031044Y019066D02*
X031781Y019066D01*
X031760Y019145D02*
X031123Y019145D01*
X031201Y019223D02*
X031760Y019223D01*
X031782Y019302D02*
X031280Y019302D01*
X031358Y019380D02*
X031822Y019380D01*
X031849Y019459D02*
X031437Y019459D01*
X031515Y019537D02*
X031793Y019537D01*
X031760Y019616D02*
X031594Y019616D01*
X031672Y019694D02*
X031760Y019694D01*
X031751Y019773D02*
X031770Y019773D01*
X031534Y020008D02*
X009326Y020008D01*
X009325Y019930D02*
X031455Y019930D01*
X031377Y019851D02*
X009325Y019851D01*
X009325Y019773D02*
X031298Y019773D01*
X031220Y019694D02*
X027464Y019694D01*
X027464Y019616D02*
X027702Y019616D01*
X027623Y019537D02*
X027464Y019537D01*
X027464Y019459D02*
X027545Y019459D01*
X027466Y019380D02*
X027464Y019380D01*
X027845Y019380D02*
X027925Y019380D01*
X027925Y019302D02*
X027845Y019302D01*
X027845Y019223D02*
X027925Y019223D01*
X027925Y019145D02*
X030670Y019145D01*
X030592Y019066D02*
X028320Y019066D01*
X028305Y018988D02*
X030513Y018988D01*
X030435Y018909D02*
X028227Y018909D01*
X028148Y018831D02*
X030356Y018831D01*
X030278Y018752D02*
X028070Y018752D01*
X027925Y018752D02*
X027845Y018752D01*
X027845Y018831D02*
X027925Y018831D01*
X027925Y018909D02*
X027845Y018909D01*
X027845Y018988D02*
X027925Y018988D01*
X027925Y019066D02*
X027845Y019066D01*
X027621Y018831D02*
X027464Y018831D01*
X027464Y018909D02*
X027542Y018909D01*
X027464Y018988D02*
X027464Y018988D01*
X027464Y018752D02*
X027699Y018752D01*
X027713Y018598D02*
X027469Y018355D01*
X027469Y018011D01*
X027713Y017767D01*
X028057Y017767D01*
X028300Y018011D01*
X028300Y018355D01*
X028057Y018598D01*
X027713Y018598D01*
X027710Y018595D02*
X027464Y018595D01*
X027464Y018517D02*
X027631Y018517D01*
X027553Y018438D02*
X027464Y018438D01*
X027464Y018360D02*
X027474Y018360D01*
X027464Y018281D02*
X027469Y018281D01*
X027464Y018203D02*
X027469Y018203D01*
X027464Y018124D02*
X027469Y018124D01*
X027464Y018046D02*
X027469Y018046D01*
X027464Y017967D02*
X027513Y017967D01*
X027464Y017889D02*
X027591Y017889D01*
X027670Y017810D02*
X027464Y017810D01*
X027464Y017732D02*
X029955Y017732D01*
X029955Y017653D02*
X027464Y017653D01*
X027464Y017575D02*
X027689Y017575D01*
X027611Y017496D02*
X027464Y017496D01*
X027464Y017418D02*
X027532Y017418D01*
X027469Y017339D02*
X027464Y017339D01*
X027464Y017261D02*
X027469Y017261D01*
X027464Y017182D02*
X027469Y017182D01*
X027464Y017104D02*
X027469Y017104D01*
X027464Y017025D02*
X027469Y017025D01*
X027464Y016947D02*
X027533Y016947D01*
X027464Y016868D02*
X027612Y016868D01*
X027885Y017183D02*
X029570Y017183D01*
X029635Y017182D02*
X030135Y017182D01*
X030135Y017173D02*
X030135Y017193D01*
X029635Y017193D01*
X029635Y017173D01*
X030135Y017173D01*
X029904Y016947D02*
X029865Y016947D01*
X029787Y016868D02*
X029982Y016868D01*
X029903Y017418D02*
X029866Y017418D01*
X029788Y017496D02*
X029981Y017496D01*
X029967Y017575D02*
X028080Y017575D01*
X028158Y017496D02*
X029351Y017496D01*
X029273Y017418D02*
X028237Y017418D01*
X028099Y017810D02*
X028532Y017810D01*
X028539Y017803D02*
X028730Y017803D01*
X028865Y017937D01*
X028865Y018128D01*
X028730Y018263D01*
X028539Y018263D01*
X028405Y018128D01*
X028405Y017937D01*
X028539Y017803D01*
X028453Y017889D02*
X028178Y017889D01*
X028256Y017967D02*
X028405Y017967D01*
X028405Y018046D02*
X028300Y018046D01*
X028300Y018124D02*
X028405Y018124D01*
X028479Y018203D02*
X028300Y018203D01*
X028300Y018281D02*
X030025Y018281D01*
X030025Y018203D02*
X028790Y018203D01*
X028865Y018124D02*
X030025Y018124D01*
X030025Y018046D02*
X028865Y018046D01*
X028865Y017967D02*
X030025Y017967D01*
X030025Y017889D02*
X028816Y017889D01*
X028737Y017810D02*
X029987Y017810D01*
X030025Y018360D02*
X028295Y018360D01*
X028216Y018438D02*
X030025Y018438D01*
X030042Y018517D02*
X028138Y018517D01*
X028059Y018595D02*
X030121Y018595D01*
X030199Y018674D02*
X027464Y018674D01*
X028320Y019223D02*
X028320Y019363D01*
X028303Y019380D02*
X030906Y019380D01*
X030984Y019459D02*
X028224Y019459D01*
X028146Y019537D02*
X031063Y019537D01*
X031141Y019616D02*
X028067Y019616D01*
X027925Y019616D02*
X027845Y019616D01*
X027845Y019537D02*
X027925Y019537D01*
X027925Y019459D02*
X027845Y019459D01*
X026305Y019459D02*
X020838Y019459D01*
X020906Y019380D02*
X026305Y019380D01*
X026305Y019302D02*
X020945Y019302D01*
X020667Y019537D02*
X026305Y019537D01*
X026305Y019616D02*
X011464Y019616D01*
X011464Y019694D02*
X026305Y019694D01*
X026305Y018752D02*
X024427Y018752D01*
X024464Y018674D02*
X026305Y018674D01*
X026305Y018595D02*
X024464Y018595D01*
X024464Y018517D02*
X026305Y018517D01*
X026305Y018438D02*
X024464Y018438D01*
X024464Y018360D02*
X026305Y018360D01*
X026305Y018281D02*
X024464Y018281D01*
X024464Y018203D02*
X026305Y018203D01*
X026305Y018124D02*
X024464Y018124D01*
X024464Y018046D02*
X026305Y018046D01*
X026305Y017967D02*
X024464Y017967D01*
X024464Y017889D02*
X026305Y017889D01*
X023885Y018183D02*
X023385Y018683D01*
X020425Y019302D02*
X020345Y019302D01*
X020345Y019380D02*
X020425Y019380D01*
X020425Y019459D02*
X020345Y019459D01*
X020345Y019537D02*
X020425Y019537D01*
X020102Y019537D02*
X011464Y019537D01*
X010305Y019537D02*
X010290Y019537D01*
X010300Y019528D02*
X010230Y019598D01*
X009540Y019598D01*
X009469Y019528D01*
X009469Y018838D01*
X009540Y018767D01*
X010230Y018767D01*
X010300Y018838D01*
X010300Y019528D01*
X010300Y019459D02*
X010305Y019459D01*
X010300Y019380D02*
X010305Y019380D01*
X010300Y019302D02*
X010305Y019302D01*
X010300Y019223D02*
X010305Y019223D01*
X010300Y019145D02*
X010305Y019145D01*
X010300Y019066D02*
X010305Y019066D01*
X010300Y018988D02*
X010305Y018988D01*
X010300Y018909D02*
X010305Y018909D01*
X010293Y018831D02*
X010305Y018831D01*
X010228Y018752D02*
X009325Y018752D01*
X009325Y018674D02*
X010149Y018674D01*
X010071Y018595D02*
X010059Y018595D01*
X009710Y018595D02*
X009325Y018595D01*
X009325Y018517D02*
X009631Y018517D01*
X009553Y018438D02*
X009325Y018438D01*
X009325Y018360D02*
X009474Y018360D01*
X009469Y018281D02*
X009325Y018281D01*
X009325Y018203D02*
X009469Y018203D01*
X009469Y018124D02*
X009325Y018124D01*
X009325Y018046D02*
X009469Y018046D01*
X009443Y017967D02*
X009325Y017967D01*
X009325Y017889D02*
X009364Y017889D01*
X009325Y018831D02*
X009476Y018831D01*
X009469Y018909D02*
X009325Y018909D01*
X009325Y018988D02*
X009469Y018988D01*
X009469Y019066D02*
X009325Y019066D01*
X009325Y019145D02*
X009469Y019145D01*
X009469Y019223D02*
X009325Y019223D01*
X009325Y019302D02*
X009469Y019302D01*
X009469Y019380D02*
X009325Y019380D01*
X009325Y019459D02*
X009469Y019459D01*
X009479Y019537D02*
X009325Y019537D01*
X009325Y019616D02*
X010305Y019616D01*
X010305Y019694D02*
X009325Y019694D01*
X009358Y020087D02*
X031612Y020087D01*
X031766Y018124D02*
X031950Y018124D01*
X031871Y018046D02*
X031688Y018046D01*
X031609Y017967D02*
X031793Y017967D01*
X031714Y017889D02*
X031531Y017889D01*
X031452Y017810D02*
X031636Y017810D01*
X031557Y017732D02*
X031374Y017732D01*
X031295Y017653D02*
X031479Y017653D01*
X031425Y017575D02*
X031265Y017575D01*
X031223Y017496D02*
X031425Y017496D01*
X031425Y017418D02*
X031145Y017418D01*
X028719Y014042D02*
X028670Y014042D01*
X028592Y013964D02*
X028758Y013964D01*
X028850Y013885D02*
X028513Y013885D01*
X027385Y013683D02*
X021085Y013683D01*
X020585Y014183D01*
X020385Y014183D01*
X020845Y014423D02*
X021101Y014423D01*
X021195Y014516D01*
X021201Y014523D01*
X022305Y014523D01*
X022305Y013843D01*
X021151Y013843D01*
X020925Y014068D01*
X020945Y014115D01*
X020945Y014250D01*
X020893Y014375D01*
X020845Y014423D01*
X020901Y014356D02*
X022305Y014356D01*
X022305Y014278D02*
X020933Y014278D01*
X020945Y014199D02*
X022305Y014199D01*
X022305Y014121D02*
X020945Y014121D01*
X020951Y014042D02*
X022305Y014042D01*
X022305Y013964D02*
X021030Y013964D01*
X021108Y013885D02*
X022305Y013885D01*
X022305Y013493D02*
X020745Y013493D01*
X020854Y013414D02*
X022305Y013414D01*
X022305Y013336D02*
X020909Y013336D01*
X020942Y013257D02*
X022305Y013257D01*
X022305Y012786D02*
X020014Y012786D01*
X019936Y012708D02*
X022305Y012708D01*
X022326Y012629D02*
X019895Y012629D01*
X017899Y012943D02*
X017846Y012943D01*
X016915Y013414D02*
X016429Y013414D01*
X016351Y013493D02*
X017025Y013493D01*
X015285Y012551D02*
X015145Y012551D01*
X014825Y012551D02*
X014595Y012551D01*
X014620Y012472D02*
X014799Y012472D01*
X014755Y012394D02*
X014665Y012394D01*
X014435Y012333D02*
X014435Y013383D01*
X014275Y012551D02*
X013992Y012551D01*
X014070Y012472D02*
X014249Y012472D01*
X014205Y012394D02*
X014115Y012394D01*
X014035Y012158D02*
X014284Y012158D01*
X014585Y012158D02*
X014834Y012158D01*
X013777Y012551D02*
X013585Y012551D01*
X012885Y010902D02*
X012291Y010902D01*
X012370Y010824D02*
X012885Y010824D01*
X012885Y010745D02*
X012448Y010745D01*
X012527Y010667D02*
X012885Y010667D01*
X012885Y010588D02*
X012605Y010588D01*
X012684Y010510D02*
X012885Y010510D01*
X012885Y010431D02*
X012762Y010431D01*
X012895Y009646D02*
X017895Y009646D01*
X017973Y009568D02*
X012895Y009568D01*
X012895Y009489D02*
X015966Y009489D01*
X015905Y009411D02*
X012895Y009411D01*
X009985Y009233D02*
X016035Y009233D01*
X016135Y009333D01*
X016365Y009332D02*
X018209Y009332D01*
X018225Y009316D02*
X018225Y009316D01*
X018287Y009254D02*
X016365Y009254D01*
X016365Y009411D02*
X018130Y009411D01*
X018052Y009489D02*
X016303Y009489D01*
X016953Y009725D02*
X017816Y009725D01*
X017738Y009803D02*
X017031Y009803D01*
X016814Y010039D02*
X016267Y010039D01*
X016345Y010117D02*
X016825Y010117D01*
X016816Y010588D02*
X018725Y010588D01*
X018725Y010510D02*
X017704Y010510D01*
X017837Y010431D02*
X018725Y010431D01*
X018725Y010353D02*
X017902Y010353D01*
X017935Y010274D02*
X018725Y010274D01*
X018725Y010196D02*
X017945Y010196D01*
X017945Y010117D02*
X018725Y010117D01*
X018752Y010039D02*
X017955Y010039D01*
X018033Y009960D02*
X018831Y009960D01*
X018818Y009973D02*
X018818Y009973D01*
X018909Y009882D02*
X018112Y009882D01*
X018190Y009803D02*
X018988Y009803D01*
X019066Y009725D02*
X018269Y009725D01*
X018347Y009646D02*
X019145Y009646D01*
X019223Y009568D02*
X018426Y009568D01*
X021432Y009254D02*
X034555Y009254D01*
X025980Y009411D02*
X025359Y009411D01*
X025406Y009489D02*
X025902Y009489D01*
X024840Y009411D02*
X024729Y009411D01*
X024777Y009489D02*
X024792Y009489D01*
X024877Y011373D02*
X024692Y011373D01*
X024770Y011452D02*
X024799Y011452D01*
X024247Y011373D02*
X022401Y011373D01*
X022480Y011452D02*
X024169Y011452D01*
X024761Y011923D02*
X024808Y011923D01*
X022305Y014435D02*
X021113Y014435D01*
X021191Y014513D02*
X022305Y014513D01*
X022305Y014843D02*
X021221Y014843D01*
X021245Y014866D01*
X021245Y015023D01*
X022305Y015023D01*
X022305Y014843D01*
X022305Y014906D02*
X021245Y014906D01*
X021245Y014984D02*
X022305Y014984D01*
X013366Y018517D02*
X011464Y018517D01*
X011464Y018438D02*
X012453Y018438D01*
X012374Y018360D02*
X011464Y018360D01*
X011464Y018281D02*
X012296Y018281D01*
X012269Y018203D02*
X011464Y018203D01*
X011464Y018124D02*
X012269Y018124D01*
X012269Y018046D02*
X011464Y018046D01*
X011464Y017967D02*
X012269Y017967D01*
X012291Y017889D02*
X011464Y017889D01*
X011683Y017810D02*
X012370Y017810D01*
X012448Y017732D02*
X011762Y017732D01*
X011545Y017496D02*
X011464Y017496D01*
X012995Y018360D02*
X013249Y018360D01*
X013249Y018281D02*
X013073Y018281D01*
X013100Y018203D02*
X013249Y018203D01*
X013262Y018438D02*
X012916Y018438D01*
D14*
X017165Y018183D02*
X017605Y018183D01*
X017605Y017183D02*
X017165Y017183D01*
X017165Y016183D02*
X017605Y016183D01*
X017605Y015183D02*
X017165Y015183D01*
X017165Y014183D02*
X017605Y014183D01*
X017605Y013183D02*
X017165Y013183D01*
X017165Y012183D02*
X017605Y012183D01*
X017605Y011183D02*
X017165Y011183D01*
X017165Y010183D02*
X017605Y010183D01*
X020165Y010183D02*
X020605Y010183D01*
X020605Y011183D02*
X020165Y011183D01*
X020165Y012183D02*
X020605Y012183D01*
X020605Y013183D02*
X020165Y013183D01*
X020165Y014183D02*
X020605Y014183D01*
X020605Y015183D02*
X020165Y015183D01*
X020165Y016183D02*
X020605Y016183D01*
X020605Y017183D02*
X020165Y017183D01*
X020165Y018183D02*
X020605Y018183D01*
X020605Y019183D02*
X020165Y019183D01*
X017605Y019183D02*
X017165Y019183D01*
D15*
X015485Y018083D03*
X014685Y019183D03*
D16*
X015472Y019183D03*
X016259Y019183D03*
X016272Y018083D03*
D17*
X010885Y018183D03*
X010885Y017183D03*
X010885Y016183D03*
X010885Y015183D03*
X010885Y014183D03*
X010885Y013183D03*
X010885Y012183D03*
X010885Y011183D03*
X010885Y010183D03*
X022885Y013183D03*
X023885Y013183D03*
X023885Y014183D03*
X022885Y014183D03*
X022885Y015183D03*
X023885Y015183D03*
X023885Y016183D03*
X022885Y016183D03*
X022885Y017183D03*
X023885Y017183D03*
X023885Y018183D03*
X022885Y018183D03*
X026885Y018183D03*
X026885Y017183D03*
X026885Y016183D03*
X026885Y015183D03*
X026885Y014183D03*
X026885Y013183D03*
X026885Y012183D03*
X026885Y011183D03*
X026885Y010183D03*
X032235Y010033D03*
X033235Y010033D03*
X034235Y010033D03*
X034235Y011033D03*
X033235Y011033D03*
X032235Y011033D03*
X026885Y019183D03*
X010885Y019183D03*
D18*
X010605Y019162D02*
X011165Y019162D01*
X011165Y019210D02*
X010605Y019210D01*
X010605Y019259D02*
X011165Y019259D01*
X011165Y019307D02*
X010605Y019307D01*
X010605Y019356D02*
X011165Y019356D01*
X011165Y019404D02*
X010605Y019404D01*
X010605Y019413D02*
X010607Y019428D01*
X010614Y019442D01*
X010625Y019453D01*
X010639Y019460D01*
X010655Y019463D01*
X011115Y019463D01*
X011130Y019460D01*
X011144Y019453D01*
X011155Y019442D01*
X011162Y019428D01*
X011165Y019413D01*
X011165Y018953D01*
X011162Y018937D01*
X011155Y018923D01*
X011144Y018912D01*
X011130Y018905D01*
X011115Y018903D01*
X010655Y018903D01*
X010639Y018905D01*
X010625Y018912D01*
X010614Y018923D01*
X010607Y018937D01*
X010605Y018953D01*
X010605Y019413D01*
X010625Y019453D02*
X011144Y019453D01*
X011165Y019113D02*
X010605Y019113D01*
X010605Y019065D02*
X011165Y019065D01*
X011165Y019016D02*
X010605Y019016D01*
X010605Y018968D02*
X011165Y018968D01*
X011151Y018919D02*
X010618Y018919D01*
X010655Y018463D02*
X011115Y018463D01*
X011130Y018460D01*
X011144Y018453D01*
X011155Y018442D01*
X011162Y018428D01*
X011165Y018413D01*
X011165Y017953D01*
X011162Y017937D01*
X011155Y017923D01*
X011144Y017912D01*
X011130Y017905D01*
X011115Y017903D01*
X010655Y017903D01*
X010639Y017905D01*
X010625Y017912D01*
X010614Y017923D01*
X010607Y017937D01*
X010605Y017953D01*
X010605Y018413D01*
X010607Y018428D01*
X010614Y018442D01*
X010625Y018453D01*
X010639Y018460D01*
X010655Y018463D01*
X010610Y018434D02*
X011159Y018434D01*
X011165Y018386D02*
X010605Y018386D01*
X010605Y018337D02*
X011165Y018337D01*
X011165Y018289D02*
X010605Y018289D01*
X010605Y018240D02*
X011165Y018240D01*
X011165Y018192D02*
X010605Y018192D01*
X010605Y018143D02*
X011165Y018143D01*
X011165Y018095D02*
X010605Y018095D01*
X010605Y018046D02*
X011165Y018046D01*
X011165Y017998D02*
X010605Y017998D01*
X010605Y017949D02*
X011164Y017949D01*
X011115Y017463D02*
X010655Y017463D01*
X010639Y017460D01*
X010625Y017453D01*
X010614Y017442D01*
X010607Y017428D01*
X010605Y017413D01*
X010605Y016953D01*
X010607Y016937D01*
X010614Y016923D01*
X010625Y016912D01*
X010639Y016905D01*
X010655Y016903D01*
X011115Y016903D01*
X011130Y016905D01*
X011144Y016912D01*
X011155Y016923D01*
X011162Y016937D01*
X011165Y016953D01*
X011165Y017413D01*
X011162Y017428D01*
X011155Y017442D01*
X011144Y017453D01*
X011130Y017460D01*
X011115Y017463D01*
X011164Y017416D02*
X010605Y017416D01*
X010605Y017367D02*
X011165Y017367D01*
X011165Y017319D02*
X010605Y017319D01*
X010605Y017270D02*
X011165Y017270D01*
X011165Y017222D02*
X010605Y017222D01*
X010605Y017173D02*
X011165Y017173D01*
X011165Y017125D02*
X010605Y017125D01*
X010605Y017076D02*
X011165Y017076D01*
X011165Y017028D02*
X010605Y017028D01*
X010605Y016979D02*
X011165Y016979D01*
X011159Y016931D02*
X010610Y016931D01*
X010655Y016463D02*
X011115Y016463D01*
X011130Y016460D01*
X011144Y016453D01*
X011155Y016442D01*
X011162Y016428D01*
X011165Y016413D01*
X011165Y015953D01*
X011162Y015937D01*
X011155Y015923D01*
X011144Y015912D01*
X010625Y015912D01*
X010614Y015923D01*
X010607Y015937D01*
X010605Y015953D01*
X010605Y016413D01*
X010607Y016428D01*
X010614Y016442D01*
X010625Y016453D01*
X010639Y016460D01*
X010655Y016463D01*
X010618Y016446D02*
X011151Y016446D01*
X011165Y016397D02*
X010605Y016397D01*
X010605Y016349D02*
X011165Y016349D01*
X011165Y016300D02*
X010605Y016300D01*
X010605Y016252D02*
X011165Y016252D01*
X011165Y016203D02*
X010605Y016203D01*
X010605Y016155D02*
X011165Y016155D01*
X011165Y016106D02*
X010605Y016106D01*
X010605Y016058D02*
X011165Y016058D01*
X011165Y016009D02*
X010605Y016009D01*
X010605Y015961D02*
X011165Y015961D01*
X011144Y015912D02*
X011130Y015905D01*
X011115Y015903D01*
X010655Y015903D01*
X010639Y015905D01*
X010625Y015912D01*
X010655Y015463D02*
X011115Y015463D01*
X011130Y015460D01*
X011144Y015453D01*
X011155Y015442D01*
X011162Y015428D01*
X011165Y015413D01*
X011165Y014953D01*
X011162Y014937D01*
X011155Y014923D01*
X011144Y014912D01*
X011130Y014905D01*
X011115Y014903D01*
X010655Y014903D01*
X010639Y014905D01*
X010625Y014912D01*
X010614Y014923D01*
X010607Y014937D01*
X010605Y014953D01*
X010605Y015413D01*
X010607Y015428D01*
X010614Y015442D01*
X010625Y015453D01*
X010639Y015460D01*
X010655Y015463D01*
X010607Y015427D02*
X011162Y015427D01*
X011165Y015379D02*
X010605Y015379D01*
X010605Y015330D02*
X011165Y015330D01*
X011165Y015282D02*
X010605Y015282D01*
X010605Y015233D02*
X011165Y015233D01*
X011165Y015185D02*
X010605Y015185D01*
X010605Y015136D02*
X011165Y015136D01*
X011165Y015088D02*
X010605Y015088D01*
X010605Y015039D02*
X011165Y015039D01*
X011165Y014991D02*
X010605Y014991D01*
X010606Y014942D02*
X011163Y014942D01*
X011115Y014463D02*
X010655Y014463D01*
X010639Y014460D01*
X010625Y014453D01*
X010614Y014442D01*
X010607Y014428D01*
X010605Y014413D01*
X010605Y013953D01*
X010607Y013937D01*
X010614Y013923D01*
X010625Y013912D01*
X010639Y013905D01*
X010655Y013903D01*
X011115Y013903D01*
X011130Y013905D01*
X011144Y013912D01*
X011155Y013923D01*
X011162Y013937D01*
X011165Y013953D01*
X011165Y014413D01*
X011162Y014428D01*
X011155Y014442D01*
X011144Y014453D01*
X011130Y014460D01*
X011115Y014463D01*
X011136Y014457D02*
X010633Y014457D01*
X010605Y014409D02*
X011165Y014409D01*
X011165Y014360D02*
X010605Y014360D01*
X010605Y014312D02*
X011165Y014312D01*
X011165Y014263D02*
X010605Y014263D01*
X010605Y014215D02*
X011165Y014215D01*
X011165Y014166D02*
X010605Y014166D01*
X010605Y014118D02*
X011165Y014118D01*
X011165Y014069D02*
X010605Y014069D01*
X010605Y014021D02*
X011165Y014021D01*
X011165Y013972D02*
X010605Y013972D01*
X010614Y013924D02*
X011155Y013924D01*
X011115Y013463D02*
X010655Y013463D01*
X010639Y013460D01*
X010625Y013453D01*
X010614Y013442D01*
X010607Y013428D01*
X010605Y013413D01*
X010605Y012953D01*
X010607Y012937D01*
X010614Y012923D01*
X010625Y012912D01*
X010639Y012905D01*
X010655Y012903D01*
X011115Y012903D01*
X011130Y012905D01*
X011144Y012912D01*
X011155Y012923D01*
X011162Y012937D01*
X011165Y012953D01*
X011165Y013413D01*
X011162Y013428D01*
X011155Y013442D01*
X011144Y013453D01*
X011130Y013460D01*
X011115Y013463D01*
X011157Y013439D02*
X010612Y013439D01*
X010605Y013390D02*
X011165Y013390D01*
X011165Y013342D02*
X010605Y013342D01*
X010605Y013293D02*
X011165Y013293D01*
X011165Y013245D02*
X010605Y013245D01*
X010605Y013196D02*
X011165Y013196D01*
X011165Y013148D02*
X010605Y013148D01*
X010605Y013099D02*
X011165Y013099D01*
X011165Y013051D02*
X010605Y013051D01*
X010605Y013002D02*
X011165Y013002D01*
X011165Y012954D02*
X010605Y012954D01*
X010639Y012905D02*
X011130Y012905D01*
X011115Y012463D02*
X010655Y012463D01*
X010639Y012460D01*
X010625Y012453D01*
X010614Y012442D01*
X010607Y012428D01*
X010605Y012413D01*
X010605Y011953D01*
X010607Y011937D01*
X010614Y011923D01*
X010625Y011912D01*
X010639Y011905D01*
X010655Y011903D01*
X011115Y011903D01*
X011130Y011905D01*
X011144Y011912D01*
X011155Y011923D01*
X011162Y011937D01*
X011165Y011953D01*
X011165Y012413D01*
X011162Y012428D01*
X011155Y012442D01*
X011144Y012453D01*
X011130Y012460D01*
X011115Y012463D01*
X011163Y012420D02*
X010606Y012420D01*
X010605Y012372D02*
X011165Y012372D01*
X011165Y012323D02*
X010605Y012323D01*
X010605Y012275D02*
X011165Y012275D01*
X011165Y012226D02*
X010605Y012226D01*
X010605Y012178D02*
X011165Y012178D01*
X011165Y012129D02*
X010605Y012129D01*
X010605Y012081D02*
X011165Y012081D01*
X011165Y012032D02*
X010605Y012032D01*
X010605Y011984D02*
X011165Y011984D01*
X011161Y011935D02*
X010608Y011935D01*
X010655Y011463D02*
X011115Y011463D01*
X011130Y011460D01*
X011144Y011453D01*
X011155Y011442D01*
X011162Y011428D01*
X011165Y011413D01*
X011165Y010953D01*
X011162Y010937D01*
X011155Y010923D01*
X011144Y010912D01*
X011130Y010905D01*
X011115Y010903D01*
X010655Y010903D01*
X010639Y010905D01*
X010625Y010912D01*
X010614Y010923D01*
X010607Y010937D01*
X010605Y010953D01*
X010605Y011413D01*
X010607Y011428D01*
X010614Y011442D01*
X010625Y011453D01*
X010639Y011460D01*
X010655Y011463D01*
X010622Y011450D02*
X011147Y011450D01*
X011165Y011402D02*
X010605Y011402D01*
X010605Y011353D02*
X011165Y011353D01*
X011165Y011305D02*
X010605Y011305D01*
X010605Y011256D02*
X011165Y011256D01*
X011165Y011208D02*
X010605Y011208D01*
X010605Y011159D02*
X011165Y011159D01*
X011165Y011111D02*
X010605Y011111D01*
X010605Y011062D02*
X011165Y011062D01*
X011165Y011014D02*
X010605Y011014D01*
X010605Y010965D02*
X011165Y010965D01*
X011148Y010917D02*
X010621Y010917D01*
X010655Y010463D02*
X011115Y010463D01*
X011130Y010460D01*
X011144Y010453D01*
X011155Y010442D01*
X011162Y010428D01*
X011165Y010413D01*
X011165Y009953D01*
X011162Y009937D01*
X011155Y009923D01*
X011144Y009912D01*
X011130Y009905D01*
X011115Y009903D01*
X010655Y009903D01*
X010639Y009905D01*
X010625Y009912D01*
X010614Y009923D01*
X010607Y009937D01*
X010605Y009953D01*
X010605Y010413D01*
X010607Y010428D01*
X010614Y010442D01*
X010625Y010453D01*
X010639Y010460D01*
X010655Y010463D01*
X010609Y010432D02*
X011160Y010432D01*
X011165Y010383D02*
X010605Y010383D01*
X010605Y010335D02*
X011165Y010335D01*
X011165Y010286D02*
X010605Y010286D01*
X010605Y010238D02*
X011165Y010238D01*
X011165Y010189D02*
X010605Y010189D01*
X010605Y010141D02*
X011165Y010141D01*
X011165Y010092D02*
X010605Y010092D01*
X010605Y010044D02*
X011165Y010044D01*
X011165Y009995D02*
X010605Y009995D01*
X010605Y009947D02*
X011164Y009947D01*
X022607Y012937D02*
X022605Y012953D01*
X022605Y013413D01*
X022607Y013428D01*
X022614Y013442D01*
X022625Y013453D01*
X022639Y013460D01*
X022655Y013463D01*
X023115Y013463D01*
X023130Y013460D01*
X023144Y013453D01*
X023155Y013442D01*
X023162Y013428D01*
X023165Y013413D01*
X023165Y012953D01*
X023162Y012937D01*
X023155Y012923D01*
X023144Y012912D01*
X023130Y012905D01*
X023115Y012903D01*
X022655Y012903D01*
X022639Y012905D01*
X022625Y012912D01*
X022614Y012923D01*
X022607Y012937D01*
X022605Y012954D02*
X023165Y012954D01*
X023165Y013002D02*
X022605Y013002D01*
X022605Y013051D02*
X023165Y013051D01*
X023165Y013099D02*
X022605Y013099D01*
X022605Y013148D02*
X023165Y013148D01*
X023165Y013196D02*
X022605Y013196D01*
X022605Y013245D02*
X023165Y013245D01*
X023165Y013293D02*
X022605Y013293D01*
X022605Y013342D02*
X023165Y013342D01*
X023165Y013390D02*
X022605Y013390D01*
X022612Y013439D02*
X023157Y013439D01*
X023605Y013413D02*
X023607Y013428D01*
X023614Y013442D01*
X023625Y013453D01*
X023639Y013460D01*
X023655Y013463D01*
X024115Y013463D01*
X024130Y013460D01*
X024144Y013453D01*
X024155Y013442D01*
X024162Y013428D01*
X024165Y013413D01*
X024165Y012953D01*
X024162Y012937D01*
X024155Y012923D01*
X024144Y012912D01*
X024130Y012905D01*
X024115Y012903D01*
X023655Y012903D01*
X023639Y012905D01*
X023625Y012912D01*
X023614Y012923D01*
X023607Y012937D01*
X023605Y012953D01*
X023605Y013413D01*
X023605Y013390D02*
X024165Y013390D01*
X024165Y013342D02*
X023605Y013342D01*
X023605Y013293D02*
X024165Y013293D01*
X024165Y013245D02*
X023605Y013245D01*
X023605Y013196D02*
X024165Y013196D01*
X024165Y013148D02*
X023605Y013148D01*
X023605Y013099D02*
X024165Y013099D01*
X024165Y013051D02*
X023605Y013051D01*
X023605Y013002D02*
X024165Y013002D01*
X024165Y012954D02*
X023605Y012954D01*
X023639Y012905D02*
X024130Y012905D01*
X024157Y013439D02*
X023612Y013439D01*
X023655Y013903D02*
X023639Y013905D01*
X023625Y013912D01*
X023614Y013923D01*
X023607Y013937D01*
X023605Y013953D01*
X023605Y014413D01*
X023607Y014428D01*
X023614Y014442D01*
X023625Y014453D01*
X023639Y014460D01*
X023655Y014463D01*
X024115Y014463D01*
X024130Y014460D01*
X024144Y014453D01*
X024155Y014442D01*
X024162Y014428D01*
X024165Y014413D01*
X024165Y013953D01*
X024162Y013937D01*
X024155Y013923D01*
X024144Y013912D01*
X024130Y013905D01*
X024115Y013903D01*
X023655Y013903D01*
X023614Y013924D02*
X024155Y013924D01*
X024165Y013972D02*
X023605Y013972D01*
X023605Y014021D02*
X024165Y014021D01*
X024165Y014069D02*
X023605Y014069D01*
X023605Y014118D02*
X024165Y014118D01*
X024165Y014166D02*
X023605Y014166D01*
X023605Y014215D02*
X024165Y014215D01*
X024165Y014263D02*
X023605Y014263D01*
X023605Y014312D02*
X024165Y014312D01*
X024165Y014360D02*
X023605Y014360D01*
X023605Y014409D02*
X024165Y014409D01*
X024136Y014457D02*
X023633Y014457D01*
X023165Y014413D02*
X023165Y013953D01*
X023162Y013937D01*
X023155Y013923D01*
X023144Y013912D01*
X023130Y013905D01*
X023115Y013903D01*
X022655Y013903D01*
X022639Y013905D01*
X022625Y013912D01*
X022614Y013923D01*
X022607Y013937D01*
X022605Y013953D01*
X022605Y014413D01*
X022607Y014428D01*
X022614Y014442D01*
X022625Y014453D01*
X022639Y014460D01*
X022655Y014463D01*
X023115Y014463D01*
X023130Y014460D01*
X023144Y014453D01*
X023155Y014442D01*
X023162Y014428D01*
X023165Y014413D01*
X023165Y014409D02*
X022605Y014409D01*
X022605Y014360D02*
X023165Y014360D01*
X023165Y014312D02*
X022605Y014312D01*
X022605Y014263D02*
X023165Y014263D01*
X023165Y014215D02*
X022605Y014215D01*
X022605Y014166D02*
X023165Y014166D01*
X023165Y014118D02*
X022605Y014118D01*
X022605Y014069D02*
X023165Y014069D01*
X023165Y014021D02*
X022605Y014021D01*
X022605Y013972D02*
X023165Y013972D01*
X023155Y013924D02*
X022614Y013924D01*
X022633Y014457D02*
X023136Y014457D01*
X023115Y014903D02*
X022655Y014903D01*
X022639Y014905D01*
X022625Y014912D01*
X022614Y014923D01*
X022607Y014937D01*
X022605Y014953D01*
X022605Y015413D01*
X022607Y015428D01*
X022614Y015442D01*
X022625Y015453D01*
X022639Y015460D01*
X022655Y015463D01*
X023115Y015463D01*
X023130Y015460D01*
X023144Y015453D01*
X023155Y015442D01*
X023162Y015428D01*
X023165Y015413D01*
X023165Y014953D01*
X023162Y014937D01*
X023155Y014923D01*
X023144Y014912D01*
X023130Y014905D01*
X023115Y014903D01*
X023163Y014942D02*
X022606Y014942D01*
X022605Y014991D02*
X023165Y014991D01*
X023165Y015039D02*
X022605Y015039D01*
X022605Y015088D02*
X023165Y015088D01*
X023165Y015136D02*
X022605Y015136D01*
X022605Y015185D02*
X023165Y015185D01*
X023165Y015233D02*
X022605Y015233D01*
X022605Y015282D02*
X023165Y015282D01*
X023165Y015330D02*
X022605Y015330D01*
X022605Y015379D02*
X023165Y015379D01*
X023162Y015427D02*
X022607Y015427D01*
X022655Y015903D02*
X022639Y015905D01*
X022625Y015912D01*
X022614Y015923D01*
X022607Y015937D01*
X022605Y015953D01*
X022605Y016413D01*
X022607Y016428D01*
X022614Y016442D01*
X022625Y016453D01*
X022639Y016460D01*
X022655Y016463D01*
X023115Y016463D01*
X023130Y016460D01*
X023144Y016453D01*
X023155Y016442D01*
X023162Y016428D01*
X023165Y016413D01*
X023165Y015953D01*
X023162Y015937D01*
X023155Y015923D01*
X023144Y015912D01*
X022625Y015912D01*
X022655Y015903D02*
X023115Y015903D01*
X023130Y015905D01*
X023144Y015912D01*
X023165Y015961D02*
X022605Y015961D01*
X022605Y016009D02*
X023165Y016009D01*
X023165Y016058D02*
X022605Y016058D01*
X022605Y016106D02*
X023165Y016106D01*
X023165Y016155D02*
X022605Y016155D01*
X022605Y016203D02*
X023165Y016203D01*
X023165Y016252D02*
X022605Y016252D01*
X022605Y016300D02*
X023165Y016300D01*
X023165Y016349D02*
X022605Y016349D01*
X022605Y016397D02*
X023165Y016397D01*
X023151Y016446D02*
X022618Y016446D01*
X022655Y016903D02*
X022639Y016905D01*
X022625Y016912D01*
X022614Y016923D01*
X022607Y016937D01*
X022605Y016953D01*
X022605Y017413D01*
X022607Y017428D01*
X022614Y017442D01*
X022625Y017453D01*
X022639Y017460D01*
X022655Y017463D01*
X023115Y017463D01*
X023130Y017460D01*
X023144Y017453D01*
X023155Y017442D01*
X023162Y017428D01*
X023165Y017413D01*
X023165Y016953D01*
X023162Y016937D01*
X023155Y016923D01*
X023144Y016912D01*
X023130Y016905D01*
X023115Y016903D01*
X022655Y016903D01*
X022610Y016931D02*
X023159Y016931D01*
X023165Y016979D02*
X022605Y016979D01*
X022605Y017028D02*
X023165Y017028D01*
X023165Y017076D02*
X022605Y017076D01*
X022605Y017125D02*
X023165Y017125D01*
X023165Y017173D02*
X022605Y017173D01*
X022605Y017222D02*
X023165Y017222D01*
X023165Y017270D02*
X022605Y017270D01*
X022605Y017319D02*
X023165Y017319D01*
X023165Y017367D02*
X022605Y017367D01*
X022605Y017416D02*
X023164Y017416D01*
X023605Y017413D02*
X023607Y017428D01*
X023614Y017442D01*
X023625Y017453D01*
X023639Y017460D01*
X023655Y017463D01*
X024115Y017463D01*
X024130Y017460D01*
X024144Y017453D01*
X024155Y017442D01*
X024162Y017428D01*
X024165Y017413D01*
X024165Y016953D01*
X024162Y016937D01*
X024155Y016923D01*
X024144Y016912D01*
X024130Y016905D01*
X024115Y016903D01*
X023655Y016903D01*
X023639Y016905D01*
X023625Y016912D01*
X023614Y016923D01*
X023607Y016937D01*
X023605Y016953D01*
X023605Y017413D01*
X023605Y017416D02*
X024164Y017416D01*
X024165Y017367D02*
X023605Y017367D01*
X023605Y017319D02*
X024165Y017319D01*
X024165Y017270D02*
X023605Y017270D01*
X023605Y017222D02*
X024165Y017222D01*
X024165Y017173D02*
X023605Y017173D01*
X023605Y017125D02*
X024165Y017125D01*
X024165Y017076D02*
X023605Y017076D01*
X023605Y017028D02*
X024165Y017028D01*
X024165Y016979D02*
X023605Y016979D01*
X023610Y016931D02*
X024159Y016931D01*
X024115Y016463D02*
X023655Y016463D01*
X023639Y016460D01*
X023625Y016453D01*
X023614Y016442D01*
X023607Y016428D01*
X023605Y016413D01*
X023605Y015953D01*
X023607Y015937D01*
X023614Y015923D01*
X023625Y015912D01*
X023639Y015905D01*
X023655Y015903D01*
X024115Y015903D01*
X024130Y015905D01*
X024144Y015912D01*
X023625Y015912D01*
X023605Y015961D02*
X024165Y015961D01*
X024165Y015953D02*
X024162Y015937D01*
X024155Y015923D01*
X024144Y015912D01*
X024165Y015953D02*
X024165Y016413D01*
X024162Y016428D01*
X024155Y016442D01*
X024144Y016453D01*
X024130Y016460D01*
X024115Y016463D01*
X024151Y016446D02*
X023618Y016446D01*
X023605Y016397D02*
X024165Y016397D01*
X024165Y016349D02*
X023605Y016349D01*
X023605Y016300D02*
X024165Y016300D01*
X024165Y016252D02*
X023605Y016252D01*
X023605Y016203D02*
X024165Y016203D01*
X024165Y016155D02*
X023605Y016155D01*
X023605Y016106D02*
X024165Y016106D01*
X024165Y016058D02*
X023605Y016058D01*
X023605Y016009D02*
X024165Y016009D01*
X024115Y015463D02*
X023655Y015463D01*
X023639Y015460D01*
X023625Y015453D01*
X023614Y015442D01*
X023607Y015428D01*
X023605Y015413D01*
X023605Y014953D01*
X023607Y014937D01*
X023614Y014923D01*
X023625Y014912D01*
X023639Y014905D01*
X023655Y014903D01*
X024115Y014903D01*
X024130Y014905D01*
X024144Y014912D01*
X024155Y014923D01*
X024162Y014937D01*
X024165Y014953D01*
X024165Y015413D01*
X024162Y015428D01*
X024155Y015442D01*
X024144Y015453D01*
X024130Y015460D01*
X024115Y015463D01*
X024162Y015427D02*
X023607Y015427D01*
X023605Y015379D02*
X024165Y015379D01*
X024165Y015330D02*
X023605Y015330D01*
X023605Y015282D02*
X024165Y015282D01*
X024165Y015233D02*
X023605Y015233D01*
X023605Y015185D02*
X024165Y015185D01*
X024165Y015136D02*
X023605Y015136D01*
X023605Y015088D02*
X024165Y015088D01*
X024165Y015039D02*
X023605Y015039D01*
X023605Y014991D02*
X024165Y014991D01*
X024163Y014942D02*
X023606Y014942D01*
X026605Y014953D02*
X026607Y014937D01*
X026614Y014923D01*
X026625Y014912D01*
X026639Y014905D01*
X026655Y014903D01*
X027115Y014903D01*
X027130Y014905D01*
X027144Y014912D01*
X027155Y014923D01*
X027162Y014937D01*
X027165Y014953D01*
X027165Y015413D01*
X027162Y015428D01*
X027155Y015442D01*
X027144Y015453D01*
X027130Y015460D01*
X027115Y015463D01*
X026655Y015463D01*
X026639Y015460D01*
X026625Y015453D01*
X026614Y015442D01*
X026607Y015428D01*
X026605Y015413D01*
X026605Y014953D01*
X026606Y014942D02*
X027163Y014942D01*
X027165Y014991D02*
X026605Y014991D01*
X026605Y015039D02*
X027165Y015039D01*
X027165Y015088D02*
X026605Y015088D01*
X026605Y015136D02*
X027165Y015136D01*
X027165Y015185D02*
X026605Y015185D01*
X026605Y015233D02*
X027165Y015233D01*
X027165Y015282D02*
X026605Y015282D01*
X026605Y015330D02*
X027165Y015330D01*
X027165Y015379D02*
X026605Y015379D01*
X026607Y015427D02*
X027162Y015427D01*
X027115Y015903D02*
X026655Y015903D01*
X026639Y015905D01*
X026625Y015912D01*
X026614Y015923D01*
X026607Y015937D01*
X026605Y015953D01*
X026605Y016413D01*
X026607Y016428D01*
X026614Y016442D01*
X026625Y016453D01*
X026639Y016460D01*
X026655Y016463D01*
X027115Y016463D01*
X027130Y016460D01*
X027144Y016453D01*
X027155Y016442D01*
X027162Y016428D01*
X027165Y016413D01*
X027165Y015953D01*
X027162Y015937D01*
X027155Y015923D01*
X027144Y015912D01*
X026625Y015912D01*
X026605Y015961D02*
X027165Y015961D01*
X027165Y016009D02*
X026605Y016009D01*
X026605Y016058D02*
X027165Y016058D01*
X027165Y016106D02*
X026605Y016106D01*
X026605Y016155D02*
X027165Y016155D01*
X027165Y016203D02*
X026605Y016203D01*
X026605Y016252D02*
X027165Y016252D01*
X027165Y016300D02*
X026605Y016300D01*
X026605Y016349D02*
X027165Y016349D01*
X027165Y016397D02*
X026605Y016397D01*
X026618Y016446D02*
X027151Y016446D01*
X027115Y016903D02*
X026655Y016903D01*
X026639Y016905D01*
X026625Y016912D01*
X026614Y016923D01*
X026607Y016937D01*
X026605Y016953D01*
X026605Y017413D01*
X026607Y017428D01*
X026614Y017442D01*
X026625Y017453D01*
X026639Y017460D01*
X026655Y017463D01*
X027115Y017463D01*
X027130Y017460D01*
X027144Y017453D01*
X027155Y017442D01*
X027162Y017428D01*
X027165Y017413D01*
X027165Y016953D01*
X027162Y016937D01*
X027155Y016923D01*
X027144Y016912D01*
X027130Y016905D01*
X027115Y016903D01*
X027159Y016931D02*
X026610Y016931D01*
X026605Y016979D02*
X027165Y016979D01*
X027165Y017028D02*
X026605Y017028D01*
X026605Y017076D02*
X027165Y017076D01*
X027165Y017125D02*
X026605Y017125D01*
X026605Y017173D02*
X027165Y017173D01*
X027165Y017222D02*
X026605Y017222D01*
X026605Y017270D02*
X027165Y017270D01*
X027165Y017319D02*
X026605Y017319D01*
X026605Y017367D02*
X027165Y017367D01*
X027164Y017416D02*
X026605Y017416D01*
X026655Y017903D02*
X026639Y017905D01*
X026625Y017912D01*
X026614Y017923D01*
X026607Y017937D01*
X026605Y017953D01*
X026605Y018413D01*
X026607Y018428D01*
X026614Y018442D01*
X026625Y018453D01*
X026639Y018460D01*
X026655Y018463D01*
X027115Y018463D01*
X027130Y018460D01*
X027144Y018453D01*
X027155Y018442D01*
X027162Y018428D01*
X027165Y018413D01*
X027165Y017953D01*
X027162Y017937D01*
X027155Y017923D01*
X027144Y017912D01*
X027130Y017905D01*
X027115Y017903D01*
X026655Y017903D01*
X026605Y017949D02*
X027164Y017949D01*
X027165Y017998D02*
X026605Y017998D01*
X026605Y018046D02*
X027165Y018046D01*
X027165Y018095D02*
X026605Y018095D01*
X026605Y018143D02*
X027165Y018143D01*
X027165Y018192D02*
X026605Y018192D01*
X026605Y018240D02*
X027165Y018240D01*
X027165Y018289D02*
X026605Y018289D01*
X026605Y018337D02*
X027165Y018337D01*
X027165Y018386D02*
X026605Y018386D01*
X026610Y018434D02*
X027159Y018434D01*
X027115Y018903D02*
X026655Y018903D01*
X026639Y018905D01*
X026625Y018912D01*
X026614Y018923D01*
X026607Y018937D01*
X026605Y018953D01*
X026605Y019413D01*
X026607Y019428D01*
X026614Y019442D01*
X026625Y019453D01*
X026639Y019460D01*
X026655Y019463D01*
X027115Y019463D01*
X027130Y019460D01*
X027144Y019453D01*
X027155Y019442D01*
X027162Y019428D01*
X027165Y019413D01*
X027165Y018953D01*
X027162Y018937D01*
X027155Y018923D01*
X027144Y018912D01*
X027130Y018905D01*
X027115Y018903D01*
X027151Y018919D02*
X026618Y018919D01*
X026605Y018968D02*
X027165Y018968D01*
X027165Y019016D02*
X026605Y019016D01*
X026605Y019065D02*
X027165Y019065D01*
X027165Y019113D02*
X026605Y019113D01*
X026605Y019162D02*
X027165Y019162D01*
X027165Y019210D02*
X026605Y019210D01*
X026605Y019259D02*
X027165Y019259D01*
X027165Y019307D02*
X026605Y019307D01*
X026605Y019356D02*
X027165Y019356D01*
X027165Y019404D02*
X026605Y019404D01*
X026625Y019453D02*
X027144Y019453D01*
X024162Y018428D02*
X024165Y018413D01*
X024165Y017953D01*
X024162Y017937D01*
X024155Y017923D01*
X024144Y017912D01*
X024130Y017905D01*
X024115Y017903D01*
X023655Y017903D01*
X023639Y017905D01*
X023625Y017912D01*
X023614Y017923D01*
X023607Y017937D01*
X023605Y017953D01*
X023605Y018413D01*
X023607Y018428D01*
X023614Y018442D01*
X023625Y018453D01*
X023639Y018460D01*
X023655Y018463D01*
X024115Y018463D01*
X024130Y018460D01*
X024144Y018453D01*
X024155Y018442D01*
X024162Y018428D01*
X024159Y018434D02*
X023610Y018434D01*
X023605Y018386D02*
X024165Y018386D01*
X024165Y018337D02*
X023605Y018337D01*
X023605Y018289D02*
X024165Y018289D01*
X024165Y018240D02*
X023605Y018240D01*
X023605Y018192D02*
X024165Y018192D01*
X024165Y018143D02*
X023605Y018143D01*
X023605Y018095D02*
X024165Y018095D01*
X024165Y018046D02*
X023605Y018046D01*
X023605Y017998D02*
X024165Y017998D01*
X024164Y017949D02*
X023605Y017949D01*
X023165Y017953D02*
X023162Y017937D01*
X023155Y017923D01*
X023144Y017912D01*
X023130Y017905D01*
X023115Y017903D01*
X022655Y017903D01*
X022639Y017905D01*
X022625Y017912D01*
X022614Y017923D01*
X022607Y017937D01*
X022605Y017953D01*
X022605Y018413D01*
X022607Y018428D01*
X022614Y018442D01*
X022625Y018453D01*
X022639Y018460D01*
X022655Y018463D01*
X023115Y018463D01*
X023130Y018460D01*
X023144Y018453D01*
X023155Y018442D01*
X023162Y018428D01*
X023165Y018413D01*
X023165Y017953D01*
X023164Y017949D02*
X022605Y017949D01*
X022605Y017998D02*
X023165Y017998D01*
X023165Y018046D02*
X022605Y018046D01*
X022605Y018095D02*
X023165Y018095D01*
X023165Y018143D02*
X022605Y018143D01*
X022605Y018192D02*
X023165Y018192D01*
X023165Y018240D02*
X022605Y018240D01*
X022605Y018289D02*
X023165Y018289D01*
X023165Y018337D02*
X022605Y018337D01*
X022605Y018386D02*
X023165Y018386D01*
X023159Y018434D02*
X022610Y018434D01*
X027115Y015903D02*
X027130Y015905D01*
X027144Y015912D01*
X027115Y014463D02*
X026655Y014463D01*
X026639Y014460D01*
X026625Y014453D01*
X026614Y014442D01*
X026607Y014428D01*
X026605Y014413D01*
X026605Y013953D01*
X026607Y013937D01*
X026614Y013923D01*
X026625Y013912D01*
X026639Y013905D01*
X026655Y013903D01*
X027115Y013903D01*
X027130Y013905D01*
X027144Y013912D01*
X027155Y013923D01*
X027162Y013937D01*
X027165Y013953D01*
X027165Y014413D01*
X027162Y014428D01*
X027155Y014442D01*
X027144Y014453D01*
X027130Y014460D01*
X027115Y014463D01*
X027136Y014457D02*
X026633Y014457D01*
X026605Y014409D02*
X027165Y014409D01*
X027165Y014360D02*
X026605Y014360D01*
X026605Y014312D02*
X027165Y014312D01*
X027165Y014263D02*
X026605Y014263D01*
X026605Y014215D02*
X027165Y014215D01*
X027165Y014166D02*
X026605Y014166D01*
X026605Y014118D02*
X027165Y014118D01*
X027165Y014069D02*
X026605Y014069D01*
X026605Y014021D02*
X027165Y014021D01*
X027165Y013972D02*
X026605Y013972D01*
X026614Y013924D02*
X027155Y013924D01*
X027115Y013463D02*
X026655Y013463D01*
X026639Y013460D01*
X026625Y013453D01*
X026614Y013442D01*
X026607Y013428D01*
X026605Y013413D01*
X026605Y012953D01*
X026607Y012937D01*
X026614Y012923D01*
X026625Y012912D01*
X026639Y012905D01*
X026655Y012903D01*
X027115Y012903D01*
X027130Y012905D01*
X027144Y012912D01*
X027155Y012923D01*
X027162Y012937D01*
X027165Y012953D01*
X027165Y013413D01*
X027162Y013428D01*
X027155Y013442D01*
X027144Y013453D01*
X027130Y013460D01*
X027115Y013463D01*
X027157Y013439D02*
X026612Y013439D01*
X026605Y013390D02*
X027165Y013390D01*
X027165Y013342D02*
X026605Y013342D01*
X026605Y013293D02*
X027165Y013293D01*
X027165Y013245D02*
X026605Y013245D01*
X026605Y013196D02*
X027165Y013196D01*
X027165Y013148D02*
X026605Y013148D01*
X026605Y013099D02*
X027165Y013099D01*
X027165Y013051D02*
X026605Y013051D01*
X026605Y013002D02*
X027165Y013002D01*
X027165Y012954D02*
X026605Y012954D01*
X026639Y012905D02*
X027130Y012905D01*
X027115Y012463D02*
X026655Y012463D01*
X026639Y012460D01*
X026625Y012453D01*
X026614Y012442D01*
X026607Y012428D01*
X026605Y012413D01*
X026605Y011953D01*
X026607Y011937D01*
X026614Y011923D01*
X026625Y011912D01*
X026639Y011905D01*
X026655Y011903D01*
X027115Y011903D01*
X027130Y011905D01*
X027144Y011912D01*
X027155Y011923D01*
X027162Y011937D01*
X027165Y011953D01*
X027165Y012413D01*
X027162Y012428D01*
X027155Y012442D01*
X027144Y012453D01*
X027130Y012460D01*
X027115Y012463D01*
X027163Y012420D02*
X026606Y012420D01*
X026605Y012372D02*
X027165Y012372D01*
X027165Y012323D02*
X026605Y012323D01*
X026605Y012275D02*
X027165Y012275D01*
X027165Y012226D02*
X026605Y012226D01*
X026605Y012178D02*
X027165Y012178D01*
X027165Y012129D02*
X026605Y012129D01*
X026605Y012081D02*
X027165Y012081D01*
X027165Y012032D02*
X026605Y012032D01*
X026605Y011984D02*
X027165Y011984D01*
X027161Y011935D02*
X026608Y011935D01*
X026655Y011463D02*
X027115Y011463D01*
X027130Y011460D01*
X027144Y011453D01*
X027155Y011442D01*
X027162Y011428D01*
X027165Y011413D01*
X027165Y010953D01*
X027162Y010937D01*
X027155Y010923D01*
X027144Y010912D01*
X027130Y010905D01*
X027115Y010903D01*
X026655Y010903D01*
X026639Y010905D01*
X026625Y010912D01*
X026614Y010923D01*
X026607Y010937D01*
X026605Y010953D01*
X026605Y011413D01*
X026607Y011428D01*
X026614Y011442D01*
X026625Y011453D01*
X026639Y011460D01*
X026655Y011463D01*
X026622Y011450D02*
X027147Y011450D01*
X027165Y011402D02*
X026605Y011402D01*
X026605Y011353D02*
X027165Y011353D01*
X027165Y011305D02*
X026605Y011305D01*
X026605Y011256D02*
X027165Y011256D01*
X027165Y011208D02*
X026605Y011208D01*
X026605Y011159D02*
X027165Y011159D01*
X027165Y011111D02*
X026605Y011111D01*
X026605Y011062D02*
X027165Y011062D01*
X027165Y011014D02*
X026605Y011014D01*
X026605Y010965D02*
X027165Y010965D01*
X027148Y010917D02*
X026621Y010917D01*
X026655Y010463D02*
X027115Y010463D01*
X027130Y010460D01*
X027144Y010453D01*
X027155Y010442D01*
X027162Y010428D01*
X027165Y010413D01*
X027165Y009953D01*
X027162Y009937D01*
X027155Y009923D01*
X027144Y009912D01*
X027130Y009905D01*
X027115Y009903D01*
X026655Y009903D01*
X026639Y009905D01*
X026625Y009912D01*
X026614Y009923D01*
X026607Y009937D01*
X026605Y009953D01*
X026605Y010413D01*
X026607Y010428D01*
X026614Y010442D01*
X026625Y010453D01*
X026639Y010460D01*
X026655Y010463D01*
X026609Y010432D02*
X027160Y010432D01*
X027165Y010383D02*
X026605Y010383D01*
X026605Y010335D02*
X027165Y010335D01*
X027165Y010286D02*
X026605Y010286D01*
X026605Y010238D02*
X027165Y010238D01*
X027165Y010189D02*
X026605Y010189D01*
X026605Y010141D02*
X027165Y010141D01*
X027165Y010092D02*
X026605Y010092D01*
X026605Y010044D02*
X027165Y010044D01*
X027165Y009995D02*
X026605Y009995D01*
X026605Y009947D02*
X027164Y009947D01*
X031955Y009947D02*
X032515Y009947D01*
X032515Y009995D02*
X031955Y009995D01*
X031955Y010044D02*
X032515Y010044D01*
X032515Y010092D02*
X031955Y010092D01*
X031955Y010141D02*
X032515Y010141D01*
X032515Y010189D02*
X031955Y010189D01*
X031955Y010238D02*
X032515Y010238D01*
X032515Y010263D02*
X032512Y010278D01*
X032505Y010292D01*
X032494Y010303D01*
X032480Y010310D01*
X032465Y010313D01*
X032005Y010313D01*
X031989Y010310D01*
X031975Y010303D01*
X031964Y010292D01*
X031957Y010278D01*
X031955Y010263D01*
X031955Y009803D01*
X031957Y009787D01*
X031964Y009773D01*
X031975Y009762D01*
X031989Y009755D01*
X032005Y009753D01*
X032465Y009753D01*
X032004Y009753D01*
X031955Y009801D02*
X032514Y009801D01*
X032515Y009803D02*
X032512Y009787D01*
X032505Y009773D01*
X032494Y009762D01*
X032480Y009755D01*
X032465Y009753D01*
X032515Y009803D02*
X032515Y010263D01*
X032508Y010286D02*
X031961Y010286D01*
X031955Y009898D02*
X032515Y009898D01*
X032515Y009850D02*
X031955Y009850D01*
X032955Y009850D02*
X033515Y009850D01*
X033515Y009803D02*
X033512Y009787D01*
X033505Y009773D01*
X033494Y009762D01*
X033480Y009755D01*
X033465Y009753D01*
X033004Y009753D01*
X033005Y009753D02*
X032989Y009755D01*
X032975Y009762D01*
X032964Y009773D01*
X032957Y009787D01*
X032955Y009803D01*
X032955Y010263D01*
X032957Y010278D01*
X032964Y010292D01*
X032975Y010303D01*
X032989Y010310D01*
X033005Y010313D01*
X033465Y010313D01*
X033480Y010310D01*
X033494Y010303D01*
X033505Y010292D01*
X033512Y010278D01*
X033515Y010263D01*
X033515Y009803D01*
X033514Y009801D02*
X032955Y009801D01*
X033005Y009753D02*
X033465Y009753D01*
X033515Y009898D02*
X032955Y009898D01*
X032955Y009947D02*
X033515Y009947D01*
X033515Y009995D02*
X032955Y009995D01*
X032955Y010044D02*
X033515Y010044D01*
X033515Y010092D02*
X032955Y010092D01*
X032955Y010141D02*
X033515Y010141D01*
X033515Y010189D02*
X032955Y010189D01*
X032955Y010238D02*
X033515Y010238D01*
X033508Y010286D02*
X032961Y010286D01*
X033005Y010753D02*
X032989Y010755D01*
X032975Y010762D01*
X032964Y010773D01*
X032957Y010787D01*
X032955Y010803D01*
X032955Y011263D01*
X032957Y011278D01*
X032964Y011292D01*
X032975Y011303D01*
X032989Y011310D01*
X033005Y011313D01*
X033465Y011313D01*
X033480Y011310D01*
X033494Y011303D01*
X033505Y011292D01*
X033512Y011278D01*
X033515Y011263D01*
X033515Y010803D01*
X033512Y010787D01*
X033505Y010773D01*
X033494Y010762D01*
X033480Y010755D01*
X033465Y010753D01*
X033005Y010753D01*
X032966Y010771D02*
X033503Y010771D01*
X033515Y010820D02*
X032955Y010820D01*
X032955Y010868D02*
X033515Y010868D01*
X033515Y010917D02*
X032955Y010917D01*
X032955Y010965D02*
X033515Y010965D01*
X033515Y011014D02*
X032955Y011014D01*
X032955Y011062D02*
X033515Y011062D01*
X033515Y011111D02*
X032955Y011111D01*
X032955Y011159D02*
X033515Y011159D01*
X033515Y011208D02*
X032955Y011208D01*
X032955Y011256D02*
X033515Y011256D01*
X033491Y011305D02*
X032978Y011305D01*
X032515Y011263D02*
X032512Y011278D01*
X032505Y011292D01*
X032494Y011303D01*
X032480Y011310D01*
X032465Y011313D01*
X032005Y011313D01*
X031989Y011310D01*
X031975Y011303D01*
X031964Y011292D01*
X031957Y011278D01*
X031955Y011263D01*
X031955Y010803D01*
X031957Y010787D01*
X031964Y010773D01*
X031975Y010762D01*
X031989Y010755D01*
X032005Y010753D01*
X032465Y010753D01*
X032480Y010755D01*
X032494Y010762D01*
X032505Y010773D01*
X032512Y010787D01*
X032515Y010803D01*
X032515Y011263D01*
X032515Y011256D02*
X031955Y011256D01*
X031955Y011208D02*
X032515Y011208D01*
X032515Y011159D02*
X031955Y011159D01*
X031955Y011111D02*
X032515Y011111D01*
X032515Y011062D02*
X031955Y011062D01*
X031955Y011014D02*
X032515Y011014D01*
X032515Y010965D02*
X031955Y010965D01*
X031955Y010917D02*
X032515Y010917D01*
X032515Y010868D02*
X031955Y010868D01*
X031955Y010820D02*
X032515Y010820D01*
X032503Y010771D02*
X031966Y010771D01*
X031978Y011305D02*
X032491Y011305D01*
X033955Y011263D02*
X033955Y010803D01*
X033957Y010787D01*
X033964Y010773D01*
X033975Y010762D01*
X033989Y010755D01*
X034005Y010753D01*
X034465Y010753D01*
X034480Y010755D01*
X034494Y010762D01*
X034505Y010773D01*
X034512Y010787D01*
X034515Y010803D01*
X034515Y011263D01*
X034512Y011278D01*
X034505Y011292D01*
X034494Y011303D01*
X034480Y011310D01*
X034465Y011313D01*
X034005Y011313D01*
X033989Y011310D01*
X033975Y011303D01*
X033964Y011292D01*
X033957Y011278D01*
X033955Y011263D01*
X033955Y011256D02*
X034515Y011256D01*
X034515Y011208D02*
X033955Y011208D01*
X033955Y011159D02*
X034515Y011159D01*
X034515Y011111D02*
X033955Y011111D01*
X033955Y011062D02*
X034515Y011062D01*
X034515Y011014D02*
X033955Y011014D01*
X033955Y010965D02*
X034515Y010965D01*
X034515Y010917D02*
X033955Y010917D01*
X033955Y010868D02*
X034515Y010868D01*
X034515Y010820D02*
X033955Y010820D01*
X033966Y010771D02*
X034503Y010771D01*
X034465Y010313D02*
X034005Y010313D01*
X033989Y010310D01*
X033975Y010303D01*
X033964Y010292D01*
X033957Y010278D01*
X033955Y010263D01*
X033955Y009803D01*
X033957Y009787D01*
X033964Y009773D01*
X033975Y009762D01*
X033989Y009755D01*
X034005Y009753D01*
X034465Y009753D01*
X034004Y009753D01*
X033955Y009801D02*
X034514Y009801D01*
X034515Y009803D02*
X034512Y009787D01*
X034505Y009773D01*
X034494Y009762D01*
X034480Y009755D01*
X034465Y009753D01*
X034515Y009803D02*
X034515Y010263D01*
X034512Y010278D01*
X034505Y010292D01*
X034494Y010303D01*
X034480Y010310D01*
X034465Y010313D01*
X034508Y010286D02*
X033961Y010286D01*
X033955Y010238D02*
X034515Y010238D01*
X034515Y010189D02*
X033955Y010189D01*
X033955Y010141D02*
X034515Y010141D01*
X034515Y010092D02*
X033955Y010092D01*
X033955Y010044D02*
X034515Y010044D01*
X034515Y009995D02*
X033955Y009995D01*
X033955Y009947D02*
X034515Y009947D01*
X034515Y009898D02*
X033955Y009898D01*
X033955Y009850D02*
X034515Y009850D01*
X034491Y011305D02*
X033978Y011305D01*
X023130Y012905D02*
X022639Y012905D01*
D19*
X028985Y013283D03*
X028985Y014133D03*
X028985Y015233D03*
X028985Y015683D03*
X028985Y016133D03*
X028985Y016583D03*
X030735Y012083D03*
X031385Y012083D03*
X032635Y012083D03*
D20*
X028635Y015563D03*
X028635Y015803D03*
X028635Y016463D03*
X028635Y016703D03*
D21*
X032085Y019183D03*
X032585Y019183D03*
X033085Y019183D03*
X033585Y019183D03*
X034085Y019183D03*
X033585Y019683D03*
X033085Y019683D03*
X032585Y019683D03*
X032085Y019683D03*
D22*
X034085Y019683D03*
D23*
X030306Y012969D02*
X030054Y012969D01*
X030306Y012969D02*
X030306Y012697D01*
X030054Y012697D01*
X030054Y012969D01*
X030054Y012799D02*
X030306Y012799D01*
X030306Y012901D02*
X030054Y012901D01*
X029715Y012969D02*
X029463Y012969D01*
X029715Y012969D02*
X029715Y012697D01*
X029463Y012697D01*
X029463Y012969D01*
X029463Y012799D02*
X029715Y012799D01*
X029715Y012901D02*
X029463Y012901D01*
D24*
X029135Y012563D03*
X030085Y013683D03*
X030485Y014683D03*
X031735Y014683D03*
X031985Y013183D03*
X032085Y012183D03*
X031785Y012183D03*
X033435Y013183D03*
X034155Y013183D03*
X034535Y013183D03*
X033881Y011733D03*
X030785Y010033D03*
X030285Y010033D03*
X029235Y010433D03*
X028585Y010433D03*
X027385Y009303D03*
X025885Y009333D03*
X025485Y010033D03*
X025735Y010683D03*
X023985Y010033D03*
X022885Y010983D03*
X021935Y011133D03*
X021535Y010433D03*
X022285Y009983D03*
X019735Y010333D03*
X018635Y010183D03*
X018635Y010933D03*
X016235Y011683D03*
X014985Y012333D03*
X014435Y012333D03*
X013885Y012333D03*
X013885Y011783D03*
X012685Y011783D03*
X012685Y012783D03*
X011835Y013283D03*
X012985Y013633D03*
X013585Y013633D03*
X014435Y013383D03*
X013585Y014283D03*
X014835Y014783D03*
X015435Y015283D03*
X015435Y015583D03*
X015785Y016033D03*
X016635Y016933D03*
X018285Y017183D03*
X018885Y017433D03*
X018885Y018183D03*
X018885Y019183D03*
X016885Y019733D03*
X021885Y017933D03*
X021885Y016933D03*
X021935Y015933D03*
X021635Y015783D03*
X021885Y014933D03*
X021885Y013983D03*
X021885Y012933D03*
X019735Y013183D03*
X018085Y013083D03*
X016185Y014083D03*
X013635Y015283D03*
X012535Y015833D03*
X011835Y016283D03*
X011835Y014983D03*
X011835Y017783D03*
X009435Y018683D03*
X009435Y020033D03*
X019485Y016183D03*
X018885Y014683D03*
X025885Y015183D03*
X025885Y016183D03*
X025885Y017183D03*
X025885Y018183D03*
X025885Y019183D03*
X028635Y018033D03*
X030185Y017683D03*
X031035Y017633D03*
X031585Y017183D03*
X031935Y017533D03*
X033435Y017183D03*
X033735Y017183D03*
X034533Y017206D03*
X034535Y016183D03*
X033745Y016183D03*
X031385Y016183D03*
X030985Y016183D03*
X030585Y016183D03*
X030235Y016183D03*
X031185Y018583D03*
X032485Y018433D03*
X032785Y018433D03*
X033435Y018433D03*
X029485Y019633D03*
X025885Y014183D03*
X025885Y013183D03*
X025885Y012183D03*
X031385Y009363D03*
X033835Y009363D03*
X016535Y009333D03*
X016135Y009333D03*
X013285Y009533D03*
X011735Y009483D03*
D25*
X012685Y011783D02*
X013885Y011783D01*
X013885Y012333D02*
X012885Y012333D01*
X012685Y012533D01*
X012685Y012783D01*
X031035Y017633D02*
X032135Y018733D01*
X033635Y018733D01*
X034085Y019183D01*
D26*
X028985Y016583D02*
X028865Y016703D01*
X028635Y016703D01*
X028635Y015803D02*
X028865Y015803D01*
X028985Y015683D01*
M02*
