G75*
G70*
%OFA0B0*%
%FSLAX24Y24*%
%IPPOS*%
%LPD*%
%AMOC8*
5,1,8,0,0,1.08239X$1,22.5*
%
%ADD10R,0.0200X1.1811*%
%ADD11R,2.8504X0.0211*%
%ADD12R,2.8504X0.0200*%
%ADD13R,0.0197X1.1811*%
%ADD14R,0.0671X0.0671*%
%ADD15OC8,0.0671*%
%ADD16C,0.0091*%
%ADD17C,0.0520*%
%ADD18R,0.0520X0.0520*%
%ADD19C,0.0520*%
%ADD20C,0.0050*%
%ADD21C,0.0400*%
%ADD22C,0.0200*%
%ADD23C,0.0490*%
%ADD24R,0.0490X0.0490*%
%ADD25C,0.0126*%
D10*
X008985Y014688D03*
D11*
X023136Y020488D03*
D12*
X023136Y008883D03*
D13*
X037290Y014688D03*
D14*
X027885Y010183D03*
X013685Y018083D03*
X009885Y019183D03*
D15*
X009885Y018183D03*
X009885Y017183D03*
X009885Y016183D03*
X009885Y015183D03*
X009885Y014183D03*
X009885Y013183D03*
X009885Y012183D03*
X009885Y011183D03*
X009885Y010183D03*
X012685Y018083D03*
X027885Y018183D03*
X027885Y017183D03*
X027885Y016183D03*
X027885Y015183D03*
X027885Y014183D03*
X027885Y013183D03*
X027885Y012183D03*
X027885Y011183D03*
X027885Y019183D03*
D16*
X029388Y017375D02*
X029388Y016991D01*
X029388Y017375D02*
X029752Y017375D01*
X029752Y016991D01*
X029388Y016991D01*
X029388Y017081D02*
X029752Y017081D01*
X029752Y017171D02*
X029388Y017171D01*
X029388Y017261D02*
X029752Y017261D01*
X029752Y017351D02*
X029388Y017351D01*
X030017Y017375D02*
X030017Y016991D01*
X030017Y017375D02*
X030381Y017375D01*
X030381Y016991D01*
X030017Y016991D01*
X030017Y017081D02*
X030381Y017081D01*
X030381Y017171D02*
X030017Y017171D01*
X030017Y017261D02*
X030381Y017261D01*
X030381Y017351D02*
X030017Y017351D01*
X030637Y015275D02*
X030637Y014891D01*
X030273Y014891D01*
X030273Y015275D01*
X030637Y015275D01*
X030637Y014981D02*
X030273Y014981D01*
X030273Y015071D02*
X030637Y015071D01*
X030637Y015161D02*
X030273Y015161D01*
X030273Y015251D02*
X030637Y015251D01*
X031267Y015275D02*
X031267Y014891D01*
X030903Y014891D01*
X030903Y015275D01*
X031267Y015275D01*
X031267Y014981D02*
X030903Y014981D01*
X030903Y015071D02*
X031267Y015071D01*
X031267Y015161D02*
X030903Y015161D01*
X030903Y015251D02*
X031267Y015251D01*
X031896Y015275D02*
X031896Y014891D01*
X031532Y014891D01*
X031532Y015275D01*
X031896Y015275D01*
X031896Y014981D02*
X031532Y014981D01*
X031532Y015071D02*
X031896Y015071D01*
X031896Y015161D02*
X031532Y015161D01*
X031532Y015251D02*
X031896Y015251D01*
X031532Y014475D02*
X031532Y014091D01*
X031532Y014475D02*
X031896Y014475D01*
X031896Y014091D01*
X031532Y014091D01*
X031532Y014181D02*
X031896Y014181D01*
X031896Y014271D02*
X031532Y014271D01*
X031532Y014361D02*
X031896Y014361D01*
X031896Y014451D02*
X031532Y014451D01*
X030903Y014475D02*
X030903Y014091D01*
X030903Y014475D02*
X031267Y014475D01*
X031267Y014091D01*
X030903Y014091D01*
X030903Y014181D02*
X031267Y014181D01*
X031267Y014271D02*
X030903Y014271D01*
X030903Y014361D02*
X031267Y014361D01*
X031267Y014451D02*
X030903Y014451D01*
X030273Y014475D02*
X030273Y014091D01*
X030273Y014475D02*
X030637Y014475D01*
X030637Y014091D01*
X030273Y014091D01*
X030273Y014181D02*
X030637Y014181D01*
X030637Y014271D02*
X030273Y014271D01*
X030273Y014361D02*
X030637Y014361D01*
X030637Y014451D02*
X030273Y014451D01*
X025281Y011875D02*
X025281Y011491D01*
X024917Y011491D01*
X024917Y011875D01*
X025281Y011875D01*
X025281Y011581D02*
X024917Y011581D01*
X024917Y011671D02*
X025281Y011671D01*
X025281Y011761D02*
X024917Y011761D01*
X024917Y011851D02*
X025281Y011851D01*
X024652Y011875D02*
X024652Y011491D01*
X024288Y011491D01*
X024288Y011875D01*
X024652Y011875D01*
X024652Y011581D02*
X024288Y011581D01*
X024288Y011671D02*
X024652Y011671D01*
X024652Y011761D02*
X024288Y011761D01*
X024288Y011851D02*
X024652Y011851D01*
X024652Y010875D02*
X024652Y010491D01*
X024288Y010491D01*
X024288Y010875D01*
X024652Y010875D01*
X024652Y010581D02*
X024288Y010581D01*
X024288Y010671D02*
X024652Y010671D01*
X024652Y010761D02*
X024288Y010761D01*
X024288Y010851D02*
X024652Y010851D01*
X025281Y010875D02*
X025281Y010491D01*
X024917Y010491D01*
X024917Y010875D01*
X025281Y010875D01*
X025281Y010581D02*
X024917Y010581D01*
X024917Y010671D02*
X025281Y010671D01*
X025281Y010761D02*
X024917Y010761D01*
X024917Y010851D02*
X025281Y010851D01*
X025281Y009875D02*
X025281Y009491D01*
X024917Y009491D01*
X024917Y009875D01*
X025281Y009875D01*
X025281Y009581D02*
X024917Y009581D01*
X024917Y009671D02*
X025281Y009671D01*
X025281Y009761D02*
X024917Y009761D01*
X024917Y009851D02*
X025281Y009851D01*
X024652Y009875D02*
X024652Y009491D01*
X024288Y009491D01*
X024288Y009875D01*
X024652Y009875D01*
X024652Y009581D02*
X024288Y009581D01*
X024288Y009671D02*
X024652Y009671D01*
X024652Y009761D02*
X024288Y009761D01*
X024288Y009851D02*
X024652Y009851D01*
X018677Y011971D02*
X018293Y011971D01*
X018293Y012335D01*
X018677Y012335D01*
X018677Y011971D01*
X018677Y012061D02*
X018293Y012061D01*
X018293Y012151D02*
X018677Y012151D01*
X018677Y012241D02*
X018293Y012241D01*
X018293Y012331D02*
X018677Y012331D01*
X018677Y012601D02*
X018293Y012601D01*
X018293Y012965D01*
X018677Y012965D01*
X018677Y012601D01*
X018677Y012691D02*
X018293Y012691D01*
X018293Y012781D02*
X018677Y012781D01*
X018677Y012871D02*
X018293Y012871D01*
X018293Y012961D02*
X018677Y012961D01*
X018677Y013231D02*
X018293Y013231D01*
X018293Y013595D01*
X018677Y013595D01*
X018677Y013231D01*
X018677Y013321D02*
X018293Y013321D01*
X018293Y013411D02*
X018677Y013411D01*
X018677Y013501D02*
X018293Y013501D01*
X018293Y013591D02*
X018677Y013591D01*
D17*
X017605Y013183D02*
X017165Y013183D01*
X017165Y012183D02*
X017605Y012183D01*
X017605Y011183D02*
X017165Y011183D01*
X017165Y010183D02*
X017605Y010183D01*
X020165Y010183D02*
X020605Y010183D01*
X020605Y011183D02*
X020165Y011183D01*
X020165Y012183D02*
X020605Y012183D01*
X020605Y013183D02*
X020165Y013183D01*
X020165Y014183D02*
X020605Y014183D01*
X020605Y015183D02*
X020165Y015183D01*
X020165Y016183D02*
X020605Y016183D01*
X020605Y017183D02*
X020165Y017183D01*
X020165Y018183D02*
X020605Y018183D01*
X020605Y019183D02*
X020165Y019183D01*
X017605Y019183D02*
X017165Y019183D01*
X017165Y018183D02*
X017605Y018183D01*
X017605Y017183D02*
X017165Y017183D01*
X017165Y016183D02*
X017605Y016183D01*
X017605Y015183D02*
X017165Y015183D01*
X017165Y014183D02*
X017605Y014183D01*
D18*
X015485Y018083D03*
X014685Y019183D03*
D19*
X015472Y019183D03*
X016259Y019183D03*
X016272Y018083D03*
D20*
X010587Y009917D02*
X010594Y009903D01*
X010605Y009892D01*
X010619Y009885D01*
X010635Y009883D01*
X011135Y009883D01*
X011150Y009885D01*
X011164Y009892D01*
X011175Y009903D01*
X011182Y009917D01*
X011185Y009933D01*
X011185Y010433D01*
X011182Y010448D01*
X011175Y010462D01*
X011164Y010473D01*
X011150Y010480D01*
X010619Y010480D01*
X010635Y010483D01*
X011135Y010483D01*
X011150Y010480D01*
X011185Y010432D02*
X010585Y010432D01*
X010585Y010433D02*
X010587Y010448D01*
X010594Y010462D01*
X010605Y010473D01*
X010619Y010480D01*
X010585Y010433D02*
X010585Y009933D01*
X010587Y009917D01*
X010599Y009898D02*
X011170Y009898D01*
X011185Y009947D02*
X010585Y009947D01*
X010585Y009995D02*
X011185Y009995D01*
X011185Y010044D02*
X010585Y010044D01*
X010585Y010092D02*
X011185Y010092D01*
X011185Y010141D02*
X010585Y010141D01*
X010585Y010189D02*
X011185Y010189D01*
X011185Y010238D02*
X010585Y010238D01*
X010585Y010286D02*
X011185Y010286D01*
X011185Y010335D02*
X010585Y010335D01*
X010585Y010383D02*
X011185Y010383D01*
X011135Y010883D02*
X010635Y010883D01*
X010619Y010885D01*
X010605Y010892D01*
X010594Y010903D01*
X010587Y010917D01*
X010585Y010933D01*
X010585Y011433D01*
X010587Y011448D01*
X010594Y011462D01*
X010605Y011473D01*
X010619Y011480D01*
X010635Y011483D01*
X011135Y011483D01*
X011150Y011480D01*
X011164Y011473D01*
X011175Y011462D01*
X011182Y011448D01*
X011185Y011433D01*
X011185Y010933D01*
X011182Y010917D01*
X011175Y010903D01*
X011164Y010892D01*
X011150Y010885D01*
X011135Y010883D01*
X011182Y010917D02*
X010587Y010917D01*
X010585Y010965D02*
X011185Y010965D01*
X011185Y011014D02*
X010585Y011014D01*
X010585Y011062D02*
X011185Y011062D01*
X011185Y011111D02*
X010585Y011111D01*
X010585Y011159D02*
X011185Y011159D01*
X011185Y011208D02*
X010585Y011208D01*
X010585Y011256D02*
X011185Y011256D01*
X011185Y011305D02*
X010585Y011305D01*
X010585Y011353D02*
X011185Y011353D01*
X011185Y011402D02*
X010585Y011402D01*
X010588Y011450D02*
X011181Y011450D01*
X011135Y011883D02*
X010635Y011883D01*
X010619Y011885D01*
X010605Y011892D01*
X010594Y011903D01*
X010587Y011917D01*
X010585Y011933D01*
X010585Y012433D01*
X010587Y012448D01*
X010594Y012462D01*
X010605Y012473D01*
X010619Y012480D01*
X010635Y012483D01*
X011135Y012483D01*
X011150Y012480D01*
X011164Y012473D01*
X011175Y012462D01*
X011182Y012448D01*
X011185Y012433D01*
X011185Y011933D01*
X011182Y011917D01*
X011175Y011903D01*
X011164Y011892D01*
X011150Y011885D01*
X011135Y011883D01*
X011153Y011887D02*
X010616Y011887D01*
X010585Y011935D02*
X011185Y011935D01*
X011185Y011984D02*
X010585Y011984D01*
X010585Y012032D02*
X011185Y012032D01*
X011185Y012081D02*
X010585Y012081D01*
X010585Y012129D02*
X011185Y012129D01*
X011185Y012178D02*
X010585Y012178D01*
X010585Y012226D02*
X011185Y012226D01*
X011185Y012275D02*
X010585Y012275D01*
X010585Y012323D02*
X011185Y012323D01*
X011185Y012372D02*
X010585Y012372D01*
X010585Y012420D02*
X011185Y012420D01*
X011168Y012469D02*
X010601Y012469D01*
X010635Y012883D02*
X010619Y012885D01*
X010605Y012892D01*
X010594Y012903D01*
X010587Y012917D01*
X010585Y012933D01*
X010585Y013433D01*
X010587Y013448D01*
X010594Y013462D01*
X010605Y013473D01*
X010619Y013480D01*
X010635Y013483D01*
X011135Y013483D01*
X011150Y013480D01*
X011164Y013473D01*
X011175Y013462D01*
X011182Y013448D01*
X011185Y013433D01*
X011185Y012933D01*
X011182Y012917D01*
X011175Y012903D01*
X011164Y012892D01*
X011150Y012885D01*
X011135Y012883D01*
X010635Y012883D01*
X010593Y012905D02*
X011176Y012905D01*
X011185Y012954D02*
X010585Y012954D01*
X010585Y013002D02*
X011185Y013002D01*
X011185Y013051D02*
X010585Y013051D01*
X010585Y013099D02*
X011185Y013099D01*
X011185Y013148D02*
X010585Y013148D01*
X010585Y013196D02*
X011185Y013196D01*
X011185Y013245D02*
X010585Y013245D01*
X010585Y013293D02*
X011185Y013293D01*
X011185Y013342D02*
X010585Y013342D01*
X010585Y013390D02*
X011185Y013390D01*
X011184Y013439D02*
X010585Y013439D01*
X010635Y013883D02*
X010619Y013885D01*
X010605Y013892D01*
X010594Y013903D01*
X010587Y013917D01*
X010585Y013933D01*
X010585Y014433D01*
X010587Y014448D01*
X010594Y014462D01*
X010605Y014473D01*
X010619Y014480D01*
X010635Y014483D01*
X011135Y014483D01*
X011150Y014480D01*
X011164Y014473D01*
X011175Y014462D01*
X011182Y014448D01*
X011185Y014433D01*
X011185Y013933D01*
X011182Y013917D01*
X011175Y013903D01*
X011164Y013892D01*
X011150Y013885D01*
X011135Y013883D01*
X010635Y013883D01*
X010586Y013924D02*
X011183Y013924D01*
X011185Y013972D02*
X010585Y013972D01*
X010585Y014021D02*
X011185Y014021D01*
X011185Y014069D02*
X010585Y014069D01*
X010585Y014118D02*
X011185Y014118D01*
X011185Y014166D02*
X010585Y014166D01*
X010585Y014215D02*
X011185Y014215D01*
X011185Y014263D02*
X010585Y014263D01*
X010585Y014312D02*
X011185Y014312D01*
X011185Y014360D02*
X010585Y014360D01*
X010585Y014409D02*
X011185Y014409D01*
X011177Y014457D02*
X010592Y014457D01*
X010635Y014883D02*
X010619Y014885D01*
X010605Y014892D01*
X010594Y014903D01*
X010587Y014917D01*
X010585Y014933D01*
X010585Y015433D01*
X010587Y015448D01*
X010594Y015462D01*
X010605Y015473D01*
X010619Y015480D01*
X010635Y015483D01*
X011135Y015483D01*
X011150Y015480D01*
X011164Y015473D01*
X011175Y015462D01*
X011182Y015448D01*
X011185Y015433D01*
X011185Y014933D01*
X011182Y014917D01*
X011175Y014903D01*
X011164Y014892D01*
X011150Y014885D01*
X011135Y014883D01*
X010635Y014883D01*
X010604Y014894D02*
X011165Y014894D01*
X011185Y014942D02*
X010585Y014942D01*
X010585Y014991D02*
X011185Y014991D01*
X011185Y015039D02*
X010585Y015039D01*
X010585Y015088D02*
X011185Y015088D01*
X011185Y015136D02*
X010585Y015136D01*
X010585Y015185D02*
X011185Y015185D01*
X011185Y015233D02*
X010585Y015233D01*
X010585Y015282D02*
X011185Y015282D01*
X011185Y015330D02*
X010585Y015330D01*
X010585Y015379D02*
X011185Y015379D01*
X011185Y015427D02*
X010585Y015427D01*
X010610Y015476D02*
X011159Y015476D01*
X011135Y015883D02*
X010635Y015883D01*
X010619Y015885D01*
X010605Y015892D01*
X010594Y015903D01*
X010587Y015917D01*
X010585Y015933D01*
X010585Y016433D01*
X010587Y016448D01*
X010594Y016462D01*
X010605Y016473D01*
X010619Y016480D01*
X010635Y016483D01*
X011135Y016483D01*
X011150Y016480D01*
X011164Y016473D01*
X011175Y016462D01*
X011182Y016448D01*
X011185Y016433D01*
X011185Y015933D01*
X011182Y015917D01*
X011175Y015903D01*
X011164Y015892D01*
X011150Y015885D01*
X011135Y015883D01*
X011180Y015912D02*
X010590Y015912D01*
X010585Y015961D02*
X011185Y015961D01*
X011185Y016009D02*
X010585Y016009D01*
X010585Y016058D02*
X011185Y016058D01*
X011185Y016106D02*
X010585Y016106D01*
X010585Y016155D02*
X011185Y016155D01*
X011185Y016203D02*
X010585Y016203D01*
X010585Y016252D02*
X011185Y016252D01*
X011185Y016300D02*
X010585Y016300D01*
X010585Y016349D02*
X011185Y016349D01*
X011185Y016397D02*
X010585Y016397D01*
X010587Y016446D02*
X011182Y016446D01*
X011135Y016883D02*
X010635Y016883D01*
X010619Y016885D01*
X010605Y016892D01*
X010594Y016903D01*
X010587Y016917D01*
X010585Y016933D01*
X010585Y017433D01*
X010587Y017448D01*
X010594Y017462D01*
X010605Y017473D01*
X010619Y017480D01*
X010635Y017483D01*
X011135Y017483D01*
X011150Y017480D01*
X011164Y017473D01*
X011175Y017462D01*
X011182Y017448D01*
X011185Y017433D01*
X011185Y016933D01*
X011182Y016917D01*
X011175Y016903D01*
X011164Y016892D01*
X011150Y016885D01*
X011135Y016883D01*
X011184Y016931D02*
X010585Y016931D01*
X010585Y016979D02*
X011185Y016979D01*
X011185Y017028D02*
X010585Y017028D01*
X010585Y017076D02*
X011185Y017076D01*
X011185Y017125D02*
X010585Y017125D01*
X010585Y017173D02*
X011185Y017173D01*
X011185Y017222D02*
X010585Y017222D01*
X010585Y017270D02*
X011185Y017270D01*
X011185Y017319D02*
X010585Y017319D01*
X010585Y017367D02*
X011185Y017367D01*
X011185Y017416D02*
X010585Y017416D01*
X010596Y017464D02*
X011173Y017464D01*
X011135Y017883D02*
X010635Y017883D01*
X010619Y017885D01*
X010605Y017892D01*
X010594Y017903D01*
X010587Y017917D01*
X010585Y017933D01*
X010585Y018433D01*
X010587Y018448D01*
X010594Y018462D01*
X010605Y018473D01*
X010619Y018480D01*
X010635Y018483D01*
X011135Y018483D01*
X011150Y018480D01*
X011164Y018473D01*
X011175Y018462D01*
X011182Y018448D01*
X011185Y018433D01*
X011185Y017933D01*
X011182Y017917D01*
X011175Y017903D01*
X011164Y017892D01*
X011150Y017885D01*
X011135Y017883D01*
X011172Y017901D02*
X010597Y017901D01*
X010585Y017949D02*
X011185Y017949D01*
X011185Y017998D02*
X010585Y017998D01*
X010585Y018046D02*
X011185Y018046D01*
X011185Y018095D02*
X010585Y018095D01*
X010585Y018143D02*
X011185Y018143D01*
X011185Y018192D02*
X010585Y018192D01*
X010585Y018240D02*
X011185Y018240D01*
X011185Y018289D02*
X010585Y018289D01*
X010585Y018337D02*
X011185Y018337D01*
X011185Y018386D02*
X010585Y018386D01*
X010585Y018434D02*
X011184Y018434D01*
X011135Y018883D02*
X010635Y018883D01*
X010619Y018885D01*
X010605Y018892D01*
X010594Y018903D01*
X010587Y018917D01*
X010585Y018933D01*
X010585Y019433D01*
X010587Y019448D01*
X010594Y019462D01*
X010605Y019473D01*
X010619Y019480D01*
X010635Y019483D01*
X011135Y019483D01*
X011150Y019480D01*
X011164Y019473D01*
X011175Y019462D01*
X011182Y019448D01*
X011185Y019433D01*
X011185Y018933D01*
X011182Y018917D01*
X011175Y018903D01*
X011164Y018892D01*
X011150Y018885D01*
X011135Y018883D01*
X011182Y018919D02*
X010587Y018919D01*
X010585Y018968D02*
X011185Y018968D01*
X011185Y019016D02*
X010585Y019016D01*
X010585Y019065D02*
X011185Y019065D01*
X011185Y019113D02*
X010585Y019113D01*
X010585Y019162D02*
X011185Y019162D01*
X011185Y019210D02*
X010585Y019210D01*
X010585Y019259D02*
X011185Y019259D01*
X011185Y019307D02*
X010585Y019307D01*
X010585Y019356D02*
X011185Y019356D01*
X011185Y019404D02*
X010585Y019404D01*
X010589Y019453D02*
X011180Y019453D01*
X022585Y018433D02*
X022585Y017933D01*
X022587Y017917D01*
X022594Y017903D01*
X022605Y017892D01*
X022619Y017885D01*
X022635Y017883D01*
X023135Y017883D01*
X023150Y017885D01*
X023164Y017892D01*
X023175Y017903D01*
X023182Y017917D01*
X023185Y017933D01*
X023185Y018433D01*
X023182Y018448D01*
X023175Y018462D01*
X023164Y018473D01*
X023150Y018480D01*
X023135Y018483D01*
X022635Y018483D01*
X022619Y018480D01*
X022605Y018473D01*
X022594Y018462D01*
X022587Y018448D01*
X022585Y018433D01*
X022585Y018434D02*
X023184Y018434D01*
X023185Y018386D02*
X022585Y018386D01*
X022585Y018337D02*
X023185Y018337D01*
X023185Y018289D02*
X022585Y018289D01*
X022585Y018240D02*
X023185Y018240D01*
X023185Y018192D02*
X022585Y018192D01*
X022585Y018143D02*
X023185Y018143D01*
X023185Y018095D02*
X022585Y018095D01*
X022585Y018046D02*
X023185Y018046D01*
X023185Y017998D02*
X022585Y017998D01*
X022585Y017949D02*
X023185Y017949D01*
X023172Y017901D02*
X022597Y017901D01*
X022635Y017483D02*
X022619Y017480D01*
X022605Y017473D01*
X022594Y017462D01*
X022587Y017448D01*
X022585Y017433D01*
X022585Y016933D01*
X022587Y016917D01*
X022594Y016903D01*
X022605Y016892D01*
X022619Y016885D01*
X022635Y016883D01*
X023135Y016883D01*
X023150Y016885D01*
X023164Y016892D01*
X023175Y016903D01*
X023182Y016917D01*
X023185Y016933D01*
X023185Y017433D01*
X023182Y017448D01*
X023175Y017462D01*
X023164Y017473D01*
X023150Y017480D01*
X023135Y017483D01*
X022635Y017483D01*
X022596Y017464D02*
X023173Y017464D01*
X023185Y017416D02*
X022585Y017416D01*
X022585Y017367D02*
X023185Y017367D01*
X023185Y017319D02*
X022585Y017319D01*
X022585Y017270D02*
X023185Y017270D01*
X023185Y017222D02*
X022585Y017222D01*
X022585Y017173D02*
X023185Y017173D01*
X023185Y017125D02*
X022585Y017125D01*
X022585Y017076D02*
X023185Y017076D01*
X023185Y017028D02*
X022585Y017028D01*
X022585Y016979D02*
X023185Y016979D01*
X023184Y016931D02*
X022585Y016931D01*
X022635Y016483D02*
X022619Y016480D01*
X022605Y016473D01*
X022594Y016462D01*
X022587Y016448D01*
X022585Y016433D01*
X022585Y015933D01*
X022587Y015917D01*
X022594Y015903D01*
X022605Y015892D01*
X022619Y015885D01*
X022635Y015883D01*
X023135Y015883D01*
X023150Y015885D01*
X023164Y015892D01*
X023175Y015903D01*
X023182Y015917D01*
X023185Y015933D01*
X023185Y016433D01*
X023182Y016448D01*
X023175Y016462D01*
X023164Y016473D01*
X023150Y016480D01*
X023135Y016483D01*
X022635Y016483D01*
X022587Y016446D02*
X023182Y016446D01*
X023185Y016397D02*
X022585Y016397D01*
X022585Y016349D02*
X023185Y016349D01*
X023185Y016300D02*
X022585Y016300D01*
X022585Y016252D02*
X023185Y016252D01*
X023185Y016203D02*
X022585Y016203D01*
X022585Y016155D02*
X023185Y016155D01*
X023185Y016106D02*
X022585Y016106D01*
X022585Y016058D02*
X023185Y016058D01*
X023185Y016009D02*
X022585Y016009D01*
X022585Y015961D02*
X023185Y015961D01*
X023180Y015912D02*
X022590Y015912D01*
X022635Y015483D02*
X022619Y015480D01*
X022605Y015473D01*
X022594Y015462D01*
X022587Y015448D01*
X022585Y015433D01*
X022585Y014933D01*
X022587Y014917D01*
X022594Y014903D01*
X022605Y014892D01*
X022619Y014885D01*
X022635Y014883D01*
X023135Y014883D01*
X023150Y014885D01*
X023164Y014892D01*
X023175Y014903D01*
X023182Y014917D01*
X023185Y014933D01*
X023185Y015433D01*
X023182Y015448D01*
X023175Y015462D01*
X023164Y015473D01*
X023150Y015480D01*
X023135Y015483D01*
X022635Y015483D01*
X022610Y015476D02*
X023159Y015476D01*
X023185Y015427D02*
X022585Y015427D01*
X022585Y015379D02*
X023185Y015379D01*
X023185Y015330D02*
X022585Y015330D01*
X022585Y015282D02*
X023185Y015282D01*
X023185Y015233D02*
X022585Y015233D01*
X022585Y015185D02*
X023185Y015185D01*
X023185Y015136D02*
X022585Y015136D01*
X022585Y015088D02*
X023185Y015088D01*
X023185Y015039D02*
X022585Y015039D01*
X022585Y014991D02*
X023185Y014991D01*
X023185Y014942D02*
X022585Y014942D01*
X022604Y014894D02*
X023165Y014894D01*
X023585Y014933D02*
X023585Y015433D01*
X023587Y015448D01*
X023594Y015462D01*
X023605Y015473D01*
X023619Y015480D01*
X023635Y015483D01*
X024135Y015483D01*
X024150Y015480D01*
X024164Y015473D01*
X024175Y015462D01*
X024182Y015448D01*
X024185Y015433D01*
X024185Y014933D01*
X024182Y014917D01*
X024175Y014903D01*
X024164Y014892D01*
X024150Y014885D01*
X024135Y014883D01*
X023635Y014883D01*
X023619Y014885D01*
X023605Y014892D01*
X023594Y014903D01*
X023587Y014917D01*
X023585Y014933D01*
X023585Y014942D02*
X024185Y014942D01*
X024185Y014991D02*
X023585Y014991D01*
X023585Y015039D02*
X024185Y015039D01*
X024185Y015088D02*
X023585Y015088D01*
X023585Y015136D02*
X024185Y015136D01*
X024185Y015185D02*
X023585Y015185D01*
X023585Y015233D02*
X024185Y015233D01*
X024185Y015282D02*
X023585Y015282D01*
X023585Y015330D02*
X024185Y015330D01*
X024185Y015379D02*
X023585Y015379D01*
X023585Y015427D02*
X024185Y015427D01*
X024159Y015476D02*
X023610Y015476D01*
X023635Y015883D02*
X023619Y015885D01*
X023605Y015892D01*
X023594Y015903D01*
X023587Y015917D01*
X023585Y015933D01*
X023585Y016433D01*
X023587Y016448D01*
X023594Y016462D01*
X023605Y016473D01*
X023619Y016480D01*
X023635Y016483D01*
X024135Y016483D01*
X024150Y016480D01*
X024164Y016473D01*
X024175Y016462D01*
X024182Y016448D01*
X024185Y016433D01*
X024185Y015933D01*
X024182Y015917D01*
X024175Y015903D01*
X024164Y015892D01*
X024150Y015885D01*
X024135Y015883D01*
X023635Y015883D01*
X023590Y015912D02*
X024180Y015912D01*
X024185Y015961D02*
X023585Y015961D01*
X023585Y016009D02*
X024185Y016009D01*
X024185Y016058D02*
X023585Y016058D01*
X023585Y016106D02*
X024185Y016106D01*
X024185Y016155D02*
X023585Y016155D01*
X023585Y016203D02*
X024185Y016203D01*
X024185Y016252D02*
X023585Y016252D01*
X023585Y016300D02*
X024185Y016300D01*
X024185Y016349D02*
X023585Y016349D01*
X023585Y016397D02*
X024185Y016397D01*
X024182Y016446D02*
X023587Y016446D01*
X023635Y016883D02*
X023619Y016885D01*
X023605Y016892D01*
X023594Y016903D01*
X023587Y016917D01*
X023585Y016933D01*
X023585Y017433D01*
X023587Y017448D01*
X023594Y017462D01*
X023605Y017473D01*
X023619Y017480D01*
X023635Y017483D01*
X024135Y017483D01*
X024150Y017480D01*
X024164Y017473D01*
X024175Y017462D01*
X024182Y017448D01*
X024185Y017433D01*
X024185Y016933D01*
X024182Y016917D01*
X024175Y016903D01*
X024164Y016892D01*
X024150Y016885D01*
X024135Y016883D01*
X023635Y016883D01*
X023585Y016931D02*
X024184Y016931D01*
X024185Y016979D02*
X023585Y016979D01*
X023585Y017028D02*
X024185Y017028D01*
X024185Y017076D02*
X023585Y017076D01*
X023585Y017125D02*
X024185Y017125D01*
X024185Y017173D02*
X023585Y017173D01*
X023585Y017222D02*
X024185Y017222D01*
X024185Y017270D02*
X023585Y017270D01*
X023585Y017319D02*
X024185Y017319D01*
X024185Y017367D02*
X023585Y017367D01*
X023585Y017416D02*
X024185Y017416D01*
X024173Y017464D02*
X023596Y017464D01*
X023635Y017883D02*
X023619Y017885D01*
X023605Y017892D01*
X023594Y017903D01*
X023587Y017917D01*
X023585Y017933D01*
X023585Y018433D01*
X023587Y018448D01*
X023594Y018462D01*
X023605Y018473D01*
X023619Y018480D01*
X023635Y018483D01*
X024135Y018483D01*
X024150Y018480D01*
X024164Y018473D01*
X024175Y018462D01*
X024182Y018448D01*
X024185Y018433D01*
X024185Y017933D01*
X024182Y017917D01*
X024175Y017903D01*
X024164Y017892D01*
X024150Y017885D01*
X024135Y017883D01*
X023635Y017883D01*
X023597Y017901D02*
X024172Y017901D01*
X024185Y017949D02*
X023585Y017949D01*
X023585Y017998D02*
X024185Y017998D01*
X024185Y018046D02*
X023585Y018046D01*
X023585Y018095D02*
X024185Y018095D01*
X024185Y018143D02*
X023585Y018143D01*
X023585Y018192D02*
X024185Y018192D01*
X024185Y018240D02*
X023585Y018240D01*
X023585Y018289D02*
X024185Y018289D01*
X024185Y018337D02*
X023585Y018337D01*
X023585Y018386D02*
X024185Y018386D01*
X024184Y018434D02*
X023585Y018434D01*
X026585Y018433D02*
X026585Y017933D01*
X026587Y017917D01*
X026594Y017903D01*
X026605Y017892D01*
X026619Y017885D01*
X026635Y017883D01*
X027135Y017883D01*
X027150Y017885D01*
X027164Y017892D01*
X027175Y017903D01*
X027182Y017917D01*
X027185Y017933D01*
X027185Y018433D01*
X027182Y018448D01*
X027175Y018462D01*
X027164Y018473D01*
X027150Y018480D01*
X027135Y018483D01*
X026635Y018483D01*
X026619Y018480D01*
X026605Y018473D01*
X026594Y018462D01*
X026587Y018448D01*
X026585Y018433D01*
X026585Y018434D02*
X027184Y018434D01*
X027185Y018386D02*
X026585Y018386D01*
X026585Y018337D02*
X027185Y018337D01*
X027185Y018289D02*
X026585Y018289D01*
X026585Y018240D02*
X027185Y018240D01*
X027185Y018192D02*
X026585Y018192D01*
X026585Y018143D02*
X027185Y018143D01*
X027185Y018095D02*
X026585Y018095D01*
X026585Y018046D02*
X027185Y018046D01*
X027185Y017998D02*
X026585Y017998D01*
X026585Y017949D02*
X027185Y017949D01*
X027172Y017901D02*
X026597Y017901D01*
X026635Y017483D02*
X027135Y017483D01*
X027150Y017480D01*
X027164Y017473D01*
X027175Y017462D01*
X027182Y017448D01*
X027185Y017433D01*
X027185Y016933D01*
X027182Y016917D01*
X027175Y016903D01*
X027164Y016892D01*
X027150Y016885D01*
X027135Y016883D01*
X026635Y016883D01*
X026619Y016885D01*
X026605Y016892D01*
X026594Y016903D01*
X026587Y016917D01*
X026585Y016933D01*
X026585Y017433D01*
X026587Y017448D01*
X026594Y017462D01*
X026605Y017473D01*
X026619Y017480D01*
X026635Y017483D01*
X026596Y017464D02*
X027173Y017464D01*
X027185Y017416D02*
X026585Y017416D01*
X026585Y017367D02*
X027185Y017367D01*
X027185Y017319D02*
X026585Y017319D01*
X026585Y017270D02*
X027185Y017270D01*
X027185Y017222D02*
X026585Y017222D01*
X026585Y017173D02*
X027185Y017173D01*
X027185Y017125D02*
X026585Y017125D01*
X026585Y017076D02*
X027185Y017076D01*
X027185Y017028D02*
X026585Y017028D01*
X026585Y016979D02*
X027185Y016979D01*
X027184Y016931D02*
X026585Y016931D01*
X026635Y016483D02*
X027135Y016483D01*
X027150Y016480D01*
X027164Y016473D01*
X027175Y016462D01*
X027182Y016448D01*
X027185Y016433D01*
X027185Y015933D01*
X027182Y015917D01*
X027175Y015903D01*
X027164Y015892D01*
X027150Y015885D01*
X027135Y015883D01*
X026635Y015883D01*
X026619Y015885D01*
X026605Y015892D01*
X026594Y015903D01*
X026587Y015917D01*
X026585Y015933D01*
X026585Y016433D01*
X026587Y016448D01*
X026594Y016462D01*
X026605Y016473D01*
X026619Y016480D01*
X026635Y016483D01*
X026587Y016446D02*
X027182Y016446D01*
X027185Y016397D02*
X026585Y016397D01*
X026585Y016349D02*
X027185Y016349D01*
X027185Y016300D02*
X026585Y016300D01*
X026585Y016252D02*
X027185Y016252D01*
X027185Y016203D02*
X026585Y016203D01*
X026585Y016155D02*
X027185Y016155D01*
X027185Y016106D02*
X026585Y016106D01*
X026585Y016058D02*
X027185Y016058D01*
X027185Y016009D02*
X026585Y016009D01*
X026585Y015961D02*
X027185Y015961D01*
X027180Y015912D02*
X026590Y015912D01*
X026635Y015483D02*
X027135Y015483D01*
X027150Y015480D01*
X027164Y015473D01*
X027175Y015462D01*
X027182Y015448D01*
X027185Y015433D01*
X027185Y014933D01*
X027182Y014917D01*
X027175Y014903D01*
X027164Y014892D01*
X027150Y014885D01*
X027135Y014883D01*
X026635Y014883D01*
X026619Y014885D01*
X026605Y014892D01*
X026594Y014903D01*
X026587Y014917D01*
X026585Y014933D01*
X026585Y015433D01*
X026587Y015448D01*
X026594Y015462D01*
X026605Y015473D01*
X026619Y015480D01*
X026635Y015483D01*
X026610Y015476D02*
X027159Y015476D01*
X027185Y015427D02*
X026585Y015427D01*
X026585Y015379D02*
X027185Y015379D01*
X027185Y015330D02*
X026585Y015330D01*
X026585Y015282D02*
X027185Y015282D01*
X027185Y015233D02*
X026585Y015233D01*
X026585Y015185D02*
X027185Y015185D01*
X027185Y015136D02*
X026585Y015136D01*
X026585Y015088D02*
X027185Y015088D01*
X027185Y015039D02*
X026585Y015039D01*
X026585Y014991D02*
X027185Y014991D01*
X027185Y014942D02*
X026585Y014942D01*
X026604Y014894D02*
X027165Y014894D01*
X027135Y014483D02*
X026635Y014483D01*
X026619Y014480D01*
X026605Y014473D01*
X026594Y014462D01*
X026587Y014448D01*
X026585Y014433D01*
X026585Y013933D01*
X026587Y013917D01*
X026594Y013903D01*
X026605Y013892D01*
X026619Y013885D01*
X026635Y013883D01*
X027135Y013883D01*
X027150Y013885D01*
X027164Y013892D01*
X027175Y013903D01*
X027182Y013917D01*
X027185Y013933D01*
X027185Y014433D01*
X027182Y014448D01*
X027175Y014462D01*
X027164Y014473D01*
X027150Y014480D01*
X027135Y014483D01*
X027177Y014457D02*
X026592Y014457D01*
X026585Y014409D02*
X027185Y014409D01*
X027185Y014360D02*
X026585Y014360D01*
X026585Y014312D02*
X027185Y014312D01*
X027185Y014263D02*
X026585Y014263D01*
X026585Y014215D02*
X027185Y014215D01*
X027185Y014166D02*
X026585Y014166D01*
X026585Y014118D02*
X027185Y014118D01*
X027185Y014069D02*
X026585Y014069D01*
X026585Y014021D02*
X027185Y014021D01*
X027185Y013972D02*
X026585Y013972D01*
X026586Y013924D02*
X027183Y013924D01*
X027135Y013483D02*
X026635Y013483D01*
X026619Y013480D01*
X026605Y013473D01*
X026594Y013462D01*
X026587Y013448D01*
X026585Y013433D01*
X026585Y012933D01*
X026587Y012917D01*
X026594Y012903D01*
X026605Y012892D01*
X026619Y012885D01*
X026635Y012883D01*
X027135Y012883D01*
X027150Y012885D01*
X027164Y012892D01*
X027175Y012903D01*
X027182Y012917D01*
X027185Y012933D01*
X027185Y013433D01*
X027182Y013448D01*
X027175Y013462D01*
X027164Y013473D01*
X027150Y013480D01*
X027135Y013483D01*
X027184Y013439D02*
X026585Y013439D01*
X026585Y013390D02*
X027185Y013390D01*
X027185Y013342D02*
X026585Y013342D01*
X026585Y013293D02*
X027185Y013293D01*
X027185Y013245D02*
X026585Y013245D01*
X026585Y013196D02*
X027185Y013196D01*
X027185Y013148D02*
X026585Y013148D01*
X026585Y013099D02*
X027185Y013099D01*
X027185Y013051D02*
X026585Y013051D01*
X026585Y013002D02*
X027185Y013002D01*
X027185Y012954D02*
X026585Y012954D01*
X026593Y012905D02*
X027176Y012905D01*
X027135Y012483D02*
X026635Y012483D01*
X026619Y012480D01*
X026605Y012473D01*
X026594Y012462D01*
X026587Y012448D01*
X026585Y012433D01*
X026585Y011933D01*
X026587Y011917D01*
X026594Y011903D01*
X026605Y011892D01*
X026619Y011885D01*
X026635Y011883D01*
X027135Y011883D01*
X027150Y011885D01*
X027164Y011892D01*
X027175Y011903D01*
X027182Y011917D01*
X027185Y011933D01*
X027185Y012433D01*
X027182Y012448D01*
X027175Y012462D01*
X027164Y012473D01*
X027150Y012480D01*
X027135Y012483D01*
X027168Y012469D02*
X026601Y012469D01*
X026585Y012420D02*
X027185Y012420D01*
X027185Y012372D02*
X026585Y012372D01*
X026585Y012323D02*
X027185Y012323D01*
X027185Y012275D02*
X026585Y012275D01*
X026585Y012226D02*
X027185Y012226D01*
X027185Y012178D02*
X026585Y012178D01*
X026585Y012129D02*
X027185Y012129D01*
X027185Y012081D02*
X026585Y012081D01*
X026585Y012032D02*
X027185Y012032D01*
X027185Y011984D02*
X026585Y011984D01*
X026585Y011935D02*
X027185Y011935D01*
X027153Y011887D02*
X026616Y011887D01*
X026635Y011483D02*
X027135Y011483D01*
X027150Y011480D01*
X027164Y011473D01*
X027175Y011462D01*
X027182Y011448D01*
X027185Y011433D01*
X027185Y010933D01*
X027182Y010917D01*
X027175Y010903D01*
X027164Y010892D01*
X027150Y010885D01*
X027135Y010883D01*
X026635Y010883D01*
X026619Y010885D01*
X026605Y010892D01*
X026594Y010903D01*
X026587Y010917D01*
X026585Y010933D01*
X026585Y011433D01*
X026587Y011448D01*
X026594Y011462D01*
X026605Y011473D01*
X026619Y011480D01*
X026635Y011483D01*
X026588Y011450D02*
X027181Y011450D01*
X027185Y011402D02*
X026585Y011402D01*
X026585Y011353D02*
X027185Y011353D01*
X027185Y011305D02*
X026585Y011305D01*
X026585Y011256D02*
X027185Y011256D01*
X027185Y011208D02*
X026585Y011208D01*
X026585Y011159D02*
X027185Y011159D01*
X027185Y011111D02*
X026585Y011111D01*
X026585Y011062D02*
X027185Y011062D01*
X027185Y011014D02*
X026585Y011014D01*
X026585Y010965D02*
X027185Y010965D01*
X027182Y010917D02*
X026587Y010917D01*
X026635Y010483D02*
X027135Y010483D01*
X027150Y010480D01*
X026619Y010480D01*
X026635Y010483D01*
X026619Y010480D02*
X026605Y010473D01*
X026594Y010462D01*
X026587Y010448D01*
X026585Y010433D01*
X026585Y009933D01*
X026587Y009917D01*
X026594Y009903D01*
X026605Y009892D01*
X026619Y009885D01*
X026635Y009883D01*
X027135Y009883D01*
X027150Y009885D01*
X027164Y009892D01*
X027175Y009903D01*
X027182Y009917D01*
X027185Y009933D01*
X027185Y010433D01*
X027182Y010448D01*
X027175Y010462D01*
X027164Y010473D01*
X027150Y010480D01*
X027185Y010432D02*
X026585Y010432D01*
X026585Y010383D02*
X027185Y010383D01*
X027185Y010335D02*
X026585Y010335D01*
X026585Y010286D02*
X027185Y010286D01*
X027185Y010238D02*
X026585Y010238D01*
X026585Y010189D02*
X027185Y010189D01*
X027185Y010141D02*
X026585Y010141D01*
X026585Y010092D02*
X027185Y010092D01*
X027185Y010044D02*
X026585Y010044D01*
X026585Y009995D02*
X027185Y009995D01*
X027185Y009947D02*
X026585Y009947D01*
X026599Y009898D02*
X027170Y009898D01*
X031935Y009898D02*
X032535Y009898D01*
X032535Y009850D02*
X031935Y009850D01*
X031935Y009801D02*
X032535Y009801D01*
X032535Y009783D02*
X032532Y009767D01*
X032525Y009753D01*
X032514Y009742D01*
X032500Y009735D01*
X032485Y009733D01*
X031985Y009733D01*
X031969Y009735D01*
X031955Y009742D01*
X031944Y009753D01*
X031937Y009767D01*
X031935Y009783D01*
X031935Y010283D01*
X031937Y010298D01*
X031944Y010312D01*
X031955Y010323D01*
X031969Y010330D01*
X031985Y010333D01*
X032485Y010333D01*
X032500Y010330D01*
X032514Y010323D01*
X032525Y010312D01*
X032532Y010298D01*
X032535Y010283D01*
X032535Y009783D01*
X032524Y009753D02*
X031945Y009753D01*
X031935Y009947D02*
X032535Y009947D01*
X032535Y009995D02*
X031935Y009995D01*
X031935Y010044D02*
X032535Y010044D01*
X032535Y010092D02*
X031935Y010092D01*
X031935Y010141D02*
X032535Y010141D01*
X032535Y010189D02*
X031935Y010189D01*
X031935Y010238D02*
X032535Y010238D01*
X032534Y010286D02*
X031935Y010286D01*
X031985Y010733D02*
X031969Y010735D01*
X031955Y010742D01*
X031944Y010753D01*
X031937Y010767D01*
X031935Y010783D01*
X031935Y011283D01*
X031937Y011298D01*
X031944Y011312D01*
X031955Y011323D01*
X031969Y011330D01*
X031985Y011333D01*
X032485Y011333D01*
X032500Y011330D01*
X032514Y011323D01*
X032525Y011312D01*
X032532Y011298D01*
X032535Y011283D01*
X032535Y010783D01*
X032532Y010767D01*
X032525Y010753D01*
X032514Y010742D01*
X032500Y010735D01*
X032485Y010733D01*
X031985Y010733D01*
X031936Y010771D02*
X032533Y010771D01*
X032535Y010820D02*
X031935Y010820D01*
X031935Y010868D02*
X032535Y010868D01*
X032535Y010917D02*
X031935Y010917D01*
X031935Y010965D02*
X032535Y010965D01*
X032535Y011014D02*
X031935Y011014D01*
X031935Y011062D02*
X032535Y011062D01*
X032535Y011111D02*
X031935Y011111D01*
X031935Y011159D02*
X032535Y011159D01*
X032535Y011208D02*
X031935Y011208D01*
X031935Y011256D02*
X032535Y011256D01*
X032529Y011305D02*
X031940Y011305D01*
X032935Y011283D02*
X032937Y011298D01*
X032944Y011312D01*
X032955Y011323D01*
X032969Y011330D01*
X032985Y011333D01*
X033485Y011333D01*
X033500Y011330D01*
X033514Y011323D01*
X033525Y011312D01*
X033532Y011298D01*
X033535Y011283D01*
X033535Y010783D01*
X033532Y010767D01*
X033525Y010753D01*
X033514Y010742D01*
X033500Y010735D01*
X033485Y010733D01*
X032985Y010733D01*
X032969Y010735D01*
X032955Y010742D01*
X032944Y010753D01*
X032937Y010767D01*
X032935Y010783D01*
X032935Y011283D01*
X032940Y011305D02*
X033529Y011305D01*
X033535Y011256D02*
X032935Y011256D01*
X032935Y011208D02*
X033535Y011208D01*
X033535Y011159D02*
X032935Y011159D01*
X032935Y011111D02*
X033535Y011111D01*
X033535Y011062D02*
X032935Y011062D01*
X032935Y011014D02*
X033535Y011014D01*
X033535Y010965D02*
X032935Y010965D01*
X032935Y010917D02*
X033535Y010917D01*
X033535Y010868D02*
X032935Y010868D01*
X032935Y010820D02*
X033535Y010820D01*
X033533Y010771D02*
X032936Y010771D01*
X032985Y010333D02*
X033485Y010333D01*
X033500Y010330D01*
X033514Y010323D01*
X033525Y010312D01*
X033532Y010298D01*
X033535Y010283D01*
X033535Y009783D01*
X033532Y009767D01*
X033525Y009753D01*
X033514Y009742D01*
X033500Y009735D01*
X033485Y009733D01*
X032985Y009733D01*
X032969Y009735D01*
X032955Y009742D01*
X032944Y009753D01*
X032937Y009767D01*
X032935Y009783D01*
X032935Y010283D01*
X032937Y010298D01*
X032944Y010312D01*
X032955Y010323D01*
X032969Y010330D01*
X032985Y010333D01*
X032935Y010286D02*
X033534Y010286D01*
X033535Y010238D02*
X032935Y010238D01*
X032935Y010189D02*
X033535Y010189D01*
X033535Y010141D02*
X032935Y010141D01*
X032935Y010092D02*
X033535Y010092D01*
X033535Y010044D02*
X032935Y010044D01*
X032935Y009995D02*
X033535Y009995D01*
X033535Y009947D02*
X032935Y009947D01*
X032935Y009898D02*
X033535Y009898D01*
X033535Y009850D02*
X032935Y009850D01*
X032935Y009801D02*
X033535Y009801D01*
X033524Y009753D02*
X032945Y009753D01*
X033935Y009783D02*
X033935Y010283D01*
X033937Y010298D01*
X033944Y010312D01*
X033955Y010323D01*
X033969Y010330D01*
X033985Y010333D01*
X034485Y010333D01*
X034500Y010330D01*
X034514Y010323D01*
X034525Y010312D01*
X034532Y010298D01*
X034535Y010283D01*
X034535Y009783D01*
X034532Y009767D01*
X034525Y009753D01*
X034514Y009742D01*
X034500Y009735D01*
X034485Y009733D01*
X033985Y009733D01*
X033969Y009735D01*
X033955Y009742D01*
X033944Y009753D01*
X033937Y009767D01*
X033935Y009783D01*
X033935Y009801D02*
X034535Y009801D01*
X034535Y009850D02*
X033935Y009850D01*
X033935Y009898D02*
X034535Y009898D01*
X034535Y009947D02*
X033935Y009947D01*
X033935Y009995D02*
X034535Y009995D01*
X034535Y010044D02*
X033935Y010044D01*
X033935Y010092D02*
X034535Y010092D01*
X034535Y010141D02*
X033935Y010141D01*
X033935Y010189D02*
X034535Y010189D01*
X034535Y010238D02*
X033935Y010238D01*
X033935Y010286D02*
X034534Y010286D01*
X034485Y010733D02*
X033985Y010733D01*
X033969Y010735D01*
X033955Y010742D01*
X033944Y010753D01*
X033937Y010767D01*
X033935Y010783D01*
X033935Y011283D01*
X033937Y011298D01*
X033944Y011312D01*
X033955Y011323D01*
X033969Y011330D01*
X033985Y011333D01*
X034485Y011333D01*
X034500Y011330D01*
X034514Y011323D01*
X034525Y011312D01*
X034532Y011298D01*
X034535Y011283D01*
X034535Y010783D01*
X034532Y010767D01*
X034525Y010753D01*
X034514Y010742D01*
X034500Y010735D01*
X034485Y010733D01*
X034533Y010771D02*
X033936Y010771D01*
X033935Y010820D02*
X034535Y010820D01*
X034535Y010868D02*
X033935Y010868D01*
X033935Y010917D02*
X034535Y010917D01*
X034535Y010965D02*
X033935Y010965D01*
X033935Y011014D02*
X034535Y011014D01*
X034535Y011062D02*
X033935Y011062D01*
X033935Y011111D02*
X034535Y011111D01*
X034535Y011159D02*
X033935Y011159D01*
X033935Y011208D02*
X034535Y011208D01*
X034535Y011256D02*
X033935Y011256D01*
X033940Y011305D02*
X034529Y011305D01*
X034524Y009753D02*
X033945Y009753D01*
X024182Y012917D02*
X024175Y012903D01*
X024164Y012892D01*
X024150Y012885D01*
X024135Y012883D01*
X023635Y012883D01*
X023619Y012885D01*
X023605Y012892D01*
X023594Y012903D01*
X023587Y012917D01*
X023585Y012933D01*
X023585Y013433D01*
X023587Y013448D01*
X023594Y013462D01*
X023605Y013473D01*
X023619Y013480D01*
X023635Y013483D01*
X024135Y013483D01*
X024150Y013480D01*
X024164Y013473D01*
X024175Y013462D01*
X024182Y013448D01*
X024185Y013433D01*
X024185Y012933D01*
X024182Y012917D01*
X024176Y012905D02*
X023593Y012905D01*
X023585Y012954D02*
X024185Y012954D01*
X024185Y013002D02*
X023585Y013002D01*
X023585Y013051D02*
X024185Y013051D01*
X024185Y013099D02*
X023585Y013099D01*
X023585Y013148D02*
X024185Y013148D01*
X024185Y013196D02*
X023585Y013196D01*
X023585Y013245D02*
X024185Y013245D01*
X024185Y013293D02*
X023585Y013293D01*
X023585Y013342D02*
X024185Y013342D01*
X024185Y013390D02*
X023585Y013390D01*
X023585Y013439D02*
X024184Y013439D01*
X024135Y013883D02*
X023635Y013883D01*
X023619Y013885D01*
X023605Y013892D01*
X023594Y013903D01*
X023587Y013917D01*
X023585Y013933D01*
X023585Y014433D01*
X023587Y014448D01*
X023594Y014462D01*
X023605Y014473D01*
X023619Y014480D01*
X023635Y014483D01*
X024135Y014483D01*
X024150Y014480D01*
X024164Y014473D01*
X024175Y014462D01*
X024182Y014448D01*
X024185Y014433D01*
X024185Y013933D01*
X024182Y013917D01*
X024175Y013903D01*
X024164Y013892D01*
X024150Y013885D01*
X024135Y013883D01*
X024183Y013924D02*
X023586Y013924D01*
X023585Y013972D02*
X024185Y013972D01*
X024185Y014021D02*
X023585Y014021D01*
X023585Y014069D02*
X024185Y014069D01*
X024185Y014118D02*
X023585Y014118D01*
X023585Y014166D02*
X024185Y014166D01*
X024185Y014215D02*
X023585Y014215D01*
X023585Y014263D02*
X024185Y014263D01*
X024185Y014312D02*
X023585Y014312D01*
X023585Y014360D02*
X024185Y014360D01*
X024185Y014409D02*
X023585Y014409D01*
X023592Y014457D02*
X024177Y014457D01*
X024165Y014894D02*
X023604Y014894D01*
X023175Y014462D02*
X023182Y014448D01*
X023185Y014433D01*
X023185Y013933D01*
X023182Y013917D01*
X023175Y013903D01*
X023164Y013892D01*
X023150Y013885D01*
X023135Y013883D01*
X022635Y013883D01*
X022619Y013885D01*
X022605Y013892D01*
X022594Y013903D01*
X022587Y013917D01*
X022585Y013933D01*
X022585Y014433D01*
X022587Y014448D01*
X022594Y014462D01*
X022605Y014473D01*
X022619Y014480D01*
X022635Y014483D01*
X023135Y014483D01*
X023150Y014480D01*
X023164Y014473D01*
X023175Y014462D01*
X023177Y014457D02*
X022592Y014457D01*
X022585Y014409D02*
X023185Y014409D01*
X023185Y014360D02*
X022585Y014360D01*
X022585Y014312D02*
X023185Y014312D01*
X023185Y014263D02*
X022585Y014263D01*
X022585Y014215D02*
X023185Y014215D01*
X023185Y014166D02*
X022585Y014166D01*
X022585Y014118D02*
X023185Y014118D01*
X023185Y014069D02*
X022585Y014069D01*
X022585Y014021D02*
X023185Y014021D01*
X023185Y013972D02*
X022585Y013972D01*
X022586Y013924D02*
X023183Y013924D01*
X023135Y013483D02*
X022635Y013483D01*
X022619Y013480D01*
X022605Y013473D01*
X022594Y013462D01*
X022587Y013448D01*
X022585Y013433D01*
X022585Y012933D01*
X022587Y012917D01*
X022594Y012903D01*
X022605Y012892D01*
X022619Y012885D01*
X022635Y012883D01*
X023135Y012883D01*
X023150Y012885D01*
X023164Y012892D01*
X023175Y012903D01*
X023182Y012917D01*
X023185Y012933D01*
X023185Y013433D01*
X023182Y013448D01*
X023175Y013462D01*
X023164Y013473D01*
X023150Y013480D01*
X023135Y013483D01*
X023184Y013439D02*
X022585Y013439D01*
X022585Y013390D02*
X023185Y013390D01*
X023185Y013342D02*
X022585Y013342D01*
X022585Y013293D02*
X023185Y013293D01*
X023185Y013245D02*
X022585Y013245D01*
X022585Y013196D02*
X023185Y013196D01*
X023185Y013148D02*
X022585Y013148D01*
X022585Y013099D02*
X023185Y013099D01*
X023185Y013051D02*
X022585Y013051D01*
X022585Y013002D02*
X023185Y013002D01*
X023185Y012954D02*
X022585Y012954D01*
X022593Y012905D02*
X023176Y012905D01*
X026605Y018892D02*
X026594Y018903D01*
X026587Y018917D01*
X026585Y018933D01*
X026585Y019433D01*
X026587Y019448D01*
X026594Y019462D01*
X026605Y019473D01*
X026619Y019480D01*
X026635Y019483D01*
X027135Y019483D01*
X027150Y019480D01*
X027164Y019473D01*
X027175Y019462D01*
X027182Y019448D01*
X027185Y019433D01*
X027185Y018933D01*
X027182Y018917D01*
X027175Y018903D01*
X027164Y018892D01*
X027150Y018885D01*
X027135Y018883D01*
X026635Y018883D01*
X026619Y018885D01*
X026605Y018892D01*
X026587Y018919D02*
X027182Y018919D01*
X027185Y018968D02*
X026585Y018968D01*
X026585Y019016D02*
X027185Y019016D01*
X027185Y019065D02*
X026585Y019065D01*
X026585Y019113D02*
X027185Y019113D01*
X027185Y019162D02*
X026585Y019162D01*
X026585Y019210D02*
X027185Y019210D01*
X027185Y019259D02*
X026585Y019259D01*
X026585Y019307D02*
X027185Y019307D01*
X027185Y019356D02*
X026585Y019356D01*
X026585Y019404D02*
X027185Y019404D01*
X027180Y019453D02*
X026589Y019453D01*
D21*
X028985Y016583D03*
X028985Y016133D03*
X028985Y015683D03*
X028985Y015233D03*
X028985Y014133D03*
X028985Y013283D03*
X030735Y012083D03*
X031385Y012083D03*
X032635Y012083D03*
D22*
X028635Y015683D03*
X028635Y016583D03*
D23*
X032085Y019183D03*
X032585Y019183D03*
X033085Y019183D03*
X033585Y019183D03*
X034085Y019183D03*
X033585Y019683D03*
X033085Y019683D03*
X032585Y019683D03*
X032085Y019683D03*
D24*
X034085Y019683D03*
D25*
X030334Y012997D02*
X030026Y012997D01*
X030334Y012997D02*
X030334Y012669D01*
X030026Y012669D01*
X030026Y012997D01*
X030026Y012794D02*
X030334Y012794D01*
X030334Y012919D02*
X030026Y012919D01*
X029743Y012997D02*
X029435Y012997D01*
X029743Y012997D02*
X029743Y012669D01*
X029435Y012669D01*
X029435Y012997D01*
X029435Y012794D02*
X029743Y012794D01*
X029743Y012919D02*
X029435Y012919D01*
M02*
